<?xml version="1.0" encoding="utf-8"?>
<!-- Generator: Adobe Illustrator 18.1.0, SVG Export Plug-In . SVG Version: 6.00 Build 0)  -->
<svg version="1.1" id="Capa_1" xmlns="http://www.w3.org/2000/svg" xmlns:xlink="http://www.w3.org/1999/xlink" x="0px" y="0px"
	 width="1000px" height="1000px" viewBox="0 0 1000 1000" enable-background="new 0 0 1000 1000" xml:space="preserve">
<path d="M178.7,442.6h-29.5V905c0,27.6,22.4,50,50,50h601.6c27.6,0,50-22.4,50-50V503.7h-37.4c-13.8,0-25-11.2-25-25V323.9
	c0-13.8,11.2-25,25-25h37.4V96.7c0-27.6-22.4-50-50-50H394.1c-20,0-39.2,8-53.3,22.2L170.9,240.4c-13.9,14-21.7,33-21.7,52.8v66.9
	h29.5c13.8,0,25,11.2,25,25v32.5C203.7,431.4,192.5,442.6,178.7,442.6z M789.2,215.7h-70.7V110.6h70.7V215.7z M673.6,215.7H603
	V110.6h70.5V215.7z M558,215.7h-72.5V110.6H558V215.7z M371.8,110.6h68.7v105.1h-68.7V110.6z M259.9,208.7h66.2v105.1h-66.2V208.7z"
	/>
</svg>
