<?xml version="1.0" encoding="utf-8"?>
<!-- Generator: Adobe Illustrator 18.1.0, SVG Export Plug-In . SVG Version: 6.00 Build 0)  -->
<svg version="1.1" id="Capa_1" xmlns="http://www.w3.org/2000/svg" xmlns:xlink="http://www.w3.org/1999/xlink" x="0px" y="0px"
	 width="1000px" height="1000px" viewBox="0 0 1000 1000" enable-background="new 0 0 1000 1000" xml:space="preserve">
<g>
	<path d="M927.6,238.4h-57.9c0.2,4.4-14.5,152.9-14.5,152.9h-40.7H192.2h-39c0,0-20.7-147.2-20.5-152.9H72.4c-28.2,0-51,22.8-51,51
		V732c0,28.2,22.8,51,51,51h26.2v-16.6c0-18.2,14.8-33,33-33h0c18.2,0,33,14.8,33,33V783h686v-16.6c0-18.2,14.8-33,33-33
		s33,14.8,33,33V783h11.1c28.2,0,51-22.8,51-51V289.4C978.6,261.2,955.8,238.4,927.6,238.4z M285.8,661.8
		c-53.9,0-97.6-43.7-97.6-97.6c0-53.9,43.7-97.6,97.6-97.6c53.9,0,97.6,43.7,97.6,97.6C383.4,618.1,339.7,661.8,285.8,661.8z
		 M714.2,661.8c-53.9,0-97.6-43.7-97.6-97.6c0-53.9,43.7-97.6,97.6-97.6c53.9,0,97.6,43.7,97.6,97.6
		C811.8,618.1,768.1,661.8,714.2,661.8z"/>
	<path d="M774.8,192H227.6c-26.8,0-48.1,20.9-49.9,46.4c-0.2,3.5,14.4,107.9,14.4,107.9h622.3c0,0,10.4-105.1,10.2-107.9
		C822.9,212.7,801.5,192,774.8,192z"/>
</g>
</svg>
