<?xml version="1.0" encoding="utf-8"?>
<!-- Generator: Adobe Illustrator 18.1.0, SVG Export Plug-In . SVG Version: 6.00 Build 0)  -->
<svg version="1.1" id="Capa_1" xmlns="http://www.w3.org/2000/svg" xmlns:xlink="http://www.w3.org/1999/xlink" x="0px" y="0px"
	 width="1000px" height="1000px" viewBox="0 0 1000 1000" enable-background="new 0 0 1000 1000" xml:space="preserve">
<path d="M55,500c0,245.8,199.2,445,445,445s445-199.2,445-445S745.8,55,500,55S55,254.2,55,500z M500,346.5
	c84.6,0,153.5,68.9,153.5,153.5c0,84.6-68.9,153.5-153.5,153.5S346.5,584.6,346.5,500C346.5,415.4,415.4,346.5,500,346.5z"/>
<path d="M500,608.5c59.8,0,108.5-48.7,108.5-108.5S559.8,391.5,500,391.5S391.5,440.2,391.5,500S440.2,608.5,500,608.5z M500,444.4
	c30.7,0,55.6,24.9,55.6,55.6s-24.9,55.6-55.6,55.6s-55.6-24.9-55.6-55.6S469.3,444.4,500,444.4z"/>
</svg>
