<?xml version="1.0" encoding="utf-8"?>
<!-- Generator: Adobe Illustrator 18.1.0, SVG Export Plug-In . SVG Version: 6.00 Build 0)  -->
<svg version="1.1" id="Capa_1" xmlns="http://www.w3.org/2000/svg" xmlns:xlink="http://www.w3.org/1999/xlink" x="0px" y="0px"
	 width="1000px" height="1000px" viewBox="0 0 1000 1000" enable-background="new 0 0 1000 1000" xml:space="preserve">
<g>
	<path d="M608.1,923c0,26.5,21.5,48,48,48s48-21.5,48-48v-77.5h-95.9V923z"/>
	<path d="M608.1,77v77.5H704V77c0-26.5-21.5-48-48-48S608.1,50.5,608.1,77z"/>
	<path d="M452,77v77.5H548V77c0-26.5-21.5-48-48-48S452,50.5,452,77z"/>
	<path d="M452,923c0,26.5,21.5,48,48,48s48-21.5,48-48v-77.5H452V923z"/>
	<path d="M296,77v77.5h95.9V77c0-26.5-21.5-48-48-48S296,50.5,296,77z"/>
	<path d="M296,923c0,26.5,21.5,48,48,48s48-21.5,48-48v-77.5H296V923z"/>
	<path d="M29,656c0,26.5,21.5,48,48,48h77.5v-95.9H77C50.5,608.1,29,629.5,29,656z"/>
	<path d="M923,608.1h-77.5V704H923c26.5,0,48-21.5,48-48S949.5,608.1,923,608.1z"/>
	<path d="M29,500c0,26.5,21.5,48,48,48h77.5V452H77C50.5,452,29,473.5,29,500z"/>
	<path d="M923,452h-77.5V548H923c26.5,0,48-21.5,48-48S949.5,452,923,452z"/>
	<path d="M29,344c0,26.5,21.5,48,48,48h77.5V296H77C50.5,296,29,317.5,29,344z"/>
	<path d="M923,296h-77.5v95.9H923c26.5,0,48-21.5,48-48S949.5,296,923,296z"/>
	<path d="M200.6,749.4c0,27.6,22.4,50,50,50h498.8c27.6,0,50-22.4,50-50V250.6c0-27.6-22.4-50-50-50H250.6c-27.6,0-50,22.4-50,50
		V749.4z"/>
</g>
</svg>
