<?xml version="1.0" encoding="utf-8"?>
<!-- Generator: Adobe Illustrator 18.1.0, SVG Export Plug-In . SVG Version: 6.00 Build 0)  -->
<svg version="1.1" id="Capa_1" xmlns="http://www.w3.org/2000/svg" xmlns:xlink="http://www.w3.org/1999/xlink" x="0px" y="0px"
	 width="1000px" height="1000px" viewBox="0 0 1000 1000" enable-background="new 0 0 1000 1000" xml:space="preserve">
<g>
	<path d="M560.3,522.9c50.7-50.7,118.1-78.6,189.9-78.6h0c5.3,0,10.7,0.2,15.9,0.5v-64c0-27.6-22.4-50-50-50H81.9
		c-27.6,0-50,22.4-50,50v131.9c0,27.6,22.4,50,50,50h445.5C537,548.5,548,535.2,560.3,522.9z M140,479.9
		c-18.3,0-33.1-14.8-33.1-33.1c0-18.3,14.8-33.1,33.1-33.1s33.1,14.8,33.1,33.1C173.2,465,158.3,479.9,140,479.9z"/>
	<path d="M766.1,489.8c-5.3-0.4-10.6-0.6-15.9-0.6c0,0,0,0,0,0c-59.7,0-115.8,23.3-158,65.5c-2.6,2.6-5.1,5.3-7.6,8
		c-15.7,17.3-28.4,36.6-38,57.7l-37.1-0.2c0,0-0.1,0-0.1,0c-11.5,0-18.7,12.4-13,22.4l74.3,130.3c2.9,5,8,7.6,13,7.6
		c5,0,10-2.5,12.9-7.4l75.7-129.4c5.8-10-1.3-22.5-12.9-22.6l-26-0.1c3.6-4.6,7.5-9,11.7-13.2c28.1-28.1,65.3-43.5,105-43.5
		c39.7,0,77,15.4,105,43.5c57.9,57.9,57.9,152.1,0,210c-20,20-45,33.7-72.2,39.9c-16.3,3.7-27.5,18.5-27,35.2l0.2,5.1
		c0.6,19.2,16.5,33.9,34.8,33.9c2.5,0,5-0.3,7.5-0.8c41.3-9.1,79.2-29.8,109.6-60.2c42.2-42.2,65.5-98.3,65.5-158.1
		c0-59.7-23.2-115.8-65.5-158C870.1,516.6,819.6,493.6,766.1,489.8z"/>
	<path d="M847.3,748.6c7.8-7,12.7-17.1,12.5-28.3c-0.2-7.9-2.7-15.2-7-21.1c-6.8-9.5-17.9-15.6-30.5-15.6h-36.8v-41.1
		c0-13.3-7-25-17.4-31.7c-5.6-3.6-12.2-5.7-19.3-5.8c-8.3-0.2-15.9,2.5-22.2,7c-3.5,2.5-6.6,5.7-9.1,9.2c-4.4,6.3-7,13.9-7,22V713
		c0,25.1,20.4,45.5,45.5,45.5h65.5C831.4,758.5,840.4,754.7,847.3,748.6z"/>
</g>
</svg>
