<?xml version="1.0" encoding="utf-8"?>
<!-- Generator: Adobe Illustrator 18.1.0, SVG Export Plug-In . SVG Version: 6.00 Build 0)  -->
<svg version="1.1" id="Capa_1" xmlns="http://www.w3.org/2000/svg" xmlns:xlink="http://www.w3.org/1999/xlink" x="0px" y="0px"
	 width="1000px" height="1000px" viewBox="0 0 1000 1000" enable-background="new 0 0 1000 1000" xml:space="preserve">
<g>
	<path d="M500,916c210.4,0,381-48.4,381-108V671.8c-2.5,1.9-5,3.7-7.7,5.5c-22.7,15.2-54,28.5-93,39.6
		C704.9,738.2,605.4,750,500,750s-204.9-11.8-280.3-33.1c-39-11.1-70.3-24.4-93-39.6c-2.7-1.8-5.2-3.6-7.7-5.5V808
		C119,867.6,289.6,916,500,916z"/>
	<path d="M500,710c203.3,0,369.4-45.1,380.4-102c0.4-2,0.6-4,0.6-6V464.8c-2.5,1.9-5,3.7-7.7,5.5c-19.1,12.8-44.4,24.3-75.3,34.2
		c-5.7,1.8-11.6,3.6-17.7,5.4c-6.1,1.7-12.3,3.4-18.7,5c-14.8,3.7-30.3,7-46.5,10C651.4,536.7,577.3,543,500,543
		s-151.4-6.3-215.2-18.1c-16.2-3-31.7-6.4-46.5-10c-6.4-1.6-12.6-3.2-18.7-5c-6.1-1.7-12-3.5-17.7-5.4
		c-30.9-9.9-56.2-21.4-75.3-34.2c-2.7-1.8-5.2-3.6-7.7-5.5V602c0,2,0.2,4,0.6,6C130.6,664.9,296.7,710,500,710z"/>
	<path d="M284.8,484.1c20.7,4,42.8,7.5,66.1,10.3c45.8,5.5,96.2,8.6,149.1,8.6s103.3-3.1,149.1-8.6c23.3-2.8,45.4-6.3,66.1-10.3
		c94.2-18.3,158-48.3,165.2-82.6c0.5-2.2,0.7-4.3,0.7-6.5V201c0-59.6-170.6-108-381-108s-381,48.4-381,108v194
		c0,2.2,0.2,4.3,0.7,6.5C126.9,435.8,190.6,465.8,284.8,484.1z M541,401.3c0,22.6-18.4,41-41,41c-22.6,0-41-18.4-41-41
		c0-22.6,18.4-41,41-41C522.6,360.3,541,378.7,541,401.3z"/>
</g>
</svg>
