<?xml version="1.0" encoding="utf-8"?>
<!-- Generator: Adobe Illustrator 18.1.0, SVG Export Plug-In . SVG Version: 6.00 Build 0)  -->
<svg version="1.1" id="Capa_1" xmlns="http://www.w3.org/2000/svg" xmlns:xlink="http://www.w3.org/1999/xlink" x="0px" y="0px"
	 width="1000px" height="1000px" viewBox="0 0 1000 1000" enable-background="new 0 0 1000 1000" xml:space="preserve">
<path d="M55,895c0,27.6,22.4,50,50,50h790c27.6,0,50-22.4,50-50V105c0-27.6-22.4-50-50-50H105c-27.6,0-50,22.4-50,50V895z
	 M540.6,835.4c0,22.4-18.2,40.6-40.6,40.6h0c-22.4,0-40.6-18.2-40.6-40.6V702.5c0-22.4,18.2-40.6,40.6-40.6h0
	c22.4,0,40.6,18.2,40.6,40.6V835.4z M500,410.1c49.6,0,89.9,40.2,89.9,89.9s-40.2,89.9-89.9,89.9s-89.9-40.2-89.9-89.9
	S450.4,410.1,500,410.1z M126.5,179.9c0-27.6,22.4-50,50-50H319c27.6,0,50,22.4,50,50v142.5c0,27.6-22.4,50-50,50H176.5
	c-27.6,0-50-22.4-50-50V179.9z"/>
</svg>
