<?xml version="1.0" encoding="utf-8"?>
<!-- Generator: Adobe Illustrator 18.1.0, SVG Export Plug-In . SVG Version: 6.00 Build 0)  -->
<svg version="1.1" id="Capa_1" xmlns="http://www.w3.org/2000/svg" xmlns:xlink="http://www.w3.org/1999/xlink" x="0px" y="0px"
	 width="1000px" height="1000px" viewBox="0 0 1000 1000" enable-background="new 0 0 1000 1000" xml:space="preserve">
<path d="M804.3,225c-0.2,0-0.3,0-0.5,0C796.1,103.3,694.9,7,571.3,7c-114.1,0-209,82-229.1,190.2c-2.6-0.1-5.3-0.2-7.9-0.2
	c-85,0-156.7,56.3-180.1,133.6c-3.6-0.3-7.3-0.5-11-0.5c-67.1,0-121.6,54.4-121.6,121.6c0,67.1,54.4,121.6,121.6,121.6
	c1,0,216.1,0,216.1,0v-82.8c0-52.4,42.6-95,95-95h217c52.4,0,95,42.6,95,95v82.8h38c96.2,0,174.1-78,174.1-174.1
	S900.5,225,804.3,225z"/>
<path d="M721.3,490.5c0-27.6-22.4-50-50-50h-217c-27.6,0-50,22.4-50,50v141.2h-65.6c-43,0-65.9,50.7-37.6,83L525.2,970
	c10,11.3,23.8,17,37.6,17c13.8,0,27.6-5.7,37.6-17l224.1-255.4c28.4-32.3,5.4-83-37.6-83h-65.6V490.5z"/>
</svg>
