<?xml version="1.0" encoding="utf-8"?>
<!-- Generator: Adobe Illustrator 18.1.0, SVG Export Plug-In . SVG Version: 6.00 Build 0)  -->
<svg version="1.1" id="Capa_1" xmlns="http://www.w3.org/2000/svg" xmlns:xlink="http://www.w3.org/1999/xlink" x="0px" y="0px"
	 width="1000px" height="1000px" viewBox="0 0 1000 1000" enable-background="new 0 0 1000 1000" xml:space="preserve">
<path d="M922.4,636.5H612.9l-41.5,47.2c-18,20.5-44.1,32.3-71.4,32.3c-27.3,0-53.4-11.8-71.4-32.3l-41.5-47.2H77.6
	c-27.6,0-50,22.4-50,50V885c0,27.6,22.4,50,50,50h844.7c27.6,0,50-22.4,50-50V686.5C972.4,658.9,950,636.5,922.4,636.5z
	 M166.8,828.4c-23.5,0-42.6-19.1-42.6-42.6s19.1-42.6,42.6-42.6c23.5,0,42.6,19.1,42.6,42.6S190.3,828.4,166.8,828.4z"/>
<path d="M447,636.5l15.4,17.6c10,11.3,23.8,17,37.6,17s27.6-5.7,37.6-17l15.4-17.6l208.7-237.8c28.4-32.3,5.4-83-37.6-83h-65.6
	V174.6c0-27.6-22.4-50-50-50h-217c-27.6,0-50,22.4-50,50v141.2h-65.6c-43,0-65.9,50.7-37.6,83L447,636.5z"/>
</svg>
