<?xml version="1.0" encoding="utf-8"?>
<!-- Generator: Adobe Illustrator 18.1.0, SVG Export Plug-In . SVG Version: 6.00 Build 0)  -->
<svg version="1.1" id="Capa_1" xmlns="http://www.w3.org/2000/svg" xmlns:xlink="http://www.w3.org/1999/xlink" x="0px" y="0px"
	 width="1000px" height="1000px" viewBox="0 0 1000 1000" enable-background="new 0 0 1000 1000" xml:space="preserve">
<g>
	<path d="M771.4,37H228.6c-29.4,0-53.2,23.8-53.2,53.2v819.6c0,29.4,23.8,53.2,53.2,53.2h542.8c29.4,0,53.2-23.8,53.2-53.2V90.2
		C824.6,60.8,800.8,37,771.4,37z M252.9,92.1c14,0,25.4,11.4,25.4,25.4c0,14-11.4,25.4-25.4,25.4c-14,0-25.4-11.4-25.4-25.4
		C227.5,103.5,238.9,92.1,252.9,92.1z M252.9,912.5c-14,0-25.4-11.4-25.4-25.4s11.4-25.4,25.4-25.4c14,0,25.4,11.4,25.4,25.4
		S266.9,912.5,252.9,912.5z M388.1,574.9c0,9-7.3,16.3-16.3,16.3h-3.7c-9,0-16.3-7.3-16.3-16.3v-62.1h-71v62.1
		c0,9-7.3,16.3-16.3,16.3H261c-9,0-16.3-7.3-16.3-16.3V428.1c0-9,7.3-16.3,16.3-16.3h3.7c9,0,16.3,7.3,16.3,16.3v54.3h71v-54.3
		c0-9,7.3-16.3,16.3-16.3h3.7c9,0,16.3,7.3,16.3,16.3V574.9z M570.3,541.3c-4.5,13-10.9,23.6-19.2,31.7
		c-6.3,6.1-14.8,10.9-25.4,14.3c-8,2.5-18.7,3.8-32.1,3.8h-51.9c-9,0-16.3-7.3-16.3-16.3V428.1c0-9,7.3-16.3,16.3-16.3h49.9
		c14.9,0,26.3,1.1,34.1,3.4c10.5,3.1,19.5,8.6,27,16.5c7.5,7.9,13.2,17.6,17.1,29.1c3.9,11.5,5.9,25.6,5.9,42.4
		C575.8,517.9,574,530.7,570.3,541.3z M674.5,591.1h-51.9c-9,0-16.3-7.3-16.3-16.3V428.1c0-9,7.3-16.3,16.3-16.3h49.9
		c14.9,0,26.3,1.1,34.1,3.4c10.5,3.1,19.5,8.6,27,16.5c7.5,7.9,13.2,17.6,17.1,29.1c3.9,11.5,5.9,25.6,5.9,42.4
		c0,14.8-1.8,27.5-5.5,38.2c-4.5,13-10.9,23.6-19.2,31.7c-6.3,6.1-14.8,10.9-25.4,14.3C698.6,589.9,687.9,591.1,674.5,591.1z
		 M739.5,912.5c-14,0-25.4-11.4-25.4-25.4s11.4-25.4,25.4-25.4c14,0,25.4,11.4,25.4,25.4S753.6,912.5,739.5,912.5z M739.5,142.9
		c-14,0-25.4-11.4-25.4-25.4c0-14,11.4-25.4,25.4-25.4c14,0,25.4,11.4,25.4,25.4C764.9,131.5,753.6,142.9,739.5,142.9z"/>
	<path d="M705.4,452.3c-4.4-4.2-10-7-16.8-8.4c-5.1-1.1-15-1.7-29.7-1.7h-16.3v118.8h27c10.1,0,17.4-0.6,21.9-1.7
		c5.9-1.5,10.7-4,14.6-7.5c3.9-3.5,7-9.3,9.5-17.3c2.4-8,3.7-19,3.7-32.8c0-13.9-1.2-24.5-3.7-31.9
		C713.2,462.2,709.8,456.4,705.4,452.3z"/>
	<path d="M524.4,452.3c-4.4-4.2-10-7-16.8-8.4c-5.1-1.1-15-1.7-29.7-1.7h-16.3v118.8h27c10.1,0,17.4-0.6,21.9-1.7
		c5.9-1.5,10.7-4,14.6-7.5c3.9-3.5,7-9.3,9.5-17.3c2.4-8,3.7-19,3.7-32.8c0-13.9-1.2-24.5-3.7-31.9
		C532.3,462.2,528.8,456.4,524.4,452.3z"/>
</g>
</svg>
