<?xml version="1.0" encoding="utf-8"?>
<!-- Generator: Adobe Illustrator 18.1.0, SVG Export Plug-In . SVG Version: 6.00 Build 0)  -->
<svg version="1.1" id="Capa_1" xmlns="http://www.w3.org/2000/svg" xmlns:xlink="http://www.w3.org/1999/xlink" x="0px" y="0px"
	 width="1000px" height="1000px" viewBox="0 0 1000 1000" enable-background="new 0 0 1000 1000" xml:space="preserve">
<g>
	<path d="M843.8,906.9V87c0-27.6-22.4-50-50-50H222.7c-27.6,0-50,22.4-50,50v819.9c0,27.6,22.4,50,50,50h571.2
		C821.5,956.9,843.8,934.5,843.8,906.9z M508.2,870.1c-108.1,0-195.8-87.7-195.8-195.8c0-108.1,87.7-195.8,195.8-195.8
		c108.1,0,195.8,87.7,195.8,195.8C704,782.5,616.4,870.1,508.2,870.1z M739.9,382H276.6V134.3h463.3V382z"/>
	<circle cx="508.2" cy="676.2" r="64.4"/>
</g>
</svg>
