<?xml version="1.0" encoding="utf-8"?>
<!-- Generator: Adobe Illustrator 18.1.0, SVG Export Plug-In . SVG Version: 6.00 Build 0)  -->
<svg version="1.1" id="Capa_1" xmlns="http://www.w3.org/2000/svg" xmlns:xlink="http://www.w3.org/1999/xlink" x="0px" y="0px"
	 width="1000px" height="1000px" viewBox="0 0 1000 1000" enable-background="new 0 0 1000 1000" xml:space="preserve">
<path d="M222.9,113.9V880c0,27.6,22.4,50,50,50h454.2c27.6,0,50-22.4,50-50V113.9c0-27.6-22.4-50-50-50H272.9
	C245.3,63.9,222.9,86.3,222.9,113.9z M500,898.1c-21.2,0-38.4-17.2-38.4-38.4c0-21.2,17.2-38.4,38.4-38.4
	c21.2,0,38.4,17.2,38.4,38.4C538.4,880.9,521.2,898.1,500,898.1z M443,118h114c8.8,0,16,7.2,16,16c0,8.8-7.2,16-16,16H443
	c-8.8,0-16-7.2-16-16C427,125.2,434.2,118,443,118z M321.9,203.7h356.2v586.5H321.9V203.7z"/>
</svg>
