<?xml version="1.0" encoding="utf-8"?>
<!-- Generator: Adobe Illustrator 18.1.0, SVG Export Plug-In . SVG Version: 6.00 Build 0)  -->
<svg version="1.1" id="Capa_1" xmlns="http://www.w3.org/2000/svg" xmlns:xlink="http://www.w3.org/1999/xlink" x="0px" y="0px"
	 width="1000px" height="1000px" viewBox="0 0 1000 1000" enable-background="new 0 0 1000 1000" xml:space="preserve">
<path d="M799.4,879.5V262.4c0-19.9-7.9-39-22-53L647.7,79.6c-14.1-14.1-33.1-22-53-22H250.6c-27.6,0-50,22.4-50,50v771.8
	c0,27.6,22.4,50,50,50h498.8C777,929.5,799.4,907.1,799.4,879.5z M678.8,411.7c27.6,0,50,22.4,50,50V524H614.5V411.7H678.8z
	 M728.8,708H271.2V574h457.6V708z M565.5,524h-131V411.7h131V524z M271.2,461.7c0-27.6,22.4-50,50-50h64.3V524H271.2V461.7z
	 M271.2,811.8V758h116.3v103.8h-66.3C293.6,861.8,271.2,839.4,271.2,811.8z M432.5,758h135v103.8h-135V758z M728.8,811.8
	c0,27.6-22.4,50-50,50h-66.3V758h116.3V811.8z"/>
</svg>
