<?xml version="1.0" encoding="utf-8"?>
<!-- Generator: Adobe Illustrator 18.1.0, SVG Export Plug-In . SVG Version: 6.00 Build 0)  -->
<svg version="1.1" id="Capa_1" xmlns="http://www.w3.org/2000/svg" xmlns:xlink="http://www.w3.org/1999/xlink" x="0px" y="0px"
	 width="1000px" height="1000px" viewBox="0 0 1000 1000" enable-background="new 0 0 1000 1000" xml:space="preserve">
<path d="M736.1,179c-14.1-14.1-33.2-22-53.1-22H251.2c-27.6,0-50,22.4-50,50v586c0,27.6,22.4,50,50,50H750c27.6,0,50-22.4,50-50V274
	c0-19.9-7.9-38.9-21.9-53L736.1,179z M729.4,309.2v36.4H612v-86.4h67.5C707,259.2,729.4,281.6,729.4,309.2z M729.4,492H612v-97.4
	h117.5V492z M729.4,638.5H612V541h117.5V638.5z M271.8,539H394v101.5H271.8V539z M271.8,392.5H394V494H271.8V392.5z M271.8,309.2
	c0-27.6,22.4-50,50-50H394v88.4H271.8V309.2z M271.8,725.2v-39.8H394v89.8h-72.1C294.2,775.2,271.8,752.8,271.8,725.2z M444,259.2
	h118v516H444V259.2z M729.4,725.2c0,27.6-22.4,50-50,50H612v-87.7h117.5V725.2z"/>
</svg>
