<?xml version="1.0" encoding="utf-8"?>
<!-- Generator: Adobe Illustrator 18.1.0, SVG Export Plug-In . SVG Version: 6.00 Build 0)  -->
<svg version="1.1" id="Capa_1" xmlns="http://www.w3.org/2000/svg" xmlns:xlink="http://www.w3.org/1999/xlink" x="0px" y="0px"
	 width="1000px" height="1000px" viewBox="0 0 1000 1000" enable-background="new 0 0 1000 1000" xml:space="preserve">
<g>
	<path d="M683.2,558.2c5.9-1.5,10.8-4,14.7-7.5c3.9-3.5,7.1-9.4,9.6-17.5c2.5-8.1,3.7-19.2,3.7-33.1c0-14-1.2-24.7-3.7-32.2
		c-2.5-7.5-5.9-13.3-10.4-17.5c-4.4-4.2-10.1-7-16.9-8.5c-5.1-1.2-15.1-1.7-30-1.7h-16.4v119.8h27.3
		C671.4,559.9,678.7,559.3,683.2,558.2z"/>
	<path d="M175.4,90.2v819.6c0,29.4,23.8,53.2,53.2,53.2h542.8c29.4,0,53.2-23.8,53.2-53.2V90.2c0-29.4-23.8-53.2-53.2-53.2H228.6
		C199.2,37,175.4,60.8,175.4,90.2z M739.5,912.5c-14,0-25.4-11.4-25.4-25.4s11.4-25.4,25.4-25.4c14,0,25.4,11.4,25.4,25.4
		S753.6,912.5,739.5,912.5z M739.5,92.1c14,0,25.4,11.4,25.4,25.4c0,14-11.4,25.4-25.4,25.4c-14,0-25.4-11.4-25.4-25.4
		C714.2,103.5,725.5,92.1,739.5,92.1z M597.3,427.5c0-9.9,8.1-18,18-18h48.8c15.1,0,26.5,1.2,34.4,3.5c10.6,3.1,19.7,8.7,27.3,16.7
		c7.6,8,13.3,17.8,17.3,29.3c3.9,11.6,5.9,25.8,5.9,42.8c0,14.9-1.9,27.7-5.6,38.5c-4.5,13.2-11,23.8-19.4,32
		c-6.3,6.2-14.9,11-25.7,14.4c-8.1,2.6-18.8,3.8-32.3,3.8h-50.8c-9.9,0-18-8.1-18-18V427.5z M526.4,526.9c-2.5-3-6.9-5.6-13.1-7.8
		c-4.3-1.5-14-4.1-29.3-7.9c-19.6-4.9-33.3-10.8-41.2-17.9c-11.1-10-16.7-22.1-16.7-36.4c0-9.2,2.6-17.8,7.8-25.9
		c5.2-8,12.8-14.1,22.6-18.3c9.8-4.2,21.7-6.3,35.6-6.3c22.7,0,39.8,5,51.3,14.9c4.9,4.2,8.8,9.1,11.7,14.5
		c6.2,11.6-2,25.7-15.2,26.3l-1.1,0c-7.2,0.3-14.1-3.7-17-10.3c-1.8-3.9-4-6.9-6.9-9.2c-5.1-4.1-12.9-6.1-23.1-6.1
		c-10.6,0-18.9,2.2-24.9,6.5c-3.9,2.8-5.8,6.5-5.8,11.2c0,4.3,1.8,7.9,5.4,11c4.6,3.9,15.8,7.9,33.6,12.1c17.8,4.2,30.9,8.5,39.4,13
		c8.5,4.5,15.2,10.6,20,18.4c4.8,7.8,7.2,17.4,7.2,28.8c0,10.4-2.9,20.1-8.6,29.1c-5.8,9.1-13.9,15.8-24.4,20.2
		c-10.5,4.4-23.7,6.6-39.4,6.6c-22.9,0-40.4-5.3-52.7-15.9c-7.3-6.3-12.8-14.2-16.6-23.9c-4.4-11.1,3.2-23.2,15.1-24.4l0,0
		c7.9-0.8,15.6,3.6,18.6,11c2.4,5.8,5.5,10.4,9.5,13.8c6.5,5.6,15.4,8.4,26.5,8.4c11.8,0,20.6-2.5,26.6-7.5c6-5,8.9-10.8,8.9-17.5
		C530.2,533.6,528.9,529.9,526.4,526.9z M323.6,406.4c22.7,0,39.8,5,51.3,14.9c4.9,4.2,8.8,9.1,11.7,14.5c6.2,11.6-2,25.7-15.2,26.3
		l-1.1,0c-7.2,0.3-14.1-3.7-17-10.3c-1.8-3.9-4-6.9-6.9-9.2c-5.1-4.1-12.9-6.1-23.1-6.1c-10.6,0-18.9,2.2-24.9,6.5
		c-3.9,2.8-5.8,6.5-5.8,11.2c0,4.3,1.8,7.9,5.4,11c4.6,3.9,15.8,7.9,33.6,12.1c17.8,4.2,30.9,8.5,39.4,13c8.5,4.5,15.2,10.6,20,18.4
		c4.8,7.8,7.2,17.4,7.2,28.8c0,10.4-2.9,20.1-8.6,29.1c-5.8,9.1-13.9,15.8-24.4,20.2c-10.5,4.4-23.7,6.6-39.4,6.6
		c-22.9,0-40.4-5.3-52.7-15.9c-7.3-6.3-12.8-14.2-16.6-23.9c-4.4-11.1,3.2-23.2,15.1-24.4l0,0c7.9-0.8,15.6,3.6,18.6,11
		c2.4,5.8,5.5,10.4,9.5,13.8c6.5,5.6,15.4,8.4,26.5,8.4c11.8,0,20.6-2.5,26.6-7.5c6-5,8.9-10.8,8.9-17.5c0-4.3-1.3-7.9-3.8-10.9
		c-2.5-3-6.9-5.6-13.1-7.8c-4.3-1.5-14-4.1-29.3-7.9c-19.6-4.9-33.3-10.8-41.2-17.9c-11.1-10-16.7-22.1-16.7-36.4
		c0-9.2,2.6-17.8,7.8-25.9c5.2-8,12.8-14.1,22.6-18.3C297.8,408.5,309.7,406.4,323.6,406.4z M252.9,92.1c14,0,25.4,11.4,25.4,25.4
		c0,14-11.4,25.4-25.4,25.4c-14,0-25.4-11.4-25.4-25.4C227.5,103.5,238.9,92.1,252.9,92.1z M252.9,861.7c14,0,25.4,11.4,25.4,25.4
		s-11.4,25.4-25.4,25.4c-14,0-25.4-11.4-25.4-25.4S238.9,861.7,252.9,861.7z"/>
</g>
</svg>
