<?xml version="1.0" encoding="utf-8"?>
<!-- Generator: Adobe Illustrator 18.1.0, SVG Export Plug-In . SVG Version: 6.00 Build 0)  -->
<svg version="1.1" id="Capa_1" xmlns="http://www.w3.org/2000/svg" xmlns:xlink="http://www.w3.org/1999/xlink" x="0px" y="0px"
	 width="1000px" height="1000px" viewBox="0 0 1000 1000" enable-background="new 0 0 1000 1000" xml:space="preserve">
<g>
	<path d="M106.9,972.5h786.2c27.6,0,50-22.4,50-50v-180c0-27.6-22.4-50-50-50H106.9c-27.6,0-50,22.4-50,50v180
		C56.9,950.1,79.3,972.5,106.9,972.5z M187.4,792.6c22.1,0,40,17.9,40,40s-17.9,40-40,40s-40-17.9-40-40S165.3,792.6,187.4,792.6z"
		/>
	<path d="M106.9,637.6h786.2c27.6,0,50-22.4,50-50v-180c0-27.6-22.4-50-50-50H106.9c-27.6,0-50,22.4-50,50v180
		C56.9,615.2,79.3,637.6,106.9,637.6z M187.4,457.7c22.1,0,40,17.9,40,40c0,22.1-17.9,40-40,40s-40-17.9-40-40
		C147.4,475.6,165.3,457.7,187.4,457.7z"/>
	<path d="M106.9,302.7h786.2c27.6,0,50-22.4,50-50v-180c0-27.6-22.4-50-50-50H106.9c-27.6,0-50,22.4-50,50v180
		C56.9,280.3,79.3,302.7,106.9,302.7z M187.4,122.8c22.1,0,40,17.9,40,40c0,22.1-17.9,40-40,40s-40-17.9-40-40
		C147.4,140.7,165.3,122.8,187.4,122.8z"/>
</g>
</svg>
