<?xml version="1.0" encoding="utf-8"?>
<!-- Generator: Adobe Illustrator 18.1.0, SVG Export Plug-In . SVG Version: 6.00 Build 0)  -->
<svg version="1.1" id="Capa_1" xmlns="http://www.w3.org/2000/svg" xmlns:xlink="http://www.w3.org/1999/xlink" x="0px" y="0px"
	 width="1000px" height="1000px" viewBox="0 0 1000 1000" enable-background="new 0 0 1000 1000" xml:space="preserve">
<g>
	<path d="M52.3,851c0,27.6,22.4,50,50,50h795.3c27.6,0,50-22.4,50-50V316.1H52.3V851z M133.5,396h75v125.5h-75V396z"/>
	<path d="M897.7,111H102.3c-27.6,0-50,22.4-50,50v110.1h895.3V161C947.7,133.4,925.3,111,897.7,111z M340,164c16.6,0,30,13.4,30,30
		c0,16.6-13.4,30-30,30c-16.6,0-30-13.4-30-30C310,177.4,323.5,164,340,164z M240.5,164c16.6,0,30,13.4,30,30c0,16.6-13.4,30-30,30
		s-30-13.4-30-30C210.5,177.4,224,164,240.5,164z M141,164c16.6,0,30,13.4,30,30c0,16.6-13.4,30-30,30c-16.6,0-30-13.4-30-30
		C111,177.4,124.5,164,141,164z"/>
</g>
</svg>
