<?xml version="1.0" encoding="utf-8"?>
<!-- Generator: Adobe Illustrator 18.1.0, SVG Export Plug-In . SVG Version: 6.00 Build 0)  -->
<svg version="1.1" id="Capa_1" xmlns="http://www.w3.org/2000/svg" xmlns:xlink="http://www.w3.org/1999/xlink" x="0px" y="0px"
	 width="1000px" height="1000px" viewBox="0 0 1000 1000" enable-background="new 0 0 1000 1000" xml:space="preserve">
<g>
	<rect x="458.7" y="675.6" width="82.6" height="77.9"/>
	<rect x="331.2" y="675.6" width="82.6" height="77.9"/>
	<rect x="79.7" y="675.6" width="79" height="77.9"/>
	<rect x="203.6" y="675.6" width="82.6" height="77.9"/>
	<rect x="841.4" y="675.6" width="79" height="77.9"/>
	<rect x="586.3" y="675.6" width="82.6" height="77.9"/>
	<rect x="713.8" y="675.6" width="82.6" height="77.9"/>
	<path d="M923,363.9H77c-27.6,0-50,22.4-50,50v34.3c29.1,0,52.7,23.6,52.7,52.7c0,29.1-23.6,52.7-52.7,52.7v84.3h946v-84.3
		c-29.1,0-52.7-23.6-52.7-52.7c0-29.1,23.6-52.7,52.7-52.7v-34.3C973,386.2,950.6,363.9,923,363.9z M280.1,519.8
		c0,27.6-22.4,50-50,50h-38c-27.6,0-50-22.4-50-50v-38c0-27.6,22.4-50,50-50h38c27.6,0,50,22.4,50,50V519.8z M569,519.8
		c0,27.6-22.4,50-50,50h-38c-27.6,0-50-22.4-50-50v-38c0-27.6,22.4-50,50-50h38c27.6,0,50,22.4,50,50V519.8z M856.9,519.8
		c0,27.6-22.4,50-50,50h-38c-27.6,0-50-22.4-50-50v-38c0-27.6,22.4-50,50-50h38c27.6,0,50,22.4,50,50V519.8z"/>
</g>
</svg>
