<?xml version="1.0" encoding="utf-8"?>
<!-- Generator: Adobe Illustrator 18.1.0, SVG Export Plug-In . SVG Version: 6.00 Build 0)  -->
<svg version="1.1" id="Capa_1" xmlns="http://www.w3.org/2000/svg" xmlns:xlink="http://www.w3.org/1999/xlink" x="0px" y="0px"
	 width="1000px" height="1000px" viewBox="0 0 1000 1000" enable-background="new 0 0 1000 1000" xml:space="preserve">
<path d="M804.3,238c-0.2,0-0.3,0-0.5,0C796.1,116.3,694.9,20,571.3,20c-114.1,0-209,82-229.1,190.2c-2.6-0.1-5.3-0.2-7.9-0.2
	c-85,0-156.7,56.3-180.1,133.6c-3.6-0.3-7.3-0.5-11-0.5c-67.1,0-121.6,54.4-121.6,121.6c0,67.1,54.4,121.6,121.6,121.6
	c1,0,184.4,0,184.4,0l163.8-186.6c18-20.5,44.1-32.3,71.4-32.3c27.3,0,53.4,11.8,71.4,32.3L798,586.3h6.3
	c96.2,0,174.1-78,174.1-174.1S900.5,238,804.3,238z"/>
<path d="M454.3,958.9h217c27.6,0,50-22.4,50-50V767.7h65.6c43,0,65.9-50.7,37.6-83L600.4,429.3c-10-11.3-23.8-17-37.6-17
	c-13.8,0-27.6,5.7-37.6,17L301.1,684.7c-28.4,32.3-5.4,83,37.6,83h65.6v141.2C404.3,936.5,426.6,958.9,454.3,958.9z"/>
</svg>
