<?xml version="1.0" encoding="utf-8"?>
<!-- Generator: Adobe Illustrator 18.1.0, SVG Export Plug-In . SVG Version: 6.00 Build 0)  -->
<svg version="1.1" id="Capa_1" xmlns="http://www.w3.org/2000/svg" xmlns:xlink="http://www.w3.org/1999/xlink" x="0px" y="0px"
	 width="1000px" height="1000px" viewBox="0 0 1000 1000" enable-background="new 0 0 1000 1000" xml:space="preserve">
<path d="M398.2,430.8c0.4-50.8-41.5-93.8-92.2-94.8c-52.9-1.1-96.1,41.5-96.1,94.1c0,41.8,27.4,76.8,65,89.1V555
	c0,22,10.3,42.7,27.9,55.9L484,747.4c-46.5,13.4-80.5,56.3-80.5,107.1c0,61.6,49.9,111.5,111.5,111.5s111.5-49.9,111.5-111.5
	c0-51.3-34.7-94.5-81.9-107.5v-52.6L711,578.8c18.8-13.1,30.1-34.6,30.1-57.5v-49.5h19c27.6,0,50-22.4,50-50v-81.2
	c0-27.6-22.4-50-50-50h-96.2c-27.6,0-50,22.4-50,50v81.2c0,27.6,22.4,50,50,50h19v55.7l-138.3,96V257.2h48.9
	c35,0,56.6-38.3,38.5-68.3L557.8,66c-19.3-32-65.6-32.2-85.3-0.5l-76.2,123c-18.6,30,3,68.7,38.3,68.7h51.9v419.1L333.2,560.9v-41.7
	C370.6,507,397.9,472.2,398.2,430.8z"/>
</svg>
