<?xml version="1.0" encoding="utf-8"?>
<!-- Generator: Adobe Illustrator 18.1.0, SVG Export Plug-In . SVG Version: 6.00 Build 0)  -->
<svg version="1.1" id="Capa_1" xmlns="http://www.w3.org/2000/svg" xmlns:xlink="http://www.w3.org/1999/xlink" x="0px" y="0px"
	 width="1000px" height="1000px" viewBox="0 0 1000 1000" enable-background="new 0 0 1000 1000" xml:space="preserve">
<g>
	<rect x="452.5" y="792" width="95" height="193"/>
	<path d="M685,198.8c0-27.6-22.4-50-50-50H365c-27.6,0-50,22.4-50,50v170.1h370V198.8z M459.2,277.7h-80.3v-65.3h80.3V277.7z
		 M621.2,277.7h-80.3v-65.3h80.3V277.7z"/>
	<path d="M237.9,413.9V525c0,12.8,4.9,25.2,13.8,34.5L379,693v54h242v-54l127.3-133.5c8.9-9.3,13.8-21.7,13.8-34.5V413.9H237.9z"/>
</g>
</svg>
