<?xml version="1.0" encoding="utf-8"?>
<!-- Generator: Adobe Illustrator 18.1.0, SVG Export Plug-In . SVG Version: 6.00 Build 0)  -->
<svg version="1.1" id="Capa_1" xmlns="http://www.w3.org/2000/svg" xmlns:xlink="http://www.w3.org/1999/xlink" x="0px" y="0px"
	 width="1000px" height="1000px" viewBox="0 0 1000 1000" enable-background="new 0 0 1000 1000" xml:space="preserve">
<g>
	<path d="M625.1,78c0-27.6-22.4-50-50-50H424.9c-27.6,0-50,22.4-50,50v106.1h250.2V78z M471.1,116.3h-44.6V80h44.6V116.3z
		 M572.3,116.3h-44.6V80h44.6V116.3z"/>
	<path d="M359.4,968h281.1c27.6,0,50-22.4,50-50V279.1c0-27.6-22.4-50-50-50H359.4c-27.6,0-50,22.4-50,50V918
		C309.4,945.6,331.8,968,359.4,968z"/>
</g>
</svg>
