<?xml version="1.0" encoding="utf-8"?>
<!-- Generator: Adobe Illustrator 18.1.0, SVG Export Plug-In . SVG Version: 6.00 Build 0)  -->
<svg version="1.1" id="Capa_1" xmlns="http://www.w3.org/2000/svg" xmlns:xlink="http://www.w3.org/1999/xlink" x="0px" y="0px"
	 width="1000px" height="1000px" viewBox="0 0 1000 1000" enable-background="new 0 0 1000 1000" xml:space="preserve">
<g>
	<rect x="452.5" y="822" width="95" height="163"/>
	<path d="M612.9,72.8c0-27.6-22.4-50-50-50H437.1c-27.6,0-50,22.4-50,50v124.6h225.7V72.8z M560.6,102.5H439.4
		c-10.9,0-19.7-8.8-19.7-19.7S428.5,63,439.4,63h121.3c10.9,0,19.7,8.8,19.7,19.7S571.5,102.5,560.6,102.5z"/>
	<path d="M341.3,245.9v477.6c0,27.6,22.4,50,50,50h217.5c27.6,0,50-22.4,50-50V245.9H341.3z"/>
</g>
</svg>
