<?xml version="1.0" encoding="utf-8"?>
<!-- Generator: Adobe Illustrator 16.0.0, SVG Export Plug-In . SVG Version: 6.00 Build 0)  -->
<!DOCTYPE svg PUBLIC "-//W3C//DTD SVG 1.1//EN" "http://www.w3.org/Graphics/SVG/1.1/DTD/svg11.dtd">
<svg version="1.1" id="Layer_1" xmlns="http://www.w3.org/2000/svg" xmlns:xlink="http://www.w3.org/1999/xlink" x="0px" y="0px"
	 width="800px" height="800px" viewBox="0 0 800 800" enable-background="new 0 0 800 800" xml:space="preserve">
<path d="M319.672,84.766C319.672,37.956,358.051,0,405.426,0c47.341,0,85.698,37.956,85.698,84.766
	c0,46.853-38.357,84.744-85.698,84.744C358.051,169.509,319.672,131.619,319.672,84.766z M105.805,335.959
	c25.716,14.865,57.357,25.716,88.661,25.716c27.019,0,53.787-8.073,76.259-28.625c14.106-12.891,24.36-27.604,34.267-41.84
	c7.834-11.242,15.05-21.289,23.101-29.232c-1.346,25.803-4.503,88.064-7.27,151.888c-0.26,1.41-0.64,2.799-0.749,4.275
	l-24.187,337.977c-1.541,21.463,14.822,40.062,36.523,41.58c0.944,0.087,1.888,0.131,2.821,0.131
	c20.497,0,37.771-15.712,39.247-36.22l19.043-266.146c2.919-0.781,5.816-1.519,8.322-1.519c2.93,0,5.74,0.521,8.594,0.868
	L428.06,763.78c1.313,19.9,17.578,35.222,37.229,36.22h5.437c21.3-1.779,37.348-20.053,35.98-41.276l-20.931-319.357
	c-0.141-2.171-0.575-4.253-1.063-6.337c-1.79-48.351-7.291-119.01-10.558-158.268c3.938,5.165,7.867,10.59,11.958,16.45
	c9.906,14.236,20.16,28.949,34.266,41.84c22.483,20.551,49.241,28.625,76.259,28.625c31.294,0,62.945-10.851,88.65-25.716
	c14.508-8.355,19.401-26.736,10.927-41.059c-8.475-14.323-27.083-19.184-41.569-10.807c-27.799,16.016-68.848,26.91-93.012,4.818
	c-9.147-8.333-17.079-19.727-25.456-31.793c-21.321-30.642-46.701-59.027-83.301-71.05c-13.379-4.383-27.42-6.901-41.492-7.856
	l22.124,229.687l-31.923,37.023l-36.513-37.023l27.734-229.947c-8.55,0.304-17.079,1.172-25.499,2.691
	c-3.874,0.694-7.693,1.541-11.491,2.539c-15.289,4.037-31.087,8.42-44.922,16.254c-26.118,14.844-41.971,37.587-55.957,57.682
	c-8.388,12.066-16.331,23.459-25.467,31.793c-24.165,22.092-65.224,11.241-93.012-4.818c-14.485-8.398-33.083-3.516-41.569,10.807
	C86.415,309.223,91.319,327.604,105.805,335.959z M107.693,800V455.664c0-29.666-24.099-53.668-53.852-53.668
	C24.088,401.996,0,425.998,0,455.664V800H107.693z M250.336,800V589.041c0-29.645-24.11-53.668-53.841-53.668
	c-29.742,0-53.874,24.023-53.874,53.668V800H250.336z M800,800V455.664c0-29.666-24.078-53.668-53.83-53.668
	c-29.742,0-53.853,24.002-53.853,53.668V800H800z M657.389,800V589.041c0-29.645-24.132-53.668-53.873-53.668
	c-29.731,0-53.842,24.023-53.842,53.668V800H657.389z"/>
</svg>
