<?xml version="1.0" encoding="utf-8"?>
<!-- Generator: Adobe Illustrator 16.0.0, SVG Export Plug-In . SVG Version: 6.00 Build 0)  -->
<!DOCTYPE svg PUBLIC "-//W3C//DTD SVG 1.1//EN" "http://www.w3.org/Graphics/SVG/1.1/DTD/svg11.dtd">
<svg version="1.1" id="Layer_1" xmlns="http://www.w3.org/2000/svg" xmlns:xlink="http://www.w3.org/1999/xlink" x="0px" y="0px"
	 width="800px" height="800px" viewBox="0 0 800 800" enable-background="new 0 0 800 800" xml:space="preserve">
<path d="M742.73,68.75L800,140.756H626.564V0H800L742.73,68.75z M338.046,170.226c46.983,0,84.982-38.042,84.982-85.025
	c0-46.919-37.999-84.939-84.982-84.939c-46.961,0-84.981,38.021-84.981,84.939C253.064,132.184,291.085,170.226,338.046,170.226z
	 M601.998,677.93L601.044,0.261h-52.148v300.911c-0.348,0.261-0.824,0.326-1.193,0.607c-2.93,2.344-7.357,6.359-12.695,11.242
	c-7.248,6.641-25.977,23.85-39.019,32.205c-4.124-10.244-7.444-22.354-10.721-34.202c-2.214-8.051-4.384-15.929-6.749-23.221
	c-12.912-39.995-34.245-75-72.743-94.4c-5.359-2.67-10.959-4.883-16.645-6.728c-13.086-4.254-26.801-6.662-40.517-7.596
	l21.875,230.078l-31.64,37.131l-36.22-37.131l27.474-230.382c-20.486,0.781-41.927,3.603-62.174,6.836
	c-19.206,3.06-38.086,7.942-56.142,15.169c-20.681,8.29-60.242,19.943-92.968,4.405c-21.788-10.352-42.925-32.704-62.804-66.471
	c-8.398-14.345-26.866-19.119-41.188-10.655C0.505,136.48-4.27,154.883,4.173,169.228c26.453,44.966,55.512,74.479,88.823,90.321
	c20.725,9.831,42.013,13.606,62.434,13.606c22.743,0,44.987-5.338,66.623-11.892c2.778-0.825,44.597-12.045,44.597-10.895
	c0,0-4.275,81.271-7.856,165.018c-0.238,1.324-0.586,2.647-0.694,4.036l-24.023,338.824c-1.497,21.506,14.671,40.147,36.154,41.667
	c0.977,0.086,1.889,0.086,2.821,0.086c20.291,0,37.413-15.668,38.867-36.219l18.924-266.841c2.907-0.781,5.772-1.519,8.268-1.519
	c5.144,0,10.178,0.629,15.018,1.54l23.48,119.293V730.6c0,0.087,0.021,0.151,0.021,0.217
	c-24.891,19.271-39.734,42.361-40.646,67.274h231.074h231.031C796.876,737.652,712.501,688.021,601.998,677.93z M548.896,676.758
	c-33.724,1.953-65.299,7.553-93.271,16.06v-80.36l-34.028-176.736c-0.064-0.347-0.238-0.694-0.304-1.041
	c-1.692-46.246-6.749-113-10.004-153.321c3.841,7.878,7.183,16.342,9.982,25c2.083,6.468,4.015,13.455,5.968,20.595
	c5.534,20.14,11.806,42.947,23.416,61.914c6.966,11.394,17.99,18.664,30.989,20.486c2.191,0.304,4.405,0.456,6.619,0.456
	c19.661,0,39.626-11.979,60.633-29.08V676.758z"/>
</svg>
