<?xml version="1.0" encoding="utf-8"?>
<!-- Generator: Adobe Illustrator 16.0.0, SVG Export Plug-In . SVG Version: 6.00 Build 0)  -->
<!DOCTYPE svg PUBLIC "-//W3C//DTD SVG 1.1//EN" "http://www.w3.org/Graphics/SVG/1.1/DTD/svg11.dtd">
<svg version="1.1" id="Layer_1" xmlns="http://www.w3.org/2000/svg" xmlns:xlink="http://www.w3.org/1999/xlink" x="0px" y="0px"
	 width="800px" height="800px" viewBox="0 0 800 800" enable-background="new 0 0 800 800" xml:space="preserve">
<path d="M400.79,89.659c-65.531,0-118.791,49.729-118.791,110.873c0,37.283,20.359,73.438,52.362,93.891v43.88h124.294v-43.175
	c38.262-19.662,60.893-54.558,60.893-94.597C519.548,139.388,466.277,89.659,400.79,89.659z M439.355,274.794l-6.422,2.865v32.823
	h-72.397V278.32l-5.492-3.093c-26.76-14.822-44.048-43.89-44.048-73.98c0-46.202,40.296-83.767,89.793-83.767
	c49.486,0,89.737,37.564,89.737,83.767C490.527,233.007,471.413,260.471,439.355,274.794z M461.087,360.069H333.659v45.357h127.428
	V360.069z M352.374,197.103c13.136,8.063,32.803,1.769,43.918-14.084c11.082-15.788,9.449-35.134-3.708-43.175
	c-13.125-8.073-32.825-1.758-43.94,14.063C337.562,169.727,339.194,189.051,352.374,197.103z M256.613,230.1v-77.735l-67.618,38.878
	L256.613,230.1z M401.741,0l-38.977,67.416h77.954L401.741,0z M543.388,230.1l67.618-38.856l-67.618-38.878V230.1z M318.133,523.698
	c0-46.8,39.042-84.711,87.209-84.711c48.156,0,87.165,37.911,87.165,84.711c0,46.776-39.009,84.667-87.165,84.667
	C357.174,608.365,318.133,570.475,318.133,523.698z M105.333,774.686c24.933,14.148,55.357,24.37,85.728,25.314h9.071
	c25.883-0.879,51.356-8.865,72.926-28.244c14.337-12.892,24.771-27.594,34.847-41.808c7.958-11.241,15.311-21.246,23.483-29.199
	c-0.984,18.521-2.919,56-4.973,99.251h48.307l22.489-183.204c-8.693,0.294-17.364,1.151-25.938,2.681
	c-3.936,0.694-7.817,1.52-11.688,2.519c-15.548,4.036-31.614,8.42-45.68,16.265c-26.565,14.821-42.675,37.564-56.915,57.627
	c-8.53,12.046-16.607,23.416-25.894,31.771c-24.576,22.07-66.342,11.21-94.594-4.828c-14.736-8.389-33.636-3.527-42.274,10.796
	C85.611,747.938,90.585,766.319,105.333,774.686z M705.771,733.626c-8.628-14.323-27.537-19.15-42.273-10.796
	c-28.274,16.016-70.02,26.898-94.594,4.828c-9.299-8.355-17.375-19.726-25.896-31.771c-21.678-30.608-47.496-58.984-84.71-71.006
	c-13.603-4.383-27.896-6.891-42.199-7.845L434.025,800h52.589c-2.228-32.378-4.811-64.398-6.671-86.48
	c4,5.133,7.99,10.558,12.152,16.429c10.066,14.214,20.499,28.916,34.848,41.808c21.591,19.379,47.043,27.365,72.926,28.244h9.062
	c30.37-0.944,60.806-11.166,85.726-25.314C709.416,766.319,714.389,747.938,705.771,733.626z"/>
</svg>
