<?xml version="1.0" encoding="utf-8"?>
<!-- Generator: Adobe Illustrator 16.0.0, SVG Export Plug-In . SVG Version: 6.00 Build 0)  -->
<!DOCTYPE svg PUBLIC "-//W3C//DTD SVG 1.1//EN" "http://www.w3.org/Graphics/SVG/1.1/DTD/svg11.dtd">
<svg version="1.1" id="Layer_1" xmlns="http://www.w3.org/2000/svg" xmlns:xlink="http://www.w3.org/1999/xlink" x="0px" y="0px"
	 width="800px" height="800px" viewBox="0 0 800 800" enable-background="new 0 0 800 800" xml:space="preserve">
<path d="M85,84.732C85,37.923,122.89,0,169.613,0c46.746,0,84.593,37.923,84.593,84.732c0,46.821-37.848,84.732-84.593,84.732
	C122.89,169.465,85,131.554,85,84.732z M377.406,382.227l-6.879-1.366c-9.05-1.726-19.293-3.689-22.527-7.249
	c-5.208-5.729-8.268-17.263-10.742-27.637c-6.186-26.096-17.274-55.469-31.164-82.705c-15.104-29.633-38.89-55.099-68.534-70.441
	c-5.859-3.038-12.065-5.48-18.337-7.488c-12.631-4.046-25.868-6.108-39.128-6.999l21.81,229.407l-31.511,37.023l-36.024-37.023
	L161.693,178.2c-13.868,0.457-27.734,2.03-41.016,6.11c-6.815,2.093-13.478,4.74-19.792,8.084
	c-11.111,5.891-21.528,13.672-30.946,22.026C27.75,251.877,4.878,316.862,0.038,413.117c-0.825,16.593,11.936,30.742,28.516,31.566
	c0.499,0.032,1.02,0.043,1.519,0.043c15.907,0,29.167-12.499,29.991-28.581c3.277-64.964,16.081-113.401,37.196-142.328
	c-1.519,30.067-4.167,83.983-6.532,139.323c-0.347,1.595-0.738,3.18-0.868,4.839l-23.85,337.857
	c-1.498,21.508,14.648,40.149,36.111,41.668c0.934,0.066,1.845,0.099,2.8,0.099c20.248,0,37.348-15.702,38.802-36.253
	l18.815-266.081c2.843-0.771,5.665-1.497,8.117-1.497c2.886,0,5.642,0.521,8.442,0.855l17.382,268.893
	C197.804,784.158,214.948,800,235.304,800c0.847,0,1.693-0.021,2.561-0.087c21.463-1.378,37.739-19.943,36.35-41.449l-20.66-319.27
	c-0.151-2.366-0.586-4.635-1.128-6.858c-1.824-48.754-7.292-119.717-10.46-158.605c4.318,5.848,7.986,11.751,10.612,16.916
	c11.611,22.754,21.181,48.004,26.215,69.249c4.211,17.697,9.94,37.945,24.828,54.275c16.71,18.349,39.192,22.657,55.621,25.803
	l6.011,1.183c2.041,0.436,4.102,0.63,6.098,0.63c13.954,0,26.476-9.777,29.405-24.001
	C404.099,401.52,393.683,385.59,377.406,382.227z M800,556.739c0,113.628-89.802,206.107-200.197,206.107
	c-110.46,0-200.304-92.479-200.304-206.107c0-113.618,89.844-206.012,200.304-206.012C710.198,350.728,800,443.121,800,556.739z
	 M729.948,473.08c-24.589,9.723-48.98,15.982-72.701,19.607c0.977,11.893,1.65,24.892,1.865,38.802h92.231
	C747.938,510.309,740.56,490.562,729.948,473.08z M639.213,404.08c4.623,12.652,9.115,28.461,12.675,47.938
	c16.752-2.482,33.768-6.465,50.867-12.207C684.853,423.091,663.193,410.699,639.213,404.08z M587.477,455.633
	c7.942,0.292,16.103,0.391,24.479,0.151c-3.668-18.719-8.095-32.629-12.239-42.773C595.55,423.091,591.123,437.002,587.477,455.633z
	 M495.115,441.287c13.759,3.819,31.685,7.965,52.669,10.874c3.517-19.575,8.009-35.429,12.695-48.081
	C535.675,410.873,513.344,423.795,495.115,441.287z M448.261,531.489h92.253c0.261-13.825,0.848-26.704,1.866-38.498
	c-32.443-4.591-58.637-11.827-74.435-17.015C458.179,492.72,451.43,511.47,448.261,531.489z M465.362,633.269
	c26.41-10.763,52.734-17.491,78.189-21.159c-1.215-12.272-2.19-25.466-2.669-39.724h-93.988
	C448.978,594.315,455.467,614.887,465.362,633.269z M563.54,710.287c-5.229-14.572-10.461-33.475-14.647-57.498
	c-19.314,2.702-39.129,7.216-58.942,14.409C509.698,688,535.089,703.18,563.54,710.287z M610.871,649.577
	c-7.206-0.304-14.604-0.369-22.114-0.142c3.343,18.013,7.292,32.249,11.046,43.446C603.622,681.717,607.594,667.524,610.871,649.577
	z M619.031,572.386h-38.435c0.543,12.967,1.433,24.803,2.54,35.926c11.479-0.391,22.591-0.216,33.399,0.305
	C617.663,597.407,618.511,585.416,619.031,572.386z M619.377,531.489c-0.303-12.608-0.91-24.088-1.865-34.679
	c-12.284,0.489-24.046,0.324-35.524-0.218c-0.957,10.667-1.521,22.18-1.824,34.896H619.377z M710.677,665.962
	c-14.28-4.253-35.004-9.429-59.982-12.89c-4.146,23.827-9.354,42.643-14.562,57.172
	C665.017,702.963,690.755,687.392,710.677,665.962z M752.713,572.386h-93.946c-0.543,14.322-1.476,27.549-2.583,39.875
	c36.22,5.08,64.411,13.532,79.211,18.708C744.661,613.162,750.717,593.358,752.713,572.386z"/>
</svg>
