<?xml version="1.0" encoding="utf-8"?>
<!-- Generator: Adobe Illustrator 16.0.0, SVG Export Plug-In . SVG Version: 6.00 Build 0)  -->
<!DOCTYPE svg PUBLIC "-//W3C//DTD SVG 1.1//EN" "http://www.w3.org/Graphics/SVG/1.1/DTD/svg11.dtd">
<svg version="1.1" id="Layer_1" xmlns="http://www.w3.org/2000/svg" xmlns:xlink="http://www.w3.org/1999/xlink" x="0px" y="0px"
	 width="800px" height="800px" viewBox="0 0 800 800" enable-background="new 0 0 800 800" xml:space="preserve">
<path d="M321.441,403.689c0-46.788,37.63-84.679,84.061-84.679c46.473,0,84.06,37.891,84.06,84.679
	c0,46.811-37.587,84.723-84.06,84.723C359.071,488.412,321.441,450.5,321.441,403.689z M728.896,424.696
	c-14.519-7.856-32.509-2.365-40.311,12.196c-21.81,40.842-83.029,84.527-132.541,83.225c-29.352-1.128-56.586-3.646-79.46-6.38
	c-15.104-8.746-37.065-14.909-60.666-16.559l21.68,229.384l-31.293,37.022l-35.829-37.022l27.17-229.601
	c-25.391,0.89-47.125,6.771-62.402,15.3c-24.957,3.299-56.521,6.554-90.961,7.855c-0.89,0.044-1.823,0.044-2.734,0.044
	c-46.821,0-99.034-44.987-132.682-87.674c-10.222-12.999-28.972-15.19-41.819-4.861c-12.891,10.286-15.039,29.146-4.839,42.122
	c20.66,26.216,93.739,110.417,179.384,110.417c1.649,0,3.299-0.043,4.948-0.13c32.954-1.237,63.162-4.102,88.097-7.162
	c-0.89,17.839-8.117,162.522-8.225,163.911L321.962,800h169.162c-1.888-28.32-3.179-47.2-3.276-47.635
	c-2.062-58.051-9.527-149.088-11.979-178.298c22.83,2.604,49.327,4.904,77.919,5.968c1.779,0.108,3.559,0.13,5.338,0.13
	c74.643,0,151.932-58.745,181.901-114.844C748.796,450.717,743.37,432.553,728.896,424.696z M88.119,166.472H0L118.804,0
	l118.793,166.472h-84.733v166.471H88.119V166.472z M800,166.472h-84.689v166.471h-64.768V166.472h-88.141L681.207,0L800,166.472z"/>
</svg>
