<?xml version="1.0" encoding="utf-8"?>
<!-- Generator: Adobe Illustrator 16.0.0, SVG Export Plug-In . SVG Version: 6.00 Build 0)  -->
<!DOCTYPE svg PUBLIC "-//W3C//DTD SVG 1.1//EN" "http://www.w3.org/Graphics/SVG/1.1/DTD/svg11.dtd">
<svg version="1.1" id="Layer_1" xmlns="http://www.w3.org/2000/svg" xmlns:xlink="http://www.w3.org/1999/xlink" x="0px" y="0px"
	 width="800px" height="800px" viewBox="0 0 800 800" enable-background="new 0 0 800 800" xml:space="preserve">
<path d="M317.338,84.766C317.338,37.934,355.064,0,401.624,0c46.539,0,84.254,37.934,84.254,84.766
	c0,46.811-37.715,84.724-84.254,84.724C355.064,169.489,317.338,131.576,317.338,84.766z M489.349,504.428l16.353,254.122
	c1.378,21.463-14.792,39.975-36.135,41.364c-0.843,0.043-1.698,0.086-2.54,0.086c-20.232,0-37.258-15.82-38.592-36.414
	l-17.315-268.902c-2.819-0.347-5.575-0.868-8.47-0.868c-2.479,0-5.319,0.737-8.214,1.519l-18.713,266.082
	c-1.453,20.528-18.436,36.197-38.57,36.197c-0.919,0-1.848-0.044-2.777-0.108c-21.32-1.52-37.384-20.118-35.878-41.559
	l17.325-246.268c-0.385-0.391-0.918-0.521-1.292-0.955l-8.011-8.854c-38.229-42.145-96.025-105.816-78.187-170.681
	c9.965-36.286,37.609-82.423,65.7-109.724c16.022-15.58,36.786-28.146,58.021-34.635c13.49-4.144,27.61-6.163,41.678-6.662
	l-27.237,229.624l35.899,37.021l31.382-37.021l-21.747-229.646c14.077,0.977,28.136,3.538,41.506,8.095
	c18.95,6.424,38.133,19.292,52.425,33.224c28.104,27.301,55.744,73.438,65.711,109.724c17.837,64.864-39.959,128.536-78.197,170.681
	L489.349,504.428z M329.792,268.75c-18.596,20.573-37.469,53.039-43.899,76.433c-6.153,22.395,14.109,54.015,35.814,80.902
	l0.566-8.029c0.096-1.432,0.459-2.757,0.705-4.145C325.499,355.078,328.329,297.635,329.792,268.75z M483.55,419.466
	c19.567-25.324,36.208-53.71,30.558-74.283c-6.045-21.984-23.092-51.996-40.545-72.634
	C476.456,307.877,481.339,371.115,483.55,419.466z"/>
</svg>
