<?xml version="1.0" encoding="utf-8"?>
<!-- Generator: Adobe Illustrator 16.0.0, SVG Export Plug-In . SVG Version: 6.00 Build 0)  -->
<!DOCTYPE svg PUBLIC "-//W3C//DTD SVG 1.1//EN" "http://www.w3.org/Graphics/SVG/1.1/DTD/svg11.dtd">
<svg version="1.1" id="Layer_1" xmlns="http://www.w3.org/2000/svg" xmlns:xlink="http://www.w3.org/1999/xlink" x="0px" y="0px"
	 width="800px" height="800px" viewBox="0 0 800 800" enable-background="new 0 0 800 800" xml:space="preserve">
<path d="M800,557.263V10H0v547.263h353.819v150.95H216.037c-22.439,0-40.711,18.303-40.711,40.894
	c0,22.59,18.271,40.894,40.711,40.894h371.051c22.505,0,40.69-18.304,40.69-40.894c0-22.591-18.186-40.894-40.69-40.894H436.785
	v-150.95H800z M62.63,494.345V72.896h674.741v421.449H62.63z M683.16,160.69H477.302v68.423H683.16V160.69z M605.664,336.821h77.496
	v-68.403h-77.496V336.821z M199.36,191.18c0-46.944,37.912-84.964,84.722-84.964c46.832,0,84.723,38.02,84.723,84.964
	c0,46.965-37.891,85.007-84.723,85.007C237.272,276.188,199.36,238.146,199.36,191.18z M363.51,474.779h-50.923l-18.002-189.951
	c30.133,2.067,58.931,12.861,82.813,31.339c39.367,30.555,62.915,84.116,70.941,158.612h-60.09
	c-5.122-40.98-15.831-72.8-31.717-94.126C358.475,404.265,361.23,439.653,363.51,474.779z M179.059,474.779h-60.396
	c9.094-71.492,30.534-122.246,65.646-153.433c13.899-12.34,28.494-22.568,46.138-28.728c14.681-5.114,30.241-7.573,45.746-8.116
	L253.57,474.779H207.14c1.747-38.26,3.43-72.537,4.525-94.235C196.138,401.764,185.156,433.668,179.059,474.779z"/>
</svg>
