<?xml version="1.0" encoding="utf-8"?>
<!-- Generator: Adobe Illustrator 16.0.0, SVG Export Plug-In . SVG Version: 6.00 Build 0)  -->
<!DOCTYPE svg PUBLIC "-//W3C//DTD SVG 1.1//EN" "http://www.w3.org/Graphics/SVG/1.1/DTD/svg11.dtd">
<svg version="1.1" id="Layer_1" xmlns="http://www.w3.org/2000/svg" xmlns:xlink="http://www.w3.org/1999/xlink" x="0px" y="0px"
	 width="800px" height="800px" viewBox="0 0 800 800" enable-background="new 0 0 800 800" xml:space="preserve">
<path d="M307.307,84.779C307.307,37.954,344.445,0,390.272,0c45.826,0,83.029,37.954,83.029,84.779s-37.203,84.737-83.029,84.737
	C344.445,169.517,307.307,131.604,307.307,84.779z M755,715.393C755,762.088,596.047,800,400,800c-196.091,0-355-37.912-355-84.607
	c0-34.312,86.627-63.568,210.002-76.799l-2.514,23.012c-35.968,8.74-58.372,20.583-58.372,33.66
	c0,17.308,37.853,32.467,94.73,41.099l29.619-267.071l0.521-10.192c-1.192,0.175-2.275,0.845-3.468,0.845
	c-5.979,0-12.068-1.712-17.355-5.313c-38.113-25.896-94.926-108.182-69.813-159.562c53.822-110.068,130.721-117.203,154.272-116.662
	c0.088,0,0.217,0,0.325-0.021l-23.228,190.531l30.682,31.102l26.802-31.102l-18.33-190.64c30.876,1.192,94.881,13.36,142.55,88.141
	c16.381-24.529,36.229-66.084,37.115-79.141c0.305-4.207,1.518-8.155,3.337-11.821l-24.309-47.778l39.435-19.65l-25.742-50.6
	l8.429-4.207l25.742,50.664l10.833,21.299l1.842,3.6l41.796,82.178l-29.119,14.445c-16.599,45.263-52.806,108.333-85.849,115.794
	c-3.033,0.716-6.065,1.04-9.013,1.04c-14.756,0-27.888-8.328-34.928-22.706c-13.563-27.719-29.402-45.979-44.83-58.018
	l16.12,197.104c0,0.325-0.173,0.456-0.173,0.801l45.522,274.967c50.615-8.849,84.049-22.989,84.049-39.125
	c0-12.036-19.154-23.098-50.182-31.6l-4.42-24.941C669.37,652.062,755,681.211,755,715.393z M322.388,395.661l7.237-135.856
	c-14.93,12.167-31.137,31.232-45.936,61.617C279.226,333.112,299.961,373.539,322.388,395.661z M441.191,742.698l-45.395-274.315
	l-30.508,274.9c10.639,0.392,21.473,0.673,32.588,0.673C412.85,743.956,427.258,743.458,441.191,742.698z"/>
</svg>
