<?xml version="1.0" encoding="utf-8"?>
<!-- Generator: Adobe Illustrator 16.0.0, SVG Export Plug-In . SVG Version: 6.00 Build 0)  -->
<!DOCTYPE svg PUBLIC "-//W3C//DTD SVG 1.1//EN" "http://www.w3.org/Graphics/SVG/1.1/DTD/svg11.dtd">
<svg version="1.1" id="Layer_1" xmlns="http://www.w3.org/2000/svg" xmlns:xlink="http://www.w3.org/1999/xlink" x="0px" y="0px"
	 width="800px" height="800px" viewBox="0 0 800 800" enable-background="new 0 0 800 800" xml:space="preserve">
<path d="M321.132,84.743C321.132,37.912,358.823,0,405.339,0c46.561,0,84.206,37.912,84.206,84.743
	c0,46.832-37.646,84.767-84.206,84.767C358.823,169.51,321.132,131.575,321.132,84.743z M729.299,105.751
	c-14.542-7.855-32.562-2.366-40.386,12.218c-21.846,40.863-83.163,84.57-132.766,83.269c-29.411-1.129-56.688-3.646-79.6-6.381
	c-15.13-8.767-37.126-14.931-60.775-16.58l21.716,229.536l-31.344,37.023l-35.888-37.023L397.47,178.06
	c-25.431,0.891-47.211,6.771-62.513,15.321c-24.997,3.299-56.624,6.554-91.12,7.856c-0.891,0.043-1.825,0.043-2.738,0.043
	c-46.907,0-99.205-45.009-132.918-87.739c-10.238-12.999-29.019-15.19-41.886-4.86c-12.911,10.308-15.064,29.166-4.849,42.145
	c20.693,26.235,93.902,110.481,179.695,110.481c1.652,0,3.305-0.044,4.956-0.109c33.019-1.259,63.275-4.124,88.25-7.183
	c-0.891,17.861-8.129,162.63-8.237,164.019l-23.78,337.934c-1.5,21.442,14.542,40.039,35.822,41.56
	c0.956,0.063,1.848,0.086,2.782,0.086c20.106,0,37.082-15.646,38.517-36.133l18.759-266.124c2.869-0.782,5.718-1.519,8.194-1.519
	c2.913,0,5.674,0.521,8.5,0.867l17.345,268.924C433.554,784.202,450.551,800,470.766,800c0.849,0,1.695-0.021,2.544-0.087
	c21.323-1.389,37.451-19.879,36.061-41.32c0,0-21.128-323.133-21.541-324.979c-2.065-58.072-9.542-149.174-11.999-178.406
	c22.867,2.604,49.407,4.905,78.056,5.989c1.783,0.088,3.564,0.109,5.347,0.109c74.774,0,152.198-58.768,182.217-114.909
	C749.231,131.792,743.798,113.606,729.299,105.751z"/>
</svg>
