<?xml version="1.0" encoding="utf-8"?>
<!-- Generator: Adobe Illustrator 16.0.0, SVG Export Plug-In . SVG Version: 6.00 Build 0)  -->
<!DOCTYPE svg PUBLIC "-//W3C//DTD SVG 1.1//EN" "http://www.w3.org/Graphics/SVG/1.1/DTD/svg11.dtd">
<svg version="1.1" id="Layer_1" xmlns="http://www.w3.org/2000/svg" xmlns:xlink="http://www.w3.org/1999/xlink" x="0px" y="0px"
	 width="800px" height="800px" viewBox="0 0 800 800" enable-background="new 0 0 800 800" xml:space="preserve">
<path d="M700,422.622c0,17.149-13.846,31.06-30.945,31.06h-55.144v120.848c30.924,9.713,53.558,38.37,53.558,72.604
	c0,42.219-34.092,76.434-76.193,76.434c-42.057,0-76.215-34.215-76.215-76.434c0-33.366,21.484-61.445,51.216-71.875V453.682
	H411.501v197.281c30.946,9.7,53.603,38.357,53.603,72.604c0,42.208-34.137,76.433-76.215,76.433
	c-42.058,0-76.193-34.225-76.193-76.433c0-33.377,21.462-61.445,51.193-71.876v-198.01h-146.42v120.848
	c30.947,9.713,53.538,38.37,53.538,72.604c0,42.219-34.093,76.434-76.172,76.434c-42.058,0-76.173-34.215-76.173-76.434
	c0-33.366,21.442-61.445,51.172-71.875V453.682h-38.888c-17.102,0-30.946-13.91-30.946-31.06c0-17.14,13.845-31.05,30.946-31.05
	h538.108C686.154,391.572,700,405.482,700,422.622z M410.548,178.586l20.397,212.985h50.543
	c-2.453-42.077-6.099-88.538-8.485-117.347c18.968,25.22,30.707,64.905,34.376,117.347h60.177
	c-5.359-86.743-29.927-148.005-73.589-181.631c-7.249-5.59-15.277-11.235-23.328-15.596c-5.578-3.011-11.459-5.437-17.448-7.482
	C439.452,182.196,424.999,179.565,410.548,178.586z M400,169.896c47.157,0,85.416-37.998,85.416-84.948
	C485.416,38.021,447.157,0,400,0c-47.18,0-85.417,38.021-85.417,84.948C314.583,131.898,352.82,169.896,400,169.896z
	 M291.102,391.572c5.122-52.496,17.34-92.321,35.83-117.39c-1.302,25.96-3.494,70.016-5.621,117.39h45.139l25.564-213.311
	c-15.581,0.522-31.229,2.969-45.985,8.046c-6.056,2.088-12.001,4.633-17.6,7.766c-19.098,10.669-35.157,24.742-48.416,41.925
	c-6.793,8.798-12.608,18.281-17.665,28.167c-19.987,39.261-27.887,83.948-31.619,127.406H291.102z"/>
</svg>
