<?xml version="1.0" encoding="utf-8"?>
<!-- Generator: Adobe Illustrator 16.0.0, SVG Export Plug-In . SVG Version: 6.00 Build 0)  -->
<!DOCTYPE svg PUBLIC "-//W3C//DTD SVG 1.1//EN" "http://www.w3.org/Graphics/SVG/1.1/DTD/svg11.dtd">
<svg version="1.1" id="Layer_1" xmlns="http://www.w3.org/2000/svg" xmlns:xlink="http://www.w3.org/1999/xlink" x="0px" y="0px"
	 width="800px" height="800px" viewBox="0 0 800 800" enable-background="new 0 0 800 800" xml:space="preserve">
<path d="M669.694,304.188c0-14.226,11.392-25.748,25.433-25.748c14.063,0,25.468,11.522,25.468,25.748
	c0,14.247-11.405,25.761-25.468,25.761C681.086,329.948,669.694,318.435,669.694,304.188z M723.134,342.09
	c-3.7-2.898-7.542-5.382-12.002-6.945c-4.134-1.454-8.483-2.256-12.847-2.56l6.565,69.813l-9.485,11.24l-10.828-11.24l8.225-69.912
	c-4.763,0.164-9.527,0.933-14.018,2.551c-1.835,0.662-3.626,1.464-5.307,2.462c-2.962,1.748-5.675,3.864-8.236,6.174
	c-12.694,11.373-19.553,31.109-21.008,60.353c-0.248,5.013,3.549,9.288,8.508,9.538c0.151,0.012,0.304,0.012,0.467,0.012
	c4.753,0,8.713-3.766,8.964-8.627c0.986-19.803,4.859-34.582,11.24-43.371c-0.456,9.212-1.271,25.934-1.996,43.012
	c-0.043,0.304-0.131,0.598-0.152,0.912l-7.183,102.725c-0.456,6.487,4.384,12.119,10.796,12.575
	c0.281,0.021,0.563,0.032,0.835,0.032c6.055,0,11.155-4.741,11.589-10.948l5.652-80.87c0.892-0.248,1.77-0.466,2.529-0.466
	c0.89,0,1.746,0.152,2.614,0.26l5.231,81.738c0.4,6.229,5.521,11.014,11.609,11.014c0.25,0,0.51-0.012,0.76-0.021
	c6.423-0.424,11.273-6.034,10.861-12.521l-6.195-97.06c-0.032-0.543-0.163-1.053-0.262-1.563
	c-0.521-14.856-2.202-36.86-3.168-48.808c6.511,8.801,10.168,23.427,10.58,43.089c0.086,4.96,4.09,8.898,9.146,8.898
	c4.971-0.11,8.897-4.254,8.8-9.279C744.813,374.12,737.304,353.201,723.134,342.09z M408.627,169.563
	c46.256,0,83.788-37.924,83.788-84.787C492.415,37.945,454.883,0,408.627,0c-46.257,0-83.746,37.945-83.746,84.776
	C324.881,131.64,362.37,169.563,408.627,169.563z M717.469,688.998c0-44.847-74.762-83.074-181.554-100.554l3.885,32.683
	c27.116,11.187,43.772,25.684,43.772,41.58c0,21.32-29.634,39.952-74.501,51.518l-17.567-274.739
	c-0.108-1.779-0.51-3.461-0.836-5.144c-1.715-48.904-7.249-121.311-10.427-160.655c21.408,28.981,33.474,77.105,34.787,141.82
	c0.337,16.317,13.498,29.306,30.164,29.296c16.321-0.336,29.286-13.998,28.939-30.533c-1.996-99.296-26.692-168.188-73.361-204.743
	c-12.175-9.56-24.826-17.73-39.486-22.862c-13.606-4.773-27.951-7.443-42.296-8.43l21.626,229.763l-31.207,37.033l-35.677-37.033
	l27.083-230.09c-15.657,0.532-31.38,3.071-46.159,8.409c-6.034,2.171-11.925,4.818-17.458,8.096
	c-9.723,5.751-18.664,12.706-27.116,20.289c-41.743,37.436-64.355,102.431-69.141,198.678c-0.824,16.514,11.73,30.566,28.027,31.392
	c0.521,0.032,1.021,0.042,1.52,0.042c15.646,0,28.711-12.412,29.503-28.418c3.244-65.189,16.016-113.813,37-142.75
	c-1.508,30.326-4.177,85.361-6.565,141.579c-0.151,1.02-0.433,1.976-0.509,3.017l-20.823,298.014
	c-48.925-11.371-81.392-31.076-81.392-53.547c0-17.232,19.619-32.834,50.923-44.315l2.235-30.187
	C173.188,605.588,97.57,643.968,97.57,688.998c0,35.969,42.469,58.203,70.508,70.409c25.325,11.025,52.115,18.642,79.069,24.502
	c16.059,3.472,32.249,6.282,48.513,8.538c37.153,5.154,74.197,7.553,111.86,7.553c13.14,0,26.27-0.349,39.398-0.977
	c60.602-2.93,122.787-11.056,180.696-31.988c31.945-11.534,82.107-32.096,89.161-70.562
	C717.23,694.01,717.469,691.504,717.469,688.998z M405.652,726.519c-6.922,0-13.714-0.173-20.431-0.456l16.113-230.436
	c2.929-0.825,5.815-1.562,8.3-1.562c2.941,0,5.762,0.53,8.616,0.889l14.724,230.371C423.98,725.868,415.093,726.519,405.652,726.519
	z M739.713,506.325c9.19,3.787,14.854,8.691,14.854,14.105c0,7.813-11.687,14.606-28.981,18.415
	c-1.346,0.434-2.735,0.769-4.168,0.944c-0.367,0.054-0.727,0.054-1.073,0.074c-7.943,1.38-16.731,2.215-26.183,2.215
	c-33.333,0-60.374-9.69-60.374-21.648c0-5.858,6.642-11.142,17.274-15.038l0.76-10.243c-36.589,5.892-62.228,18.914-62.228,34.202
	c0,20.79,47.102,37.684,105.207,37.684c58.095,0,105.198-16.894,105.198-37.684c0-15.213-25.369-28.191-61.621-34.127
	L739.713,506.325z M80.1,304.188c0-14.226,11.382-25.748,25.434-25.748s25.456,11.522,25.456,25.748
	c0,14.247-11.404,25.761-25.456,25.761S80.1,318.435,80.1,304.188z M133.528,342.09c-3.7-2.898-7.541-5.382-12-6.945
	c-4.123-1.454-8.475-2.256-12.836-2.56l6.564,69.813l-9.483,11.24l-10.84-11.24l8.236-69.912c-4.764,0.164-9.538,0.933-14.03,2.551
	c-1.834,0.662-3.624,1.464-5.306,2.462c-2.961,1.748-5.665,3.864-8.225,6.174c-12.695,11.373-19.564,31.109-21.018,60.353
	c-0.249,5.013,3.56,9.288,8.518,9.538c0.152,0.012,0.304,0.012,0.467,0.012c4.752,0,8.713-3.766,8.962-8.627
	c0.988-19.803,4.851-34.582,11.231-43.371c-0.456,9.212-1.27,25.934-1.997,43.012c-0.043,0.304-0.13,0.598-0.152,0.912
	l-7.172,102.725c-0.456,6.487,4.373,12.119,10.785,12.575c0.283,0.021,0.564,0.032,0.836,0.032c6.055,0,11.165-4.741,11.599-10.948
	l5.654-80.87c0.889-0.248,1.768-0.466,2.528-0.466c0.889,0,1.747,0.152,2.615,0.26l5.229,81.738
	c0.402,6.229,5.512,11.014,11.6,11.014c0.249,0,0.51-0.012,0.758-0.021c6.424-0.424,11.286-6.034,10.874-12.521l-6.207-97.06
	c-0.033-0.543-0.163-1.053-0.261-1.563c-0.52-14.856-2.202-36.86-3.167-48.808c6.51,8.801,10.177,23.427,10.579,43.089
	c0.098,4.96,4.102,8.898,9.158,8.898c4.97-0.11,8.897-4.254,8.789-9.279C155.208,374.12,147.71,353.201,133.528,342.09z
	 M150.119,506.325c9.18,3.787,14.844,8.691,14.844,14.105c0,7.813-11.687,14.606-28.972,18.415
	c-1.356,0.434-2.745,0.769-4.177,0.944c-0.369,0.054-0.727,0.054-1.074,0.074c-7.943,1.38-16.721,2.215-26.172,2.215
	c-33.333,0-60.384-9.69-60.384-21.648c0-5.858,6.641-11.142,17.285-15.038l0.749-10.243C25.641,501.041,0,514.063,0,529.352
	c0,20.79,47.092,37.684,105.208,37.684c58.084,0,105.187-16.894,105.187-37.684c0-15.213-25.358-28.191-61.61-34.127
	L150.119,506.325z"/>
</svg>
