<?xml version="1.0" encoding="utf-8"?>
<!-- Generator: Adobe Illustrator 16.0.0, SVG Export Plug-In . SVG Version: 6.00 Build 0)  -->
<!DOCTYPE svg PUBLIC "-//W3C//DTD SVG 1.1//EN" "http://www.w3.org/Graphics/SVG/1.1/DTD/svg11.dtd">
<svg version="1.1" id="Layer_1" xmlns="http://www.w3.org/2000/svg" xmlns:xlink="http://www.w3.org/1999/xlink" x="0px" y="0px"
	 width="800px" height="800px" viewBox="0 0 800 800" enable-background="new 0 0 800 800" xml:space="preserve">
<path d="M550.886,84.744C550.886,37.934,588.364,0,634.588,0s83.745,37.934,83.745,84.744s-37.521,84.701-83.745,84.701
	S550.886,131.554,550.886,84.744z M726.688,209.375c-12.196-9.548-24.826-17.708-39.453-22.83
	c-13.628-4.774-27.951-7.444-42.295-8.442l21.614,229.601l-31.185,37.001l-35.655-37.001L626.775,177.8
	c-15.646,0.521-31.337,3.06-46.137,8.398c-6.033,2.17-11.893,4.796-17.448,8.073c-9.679,5.751-18.619,12.695-27.104,20.269
	c-41.71,37.413-64.301,102.366-69.097,198.546c-0.803,16.493,11.74,30.534,28.016,31.359c0.5,0.021,1.021,0.043,1.52,0.043
	c15.625,0,28.689-12.414,29.471-28.386c3.255-65.169,16.037-113.737,36.979-142.643c-1.497,30.295-4.146,85.286-6.532,141.471
	c-0.174,0.999-0.434,1.976-0.521,3.017L532.31,755.751c-1.497,21.376,14.388,39.909,35.481,41.428
	c0.934,0.044,1.866,0.087,2.756,0.087c19.922,0,36.697-15.625,38.151-36.046l18.598-265.95c2.93-0.825,5.794-1.563,8.29-1.563
	c2.951,0,5.751,0.521,8.615,0.868l17.166,268.814c1.346,20.508,18.186,36.264,38.216,36.264c0.824,0,1.671-0.044,2.539-0.087
	c21.071-1.389,37.044-19.835,35.72-41.189l-20.421-319.205c-0.108-1.78-0.521-3.473-0.824-5.166
	c-1.758-48.85-7.248-121.202-10.438-160.503c21.397,28.95,33.441,77.04,34.766,141.71c0.347,16.275,13.498,29.275,30.164,29.254
	c16.298-0.326,29.232-13.977,28.906-30.49C797.998,314.757,773.323,245.898,726.688,209.375z M308.656,800V454.558h99.609
	L257.789,206.38L107.377,454.558h93.901V800H308.656z M107.377,635.156H0v159.311h107.377V635.156z"/>
</svg>
