<?xml version="1.0" encoding="utf-8"?>
<!-- Generator: Adobe Illustrator 16.0.0, SVG Export Plug-In . SVG Version: 6.00 Build 0)  -->
<!DOCTYPE svg PUBLIC "-//W3C//DTD SVG 1.1//EN" "http://www.w3.org/Graphics/SVG/1.1/DTD/svg11.dtd">
<svg version="1.1" id="Layer_1" xmlns="http://www.w3.org/2000/svg" xmlns:xlink="http://www.w3.org/1999/xlink" x="0px" y="0px"
	 width="800px" height="800px" viewBox="0 0 800 800" enable-background="new 0 0 800 800" xml:space="preserve">
<path d="M323.175,294.618c0-47.049,37.397-85.178,83.53-85.178c46.175,0,83.53,38.128,83.53,85.178
	c0,47.092-37.355,85.222-83.53,85.222C360.572,379.839,323.175,341.709,323.175,294.618z M728.06,315.755
	c-14.454-7.92-32.313-2.388-40.068,12.239c-21.672,41.103-82.506,85.048-131.709,83.746c-29.157-1.15-56.214-3.688-78.952-6.402
	c-15.005-8.81-36.826-15.018-60.275-16.689l20.219,216.624h-63.722l25.345-216.839c-25.226,0.911-46.822,6.836-62.009,15.386
	c-24.806,3.319-56.149,6.598-90.38,7.921c-0.883,0.043-1.81,0.043-2.714,0.043c-46.531,0-98.415-45.269-131.849-88.194
	c-10.157-13.063-28.78-15.277-41.555-4.882c-12.807,10.33-14.939,29.297-4.804,42.36c20.53,26.368,93.138,111.069,178.25,111.069
	c1.637,0,3.263-0.045,4.912-0.131c32.745-1.259,62.773-4.122,87.547-7.204c-0.667,13.411-4.847,97.937-6.957,140.472H87.666V800
	h638.411V605.272H486.626c-3.027-53.861-8.068-116.016-10.006-139.279c22.684,2.625,49.02,4.928,77.422,6.012
	c1.777,0.086,3.543,0.131,5.311,0.131c74.158,0,150.978-59.094,180.749-115.539C747.813,341.927,742.428,323.654,728.06,315.755z
	 M68.558,256.229h38.959v-31.88c25.958-8.137,42.815-30.208,42.815-57.508c0-36.979-26.087-52.93-48.771-62.652
	C76.711,93.489,74.827,88.65,74.827,82.617c0-3.863,1.734-12.869,17.707-12.869c14.724,0,23.794,5.273,28.662,8.073l11.094,6.467
	l14.626-40.235l-8.035-4.969c-8.918-5.512-18.688-8.984-29.696-10.547V0H70.443v31.076c-24.806,7.877-40.865,28.928-40.865,54.861
	c0,34.028,26.087,49.35,51.496,59.809c21.908,9.398,23.729,16.862,23.729,23.111c0,9.896-8.315,16.32-21.219,16.32
	c-11.354,0-23.6-3.841-32.809-10.264l-11.676-8.183L25,207.769l6.765,5.122c9.177,6.836,22.823,11.891,36.793,13.781V256.229z
	 M726.251,104.188c-24.861-10.699-26.735-15.538-26.735-21.571c0-3.863,1.724-12.869,17.708-12.869
	c14.714,0,23.782,5.273,28.651,8.073l11.095,6.467l14.626-40.235l-8.013-4.969c-8.941-5.512-18.699-8.984-29.707-10.547V0h-38.754
	v31.076c-24.817,7.877-40.865,28.928-40.865,54.861c0,34.028,26.087,49.35,51.508,59.809c21.886,9.398,23.717,16.862,23.717,23.111
	c0,9.896-8.294,16.32-21.22,16.32c-11.352,0-23.609-3.841-32.807-10.264l-11.678-8.183l-14.109,41.038l6.785,5.122
	c9.156,6.836,22.813,11.891,36.772,13.781v29.557h38.969v-31.88C758.153,216.211,775,194.14,775,166.84
	C775,129.861,748.935,113.91,726.251,104.188z"/>
</svg>
