<?xml version="1.0" encoding="utf-8"?>
<!-- Generator: Adobe Illustrator 16.0.0, SVG Export Plug-In . SVG Version: 6.00 Build 0)  -->
<!DOCTYPE svg PUBLIC "-//W3C//DTD SVG 1.1//EN" "http://www.w3.org/Graphics/SVG/1.1/DTD/svg11.dtd">
<svg version="1.1" id="Layer_1" xmlns="http://www.w3.org/2000/svg" xmlns:xlink="http://www.w3.org/1999/xlink" x="0px" y="0px"
	 width="800px" height="800px" viewBox="0 0 800 800" enable-background="new 0 0 800 800" xml:space="preserve">
<path d="M588.11,345.502c3.863,17.59,6.012,35.779,6.012,54.504c0,112.89-73.84,208.777-175.913,242.835
	c0.032-0.753,0.391-1.396,0.38-2.159c-2.028-99.771-26.964-168.986-74.11-205.714c-12.305-9.597-25.087-17.81-39.887-22.967
	c-13.759-4.798-28.245-7.48-42.73-8.474l21.843,230.851l-11.394,13.436c-19.401-4.994-37.88-12.214-55.252-21.265L243.49,403.2
	c-15.809,0.536-31.706,3.086-46.625,8.452c-6.087,2.181-12.045,4.842-17.644,8.136c-9.82,5.778-18.848,12.758-27.387,20.382
	c-19.749,17.611-35.081,41.548-46.496,71.679c-16.601-33.851-26.183-71.712-26.183-111.843
	c0-141.287,115.496-256.227,257.489-256.227c89.334,0,168.122,45.539,214.313,114.481l75.121-28.714
	C567.439,131.161,459.92,65,336.644,65C150.717,65,0,214.989,0,400.006S150.717,735,336.644,735
	c185.917,0,336.645-149.978,336.645-334.994c0-28.681-4.015-56.368-10.829-82.923L588.11,345.502z M149.544,575.315
	c6.446-32.365,16.363-57.948,29.471-75.932c-1.128,22.629-2.908,58.953-4.731,99.258
	C165.463,591.478,157.325,583.57,149.544,575.315z M215.224,625.644 M336.644,656.231c-11.306,0-12.989-0.229-2.583-0.131
	c-1.898-48.984-7.215-118.352-10.33-156.673c13.878,18.702,21.625,41.461,26.639,63.947c3.223,14.471,5.306,29.182,6.641,43.938
	c0.748,8.255,4.383,40.261,3.255,47C359.789,657.159,338.966,656.231,336.644,656.231z M251.379,224.455
	c46.733,0,84.646,38.124,84.646,85.18c0,47.078-37.913,85.18-84.646,85.18c-46.724,0-84.593-38.102-84.593-85.18
	C166.787,262.579,204.656,224.455,251.379,224.455z M786.245,242.241L520.174,343.975l16.646,47.819l-156.523-20.425L486.57,247.203
	l19.791,56.859l264.28-101.015c11.079-4.242,23.546,1.134,27.876,11.931C802.847,225.785,797.379,238.01,786.245,242.241z"/>
</svg>
