<?xml version="1.0" encoding="utf-8"?>
<!-- Generator: Adobe Illustrator 16.0.0, SVG Export Plug-In . SVG Version: 6.00 Build 0)  -->
<!DOCTYPE svg PUBLIC "-//W3C//DTD SVG 1.1//EN" "http://www.w3.org/Graphics/SVG/1.1/DTD/svg11.dtd">
<svg version="1.1" id="Layer_1" xmlns="http://www.w3.org/2000/svg" xmlns:xlink="http://www.w3.org/1999/xlink" x="0px" y="0px"
	 width="800px" height="800px" viewBox="0 0 800 800" enable-background="new 0 0 800 800" xml:space="preserve">
<path d="M238.628,84.679C238.628,37.891,276.953,0,324.219,0c47.287,0,85.59,37.891,85.59,84.679
	c0,46.767-38.303,84.635-85.59,84.635C276.953,169.314,238.628,131.445,238.628,84.679z M800,489.908V582.4v40.689v81.402v47.765
	V800H0v-95.508h223.112l13.976-195.334c-0.391-0.391-0.933-0.521-1.302-0.955l-8.16-8.854
	c-38.824-42.101-97.526-105.707-79.427-170.508c10.134-36.241,38.216-82.335,66.753-109.592
	c16.276-15.582,37.37-28.125,58.941-34.614c13.715-4.145,28.017-6.142,42.339-6.662l-27.669,229.406L325,444.357l31.901-36.979
	l-22.092-229.406c14.28,0.955,28.559,3.516,42.145,8.073c19.271,6.424,38.758,19.271,53.255,33.203
	c28.56,27.257,56.641,73.351,66.754,109.592c18.142,64.801-40.582,128.407-79.427,170.508l-4.189,4.558l13.13,200.586h91.884V582.4
	h188.976v-92.492H800z M397.309,272.266c2.952,35.286,7.899,98.459,10.156,146.767c19.879-25.304,36.763-53.646,31.033-74.197
	C432.356,322.873,415.039,292.882,397.309,272.266z M243.077,425.65l0.564-8.029c0.087-1.432,0.478-2.756,0.716-4.145
	c2.561-58.768,5.447-116.146,6.923-145.009c-18.88,20.551-38.064,52.995-44.597,76.367
	C200.434,367.209,221.028,398.785,243.077,425.65z M301.953,704.492h45.703l-13.781-210.33c-2.864-0.348-5.664-0.868-8.615-0.868
	c-2.518,0-5.382,0.738-8.333,1.52L301.953,704.492z"/>
</svg>
