<?xml version="1.0" encoding="utf-8"?>
<!-- Generator: Adobe Illustrator 16.0.0, SVG Export Plug-In . SVG Version: 6.00 Build 0)  -->
<!DOCTYPE svg PUBLIC "-//W3C//DTD SVG 1.1//EN" "http://www.w3.org/Graphics/SVG/1.1/DTD/svg11.dtd">
<svg version="1.1" id="Layer_1" xmlns="http://www.w3.org/2000/svg" xmlns:xlink="http://www.w3.org/1999/xlink" x="0px" y="0px"
	 width="800px" height="800px" viewBox="0 0 800 800" enable-background="new 0 0 800 800" xml:space="preserve">
<path d="M107.09,84.744C107.09,37.934,145.945,0,193.794,0c47.892,0,86.66,37.934,86.66,84.744s-38.768,84.744-86.66,84.744
	C145.945,169.488,107.09,131.555,107.09,84.744z M406.668,382.248l-7.029-1.389c-9.299-1.714-19.776-3.689-23.095-7.249
	c-5.326-5.729-8.47-17.251-11.002-27.626c-6.331-26.105-17.681-55.468-31.957-82.702c-15.455-29.645-39.816-55.101-70.201-70.444
	c-5.981-3.037-12.355-5.468-18.773-7.485c-12.922-4.059-26.5-6.099-40.078-7.011l22.353,229.428l-32.307,37.022l-36.89-37.022
	l27.984-229.558c-14.188,0.456-28.421,2.04-42.042,6.12c-6.941,2.083-13.796,4.73-20.257,8.073
	c-11.395,5.902-22.047,13.672-31.696,22.026C48.458,251.888,25.014,316.884,20.037,413.13
	c-0.829,16.602,12.224,30.751,29.207,31.576c0.524,0.021,1.048,0.043,1.572,0.043c16.284,0,29.905-12.5,30.734-28.603
	c3.362-64.952,16.503-113.391,38.113-142.318c-1.571,30.079-4.278,83.984-6.68,139.323c-0.349,1.606-0.786,3.169-0.917,4.839
	L87.662,755.86c-1.528,21.484,15.019,40.146,36.979,41.666c0.96,0.044,1.877,0.087,2.837,0.087
	c20.781,0,38.288-15.712,39.771-36.241l19.297-266.103c2.925-0.76,5.807-1.477,8.295-1.477c2.969,0,5.763,0.522,8.645,0.847
	l17.812,268.903C222.695,784.159,240.245,800,261.113,800c0.83,0,1.703,0,2.576-0.087c22.003-1.366,38.68-19.922,37.283-41.45
	l-21.174-319.27c-0.175-2.345-0.611-4.623-1.179-6.858c-1.876-48.74-7.465-119.705-10.696-158.593
	c4.409,5.859,8.164,11.761,10.871,16.926c11.875,22.743,21.698,48.004,26.849,69.228c4.322,17.708,10.172,37.956,25.453,54.298
	c17.113,18.338,40.121,22.655,56.972,25.781l6.157,1.193c2.095,0.434,4.19,0.63,6.243,0.63c14.276,0,27.112-9.767,30.124-24.002
	C433.998,401.519,423.345,385.591,406.668,382.248z M774.439,226.563l-74.917-77.278c-0.699-0.716-1.703-1.085-2.49-1.692
	c-7.42-8.052-18.072-13.195-29.991-13.195H529.999c-10.782,0-20.518,4.232-27.765,10.959c-0.7,0.521-1.571,0.804-2.184,1.477
	l-74.872,77.257c-7.728,7.965-7.422,20.551,0.742,28.169c3.886,3.623,8.949,5.468,13.971,5.468c5.369,0,10.738-2.084,14.712-6.207
	l34.796-35.894v93.229c0,21.961,18.205,39.844,40.6,39.844h137.042c22.396,0,40.603-17.883,40.603-39.844v-93.315l37.326,38.497
	c4.016,4.123,9.342,6.186,14.755,6.186c4.978,0,10.043-1.845,13.972-5.469C781.816,247.136,782.122,234.506,774.439,226.563z
	 M666.998,308.854H529.999V174.24h137.042L666.998,308.854z"/>
</svg>
