<?xml version="1.0" encoding="utf-8"?>
<!-- Generator: Adobe Illustrator 16.0.0, SVG Export Plug-In . SVG Version: 6.00 Build 0)  -->
<!DOCTYPE svg PUBLIC "-//W3C//DTD SVG 1.1//EN" "http://www.w3.org/Graphics/SVG/1.1/DTD/svg11.dtd">
<svg version="1.1" id="Layer_1" xmlns="http://www.w3.org/2000/svg" xmlns:xlink="http://www.w3.org/1999/xlink" x="0px" y="0px"
	 width="800px" height="800px" viewBox="0 0 800 800" enable-background="new 0 0 800 800" xml:space="preserve">
<path d="M489.277,84.788C489.277,37.956,526.268,0,571.939,0c45.604,0,82.574,37.956,82.574,84.788
	c0,46.853-36.97,84.787-82.574,84.787C526.268,169.575,489.277,131.641,489.277,84.788z M662.714,209.614
	c-10.338-8.181-24.559-17.556-36.772-22.178c-14.002-5.274-28.942-8.161-43.795-9.202l21.308,229.752l-30.752,37.022l-35.201-37.022
	l26.717-230.013c-6.237,0.217-12.323,0.65-18.059,1.476c-13.523,0.847-27.721,3.927-41.789,12.262
	c-28.289,16.796-42.094,45.159-53.174,67.946l-4.188,8.53c-9.641,19.227-17.1,21.137-25.235,21.571
	c-18.517,1.084-39.433-7.878-59.608-16.471l-3.73-1.563c-14.896-6.315-31.777,0.954-37.906,16.124
	c-6.129,15.233,0.938,32.638,15.747,38.931l3.643,1.52c23.337,9.938,49.576,21.116,78.823,21.116c2.007,0,4.034-0.065,6.041-0.152
	c48.136-2.539,67.481-41.147,73.872-53.863l1.746-3.515c-1.57,31.921-3.73,77.994-5.672,124.695
	c-0.065,0.563-0.239,1.085-0.284,1.672l-23.314,338.042c-1.439,21.267,14.154,39.714,34.94,41.232
	c0.873,0.087,1.744,0.087,2.66,0.087c19.544,0,36.098-15.539,37.515-35.872l18.343-266.125c2.966-0.823,5.846-1.563,8.353-1.563
	c2.945,0,5.78,0.521,8.66,0.911l16.946,268.946C599.835,784.332,616.389,800,636.063,800c0.785,0,1.636,0,2.463-0.043
	c20.722-1.39,36.447-19.77,35.115-41.059l-20.175-319.422c-0.087-1.261-0.392-2.454-0.588-3.668
	c-1.613-49.025-7.176-122.745-10.36-162.414c21.243,28.972,33.195,77.214,34.482,142.079c0.283,16.254,13.239,29.188,29.598,29.167
	c16.029-0.326,28.746-13.954,28.396-30.404C733.009,314.996,708.712,246.159,662.714,209.614z M324.564,330.101
	c-2.028,3.21-4.078,6.423-6.172,9.591c-7.044,10.654-14.024,21.311-21.069,31.966c-15.856,24.132-31.756,48.264-47.634,72.396
	c-2.312,3.495-4.603,6.966-6.871,10.438c-24.995-23.154-23.075-52.995-23.075-52.995c-13.37,12.284-40.742,10.07-65.235-6.9
	c-34.526-23.915-31.429-60.069-31.429-60.069c-9.989,9.505-19.172,20.161-27.089,32.248
	c-55.813,84.766-34.177,199.739,48.332,256.879c82.51,57.184,194.638,34.83,250.385-49.935
	c7.981-12.088,14.198-24.782,19.063-37.848l-0.699-0.434c-13.391,12.369-40.959,9.874-65.409-7.053
	c-35.137-24.35-31.385-59.982-31.385-59.982c-9.466,8.79-26.151,10.048-43.795,3.927c0,0,109.859-166.882,110.078-167.187
	c6.936-10.524,0.152-24.435-11.146-27.799c-13.479-4.015-20.458,12.045-27.067,21.811
	C337.477,309.332,331.107,319.792,324.564,330.101z"/>
</svg>
