<?xml version="1.0" encoding="utf-8"?>
<!-- Generator: Adobe Illustrator 16.0.0, SVG Export Plug-In . SVG Version: 6.00 Build 0)  -->
<!DOCTYPE svg PUBLIC "-//W3C//DTD SVG 1.1//EN" "http://www.w3.org/Graphics/SVG/1.1/DTD/svg11.dtd">
<svg version="1.1" id="Layer_1" xmlns="http://www.w3.org/2000/svg" xmlns:xlink="http://www.w3.org/1999/xlink" x="0px" y="0px"
	 width="800px" height="800px" viewBox="0 0 800 800" enable-background="new 0 0 800 800" xml:space="preserve">
<g>
	<path d="M399.234,170.159c0.257,0,0.51-0.017,0.766-0.019v-0.126c0.256,0.003,0.509,0.019,0.766,0.019
		c49.539,0,89.681-38.041,89.681-85.017C490.447,38.053,450.305,0,400.766,0c-0.257,0-0.51,0.016-0.766,0.019v0.125
		c-0.256-0.002-0.509-0.019-0.766-0.019c-49.54,0-89.682,38.053-89.682,85.017C309.552,132.117,349.694,170.159,399.234,170.159z"/>
	<path d="M789.453,199.794l-93.709-63.961c-14.232-9.729-25.887-4.2-25.887,12.285v39.892H463.49
		c-14.803-5.396-33.393-8.878-54.354-9.511l28.988,230.622L400,446.205v0.125l-38.126-37.083l28.988-230.623
		c-20.959,0.633-39.549,4.114-54.352,9.512H130.143v-39.893c0-16.485-11.655-22.014-25.888-12.284L10.547,199.92
		c-14.244,9.729-14.016,25.332,0.41,34.722l92.887,60.196c14.415,9.392,26.298,3.581,26.298-12.861l0.045-34.919
		c13.16,0.011,122.821,0.37,193.984,0.61c-0.091,1.424-8.987,171.284-9.033,171.872l-25.271,339.001
		c-1.597,21.339,15.373,39.849,37.839,41.361c0.98,0.064,1.984,0.098,2.942,0.098c21.235,0,39.162-15.594,40.689-35.986
		l19.912-266.867c3.083-0.814,6.076-1.521,8.75-1.579v-0.126c2.674,0.06,5.666,0.766,8.75,1.58l19.91,266.867
		c1.529,20.393,19.457,35.985,40.691,35.985c0.957,0,1.961-0.032,2.941-0.097c22.465-1.514,39.436-20.022,37.838-41.361
		c0,0-25.521-340.133-25.613-340.709c-3.854-84.659-8.6-168.74-8.689-170.164c71.162-0.24,180.824-0.6,193.984-0.61l0.045,34.919
		c0,16.442,11.883,22.252,26.299,12.86l92.887-60.195C803.469,225.127,803.695,209.523,789.453,199.794z"/>
</g>
</svg>
