<?xml version="1.0" encoding="utf-8"?>
<!-- Generator: Adobe Illustrator 16.0.0, SVG Export Plug-In . SVG Version: 6.00 Build 0)  -->
<!DOCTYPE svg PUBLIC "-//W3C//DTD SVG 1.1//EN" "http://www.w3.org/Graphics/SVG/1.1/DTD/svg11.dtd">
<svg version="1.1" id="Layer_1" xmlns="http://www.w3.org/2000/svg" xmlns:xlink="http://www.w3.org/1999/xlink" x="0px" y="0px"
	 width="800px" height="800px" viewBox="0 0 800 800" enable-background="new 0 0 800 800" xml:space="preserve">
<path d="M319.856,84.744C319.856,37.934,358.235,0,405.599,0c47.331,0,85.688,37.934,85.688,84.744
	c0,46.832-38.357,84.7-85.688,84.7C358.235,169.444,319.856,131.576,319.856,84.744z M696.344,294.813
	c8.475,14.301,3.581,32.682-10.927,41.037c-25.694,14.866-57.346,25.716-88.629,25.716c-27.018,0-53.775-8.073-76.258-28.624
	c-14.096-12.891-24.35-27.604-34.256-41.819c-4.091-5.859-8.019-11.285-11.958-16.45c3.267,39.236,8.768,109.875,10.558,158.225
	c0.391,1.692,14.519,213.324,19.922,294.423c32.477-11.264,51.477-27.192,51.477-44.64c0-14.128-11.893-27.019-34.245-37.652
	v-21.419c87.944,16.449,144.086,48.242,144.086,82.378c0,50.977-123.828,94.011-270.389,94.011
	c-146.56,0-270.377-43.034-270.377-94.011c0-35.352,59.95-68.099,153.276-84.027l-1.334,18.272
	c-29.33,11.285-45.433,26.302-45.433,42.448c0,20.529,25.76,38.324,65.918,49.327l22.483-313.998
	c0.108-1.475,0.488-2.864,0.748-4.275c2.768-63.801,5.925-126.041,7.271-151.844c-8.052,7.942-15.268,17.99-23.102,29.231
	c-9.906,14.214-20.149,28.928-34.256,41.819c-22.472,20.551-49.24,28.624-76.247,28.624c-31.305,0-62.945-10.851-88.65-25.716
	c-14.486-8.355-19.391-26.736-10.916-41.037c8.485-14.323,27.072-19.206,41.559-10.808c27.788,16.038,68.848,26.888,93.001,4.818
	c9.136-8.333,17.079-19.727,25.467-31.792c13.986-20.096,29.828-42.817,55.946-57.661c13.834-7.834,29.633-12.218,44.922-16.254
	c3.786-0.998,7.605-1.845,11.49-2.539c8.409-1.519,16.938-2.387,25.488-2.691L365.256,407.77l36.502,37l31.923-37l-22.125-229.623
	c14.074,0.955,28.115,3.473,41.482,7.856c36.6,12.023,61.979,40.408,83.29,71.029c8.377,12.066,16.309,23.459,25.456,31.792
	c24.164,22.07,65.202,11.176,93.001-4.818C669.271,275.629,687.869,280.49,696.344,294.813z M426.845,742.34l-16.232-247.678
	c-2.854-0.348-5.664-0.869-8.594-0.869c-2.507,0-5.404,0.738-8.322,1.52l-17.752,248.004c5.957,0.238,12.001,0.391,18.153,0.391
	C405.067,743.707,415.994,743.186,426.845,742.34z M750.955,164.345v76.801H800v-76.801H750.955z M678.19,241.146h49.089v-135.07
	H678.19V241.146z M647.537,47.787h-49.045v193.359h49.045V47.787z M0,241.146h49.045v-76.801H0V241.146z M121.81,106.076H72.722
	v135.07h49.088V106.076z M201.52,47.787h-49.057v193.359h49.057V47.787z"/>
</svg>
