<?xml version="1.0" encoding="utf-8"?>
<!-- Generator: Adobe Illustrator 16.0.0, SVG Export Plug-In . SVG Version: 6.00 Build 0)  -->
<!DOCTYPE svg PUBLIC "-//W3C//DTD SVG 1.1//EN" "http://www.w3.org/Graphics/SVG/1.1/DTD/svg11.dtd">
<svg version="1.1" id="Layer_1" xmlns="http://www.w3.org/2000/svg" xmlns:xlink="http://www.w3.org/1999/xlink" x="0px" y="0px"
	 width="800px" height="800px" viewBox="0 0 800 800" enable-background="new 0 0 800 800" xml:space="preserve">
<path d="M116.057,84.744c0-46.81,38.389-84.744,85.69-84.744c47.324,0,85.625,37.934,85.625,84.744s-38.301,84.744-85.625,84.744
	C154.446,169.487,116.057,131.554,116.057,84.744z M412.107,382.248l-6.963-1.39c-9.176-1.713-19.535-3.688-22.82-7.248
	c-5.255-5.729-8.365-17.252-10.861-27.625c-6.263-26.107-17.475-55.469-31.579-82.705c-15.285-29.644-39.352-55.1-69.376-70.443
	c-5.913-3.038-12.219-5.469-18.547-7.486c-12.767-4.058-26.191-6.099-39.616-7.01l22.096,229.427l-31.928,37.022l-36.462-37.022
	l27.659-229.557c-14.015,0.456-28.074,2.04-41.542,6.119c-6.854,2.084-13.621,4.731-20.016,8.073
	c-11.256,5.902-21.789,13.673-31.314,22.027c-42.725,37.457-65.894,102.453-70.799,198.698
	c-0.832,16.603,12.066,30.751,28.863,31.576c0.503,0.021,1.029,0.043,1.555,0.043c16.074,0,29.541-12.5,30.374-28.602
	c3.307-64.953,16.292-113.39,37.644-142.319c-1.533,30.079-4.205,83.985-6.591,139.323c-0.351,1.605-0.768,3.168-0.898,4.84
	L96.851,755.858c-1.489,21.485,14.848,40.147,36.55,41.667c0.941,0.043,1.861,0.087,2.803,0.087
	c20.541,0,37.841-15.712,39.308-36.241l19.074-266.103c2.891-0.76,5.738-1.475,8.19-1.475c2.935,0,5.694,0.521,8.541,0.846
	l17.606,268.901C230.303,784.159,247.646,800,268.276,800c0.81,0,1.665,0,2.541-0.088c21.746-1.366,38.213-19.921,36.834-41.449
	l-20.914-319.271c-0.176-2.344-0.613-4.622-1.161-6.857c-1.862-48.741-7.38-119.706-10.577-158.594
	c4.357,5.859,8.059,11.763,10.73,16.928c11.738,22.742,21.438,48.002,26.542,69.227c4.27,17.709,10.051,37.957,25.162,54.297
	c16.905,18.338,39.637,22.656,56.28,25.781l6.087,1.193c2.081,0.435,4.14,0.629,6.176,0.629c14.103,0,26.783-9.765,29.761-24.001
	C439.109,401.519,428.575,385.59,412.107,382.248z M483.279,141.819V310.46h27.199c0.064,0,0.109-0.043,0.174-0.043V169.292h231.953
	v166.449H554.253v27.496H770V141.819H483.279z M729.729,264.063l-73.93-85.308l-50.87,74.718l-30.464-35.917l-50.848,74.848
	c-2.804,4.167-1.73,9.875,2.408,12.739c1.577,1.042,3.374,1.584,5.146,1.584c2.913,0,5.804-1.411,7.534-4.015l37.401-54.969
	l30.397,35.871l51.046-74.934l58.403,67.404c3.307,3.798,9.067,4.253,12.855,0.89C732.599,273.654,733.036,267.881,729.729,264.063z
	 M423.101,422.96l173.221-151.368L416.203,400.238L423.101,422.96z"/>
</svg>
