<?xml version="1.0" encoding="utf-8"?>
<!-- Generator: Adobe Illustrator 16.0.0, SVG Export Plug-In . SVG Version: 6.00 Build 0)  -->
<!DOCTYPE svg PUBLIC "-//W3C//DTD SVG 1.1//EN" "http://www.w3.org/Graphics/SVG/1.1/DTD/svg11.dtd">
<svg version="1.1" id="Layer_1" xmlns="http://www.w3.org/2000/svg" xmlns:xlink="http://www.w3.org/1999/xlink" x="0px" y="0px"
	 width="800px" height="800px" viewBox="0 0 800 800" enable-background="new 0 0 800 800" xml:space="preserve">
<path d="M251.038,240.532V103.104h19.463c12.2,0,16.475-7.571,9.473-16.87l-43.135-57.254c-6.938-9.309-18.41-9.309-25.369,0
	l-43.135,57.254c-6.938,9.277-2.706,16.87,9.495,16.87h17.808v137.428H251.038z M385.662,84.78c0-46.838,37.526-84.78,83.861-84.78
	c46.271,0,83.798,37.942,83.798,84.78c0,46.837-37.527,84.779-83.798,84.779C423.188,169.56,385.662,131.618,385.662,84.78z
	 M561.634,209.607c-10.48-8.19-24.939-17.564-37.311-22.181c-14.222-5.278-29.367-8.168-44.446-9.2l21.611,229.746l-31.191,37.03
	l-35.723-37.03l27.108-230.006c-6.316,0.218-12.502,0.652-18.323,1.478c-13.705,0.836-28.12,3.932-42.405,12.262
	c-28.697,16.782-42.704,45.154-53.938,67.943l-4.252,8.516c-9.797,19.238-17.381,21.16-25.606,21.595
	c-18.796,1.064-40.02-7.898-60.512-16.488l-3.76-1.565c-15.123-6.311-32.265,0.955-38.473,16.141
	c-6.208,15.218,0.966,32.619,15.981,38.909l3.695,1.542c23.672,9.939,50.309,21.104,79.996,21.104c2.019,0,4.081-0.054,6.122-0.163
	c48.827-2.531,68.48-41.145,74.948-53.842l1.761-3.51c-1.569,31.914-3.781,77.979-5.736,124.665
	c-0.064,0.575-0.235,1.099-0.278,1.685L367.229,756.28c-1.46,21.278,14.371,39.723,35.444,41.244
	c0.903,0.064,1.783,0.087,2.706,0.087c19.85,0,36.626-15.545,38.065-35.878l18.602-266.113c3.008-0.836,5.929-1.585,8.486-1.585
	c2.986,0,5.865,0.531,8.786,0.912l17.206,268.946C497.813,784.326,514.612,800,534.568,800c0.838,0,1.676-0.022,2.514-0.064
	c21.029-1.38,36.99-19.76,35.638-41.037l-20.473-319.435c-0.085-1.261-0.407-2.446-0.601-3.661
	c-1.633-49.032-7.282-122.754-10.505-162.424c21.547,28.982,33.661,77.23,34.971,142.078c0.302,16.25,13.448,29.187,30.031,29.176
	c16.284-0.337,29.192-13.948,28.85-30.392C632.975,314.982,608.292,246.148,561.634,209.607z"/>
</svg>
