<?xml version="1.0" encoding="utf-8"?>
<!-- Generator: Adobe Illustrator 16.0.0, SVG Export Plug-In . SVG Version: 6.00 Build 0)  -->
<!DOCTYPE svg PUBLIC "-//W3C//DTD SVG 1.1//EN" "http://www.w3.org/Graphics/SVG/1.1/DTD/svg11.dtd">
<svg version="1.1" id="Layer_1" xmlns="http://www.w3.org/2000/svg" xmlns:xlink="http://www.w3.org/1999/xlink" x="0px" y="0px"
	 width="800px" height="800px" viewBox="0 0 800 800" enable-background="new 0 0 800 800" xml:space="preserve">
<path d="M547.948,84.776C547.948,37.944,585.884,0,632.737,0c46.768,0,84.702,37.944,84.702,84.776
	c0,46.843-37.935,84.787-84.702,84.787C585.884,169.563,547.948,131.619,547.948,84.776z M725.838,209.603
	c-10.591-8.182-25.196-17.557-37.718-22.179c-14.366-5.273-29.688-8.16-44.922-9.201l21.854,229.752l-31.533,37.023l-36.111-37.023
	l27.387-230.013c-6.38,0.217-12.63,0.651-18.512,1.476c-13.867,0.847-28.429,3.939-42.86,12.272
	c-29.015,16.775-43.187,45.149-54.536,67.937l-4.297,8.518c-9.896,19.238-17.557,21.158-25.891,21.593
	c-18.989,1.063-40.452-7.889-61.155-16.482l-3.82-1.563c-15.278-6.315-32.596,0.955-38.89,16.135
	c-6.271,15.224,0.977,32.617,16.168,38.911l3.733,1.541c23.937,9.938,50.847,21.104,80.861,21.104c2.04,0,4.123-0.055,6.186-0.163
	c49.371-2.528,69.229-41.146,75.782-53.841l1.779-3.516c-1.606,31.911-3.819,77.983-5.815,124.674
	c-0.065,0.575-0.239,1.097-0.283,1.683l-23.915,338.042c-1.476,21.278,14.519,39.725,35.83,41.243
	c0.911,0.065,1.801,0.087,2.734,0.087c20.052,0,37.022-15.549,38.478-35.883l18.814-266.114c3.039-0.835,5.99-1.584,8.572-1.584
	c3.018,0,5.926,0.532,8.877,0.912l17.383,268.956C661.341,784.32,678.312,800,698.493,800c0.825,0,1.693-0.022,2.539-0.065
	c21.246-1.378,37.393-19.759,36.025-41.037l-20.703-319.434c-0.087-1.259-0.412-2.441-0.607-3.668
	c-1.65-49.023-7.357-122.743-10.612-162.413c21.767,28.972,34.028,77.225,35.353,142.079c0.303,16.243,13.585,29.178,30.36,29.167
	c16.45-0.337,29.493-13.943,29.146-30.393C797.953,314.984,773.018,246.147,725.838,209.603z M0,423.025v23.578v34.733h150.393
	v259.526H68.881V800h81.512h48.178h81.555v-59.137h-81.555V481.337h150.437v-34.733v-23.578H0z M94.945,273.937h50.174v114.377
	h41.559V212.717h50.153v175.597h79.45V142.676h-86.417c0-0.131,0.108-0.25,0.108-0.391c0-14.822-27.93-26.823-62.393-26.823
	c-34.506,0-62.414,12.001-62.414,26.823c0,0.141,0.108,0.26,0.108,0.391H26.606v245.638h68.339V273.937z"/>
</svg>
