<?xml version="1.0" encoding="utf-8"?>
<!-- Generator: Adobe Illustrator 16.0.0, SVG Export Plug-In . SVG Version: 6.00 Build 0)  -->
<!DOCTYPE svg PUBLIC "-//W3C//DTD SVG 1.1//EN" "http://www.w3.org/Graphics/SVG/1.1/DTD/svg11.dtd">
<svg version="1.1" id="Layer_1" xmlns="http://www.w3.org/2000/svg" xmlns:xlink="http://www.w3.org/1999/xlink" x="0px" y="0px"
	 width="800px" height="800px" viewBox="0 0 800 800" enable-background="new 0 0 800 800" xml:space="preserve">
<path d="M474.51,800c37.882-41.104,80.794-96.095,64.645-152.019c-10.459-36.263-39.484-82.378-69.037-109.657
	c-15.008-13.911-35.158-26.779-55.064-33.203c-14.04-4.557-28.806-7.118-43.594-8.095l22.852,229.514l-32.981,37.001l-37.683-37.001
	l28.586-229.492c-14.765,0.5-29.597,2.519-43.747,6.663c-22.325,6.488-44.143,19.054-60.952,34.613
	c-29.531,27.279-58.579,73.395-69.038,109.657C162.346,703.905,205.28,758.896,243.139,800H474.51z M478.706,663.976
	c5.911,20.55-11.557,48.936-32.123,74.239c-2.307-48.327-7.447-111.522-10.48-146.83C454.427,612,472.313,641.991,478.706,663.976z
	 M238.964,663.976c6.767-23.395,26.587-55.838,46.142-76.39c-1.56,28.862-4.548,86.265-7.207,145.075
	c-0.22,1.388-0.616,2.711-0.703,4.144l-0.615,8.029C253.774,717.946,232.505,686.349,238.964,663.976z M271.989,403.711
	c0-46.811,39.617-84.723,88.528-84.723c48.89,0,88.506,37.912,88.506,84.723c0,46.788-39.616,84.678-88.506,84.678
	C311.605,488.389,271.989,450.499,271.989,403.711z M625,40.581C625,18.164,602.721,0,575.232,0H344.916
	c-27.487,0-49.812,18.164-49.812,40.581v147.656c0,22.374,22.324,40.561,49.812,40.561h163.718
	c25.094,17.1,26.278,41.254,15.228,72.135c58.644-12.781,100.92-55.816,100.92-107.617c0-0.802-0.088-1.541-0.088-2.365
	c0.021-0.89,0.307-1.78,0.307-2.713V40.581z M576.463,189.258H342.389V36.914h234.074V189.258z"/>
</svg>
