<?xml version="1.0" encoding="utf-8"?>
<!-- Generator: Adobe Illustrator 16.0.0, SVG Export Plug-In . SVG Version: 6.00 Build 0)  -->
<!DOCTYPE svg PUBLIC "-//W3C//DTD SVG 1.1//EN" "http://www.w3.org/Graphics/SVG/1.1/DTD/svg11.dtd">
<svg version="1.1" id="Layer_1" xmlns="http://www.w3.org/2000/svg" xmlns:xlink="http://www.w3.org/1999/xlink" x="0px" y="0px"
	 width="800px" height="800px" viewBox="0 0 800 800" enable-background="new 0 0 800 800" xml:space="preserve">
<path d="M298.351,84.787C298.351,37.934,336.74,0,384.114,0c47.353,0,85.721,37.934,85.721,84.787
	c0,46.81-38.368,84.744-85.721,84.744C336.74,169.531,298.351,131.597,298.351,84.787z M679.557,294.878
	c-8.463-14.345-27.083-19.163-41.579-10.786c-27.8,16.037-68.837,26.91-93.013,4.817c-9.158-8.376-17.079-19.748-25.478-31.814
	c-21.311-30.599-46.701-59.028-83.29-71.05c-13.389-4.405-27.43-6.901-41.493-7.856l22.114,229.708l-31.923,37.045l-36.501-37.045
	l27.734-229.947c-8.55,0.304-17.101,1.15-25.521,2.691c-3.863,0.694-7.682,1.519-11.502,2.518
	c-15.277,4.036-31.076,8.42-44.922,16.297c-26.106,14.822-41.97,37.587-55.946,57.639c-8.398,12.066-16.341,23.438-25.478,31.814
	c-24.175,22.092-65.234,11.22-93.012-4.817c-14.497-8.42-33.095-3.559-41.58,10.786c-8.464,14.323-3.581,32.726,10.916,41.102
	c25.716,14.844,57.357,25.716,88.672,25.716c27.018,0,53.798-8.095,76.28-28.667c14.106-12.891,24.349-27.604,34.245-41.818
	c7.855-11.242,15.061-21.268,23.112-29.232c-1.346,25.759-4.492,88.064-7.27,151.888c-0.26,1.432-0.651,2.777-0.738,4.254
	l-24.197,337.998c-0.716,9.875,2.496,19.055,8.138,26.346h62.479c4.492-5.838,7.422-12.955,7.986-20.854l19.032-266.124
	c2.93-0.781,5.816-1.541,8.333-1.541c2.93,0,5.729,0.543,8.594,0.867l17.621,268.968c0.456,6.944,2.844,13.26,6.424,18.685h65.799
	c4.492-6.814,6.987-14.995,6.424-23.72l-20.921-319.401c-0.13-2.17-0.563-4.253-1.063-6.293
	c-1.801-48.394-7.291-119.032-10.568-158.29c3.95,5.122,7.878,10.547,11.979,16.45c9.896,14.214,20.139,28.928,34.245,41.818
	c22.504,20.573,49.262,28.667,76.28,28.667c31.314,0,62.955-10.873,88.649-25.716C683.138,327.604,688.021,309.201,679.557,294.878z
	 M665.234,487.977l-151.997,157.4c35.156,12.565,57.118,30.122,57.118,49.588c0,38.173-84.071,69.076-187.804,69.076
	c-103.689,0-187.76-30.903-187.76-69.076c0-18.511,19.878-35.265,52.04-47.656l-125.608-163.78l48.828-38.454L0,377.647
	l22.396,183.594l46.137-36.263l110.156,143.641c-62.196,13.737-99.609,33.725-99.609,56.164C79.08,766.298,216.883,800,386.892,800
	c169.965,0,307.726-33.702,307.726-75.217c0-22.07-40.191-47.439-102.691-64.236l120.964-125.261l44.228,43.815L800,399.24
	l-176.52,47.396L665.234,487.977z"/>
</svg>
