<?xml version="1.0" encoding="utf-8"?>
<!-- Generator: Adobe Illustrator 16.0.0, SVG Export Plug-In . SVG Version: 6.00 Build 0)  -->
<!DOCTYPE svg PUBLIC "-//W3C//DTD SVG 1.1//EN" "http://www.w3.org/Graphics/SVG/1.1/DTD/svg11.dtd">
<svg version="1.1" id="Layer_1" xmlns="http://www.w3.org/2000/svg" xmlns:xlink="http://www.w3.org/1999/xlink" x="0px" y="0px"
	 width="800px" height="800px" viewBox="0 0 800 800" enable-background="new 0 0 800 800" xml:space="preserve">
<path d="M299.311,199.588c0-46.832,38.265-84.766,85.49-84.766c47.201,0,85.456,37.934,85.456,84.766
	c0,46.81-38.255,84.723-85.456,84.723C337.576,284.311,299.311,246.398,299.311,199.588z M249.649,570.161
	c-28.938-37.001-53.129-81.273-40.616-126.15c10.108-36.285,38.146-82.421,66.638-109.722
	c16.251-15.582,37.312-28.147,58.849-34.636c13.683-4.144,28.005-6.163,42.273-6.662l-27.626,229.623l36.412,37.022l31.829-37.022
	l-22.057-229.645c14.278,0.977,28.536,3.537,42.1,8.095c19.219,6.423,38.677,19.291,53.172,33.225
	c28.503,27.301,56.541,73.437,66.649,109.722c12.512,44.877-11.678,89.149-40.628,126.15H249.649z M457.766,387.371
	c2.936,35.329,7.887,98.568,10.129,146.918c19.848-25.325,36.727-53.712,30.995-74.286
	C492.758,438.021,475.468,408.007,457.766,387.371z M303.742,540.906l0.575-8.028c0.097-1.434,0.466-2.758,0.715-4.145
	c2.557-58.833,5.427-116.276,6.912-145.161c-18.861,20.573-38.005,53.038-44.526,76.431
	C261.176,482.4,281.728,514.02,303.742,540.906z M755,518.511c-0.478,2.67-0.673,4.45-0.759,6.229l0.13,6.489
	C754.457,646.854,689.087,751.758,589.222,800c13.044-81.141-5.872-142.208-57.505-186.198l-8.083-6.878H131.822
	C83.958,606.924,45,567.253,45,518.511V88.412C45,39.626,83.958,0,131.822,0h536.292C716.021,0,755,39.626,755,88.412V518.511z
	 M671.125,77.756H125.906v443.708h545.219V77.756z"/>
</svg>
