<?xml version="1.0" encoding="utf-8"?>
<!-- Generator: Adobe Illustrator 16.0.0, SVG Export Plug-In . SVG Version: 6.00 Build 0)  -->
<!DOCTYPE svg PUBLIC "-//W3C//DTD SVG 1.1//EN" "http://www.w3.org/Graphics/SVG/1.1/DTD/svg11.dtd">
<svg version="1.1" id="Layer_1" xmlns="http://www.w3.org/2000/svg" xmlns:xlink="http://www.w3.org/1999/xlink" x="0px" y="0px"
	 width="800px" height="800px" viewBox="0 0 800 800" enable-background="new 0 0 800 800" xml:space="preserve">
<path d="M739.735,339.735h-35.612c-8.464-40.527-24.87-78.157-47.396-111.187l26.085-26.118c23.589-23.557,23.589-61.729,0-85.232
	c-23.503-23.557-61.697-23.557-85.222,0l-26.888,26.899c-32.965-21.745-70.291-37.37-110.417-45.259V60.287
	C460.286,26.997,433.312,0,400.021,0c-33.333,0-60.308,26.997-60.308,60.287v38.552c-40.126,7.889-77.452,23.535-110.417,45.259
	l-26.932-26.91c-23.524-23.578-61.675-23.578-85.265-0.011c-23.503,23.514-23.503,61.687,0,85.254l26.172,26.118
	c-22.526,33.029-38.933,70.659-47.483,111.187H60.265C26.996,339.735,0,366.71,0,400s26.996,60.298,60.265,60.298h34.332
	c7.682,41.471,23.416,80.078,45.855,114.052l-23.351,23.285c-23.503,23.535-23.503,61.687,0,85.222
	c23.546,23.546,61.74,23.546,85.265,0l22.548-22.505c34.006,23.254,72.873,39.855,114.8,48.112v31.294
	c0,33.246,26.975,60.242,60.308,60.242c33.29,0,60.265-26.996,60.265-60.242v-31.294c41.927-8.214,80.794-24.858,114.801-48.112
	l22.504,22.473c23.567,23.578,61.719,23.578,85.222,0c23.589-23.503,23.589-61.676,0-85.211l-23.264-23.264
	c22.396-33.974,38.172-72.581,45.854-114.052h34.332C773.003,460.298,800,433.29,800,400S773.003,339.735,739.735,339.735z
	 M400.021,655.697c-138.998,0-252.018-113.043-252.018-252.04c0-138.976,113.021-252.04,252.018-252.04
	c138.976,0,251.975,113.064,251.975,252.04C651.996,542.654,538.997,655.697,400.021,655.697z M366.384,616.298
	c-14.735-2.17-28.993-5.718-42.665-10.568c2.148-49.175,4.384-95.313,5.708-122.136c-17.252,23.807-28.863,61.133-34.288,109.853
	c-20.009-10.352-38.281-23.513-54.297-39.052c10.482-59.244,30.816-102.062,61.675-129.72c8.463-7.585,17.405-14.529,27.127-20.28
	c5.555-3.276,11.437-5.924,17.469-8.095c14.779-5.338,30.512-7.877,46.159-8.409L366.384,616.298z M493.272,419.499
	c-12.196-9.549-24.826-17.72-39.497-22.852c-13.628-4.774-27.951-7.443-42.317-8.431l21.484,228.189
	c16.775-2.43,32.921-6.641,48.308-12.488c-2.431-42.796-6.142-90.811-8.507-120.28c17.621,23.882,28.819,60.938,32.985,109.386
	c20.183-10.558,38.629-23.969,54.731-39.822C550.282,491.461,527.843,446.561,493.272,419.499z M401.085,379.547
	c46.267,0,83.811-37.912,83.811-84.755c0-46.821-37.544-84.755-83.811-84.755c-46.268,0-83.768,37.934-83.768,84.755
	C317.317,341.635,354.817,379.547,401.085,379.547z"/>
</svg>
