<?xml version="1.0" encoding="utf-8"?>
<!-- Generator: Adobe Illustrator 16.0.0, SVG Export Plug-In . SVG Version: 6.00 Build 0)  -->
<!DOCTYPE svg PUBLIC "-//W3C//DTD SVG 1.1//EN" "http://www.w3.org/Graphics/SVG/1.1/DTD/svg11.dtd">
<svg version="1.1" id="Layer_1" xmlns="http://www.w3.org/2000/svg" xmlns:xlink="http://www.w3.org/1999/xlink" x="0px" y="0px"
	 width="800px" height="800px" viewBox="0 0 800 800" enable-background="new 0 0 800 800" xml:space="preserve">
<path d="M171.724,84.755C171.724,37.934,210.483,0,258.252,0c47.791,0,86.573,37.934,86.573,84.755
	c0,46.842-38.782,84.754-86.573,84.754C210.483,169.509,171.724,131.597,171.724,84.755z M353.459,209.463
	c-7.427-5.622-15.754-11.405-24.016-15.768c-5.493-2.886-11.272-5.24-17.183-7.215c-13.93-4.688-28.608-7.314-43.286-8.301
	l22.303,229.698l-32.234,37.023l-36.827-37.023l27.971-230.024c-15.71,0.521-31.531,2.94-46.45,7.976
	c-6.152,2.073-12.129,4.59-17.798,7.704c-36.036,19.78-60.711,51.509-75.872,88.802C93.258,323.753,87.304,369.011,85.04,413.26
	c-0.856,16.505,12.107,30.557,28.938,31.38c0.527,0.033,1.054,0.043,1.56,0.043c16.15,0,29.685-12.412,30.476-28.405
	c3.362-65.182,16.568-113.781,38.233-142.72c-1.56,30.327-4.307,85.34-6.767,141.536c-0.176,1.021-0.462,1.985-0.549,3.026
	l-24.412,337.979c-1.539,21.365,14.897,39.897,36.694,41.418c0.967,0.065,1.911,0.098,2.834,0.098
	c20.589,0,37.97-15.615,39.464-36.046l19.204-266.093c3.032-0.824,6.02-1.563,8.591-1.563c3.032,0,5.933,0.531,8.877,0.89
	l17.776,268.936C287.3,784.245,304.746,800,325.445,800c0.834,0,1.714-0.021,2.593-0.076c21.818-1.388,38.364-19.834,36.936-41.21
	l-21.116-319.357c-0.11-1.779-0.528-3.462-0.857-5.144c-1.758-48.894-7.493-121.279-10.767-160.612
	c22.126,28.981,34.585,77.082,35.925,141.786c0.352,16.309,13.975,29.296,31.18,29.286c16.854-0.337,30.234-13.997,29.883-30.522
	C427.157,314.877,401.646,246.006,353.459,209.463z M576.439,0c-76.861,0-139.153,48.004-139.153,107.227
	c0,17.155,5.361,33.322,14.677,47.7l-34.519,62.705l61.59-33.908c25.093,18.989,59.459,30.708,97.405,30.708
	c76.861,0,138.561-48.524,138.561-107.736C715,47.482,653.301,0,576.439,0z M497.909,126.671c-11.579,0-20.919-9.19-20.919-20.497
	c0-11.328,9.34-20.519,20.919-20.519c11.602,0,20.94,9.19,20.94,20.519C518.85,117.48,509.511,126.671,497.909,126.671z
	 M578.967,126.671c-11.602,0-20.939-9.19-20.939-20.497c0-11.328,9.338-20.519,20.939-20.519c11.579,0,20.918,9.19,20.918,20.519
	C599.885,117.48,590.546,126.671,578.967,126.671z M654.092,126.671c-11.602,0-20.94-9.19-20.94-20.497
	c0-11.328,9.339-20.519,20.94-20.519c11.58,0,20.896,9.19,20.896,20.519C674.987,117.48,665.672,126.671,654.092,126.671z"/>
</svg>
