<?xml version="1.0" encoding="utf-8"?>
<!-- Generator: Adobe Illustrator 16.0.0, SVG Export Plug-In . SVG Version: 6.00 Build 0)  -->
<!DOCTYPE svg PUBLIC "-//W3C//DTD SVG 1.1//EN" "http://www.w3.org/Graphics/SVG/1.1/DTD/svg11.dtd">
<svg version="1.1" id="Layer_1" xmlns="http://www.w3.org/2000/svg" xmlns:xlink="http://www.w3.org/1999/xlink" x="0px" y="0px"
	 width="800px" height="800px" viewBox="0 0 800 800" enable-background="new 0 0 800 800" xml:space="preserve">
<path d="M218.671,452.344c4.341,21.083,12.152,40.777,22.612,58.691H90.33v18.88c0,12.902-8.464,17.394-18.836,10.016L7.779,494.26
	c-10.372-7.368-10.372-19.511,0-26.877l63.715-45.669c10.416-7.379,18.836-2.877,18.836,10.004v20.626H218.671z M271.317,275.673
	l-122.091-51.465l7.683-19.064c4.774-11.925-1.303-19.38-13.672-16.591l-75.953,17.385c-12.327,2.777-16.841,13.997-9.983,24.869
	l41.884,67.045c6.814,10.851,16.319,10.004,21.094-1.931l7.074-17.449l108.636,45.77
	C245.232,306.175,257.125,289.779,271.317,275.673z M437.245,224.665l-2.953-132.976l20.141-0.465
	c12.629-0.314,16.795-9.029,9.373-19.466L417.669,7.629c-7.422-10.406-19.313-10.135-26.301,0.619l-43.142,66.243
	c-6.988,10.731-2.43,19.259,10.242,18.967l18.446-0.433l2.908,129.621c7.335-0.89,14.714-1.464,22.266-1.464
	C414.109,221.182,425.872,222.441,437.245,224.665z M674.306,256.099l11.329,17.002c7.161,10.655,16.581,9.517,21.094-2.582
	l27.388-74.458c4.469-12.076-2.172-22.114-14.846-22.223l-77.817-0.901c-12.589-0.108-17.146,8.464-9.984,19.11l10.417,15.592
	l-104.34,72.948c13.238,14.161,24.307,30.382,32.855,48.178L674.306,256.099z M792.188,467.383l-63.715-45.669
	c-10.373-7.379-18.837-2.877-18.837,10.004v20.626H585.55c-4.34,21.083-12.153,40.777-22.656,58.691h146.742v18.88
	c0,12.902,8.464,17.394,18.837,10.016l63.715-45.671C802.604,486.892,802.604,474.749,792.188,467.383z M322.336,397.245
	c0-46.919,38.064-84.939,85.005-84.939c46.939,0,85.024,38.02,85.024,84.939c0,46.96-38.085,84.96-85.024,84.96
	C360.4,482.205,322.336,444.205,322.336,397.245z M265.609,757.943c0.521,0.042,1.043,0.042,1.541,0.042
	c15.863,0,29.146-12.435,29.927-28.471c3.298-65.321,16.275-114.02,37.563-143.034c-1.54,30.403-4.231,85.524-6.661,141.861
	c-0.152,1.02-0.435,1.997-0.521,3.038L322.597,800h171.896l-3.061-47.352c-0.107-1.78-0.521-3.452-0.846-5.145
	c-1.735-49.023-7.357-121.55-10.569-160.979c21.723,29.057,33.963,77.256,35.286,142.121c0.348,16.32,13.715,29.34,30.621,29.34
	c16.557-0.348,29.707-14.019,29.36-30.598c-2.04-99.48-27.082-168.512-74.435-205.144c-12.305-9.527-25.368-17.838-40.125-22.927
	c-13.801-4.774-28.319-7.444-42.859-8.432l21.918,230.207l-31.66,37.11l-36.199-37.11l27.495-230.534
	c-35.546,1.206-65.711,13.521-92.1,36.86c-42.36,37.512-65.298,102.638-70.138,199.101
	C236.335,743.055,249.074,757.117,265.609,757.943z"/>
</svg>
