<?xml version="1.0" encoding="utf-8"?>
<!-- Generator: Adobe Illustrator 16.0.0, SVG Export Plug-In . SVG Version: 6.00 Build 0)  -->
<!DOCTYPE svg PUBLIC "-//W3C//DTD SVG 1.1//EN" "http://www.w3.org/Graphics/SVG/1.1/DTD/svg11.dtd">
<svg version="1.1" id="Layer_1" xmlns="http://www.w3.org/2000/svg" xmlns:xlink="http://www.w3.org/1999/xlink" x="0px" y="0px"
	 width="800px" height="800px" viewBox="0 0 800 800" enable-background="new 0 0 800 800" xml:space="preserve">
<path d="M712.742,149.566c-31.104,49.912-83.46,4.86-123.934,49.479c-33.775-71.896-87.992-125.174-91.472-128.515
	c-0.308-0.305-0.679-0.543-0.986-0.848c11.339-19.053,35.831-46.028,81.404-38.715C646.484,41.971,690.438,36.763,699.784,0
	C699.784,0,746.517,95.378,712.742,149.566z M247.477,169.835c47.564,0,86.044-37.935,86.044-84.744s-38.48-84.7-86.044-84.7
	s-86.066,37.891-86.066,84.7S199.913,169.835,247.477,169.835z M602.73,241.992c-3.523-6.099-9.04-10.069-15.17-12.522
	c-30.117-81.856-95.609-146.332-99.373-149.956c-6.786-6.575-17.73-6.51-24.429,0.13c-6.742,6.576-6.742,17.231,0.021,23.829
	c27.448,26.736,51.045,58.854,69.868,91.927c7.114,12.479,13.287,26.02,18.65,39.671c-68.574,34.364-133.758,21.242-195.616-19.464
	c-20.528-13.508-44.737-28.297-68.957-33.598c-9.411-2.06-19.938-2.603-29.568-3.253l22.152,229.253l-32.024,37.001l-36.685-37.001
	c0,0,27.842-229.904,27.842-229.904c-16.027,0.544-32.138,3.069-47.301,8.388c-16.638,5.836-32.846,16.889-46.032,28.354
	c-42.923,37.412-66.148,102.365-71.072,198.567c-0.832,16.535,12.104,30.599,28.915,31.444c0.526,0.022,1.051,0.022,1.555,0.022
	c16.132,0,29.594-12.435,30.425-28.471c3.305-65.085,16.417-113.63,37.977-142.537c-1.553,30.122-4.29,84.593-6.697,140.344
	c-0.241,1.345-0.613,2.627-0.7,4.015L142.192,755.99c-1.532,21.419,14.862,40.017,36.62,41.535c0.963,0.065,1.882,0.088,2.823,0.088
	c20.554,0,37.912-15.646,39.377-36.112l19.153-265.992c2.933-0.781,5.844-1.521,8.383-1.521c2.977,0,5.801,0.521,8.69,0.868
	l17.73,268.794c1.335,20.551,18.715,36.35,39.355,36.35c0.875,0,1.752-0.021,2.605-0.088c21.779-1.388,38.283-19.877,36.861-41.296
	l-21.058-319.162c-0.131-1.953-0.547-3.821-0.963-5.687c-1.773-47.852-7.223-117.99-10.506-157.618
	c17.357,9.939,37.583,19.749,60.675,27.193c27.494,8.854,55.095,13.259,82.39,13.259c35.131,0,69.693-7.66,102.854-22.18
	c0.744,8.877,0.985,17.753,0.109,26.629c-0.984,9.332,5.954,17.578,15.498,18.511c2.014,0.152,4.025,0.044,5.909-0.456
	c6.896-1.67,12.259-7.422,13.002-14.713c1.685-16.472,0.787-32.813-1.817-48.914C607.436,266.189,609.056,252.995,602.73,241.992z"
	/>
</svg>
