<?xml version="1.0" encoding="utf-8"?>
<!-- Generator: Adobe Illustrator 16.0.0, SVG Export Plug-In . SVG Version: 6.00 Build 0)  -->
<!DOCTYPE svg PUBLIC "-//W3C//DTD SVG 1.1//EN" "http://www.w3.org/Graphics/SVG/1.1/DTD/svg11.dtd">
<svg version="1.1" id="Layer_1" xmlns="http://www.w3.org/2000/svg" xmlns:xlink="http://www.w3.org/1999/xlink" x="0px" y="0px"
	 width="800px" height="800px" viewBox="0 0 800 800" enable-background="new 0 0 800 800" xml:space="preserve">
<path d="M720.957,328.905c-15.508,9.722-90.816,50.088-138.406,50.088c-8.595,0-16.293-1.302-22.553-4.362
	c-11.473-5.577-18.974-15.951-20.522-28.473c-3.229-25.846-8.68-47.286-16.14-63.954c3.62,45.183,9.292,122.267,10.186,167.383
	c0.045,1.976,3.141,11.09,3.141,11.09l9.923,17.622c8.179,14.54,17.535,28.298,27.459,42.837
	c5.847,8.596,11.668,17.145,17.252,25.87c12.017,18.748,27.502,47.524,23.621,81.228c-1.244,10.504-1.658,21.114-2.14,31.684
	c-0.216,6.013-0.479,12-0.849,17.926l-5.234,85.569C605.43,784.093,588.525,800,568.416,800c-0.805,0-1.591-0.021-2.398-0.065
	c-21.133-1.323-37.252-19.857-35.942-41.362l5.257-85.569c0.328-5.447,0.566-10.959,0.807-16.472
	c0.545-12.544,1.112-25.129,2.572-37.498c0.72-6.252-3.204-16.169-11.689-29.408c-5.234-8.115-10.644-16.102-16.073-24.088
	c-10.403-15.256-21.134-31.031-30.927-48.437l-11.166-19.836c-5.344-1.085-10.862-1.952-16.555-1.952
	c-0.938,0-2.116,0.456-3.118,0.586c0.284,37.11,0.565,74.239,0.413,111.37c-0.107,25.326-12.126,43.23-20.915,56.315
	c-1.7,2.561-3.424,5.1-4.994,7.726l-66.455,110.093c-7.241,12-19.825,18.598-32.737,18.598c-6.848,0-13.763-1.845-20.044-5.773
	c-18.036-11.263-23.708-35.308-12.606-53.668L358.234,630.6c2.224-3.713,4.647-7.357,7.068-10.961
	c2.833-4.274,7.175-10.698,7.587-12.977c0.153-40.973-0.15-82.205-0.479-123.438c0,0,7.613-213.455,8.44-229.34
	c-15.027,5.795-30.011,13.888-43.445,26.019c-33.609,30.274-52.279,78.624-55.485,143.664
	c-0.807,16.079-13.892,28.579-29.552,28.579c-0.501,0-1.003,0-1.504-0.021c-16.336-0.866-28.898-14.973-28.091-31.574
	c4.057-81.814,29.4-144.292,75.375-185.72c34.308-30.925,79.324-47.049,124.014-54.471c10.815-1.803,21.81-2.452,32.757-2.126
	c24.906,0.736,51.015,4.97,72.584,18.38c34.176,21.269,56.836,61.849,67.48,120.768c23.052-5.121,65.429-21.223,94.872-39.691
	c13.851-8.745,32.104-4.34,40.72,9.81C739.167,301.65,734.871,320.182,720.957,328.905z M451.255,170.03
	c46.192,0,83.575-38.065,83.575-85.047C534.83,38.042,497.447,0,451.255,0c-46.174,0-83.576,38.042-83.576,84.983
	C367.679,131.965,405.081,170.03,451.255,170.03z M278.606,496.896l40.719,18.316l-62.201,139.931L65,568.706l62.202-139.952
	l38.8,17.492l21.199-47.614l42.29,19.032c-0.284-2.885,35.638,15.69,52.169,23.46l18.146,8.16L278.606,496.896z M255.968,466.168
	l-52.082-23.481l-6.761,15.255l52.082,23.416L255.968,466.168z"/>
</svg>
