<?xml version="1.0" encoding="utf-8"?>
<!-- Generator: Adobe Illustrator 16.0.0, SVG Export Plug-In . SVG Version: 6.00 Build 0)  -->
<!DOCTYPE svg PUBLIC "-//W3C//DTD SVG 1.1//EN" "http://www.w3.org/Graphics/SVG/1.1/DTD/svg11.dtd">
<svg version="1.1" id="Layer_1" xmlns="http://www.w3.org/2000/svg" xmlns:xlink="http://www.w3.org/1999/xlink" x="0px" y="0px"
	 width="800px" height="800px" viewBox="0 0 800 800" enable-background="new 0 0 800 800" xml:space="preserve">
<path d="M648.021,462.196c6.013,3.559,13.373,2.496,17.963-2.115c0.874-0.879,1.628-1.899,2.275-2.995l35.581-61.448l-61.057-31.727
	c-7.327-3.776-16.174-0.999-19.859,6.337c-3.631,7.302-0.657,16.286,6.648,20.095l15.044,7.814l-98.223,24.663
	c-7.931,2.041-12.607,10.091-10.475,18.065c2.135,7.976,10.292,12.825,18.146,10.863l96.844-24.339l-8.309,14.322
	C638.505,448.807,640.952,457.932,648.021,462.196z M169.916,441.731l-8.298-14.322l96.843,24.339
	c7.867,1.962,16.002-2.888,18.136-10.863c2.134-7.975-2.543-16.024-10.463-18.065l-98.233-24.663l15.053-7.814
	c7.285-3.809,10.28-12.793,6.649-20.095c-3.674-7.336-12.532-10.113-19.871-6.337l-61.046,31.727l35.571,61.448
	c0.647,1.096,1.401,2.116,2.273,2.995c4.591,4.611,11.962,5.674,17.963,2.115C171.565,457.932,174.011,448.807,169.916,441.731z
	 M676.674,699.717C676.674,755.067,553.473,800,401.469,800c-151.962,0-275.217-44.933-275.217-100.283
	c0-39.973,64.872-74.108,157.846-90.158v27.572c-26.035,10.266-42.306,23.828-42.306,38.824c0,31.847,70.787,57.639,158.039,57.639
	c24.644,0,47.651-2.257,68.438-5.87c0.948-0.109,1.854-0.109,2.802-0.238c3.814-0.456,7.413-1.336,10.884-2.507
	c45.322-10.135,75.872-28.234,75.872-49.023c0-13.444-13.104-25.761-34.547-35.546v-30.112
	C613.862,626.661,676.674,660.341,676.674,699.717z M317.438,84.527C317.438,37.825,355.057,0,401.479,0
	c46.401,0,83.998,37.825,83.998,84.527c0,46.69-37.597,84.504-83.998,84.504C355.057,169.032,317.438,131.218,317.438,84.527z
	 M715.563,125.195c-41.725,68.131-135.56,125.292-226.509,125.292c-5.928,0-11.821-0.282-17.693-0.78
	c1.832,21.44,10.085,119.911,12.359,181.889c0.496,2.117,0.927,4.254,1.067,6.49l20.506,318.457
	c1.369,21.43-75.798,25.596-77.123,5.034l-17.273-268.197c-2.791-0.336-5.528-0.855-8.394-0.855c-2.447,0-5.271,0.726-8.126,1.507
	l-18.674,265.387c-1.444,20.476-78.589,15.919-77.081-5.491l23.707-337.001c0.108-1.529,0.485-2.951,0.765-4.416
	c3.417-80.11,7.425-157.498,7.716-163.063c-6.595,0.628-13.211,1.041-19.86,1.041c-90.971,0-184.807-57.161-226.521-125.292
	c-8.631-14.094-4.267-32.563,9.742-41.243c14.04-8.691,32.381-4.286,41.013,9.798c37.78,61.697,137.318,112.923,213.481,91.504
	c12.802-4.416,28.05-7.249,44.979-7.833l-27.177,229.307l35.775,36.913l31.283-36.913l-21.65-228.755
	c15.195,1.063,29.797,3.755,42.231,8.085c75.787,19.508,173.374-31.337,210.702-92.308c8.621-14.083,26.981-18.489,41.012-9.798
	C719.831,92.633,724.207,111.101,715.563,125.195z"/>
</svg>
