<?xml version="1.0" encoding="utf-8"?>
<!-- Generator: Adobe Illustrator 16.0.0, SVG Export Plug-In . SVG Version: 6.00 Build 0)  -->
<!DOCTYPE svg PUBLIC "-//W3C//DTD SVG 1.1//EN" "http://www.w3.org/Graphics/SVG/1.1/DTD/svg11.dtd">
<svg version="1.1" id="Layer_1" xmlns="http://www.w3.org/2000/svg" xmlns:xlink="http://www.w3.org/1999/xlink" x="0px" y="0px"
	 width="800px" height="800px" viewBox="0 0 800 800" enable-background="new 0 0 800 800" xml:space="preserve">
<path d="M290.973,331.347c0-55.45,44.987-100.406,100.499-100.406c55.534,0,100.586,44.957,100.586,100.406
	c0,55.513-45.053,100.407-100.586,100.407C335.959,431.754,290.973,386.859,290.973,331.347z M800,111.167
	c0,24.191-24.697,43.794-55.989,45.69V775H46.723V155.866C19.944,151.084,0,132.946,0,111.167c0-25.42,27.149-46.013,60.678-46.013
	h260.589V25h165.083v40.154h252.929C772.808,65.154,800,85.748,800,111.167z M305.491,555.059
	c-24.328,33.109-39.367,88.149-43.88,161.478h36.285C300.716,652.169,303.733,589.827,305.491,555.059z M488.673,716.536h30.251
	c-2.258-73.286-16.516-128.11-41.472-161.435C480.664,594.479,485.895,661.647,488.673,716.536z M685.005,157.246H105.729v559.291
	h84.788c6.206-111.716,33.181-187.521,82.703-231.296c10.157-9.003,20.877-17.233,32.531-24.018
	c6.641-3.899,13.693-7.044,20.941-9.607c17.751-6.334,36.61-9.307,55.426-9.954l-32.509,272.505l2.322,2.37h75.934l1.996-2.37
	L403.93,442.05c17.208,1.185,34.439,4.309,50.802,9.952c17.578,6.117,32.747,15.791,47.373,27.122
	c55.145,42.631,84.615,122.615,87.783,237.412h95.117V157.246z"/>
</svg>
