<?xml version="1.0" encoding="utf-8"?>
<!-- Generator: Adobe Illustrator 16.0.0, SVG Export Plug-In . SVG Version: 6.00 Build 0)  -->
<!DOCTYPE svg PUBLIC "-//W3C//DTD SVG 1.1//EN" "http://www.w3.org/Graphics/SVG/1.1/DTD/svg11.dtd">
<svg version="1.1" id="Layer_1" xmlns="http://www.w3.org/2000/svg" xmlns:xlink="http://www.w3.org/1999/xlink" x="0px" y="0px"
	 width="800px" height="800px" viewBox="0 0 800 800" enable-background="new 0 0 800 800" xml:space="preserve">
<path d="M418.579,0c-87.86,0-159.363,67.492-159.363,150.478c0,50.63,27.302,99.695,70.246,127.453v59.57h166.775v-58.616
	c51.372-26.67,81.705-74.045,81.705-128.407C577.941,67.492,506.461,0,418.579,0z M473.31,255.99l-9.121,4.122v47.094H361.529
	v-46.138l-7.822-4.428c-37.917-21.309-62.423-62.999-62.423-106.162c0-66.319,57.093-120.204,127.295-120.204
	s127.295,53.885,127.295,120.204C545.874,196.028,518.747,235.46,473.31,255.99z M499.527,428.582H328.552v-61.545h170.975V428.582z
	 M334.706,82.162c14.885-21.484,41.276-30.013,58.891-19.097c17.681,10.938,19.869,37.195,5.006,58.659
	c-14.929,21.464-41.32,30.013-58.957,19.075C322.03,129.883,319.798,103.625,334.706,82.162z M324.912,541.667
	c0-47.136,37.874-85.352,84.611-85.352c46.691,0,84.545,38.216,84.545,85.352c0,47.156-37.854,85.331-84.545,85.331
	C362.786,626.998,324.912,588.823,324.912,541.667z M486.983,800c-3.36-47.611-6.999-89.953-7.433-95.14
	c72.996-9.742,189.892-33.962,264.124-93.055c12.913-10.244,15.103-29.123,4.918-42.1c-10.118-13.021-28.86-15.213-41.709-4.97
	c-64.525,51.366-173.491,72.634-239.619,81.184c-13.52-5.359-29.986-8.94-47.298-10.155L435.458,800H486.983z M337.847,707.249
	c0.216,0.087,0.346,0.173,0.563,0.26c0,0-2.08,39.822-4.55,92.491h48.319l19.414-164.431c-21.928,0.781-41.082,5.25-55.794,12.021
	c-80.45-3.429-196.326-16.992-248.588-77.973c-10.77-12.521-29.511-13.933-41.927-3.08c-12.415,10.849-13.78,29.774-3.055,42.295
	C118.207,685.809,247.95,702.93,337.847,707.249z"/>
</svg>
