<?xml version="1.0" encoding="utf-8"?>
<!-- Generator: Adobe Illustrator 16.0.0, SVG Export Plug-In . SVG Version: 6.00 Build 0)  -->
<!DOCTYPE svg PUBLIC "-//W3C//DTD SVG 1.1//EN" "http://www.w3.org/Graphics/SVG/1.1/DTD/svg11.dtd">
<svg version="1.1" id="Layer_1" xmlns="http://www.w3.org/2000/svg" xmlns:xlink="http://www.w3.org/1999/xlink" x="0px" y="0px"
	 width="800px" height="800px" viewBox="0 0 800 800" enable-background="new 0 0 800 800" xml:space="preserve">
<path d="M324.859,85.156C324.859,38.086,363.491,0,411.173,0c47.684,0,86.314,38.086,86.314,85.156
	c0,47.006-38.631,85.091-86.314,85.091C363.491,170.248,324.859,132.162,324.859,85.156z M506.234,210.265
	c-8.163-6.206-16.695-11.936-25.854-16.536c-5.371-2.711-11.022-4.926-16.761-6.77c-13.47-4.341-27.608-6.814-41.728-7.77
	l22.238,230.49l-32.156,37.153l-36.768-37.153l27.89-230.794c-10.286,0.369-20.182,1.281-29.082,3.125
	c-12.451,1.867-25.313,5.578-39.216,12.761c-26.093,13.498-42.659,37.174-55.976,56.228c-2.447,3.473-4.808,6.879-8.25,11.546
	c-8.597,11.784-16.522,21.18-21.287,20.658c-11.867-1.887-35.967-15.646-53.746-30.685c-12.819-10.895-32.178-9.397-43.157,3.255
	c-11,12.652-9.549,31.705,3.292,42.556c4.634,3.929,46.448,38.586,83.932,44.467c3.94,0.629,7.73,0.911,11.347,0.911
	c35.773,0,56.561-28.45,70.311-47.266c2.621-3.602,5.263-7.356,7.948-11.177c2.685-3.862,5.435-7.747,8.228-11.545
	c-2.057,40.082-6.301,125.326-9.095,198.328c-0.823,21.703,14.964,33.726,38.437,35.245c14.464,0.867,33.066-11.221,45.452-11.221
	c20.55,0,39.432,9.811,53.571,8.009c17.454-2.302,28.065-13.672,29.494-22.136c4.135-24.654-5.566-150.065-10.286-206.88
	c21.979,29.102,34.344,77.323,35.708,142.145c0.324,16.428,13.968,29.535,30.576,29.535c0.216,0,0.433,0,0.649,0
	c16.89-0.348,30.316-14.128,29.948-30.816C579.816,316.21,554.373,247.027,506.234,210.265z M571.566,434.18h14.161
	c28.411,0,51.364-16.906,51.364-37.782c0-20.898-22.953-37.826-51.364-37.826l-279.643-0.085v0.085H228
	c-28.324,0-51.343,16.928-51.343,37.826c0,20.876,23.019,37.782,51.343,37.782h26.764v280.447H163.99V800H655v-85.373h-83.434
	V434.18z"/>
</svg>
