<?xml version="1.0" encoding="utf-8"?>
<!-- Generator: Adobe Illustrator 16.0.0, SVG Export Plug-In . SVG Version: 6.00 Build 0)  -->
<!DOCTYPE svg PUBLIC "-//W3C//DTD SVG 1.1//EN" "http://www.w3.org/Graphics/SVG/1.1/DTD/svg11.dtd">
<svg version="1.1" id="Layer_1" xmlns="http://www.w3.org/2000/svg" xmlns:xlink="http://www.w3.org/1999/xlink" x="0px" y="0px"
	 width="800px" height="800px" viewBox="0 0 800 800" enable-background="new 0 0 800 800" xml:space="preserve">
<path d="M337.68,641.905v-116.06c0-15.451-12.667-27.93-28.329-27.93H148.262c-15.597,0-28.262,12.479-28.262,27.93v116.06
	c0,15.409,12.666,27.908,28.262,27.908h161.089C325.014,669.813,337.68,657.314,337.68,641.905z M356.252,84.809
	C356.252,37.978,394.162,0,440.909,0c46.748,0,84.657,37.978,84.657,84.809c0,46.789-37.909,84.723-84.657,84.723
	C394.162,169.532,356.252,131.598,356.252,84.809z M667.908,358.594c-9.078,6.728-18.419,13.151-27.76,19.575
	c-9.144,6.293-18.287,12.565-27.146,19.185l-2.101,1.67c-4.505,3.689-15.642,12.782-30.538,12.782
	c-5.818,0-12.228-1.389-19.031-5.013c-24.74-13.13-30.801-40.951-34.409-57.553c-1.837-8.355-3.237-16.21-4.682-24.153
	c-2.429-13.63-4.77-25.392-7.7-35.525c3.084,38.649,5.95,77.322,8.006,116.015c0.897,16.862,1.708,33.769,1.817,50.651
	c0.152,20.638-1.139,34.701,8.006,53.819c9.777,20.399,18.878,41.297,23.996,63.411c4.179,18.077,8.489,36.696,5.491,60.373
	l-16.778,132.184C542.651,785.635,525.938,800,506.688,800c-1.574,0-3.216-0.087-4.833-0.305
	c-21.22-2.625-36.291-22.004-33.645-43.25l16.777-132.423c1.204-9.461-0.567-17.838-4.09-33.028
	c-4.419-19.011-14.241-39.084-24.676-60.287c-5.775-11.826-11.659-23.85-16.932-36.263c-0.218,0-0.48,0.087-0.722,0.131
	l-0.263,112.804L414.44,764.649c-2.91,19.184-19.426,32.964-38.26,32.964c-1.925,0-3.894-0.131-5.863-0.435
	c-21.154-3.232-35.678-23.003-32.485-44.184l23.429-154.362c0,0-1.772-124.263-1.597-128.625
	c0.503-13.084,1.028-26.605,1.597-40.189v-8.964c0-2.191,0.306-4.34,0.656-6.467c2.734-64.041,5.884-126.627,7.175-152.474
	c-3.632,2.539-7.307,5.36-11.025,8.442c-24.282,20.051-44.888,44.314-66.698,70.029c-5.819,6.858-11.637,13.694-17.5,20.486
	c-5.95,6.815-6.781,13.738-7.634,31.837c-0.919,18.966-1.29,37.804-1.29,56.813c0,16.514-13.388,29.905-29.882,29.905
	c-16.493,0-29.881-13.392-29.881-29.905c0-19.965,0.394-39.734,1.334-59.679c1.028-21.179,2.166-45.182,22.248-68.273
	c5.731-6.596,11.396-13.259,17.062-19.921c22.554-26.563,45.851-54.036,74.201-77.451c18.288-15.104,39.069-27.063,60.988-35.917
	c5.075-2.039,10.281-3.711,15.553-5.077c11.879-3.082,24.172-4.666,36.444-5.078l-27.366,229.773l36.051,37.023l31.5-37.023
	l-21.811-229.709c14.745,1.021,29.488,3.754,43.445,8.703c42.612,15.083,68.514,51.91,79.342,94.25
	c2.82,11.002,4.878,22.179,6.889,33.333c1.292,7.227,2.562,14.345,4.047,21.159c0.439,1.954,0.964,4.384,1.555,6.879
	c6.519-4.622,13.082-9.157,19.665-13.672c8.751-6.033,17.501-12.022,25.988-18.337c13.301-9.809,32.004-7.031,41.826,6.229
	C683.942,330.036,681.165,348.741,667.908,358.594z"/>
</svg>
