<?xml version="1.0" encoding="utf-8"?>
<!-- Generator: Adobe Illustrator 16.0.0, SVG Export Plug-In . SVG Version: 6.00 Build 0)  -->
<!DOCTYPE svg PUBLIC "-//W3C//DTD SVG 1.1//EN" "http://www.w3.org/Graphics/SVG/1.1/DTD/svg11.dtd">
<svg version="1.1" id="Layer_1" xmlns="http://www.w3.org/2000/svg" xmlns:xlink="http://www.w3.org/1999/xlink" x="0px" y="0px"
	 width="800px" height="800px" viewBox="0 0 800 800" enable-background="new 0 0 800 800" xml:space="preserve">
<path d="M322.274,324.014c0-46.79,37.155-84.702,82.985-84.702c45.874,0,82.987,37.912,82.987,84.702
	c0,46.833-37.113,84.746-82.987,84.746C359.43,408.76,322.274,370.846,322.274,324.014z M724.523,345.021
	c-14.343-7.857-32.101-2.366-39.802,12.217c-21.528,40.843-81.968,84.55-130.841,83.249c-28.984-1.128-55.866-3.667-78.444-6.402
	c-14.91-8.745-36.599-14.908-59.895-16.559l18.197,195.143h-59.047l22.813-195.359c-25.063,0.89-46.527,6.771-61.608,15.301
	c-24.634,3.299-55.792,6.575-89.798,7.877c-0.878,0.044-1.799,0.044-2.699,0.044c-46.217,0-97.767-45.009-130.98-87.72
	c-10.09-12.998-28.608-15.191-41.29-4.86c-12.724,10.309-14.845,29.167-4.777,42.146c20.393,26.216,92.541,110.441,177.09,110.441
	c1.628,0,3.256-0.044,4.883-0.131c32.539-1.236,62.358-4.102,86.972-7.162c-0.557,11.438-3.696,74.937-5.902,119.425h-98.645V800
	h349.017V612.669h-96.322c-3.009-48.068-7.035-97.983-8.717-118.23c22.535,2.604,48.691,4.905,76.925,5.968
	c1.755,0.108,3.512,0.131,5.269,0.131c73.69,0,149.98-58.748,179.574-114.869C744.167,371.064,738.811,352.899,724.523,345.021z
	 M216.785,99.746l-0.128,25.435c-0.086,12.738,8.44,17.491,18.958,10.569l80.662-53.083c10.496-6.902,10.561-18.317,0.128-25.348
	L236.364,3.282c-10.41-7.032-19-2.388-19.064,10.352l-0.214,39.171C124.62,86.573,61.267,176.115,60.003,277.312h42.628
	C103.789,199.944,149.125,131.019,216.785,99.746z M483.727,82.667l80.661,53.083c10.519,6.922,19.044,2.169,18.959-10.569
	l-0.13-25.435c67.659,31.273,112.986,100.198,114.144,177.565H740c-1.264-101.197-64.618-190.738-157.083-224.506l-0.213-39.171
	c-0.065-12.74-8.655-17.384-19.065-10.352l-80.04,54.038C473.166,64.351,473.229,75.766,483.727,82.667z"/>
</svg>
