<?xml version="1.0" encoding="utf-8"?>
<!-- Generator: Adobe Illustrator 16.0.0, SVG Export Plug-In . SVG Version: 6.00 Build 0)  -->
<!DOCTYPE svg PUBLIC "-//W3C//DTD SVG 1.1//EN" "http://www.w3.org/Graphics/SVG/1.1/DTD/svg11.dtd">
<svg version="1.1" id="Layer_1" xmlns="http://www.w3.org/2000/svg" xmlns:xlink="http://www.w3.org/1999/xlink" x="0px" y="0px"
	 width="800px" height="800px" viewBox="0 0 800 800" enable-background="new 0 0 800 800" xml:space="preserve">
<path d="M318.685,281.944c0-46.397,38.26-83.984,85.46-83.984c47.18,0,85.396,37.587,85.396,83.984s-38.216,83.963-85.396,83.963
	C356.944,365.907,318.685,328.342,318.685,281.944z M400.021,0C179.102,0,0,179.102,0,399.979C0,620.898,179.102,800,400.021,800
	C620.92,800,800,620.898,800,399.979C800,179.102,620.92,0,400.021,0z M400.021,724.805c-179.102,0-324.805-145.725-324.805-324.826
	c0-179.08,145.703-324.783,324.805-324.783s324.783,145.703,324.783,324.783C724.805,579.08,579.123,724.805,400.021,724.805z
	 M576.519,524.197c-10.112-35.959-38.129-81.684-66.623-108.746c-14.496-13.802-33.919-26.563-53.146-32.942
	c-13.521-4.492-27.8-7.031-42.058-8.008l22.049,227.582l-31.814,36.697l-36.393-36.697l27.604-227.561
	c-14.236,0.499-28.559,2.496-42.253,6.597c-21.528,6.424-42.578,18.88-58.811,34.332c-28.472,27.063-56.51,72.787-66.602,108.746
	c-9.267,32.964,1.649,65.56,19.662,95.16c19.271,12.305,40.017,22.331,62.022,29.861c29.514,10.113,61.046,15.842,93.967,15.842
	s64.453-5.729,93.967-15.842c20.009-6.857,38.976-15.82,56.749-26.649C574.023,592.101,586.111,558.355,576.519,524.197z
	 M286.827,540.039c6.51-23.177,25.651-55.36,44.488-75.76c-1.476,28.624-4.34,85.568-6.901,143.881
	c-0.261,1.367-0.608,2.69-0.716,4.102l-0.586,7.964C301.128,593.576,280.577,562.239,286.827,540.039z M487.196,613.672
	c-2.235-47.938-7.184-110.612-10.135-145.616c17.687,20.442,34.982,50.195,41.124,71.983
	C523.915,560.438,507.031,588.563,487.196,613.672z"/>
</svg>
