<?xml version="1.0" encoding="utf-8"?>
<!-- Generator: Adobe Illustrator 16.0.0, SVG Export Plug-In . SVG Version: 6.00 Build 0)  -->
<!DOCTYPE svg PUBLIC "-//W3C//DTD SVG 1.1//EN" "http://www.w3.org/Graphics/SVG/1.1/DTD/svg11.dtd">
<svg version="1.1" id="Layer_1" xmlns="http://www.w3.org/2000/svg" xmlns:xlink="http://www.w3.org/1999/xlink" x="0px" y="0px"
	 width="800px" height="800px" viewBox="0 0 800 800" enable-background="new 0 0 800 800" xml:space="preserve">
<path d="M373.963,447.938c0-0.412,0.129-0.606,0.129-0.955l-16.801-212.847c21.571,9.699,48.511,25.326,81.167,50.847
	c31.023,24.24,47.395,57.572,62.776,95.269l-35.19,0.065l0.129,65.95l-52.68,0.174l0.43,193.902L675,639.692l-0.558-193.859
	l-55.26,0.108l-0.128-65.949l-55.344,0.129c0.388-4.753,0-9.613-1.891-14.279c-18.563-46.527-40.52-94.986-86.237-130.772
	c-39.166-30.642-90.083-66.059-142.634-76.323c25.652-14.388,43.248-41.928,43.248-74.003C376.197,37.935,339.115,0,293.418,0
	c-45.675,0-82.714,37.935-82.714,84.743c0,34.181,19.83,63.391,48.232,76.802c-13.363,2.084-26.469,5.577-40.906,13.759
	c-39.768,22.505-67.61,61.654-86.839,102.496c-25.05,53.168,31.539,138.281,69.48,165.018c5.286,3.754,11.344,5.533,17.273,5.533
	c1.204,0,2.277-0.738,3.481-0.89l-0.56,10.525l-31.839,298.547c-2.277,21.506,12.891,40.82,33.902,43.25
	c1.375,0.175,2.793,0.217,4.168,0.217c19.25,0,35.835-14.865,37.941-34.961l32.87-308.008l49.414,310.092
	C350.374,786.351,366.615,800,385.049,800c2.02,0,4.125-0.13,6.188-0.521c20.839-3.516,34.976-23.633,31.581-45.03L373.963,447.938z
	 M578.02,422.353l0.043,20.985l-70.769,0.24l-0.043-21.094L578.02,422.353z M535.953,545.03
	c-17.746-7.161-28.745-15.387-28.745-30.88c0-14.779,10.355-26.043,26.34-28.689v-18.077h10.785v17.382
	c10.44,0.283,17.53,3.146,22.558,6.185l-4.339,11.741c-3.653-2.062-10.786-6.011-21.871-6.011c-13.407,0-18.477,8.181-18.477,15.343
	c0,9.309,6.444,13.933,21.569,20.29c17.918,7.509,26.984,16.776,26.984,32.683c0,14.128-9.582,27.344-27.5,30.339v18.576h-10.956
	v-18.078c-10.098-0.129-20.539-3.385-26.598-7.854l4.168-11.873c6.23,4.233,15.298,7.661,25.051,7.661
	c12.331,0,20.71-7.292,20.71-17.513C555.633,556.445,548.843,550.412,535.953,545.03z M224.776,381.837
	c-22.257-22.896-42.967-64.671-38.5-76.78c14.738-31.38,30.895-51.129,45.762-63.737L224.776,381.837z M297.264,300.977
	l-26.403-23.719l11.751-88.954l28.359-0.977l11.751,89.931L297.264,300.977z"/>
</svg>
