<?xml version="1.0" encoding="utf-8"?>
<!-- Generator: Adobe Illustrator 16.0.0, SVG Export Plug-In . SVG Version: 6.00 Build 0)  -->
<!DOCTYPE svg PUBLIC "-//W3C//DTD SVG 1.1//EN" "http://www.w3.org/Graphics/SVG/1.1/DTD/svg11.dtd">
<svg version="1.1" id="Layer_1" xmlns="http://www.w3.org/2000/svg" xmlns:xlink="http://www.w3.org/1999/xlink" x="0px" y="0px"
	 width="800px" height="800px" viewBox="0 0 800 800" enable-background="new 0 0 800 800" xml:space="preserve">
<path d="M317.513,84.613C317.513,37.87,355.013,0,401.259,0c46.268,0,83.788,37.87,83.788,84.613
	c0,46.789-37.521,84.614-83.788,84.614C355.013,169.228,317.513,131.402,317.513,84.613z M493.425,209.137
	c-12.196-9.527-24.827-17.687-39.497-22.83c-13.606-4.774-27.95-7.4-42.295-8.399l21.636,229.339l-31.229,36.96l-35.677-36.96
	l27.082-229.686c-15.646,0.564-31.38,3.059-46.158,8.397c-6.033,2.17-11.936,4.817-17.469,8.095
	c-9.723,5.729-18.664,12.673-27.104,20.247c-41.754,37.349-64.367,102.235-69.163,198.308c-0.826,16.493,11.74,30.513,28.038,31.337
	c0.499,0.043,1.02,0.043,1.519,0.043c15.647,0,28.711-12.392,29.492-28.342c3.255-65.083,16.016-113.629,37.022-142.515
	c-1.518,30.275-4.188,85.222-6.575,141.321c-0.151,1.019-0.435,1.975-0.499,3.016l-23.655,337.456
	c-1.475,21.355,75.043,25.869,76.476,5.47l18.598-265.69c2.93-0.824,5.816-1.563,8.313-1.563c2.93,0,5.749,0.543,8.593,0.89
	l17.231,268.533c1.302,20.485,77.843,16.342,76.476-5.014l-20.442-318.88c-0.088-1.779-0.499-3.428-0.825-5.122
	c-1.715-48.827-7.249-121.092-10.417-160.372c21.397,28.928,33.463,76.952,34.787,141.559c0.327,16.297,13.499,29.253,30.166,29.253
	c16.318-0.347,29.274-13.976,28.949-30.469C564.777,314.389,540.081,245.638,493.425,209.137z M740.95,322.831c0.13,0,0.305,0,0.5,0
	c7.139-0.305,12.65-6.272,12.391-13.391c-2.344-58.767-14.647-97.634-36.654-115.71c-5.077-4.146-9.742-6.315-14.04-7.749
	c-3.255-1.563-7.53-2.517-13.15-2.908l7.66,80.946l-11.328,13.195l-12.868-13.195l9.765-80.946
	c-4.818-0.043-14.496,1.086-25.218,9.94c-21.7,18.012-33.939,57.161-36.371,116.427c-0.259,7.119,5.34,13.085,12.502,13.391
	c0.129,0,0.347,0,0.475,0c6.946,0,12.675-5.404,12.936-12.392c1.432-35.048,6.337-58.506,12.196-74.024l-3.689,70.574L642.6,429.406
	c-0.954,8.789,5.427,16.774,14.323,17.73c0.607,0.086,1.172,0.129,1.779,0.129c8.117,0,15.19-6.12,16.015-14.388l13.934-126.585
	l20.921,127.453c1.279,7.877,8.137,13.52,15.929,13.52c0.911,0,1.778-0.086,2.625-0.217c8.833-1.475,14.843-9.722,13.39-18.556
	l-20.746-126.062c0-0.088,0.087-0.131,0.087-0.261l-5.231-65.018c5.752,14.779,10.939,37.543,12.35,73.286
	C728.255,317.426,734.007,322.831,740.95,322.831z M686.09,178.993c16.774,0,30.315-13.52,30.315-30.188
	c0-16.687-13.541-30.251-30.315-30.251c-16.755,0-30.339,13.564-30.339,30.251C655.751,165.473,669.335,178.993,686.09,178.993z
	 M154.709,322.831c0.13,0,0.304,0,0.5,0c7.14-0.305,12.652-6.272,12.391-13.391c-2.344-58.767-14.648-97.634-36.653-115.71
	c-5.078-4.146-9.744-6.315-14.042-7.749c-3.254-1.563-7.508-2.517-13.15-2.908l7.682,80.946l-11.328,13.195l-12.88-13.195
	l9.755-80.946c-4.818-0.043-14.507,1.086-25.206,9.94c-21.702,18.012-33.931,57.161-36.361,116.427
	c-0.282,7.119,5.338,13.085,12.5,13.391c0.13,0,0.325,0,0.477,0c6.913,0,12.642-5.404,12.902-12.392
	c1.454-35.048,6.336-58.506,12.218-74.024l-3.711,70.574L56.37,429.406c-0.977,8.789,5.403,16.774,14.301,17.73
	c0.608,0.086,1.172,0.129,1.78,0.129c8.138,0,15.19-6.12,16.036-14.388l13.922-126.585l20.92,127.453
	c1.28,7.877,8.138,13.52,15.929,13.52c0.912,0,1.779-0.086,2.625-0.217c8.833-1.475,14.844-9.722,13.39-18.556l-20.747-126.062
	c0-0.088,0.087-0.131,0.087-0.261l-5.231-65.018c5.751,14.779,10.938,37.543,12.348,73.286
	C142.014,317.426,147.765,322.831,154.709,322.831z M99.848,178.993c16.797,0,30.317-13.52,30.317-30.188
	c0-16.687-13.52-30.251-30.317-30.251c-16.742,0-30.35,13.564-30.35,30.251C69.499,165.473,83.106,178.993,99.848,178.993z
	 M800,482.466H578.146v198.87H225.369V466.602H0V800h800V482.466z"/>
</svg>
