<?xml version="1.0" encoding="utf-8"?>
<!-- Generator: Adobe Illustrator 16.0.0, SVG Export Plug-In . SVG Version: 6.00 Build 0)  -->
<!DOCTYPE svg PUBLIC "-//W3C//DTD SVG 1.1//EN" "http://www.w3.org/Graphics/SVG/1.1/DTD/svg11.dtd">
<svg version="1.1" id="Layer_1" xmlns="http://www.w3.org/2000/svg" xmlns:xlink="http://www.w3.org/1999/xlink" x="0px" y="0px"
	 width="800px" height="800px" viewBox="0 0 800 800" enable-background="new 0 0 800 800" xml:space="preserve">
<path d="M192.482,169.51c-48.2,0-87.209-37.934-87.209-84.766C105.273,37.913,144.282,0,192.482,0
	c48.177,0,87.187,37.913,87.187,84.744C279.668,131.576,240.659,169.51,192.482,169.51z M96.433,209.397
	c13.446-10.135,25.256-17.428,41.497-22.896c14.08-4.753,28.902-7.4,43.725-8.377l-22.462,229.688l32.461,37.022l37.175-37.022
	l-28.182-229.774c12.989,0.456,25.868,2.713,38.464,5.903c34.643,8.811,70.399,11.198,105.764,11.892
	c52.478,0.999,105.042,0.174,157.368-3.516c5.589-0.391,11.178-0.823,16.766-1.302c16.896-1.648,31.979,10.764,33.441,27.301
	c1.463,16.515-11.11,31.055-28.072,32.486c-44.029,3.732-92.796,5.34-140.101,5.34c-42.109,0-83.017-1.281-118.359-3.538
	c0.808,15.017,4.605,87.066,7.88,161.394c0.241,1.345,0.589,2.647,0.72,4.037l24.646,337.933
	c1.528,21.441-15.063,40.04-37.11,41.559c-0.982,0.065-1.899,0.086-2.882,0.086c-20.826,0-38.397-15.646-39.882-36.132
	L199.86,495.356c-2.969-0.782-5.894-1.52-8.47-1.52c-3.034,0-5.894,0.522-8.819,0.867l-17.944,268.925
	C163.274,784.201,145.658,800,124.745,800c-0.874,0-1.769-0.021-2.664-0.086c-22.047-1.39-38.769-19.879-37.328-41.319
	l21.349-319.314c0.131-1.931,0.545-3.798,0.96-5.643c1.812-48.829,7.531-120.746,10.85-159.939
	c-22.266,28.973-34.796,77.083-36.172,141.624c-0.328,16.362-14.102,29.383-31.5,29.383c-17.049-0.346-30.604-14.041-30.233-30.599
	C22.103,314.822,47.84,245.963,96.433,209.397z M490.497,409.853c-14.777,0-25.54,0-34.927-12.499c-7.4-9.831-7.4-17.058-7.4-29.536
	v-36.784c0-12.479,0-19.704,7.4-29.579c9.387-12.456,20.149-12.456,34.927-12.456h48.374c14.779,0,25.52,0,34.927,12.456
	c7.4,9.875,7.4,17.101,7.4,29.579v36.784c0,12.479,0,19.705-7.4,29.536c-9.407,12.499-20.147,12.499-34.927,12.499H490.497z
	 M504.621,738.91c-10.086,11.154-35.625,12.479-47.697,0c-11.438-11.826-10.762-34.809,0-46.636L723.592,352.04
	c9.409-11.805,35.604-12.479,47.697,0c11.396,11.828,10.739,34.809,0,46.637L504.621,738.91z M689.32,800
	c-14.778,0-25.497,0-34.906-12.499c-7.4-9.831-7.4-17.058-7.4-29.537v-36.783c0-12.478,0-19.704,7.4-29.558
	c9.409-12.478,20.128-12.478,34.906-12.478h48.373c14.801,0,25.542,0,34.928,12.478C780,701.477,780,708.703,780,721.181v36.783
	c0,12.479,0,19.706-7.379,29.537C763.235,800,752.494,800,737.693,800H689.32z"/>
</svg>
