<?xml version="1.0" encoding="utf-8"?>
<!-- Generator: Adobe Illustrator 16.0.0, SVG Export Plug-In . SVG Version: 6.00 Build 0)  -->
<!DOCTYPE svg PUBLIC "-//W3C//DTD SVG 1.1//EN" "http://www.w3.org/Graphics/SVG/1.1/DTD/svg11.dtd">
<svg version="1.1" id="Layer_1" xmlns="http://www.w3.org/2000/svg" xmlns:xlink="http://www.w3.org/1999/xlink" x="0px" y="0px"
	 width="800px" height="800px" viewBox="0 0 800 800" enable-background="new 0 0 800 800" xml:space="preserve">
<path d="M718.093,647.701h-93.43v-63.435h108.535L790,389.15H450.013l-12.166-32.986c-4.744-12.892-25.42-13.803-30.557-0.435
	c-3.59,9.375,6.008,22.569,8.598,31.554c9.488,32.725,22.873,62.935,34.69,94.857c9.38,25.367,18.761,50.716,28.14,76.062
	l8.292,26.064h105.836v63.435h-93.431c-8.771,0-15.909,6.987-15.909,15.603c0,8.637,7.138,15.603,15.909,15.603h14.473
	c-6.747,4.146-11.491,11.154-11.491,19.532c0,12.933,10.707,23.414,23.853,23.414c13.189,0,23.853-10.481,23.853-23.414
	c0-8.378-4.722-15.387-11.49-19.532H683.86c-6.747,4.146-11.492,11.154-11.492,19.532c0,12.933,10.709,23.414,23.833,23.414
	c13.21,0,23.896-10.481,23.896-23.414c0-8.378-4.768-15.387-11.47-19.532h9.466c8.794,0,15.932-6.966,15.932-15.603
	C734.024,654.688,726.887,647.701,718.093,647.701z M671.389,420.334h76.434l-38.608,132.727h-37.825V420.334z M537.196,553.061
	h-26.529l-1.785-4.818l-40.653-127.908h68.968V553.061z M568.993,553.061V420.334h70.601v132.727H568.993z M103.452,84.744
	C103.452,37.912,141.407,0,188.351,0c46.922,0,84.877,37.912,84.877,84.744s-37.955,84.765-84.877,84.765
	C141.407,169.509,103.452,131.576,103.452,84.744z M433.93,359.462c-9.076-0.217-19.675,0.238-30.731,0.804
	c-20.827,1.063-49.424,2.538-61.285-4.84c-5.222-3.776-9.902-26.238-11.664-34.701l-2.308-10.654
	c-5.963-25.912-12.73-55.297-31.839-81.23c-6.028-8.18-12.862-15.169-20.218-21.287c-11.753-14.975-42.635-27.04-77.021-29.385
	l21.872,229.645l-31.622,37.023l-36.171-37.023l27.465-229.99c-34.886,1.192-62.548,12.086-76.934,25.563
	c-6.529,4.21-12.775,8.854-18.521,14.279C45.083,255.1,4.625,315.561,10.588,373.026c5.288,50.716,40.436,99.152,94.018,129.557
	c2.525,1.433,5.202,2.387,7.922,3.038l0.13,3.233c4.048,82.727-10.751,165.018-27.377,241.646
	c-4.549,20.984,8.813,41.688,29.837,46.224c2.785,0.607,5.549,0.89,8.292,0.89c17.933,0,34.103-12.435,38.043-30.664
	c17.737-81.813,33.537-170.16,29.054-261.914l-0.544-11.134c5.31,0.044,10.468,0.738,15.495,1.736
	c11.644,51.172,22.547,99.544,18.913,146.572l-8.923,115.907c-1.633,21.396,14.408,40.104,35.866,41.774
	c1.023,0.065,2.024,0.108,3.047,0.108c20.153,0,37.215-15.495,38.804-35.894l8.923-115.929
	c4.548-59.028-8.357-115.777-20.806-170.659c-3.308-14.54-6.617-29.037-9.511-43.405c-0.064-0.346-0.217-0.649-0.304-0.976
	c-1.458-39.778-5.397-94.683-8.553-134.895c2.373,8.289,4.526,17.014,6.747,26.67l1.719,8.03
	c4.701,22.547,11.796,56.619,38.695,73.371c19.479,12.131,43.027,14.888,66.357,14.888c10.121,0,20.175-0.521,29.86-1.02
	c9.336-0.478,18.216-0.998,25.898-0.739c0.282,0,0.587,0,0.892,0c16.171,0,29.555-12.846,30.012-29.122
	C463.571,373.763,450.534,359.961,433.93,359.462z M108.61,426.91c-0.044,1.627-0.131,3.233-0.196,4.86
	c-19.13-16.774-35.344-39.192-38.043-64.951c-3.046-29.362,19.937-67.601,45.486-95.074
	C114.356,301.389,108.61,426.91,108.61,426.91z"/>
</svg>
