<?xml version="1.0" encoding="utf-8"?>
<!-- Generator: Adobe Illustrator 16.0.0, SVG Export Plug-In . SVG Version: 6.00 Build 0)  -->
<!DOCTYPE svg PUBLIC "-//W3C//DTD SVG 1.1//EN" "http://www.w3.org/Graphics/SVG/1.1/DTD/svg11.dtd">
<svg version="1.1" id="Layer_1" xmlns="http://www.w3.org/2000/svg" xmlns:xlink="http://www.w3.org/1999/xlink" x="0px" y="0px"
	 width="800px" height="800px" viewBox="0 0 800 800" enable-background="new 0 0 800 800" xml:space="preserve">
<path d="M96.375,84.733C96.375,37.923,134.896,0,182.363,0c47.509,0,85.966,37.923,85.966,84.733
	c0,46.821-38.457,84.733-85.966,84.733C134.896,169.467,96.375,131.555,96.375,84.733z M393.535,382.228l-6.987-1.367
	c-9.206-1.726-19.608-3.69-22.895-7.249c-5.289-5.729-8.4-17.263-10.925-27.637c-6.268-26.097-17.542-55.468-31.667-82.704
	c-15.342-29.634-39.522-55.1-69.642-70.442c-5.963-3.038-12.254-5.479-18.63-7.487c-12.84-4.048-26.29-6.109-39.762-6.998
	l22.155,229.405l-32.014,37.021l-36.606-37.021l27.749-229.546c-14.082,0.455-28.185,2.028-41.677,6.108
	c-6.921,2.094-13.69,4.741-20.11,8.084c-11.295,5.892-21.872,13.672-31.448,22.026C38.201,251.878,14.958,316.862,10.04,413.119
	c-0.849,16.591,12.122,30.74,28.967,31.564c0.522,0.032,1.045,0.044,1.545,0.044c16.17,0,29.642-12.501,30.491-28.581
	c3.33-64.963,16.345-113.401,37.803-142.329c-1.545,30.067-4.244,83.984-6.637,139.323c-0.349,1.595-0.762,3.179-0.893,4.839
	L77.092,755.838c-1.523,21.507,14.886,40.147,36.693,41.668c0.936,0.064,1.872,0.097,2.829,0.097
	c20.589,0,37.957-15.7,39.436-36.252l19.13-266.081c2.895-0.771,5.746-1.498,8.249-1.498c2.938,0,5.724,0.521,8.575,0.858
	l17.672,268.891c1.349,20.638,18.76,36.479,39.457,36.479c0.849,0,1.719-0.021,2.589-0.086c21.808-1.379,38.348-19.943,36.955-41.45
	l-21.002-319.271c-0.152-2.365-0.587-4.634-1.154-6.857c-1.85-48.753-7.399-119.716-10.62-158.606
	c4.374,5.851,8.118,11.753,10.772,16.917c11.796,22.754,21.525,48.004,26.639,69.25c4.288,17.696,10.12,37.945,25.246,54.274
	c16.975,18.349,39.827,22.657,56.52,25.804l6.115,1.184c2.068,0.433,4.157,0.628,6.181,0.628c14.189,0,26.921-9.776,29.881-24.001
	C420.651,401.521,410.075,385.59,393.535,382.228z M609.603,119.922c-99.459,0-180.398,80.893-180.398,180.307
	c0,99.413,80.939,180.307,180.398,180.307S790,399.642,790,300.229C790,200.814,709.062,119.922,609.603,119.922z M633.107,441.461
	v-18.708v-2.137h-8.095H592.67v21.832c-63.788-7.563-114.736-57.054-124.596-120.063h18.738h5.201v-14.68v-25.781H467.53
	c8.291-64.834,60.045-116.201,125.14-123.904v27.994h32.343h8.095v-8.312v-18.706c61.983,10.285,110.538,60.286,118.611,122.928
	h-24.941v40.461h24.354C741.599,383.225,693.806,431.392,633.107,441.461z M579.569,312.967c-0.828-2.908-1.393-5.913-1.393-9.07
	c0-3.397,0.63-6.609,1.566-9.701c-32.493,3.211-71.472,9.396-71.472,9.396S547.119,309.756,579.569,312.967z M605.055,270.595
	c2.328-0.499,4.743-0.803,7.246-0.803c3.178,0,6.182,0.587,9.12,1.4c-0.937-8.291-1.981-16.591-3.004-24.339
	c-2.656-19.986-5.224-35.971-5.224-35.971s-1.219,7.65-2.808,18.892C608.732,241.038,606.687,255.893,605.055,270.595z
	 M594.367,303.896c0,9.895,8.011,17.914,17.934,17.914c9.925,0,17.934-8.02,17.934-17.914c0-9.896-8.009-17.915-17.934-17.915
	C602.378,285.981,594.367,294,594.367,303.896z"/>
</svg>
