<?xml version="1.0" encoding="utf-8"?>
<!-- Generator: Adobe Illustrator 16.0.0, SVG Export Plug-In . SVG Version: 6.00 Build 0)  -->
<!DOCTYPE svg PUBLIC "-//W3C//DTD SVG 1.1//EN" "http://www.w3.org/Graphics/SVG/1.1/DTD/svg11.dtd">
<svg version="1.1" id="Layer_1" xmlns="http://www.w3.org/2000/svg" xmlns:xlink="http://www.w3.org/1999/xlink" x="0px" y="0px"
	 width="800px" height="800px" viewBox="0 0 800 800" enable-background="new 0 0 800 800" xml:space="preserve">
<path d="M164.984,60.004c0-4.493,3.612-8.16,8.077-8.16c4.443,0,8.077,3.667,8.077,8.16v52.495L211.52,97.33
	c5.604-2.778,12.367-0.455,15.147,5.208c2.758,5.643,0.459,12.523-5.122,15.299l-41.304,20.574c-1.597,0.826-3.327,1.194-4.99,1.194
	c-4.181,0-8.186-2.323-10.134-6.359c-1.576-3.213-1.466-6.749-0.132-9.766V60.004z M141.695,19.314l1.357-1.367
	C136.091,9.31,125.476,3.776,113.568,3.71C92.402,3.58,75.154,20.833,75,42.231c-0.044,10.352,3.961,19.792,10.441,26.779
	C97.393,46.245,117.42,28.45,141.695,19.314z M270.925,69.683c6.326-6.879,10.266-16.059,10.331-26.193
	c0.132-21.419-16.941-38.889-38.13-38.998c-11.667-0.065-22.107,5.143-29.177,13.39l1.772,1.802
	c13.615,5.338,26.113,13.455,36.663,24.262C259.915,51.649,266.131,60.308,270.925,69.683z M99.318,169.77
	c-9.608-14.973-15.19-32.855-15.059-52.017c0.306-52.084,42.18-94.119,93.661-94.119c0.176,0,0.372,0,0.547,0
	c51.745,0.325,93.443,42.968,93.114,95.225c-0.131,20.031-6.392,38.521-16.941,53.755l19.35,19.814
	c2.495,2.561,2.495,6.684-0.044,9.222c-1.27,1.258-2.911,1.888-4.531,1.888c-1.685,0-3.327-0.65-4.597-1.931l-18.364-18.793
	c-17.117,18.556-41.5,30.166-68.511,30.166c-0.198,0-0.395-0.022-0.569-0.022c-28.083-0.151-53.167-12.803-70.218-32.66
	l-20.029,20.009c-1.247,1.258-2.911,1.888-4.53,1.888c-1.686,0-3.327-0.65-4.597-1.952c-2.518-2.561-2.496-6.707,0.044-9.224
	L99.318,169.77z M177.46,196.637l0.482,0.021c42.485,0,77.244-34.939,77.507-77.887c0.109-20.919-7.837-40.646-22.392-55.533
	c-14.534-14.866-33.993-23.156-54.678-23.286h-0.46l0,0c-42.508,0-77.267,34.94-77.507,77.886
	c-0.132,20.942,7.813,40.648,22.37,55.536C137.36,188.26,156.754,196.528,177.46,196.637z M547.379,169.444
	c-47.367,0-85.716-37.868-85.716-84.722C461.663,37.912,500.012,0,547.379,0c47.387,0,85.78,37.912,85.78,84.722
	C633.159,131.576,594.766,169.444,547.379,169.444z M290.625,248.265c13.133-10.505,32.329-8.464,42.88,4.469
	c3.371,4.124,7.813,10.332,13.111,17.688c9.434,13.171,36.969,51.541,51.832,58.897c7.333,3.645,17.971-41.342,19.152-46.115
	c4.379-17.645,9.172-36.111,19.373-51.433c9.39-13.997,20.815-27.257,35.983-35.308c19.722-10.418,41.545-16.537,63.806-18.144
	l-22.085,229.384l31.936,37.045l36.51-37.045l-27.688-229.428c28.411,1.346,53.977,9.831,79.454,22.461
	c5.954,2.995,11.579,6.38,17.074,10.112c12.762,8.661,24.34,18.99,35.306,29.688c49.665,48.396,44.958,75.176,16.614,113.608
	c-5.407,7.313-11.514,15.69-17.533,26.127c-5.013,8.638-5.385,9.354,7.068,29.601c2.278,3.581,4.575,7.336,6.874,11.329
	c8.405,14.409,3.372,32.834-11.229,41.102c-4.794,2.734-10.003,4.036-15.147,4.036c-10.572,0-20.815-5.426-26.463-15.126
	c-2.035-3.515-4.071-6.814-6.02-9.98c-4.597-7.444-9.719-15.888-13.526-25.35c0.088,0.695,0.307,1.346,0.351,2.062l24.186,337.827
	c1.555,21.527-14.885,40.19-36.619,41.709c-0.94,0.087-1.903,0.087-2.824,0.087c-20.574,0-37.932-15.689-39.355-36.284
	l-19.043-266.037c-2.911-0.781-5.777-1.496-8.252-1.496c-2.933,0-5.668,0.519-8.493,0.846l-17.618,268.859
	C518.856,784.137,501.455,800,480.838,800c-0.878,0-1.752-0.044-2.606-0.085c-21.778-1.391-38.283-19.967-36.86-41.516
	l20.903-319.228c0.199-2.476,0.614-4.818,1.183-7.074c1.291-33.421,4.29-77.105,7.092-113.978
	c-6.304,23.937-17.467,49.805-44.499,65.409c-8.865,5.1-17.643,7.334-26.268,7.334c-41.521,0-78.908-52.147-102.897-85.612
	c-4.356-6.076-8.011-11.24-10.813-14.626C275.5,277.669,277.513,258.724,290.625,248.265z M625.367,369.314
	c1.816-6.034,4.18-12.196,7.988-18.793c7.662-13.411,15.235-23.611,21.254-31.836c3.349-4.536,7.376-10.004,9.041-13.064
	c-1.445-2.713-5.823-9.18-19.152-22.157c-9.303-9.072-17.074-15.843-24.34-21.095C621.209,282.291,623.243,322.96,625.367,369.314z"
	/>
</svg>
