<?xml version="1.0" encoding="utf-8"?>
<!-- Generator: Adobe Illustrator 16.0.0, SVG Export Plug-In . SVG Version: 6.00 Build 0)  -->
<!DOCTYPE svg PUBLIC "-//W3C//DTD SVG 1.1//EN" "http://www.w3.org/Graphics/SVG/1.1/DTD/svg11.dtd">
<svg version="1.1" id="Layer_1" xmlns="http://www.w3.org/2000/svg" xmlns:xlink="http://www.w3.org/1999/xlink" x="0px" y="0px"
	 width="800px" height="800px" viewBox="0 0 800 800" enable-background="new 0 0 800 800" xml:space="preserve">
<path d="M316.884,85.068C316.884,38.086,354.079,0,399.979,0s83.161,38.086,83.161,85.068c0,46.986-37.262,85.025-83.161,85.025
	S316.884,132.055,316.884,85.068z M700,728.971C700,768.144,565.711,800,400,800c-165.667,0-300-31.856-300-71.029
	c0-28.819,73.178-53.363,177.473-64.494l-2.125,19.332c-30.426,7.359-49.351,17.231-49.351,28.258
	c0,17.102,44.098,31.706,106.664,37.824c-3.018-41.646-9.44-145.572-7.379-247.005l-28.709,0.065c0,0-24.155-70.443-24.155-70.465
	c-1.042-3.059-5.337-6.683-7.27-9.354c-2.908-3.969-5.641-8.051-8.204-12.239c-5.576-9.025-10.438-18.534-14.3-28.427
	c-3.971-10.246-6.924-20.945-8.182-31.86c-0.629-5.467-0.846-11.001-0.565-16.494c0.63-11.609,2.778-21.463,8.031-32.116
	c6.683-13.542,14.235-26.563,23.003-38.845c6.77-9.508,14.843-19.837,23.198-28.039c0.239-0.241,0.499-0.306,0.738-0.521
	c43.75-43.729,88.584-47.569,105.533-47.181c0.326-0.043-19.444,161.288-19.444,161.288l15.235,44.377l11.936,12.024l26.477-30.532
	l-18.165-187.609c0,0-0.282-0.022-0.369-0.022v-0.064c19.143,0.281,49.351,5.358,78.688,31.119
	c39.151,34.268,88.002,165.257,75.479,292.382c-1.476,15.475-14.712,26.998-30.188,26.998c-0.975,0-1.929-0.043-2.907-0.173
	c-16.731-1.565-28.928-16.126-27.301-32.533c8.184-83.658-14.146-162.997-34.44-207.442l5.038,61.262
	c26.171,131.076,0.259,327.585-9.31,390.953c2.472-0.263,5.229-0.392,7.658-0.673c1.087-0.043,2.04-0.043,3.084-0.154
	c4.12-0.281,8.072-0.954,11.891-1.757c49.351-7.161,82.683-20.03,82.683-34.786c0-10.069-16.191-19.379-42.362-26.498l-3.774-20.984
	C627.646,675.802,700,700.28,700,728.971z M300.934,320.333l38.259-0.064l2.821-52.863c-3.559,2.886-7.162,6.161-10.872,9.893
	c-6.229,6.402-12.239,13.672-17.882,21.877c-0.043,0.129-0.129,0.216-0.283,0.346C308.745,305.815,304.862,313.085,300.934,320.333z
	 M406.706,487.804l-52.409-152.647l-59.657,0.129c-1.801,17.533,11.655,45.356,27.626,63.044
	c11.155,12.283,10.026,31.162-2.474,42.056c-5.794,5.057-13.042,7.532-20.247,7.532c-2.084,0-4.167-0.828-6.251-1.26l14.194,41.34
	L406.706,487.804z M409.787,502.735l-8.441,0.021c-0.847,43.729-0.152,89.43,1.279,131.291
	C406.51,592.536,409.418,546.874,409.787,502.735z"/>
</svg>
