<?xml version="1.0" encoding="utf-8"?>
<!-- Generator: Adobe Illustrator 16.0.0, SVG Export Plug-In . SVG Version: 6.00 Build 0)  -->
<!DOCTYPE svg PUBLIC "-//W3C//DTD SVG 1.1//EN" "http://www.w3.org/Graphics/SVG/1.1/DTD/svg11.dtd">
<svg version="1.1" id="Layer_1" xmlns="http://www.w3.org/2000/svg" xmlns:xlink="http://www.w3.org/1999/xlink" x="0px" y="0px"
	 width="800px" height="800px" viewBox="0 0 800 800" enable-background="new 0 0 800 800" xml:space="preserve">
<path d="M227.028,695.615c-34.009,0-65.677-11.738-87.505-26.475L125,710.396c21.227,15.344,57.664,26.541,92.898,27.148v62.304
	h38.37v-64.17c62.498-10.46,95.883-56.164,95.883-104.817c0-54.949-31.56-87.002-94.057-112.956
	c-52.894-22.158-75.431-38.261-75.431-70.335c0-24.695,17.66-53.061,64.431-53.061c38.907,0,63.786,13.586,76.547,20.899
	l15.146-40.669c-17.617-10.416-42.474-20.29-78.976-21.57v-59.875H222.28v62.37c-56.009,9.268-91.802,48.112-91.802,99.328
	c0,53.623,38.306,81.943,100.202,106.748c44.945,18.512,68.684,39.476,68.684,73.396
	C299.365,670.249,270.168,695.615,227.028,695.615z M423.63,84.743C423.63,37.912,461.398,0,508.04,0s84.411,37.912,84.411,84.743
	c0,46.833-37.77,84.767-84.411,84.767S423.63,131.576,423.63,84.743z M674.993,414.105c0.344,16.56-12.762,30.252-29.282,30.6
	c-16.845,0-30.164-13.021-30.486-29.384c-1.332-64.54-13.449-112.652-35.019-141.624c3.222,39.193,8.765,111.111,10.505,159.939
	c0.408,1.846,0.815,3.713,0.946,5.644l20.646,319.313c1.395,21.441-14.783,39.932-36.138,41.32c-0.86,0.065-1.719,0.086-2.557,0.086
	c-20.259,0-37.297-15.798-38.606-36.371l-17.38-268.924c-2.837-0.348-5.608-0.868-8.53-0.868c-2.492,0-5.329,0.738-8.207,1.519
	L482.087,761.48c-1.439,20.485-18.454,36.133-38.606,36.133c-0.945,0-1.848-0.022-2.793-0.086
	c-21.334-1.52-37.403-20.119-35.921-41.559l23.847-337.934c0.129-1.391,0.473-2.692,0.71-4.036
	c3.158-74.329,6.854-146.378,7.627-161.395c-34.203,2.257-73.821,3.536-114.575,3.536c-45.783,0-92.983-1.605-135.608-5.338
	c-16.435-1.433-28.596-15.972-27.177-32.486c1.417-16.537,16.006-28.95,32.376-27.301c5.393,0.478,10.807,0.911,16.22,1.303
	c50.66,3.688,101.534,4.513,152.322,3.515c34.246-0.694,68.856-3.081,102.394-11.893c12.182-3.189,24.643-5.447,37.231-5.902
	l-27.285,229.774l35.986,37.021l31.409-37.021l-21.741-229.688c14.352,0.977,28.703,3.624,42.323,8.377
	c15.727,5.469,27.156,12.76,40.176,22.895C648.052,245.964,672.952,314.821,674.993,414.105z"/>
</svg>
