<?xml version="1.0" encoding="utf-8"?>
<!-- Generator: Adobe Illustrator 16.0.0, SVG Export Plug-In . SVG Version: 6.00 Build 0)  -->
<!DOCTYPE svg PUBLIC "-//W3C//DTD SVG 1.1//EN" "http://www.w3.org/Graphics/SVG/1.1/DTD/svg11.dtd">
<svg version="1.1" id="Layer_1" xmlns="http://www.w3.org/2000/svg" xmlns:xlink="http://www.w3.org/1999/xlink" x="0px" y="0px"
	 width="800px" height="800px" viewBox="0 0 800 800" enable-background="new 0 0 800 800" xml:space="preserve">
<path d="M105.543,84.722C105.543,37.934,143.722,0,190.743,0c47.063,0,85.156,37.934,85.156,84.722
	c0,46.832-38.092,84.744-85.156,84.744C143.722,169.466,105.543,131.554,105.543,84.722z M399.91,382.226l-6.92-1.365
	c-9.125-1.737-19.428-3.691-22.68-7.25c-5.239-5.729-8.317-17.274-10.828-27.647c-6.199-26.085-17.376-55.469-31.368-82.682
	c-15.193-29.644-39.139-55.122-68.958-70.442c-5.916-3.039-12.137-5.491-18.468-7.51c-12.726-4.036-26.042-6.098-39.379-6.987
	l21.938,229.406l-31.718,37.021l-36.258-37.021l27.483-229.536c-13.949,0.434-27.919,2.019-41.279,6.098
	c-6.854,2.104-13.556,4.753-19.93,8.095c-11.177,5.882-21.633,13.672-31.129,22.005c-42.48,37.456-65.488,102.453-70.377,198.698
	c-0.83,16.603,12.006,30.751,28.706,31.576c0.524,0.021,1.026,0.044,1.528,0.044c16.023,0,29.36-12.501,30.212-28.581
	c3.296-64.975,16.175-113.412,37.415-142.317c-1.528,30.056-4.19,83.983-6.57,139.321c-0.35,1.584-0.743,3.168-0.874,4.818
	L86.443,755.838c-1.507,21.506,14.756,40.147,36.367,41.666c0.917,0.065,1.833,0.11,2.794,0.11
	c20.388,0,37.589-15.714,39.074-36.264l18.948-266.082c2.859-0.78,5.675-1.496,8.164-1.496c2.903,0,5.675,0.52,8.492,0.846
	l17.506,268.902C219.121,784.158,236.387,800,256.885,800c0.83,0,1.703-0.021,2.555-0.086c21.611-1.391,38.004-19.944,36.607-41.45
	l-20.804-319.271c-0.153-2.366-0.567-4.644-1.135-6.857c-1.834-48.742-7.334-119.705-10.522-158.594
	c4.344,5.838,8.033,11.741,10.674,16.906c11.679,22.764,21.328,48.002,26.37,69.249c4.257,17.708,10.042,37.934,25.017,54.275
	c16.809,18.338,39.445,22.654,55.97,25.802l6.069,1.172c2.052,0.436,4.125,0.651,6.112,0.651c14.058,0,26.675-9.787,29.622-24.001
	C426.781,401.52,416.304,385.591,399.91,382.226z M598.337,399.219l0.154,0.151L780,216.472l-53.504-53.819L598.337,291.688
	l-54.268-54.601l-53.502,53.842L598.25,399.37L598.337,399.219z M464.131,465.863h133.313v287.392h-73.347v46.115h195.939v-46.115
	h-73.347V465.863H780v-47.156H464.131V465.863z"/>
</svg>
