<?xml version="1.0" encoding="utf-8"?>
<!-- Generator: Adobe Illustrator 16.0.0, SVG Export Plug-In . SVG Version: 6.00 Build 0)  -->
<!DOCTYPE svg PUBLIC "-//W3C//DTD SVG 1.1//EN" "http://www.w3.org/Graphics/SVG/1.1/DTD/svg11.dtd">
<svg version="1.1" id="Layer_1" xmlns="http://www.w3.org/2000/svg" xmlns:xlink="http://www.w3.org/1999/xlink" x="0px" y="0px"
	 width="800px" height="800px" viewBox="0 0 800 800" enable-background="new 0 0 800 800" xml:space="preserve">
<path d="M800,400c0,201.25-166.146,365-370.4,365c-156.966,0-296.398-98.141-348.676-241.82l-60.025-0.349
	c-19.51-0.105-26.628-13.304-15.908-29.333l82.9-123.138c10.763-16.052,28.211-15.943,38.801,0.217l81.337,124.087
	c10.633,16.158,3.298,29.292-16.211,29.163l-38.976-0.217C201.41,629.075,309.179,699.414,429.6,699.414
	c167.557,0,303.863-134.326,303.863-299.414c0-165.089-136.307-299.459-303.863-299.459c-87.456,0-170.681,37.18-228.429,101.967
	c-12.131,13.63-33.138,14.991-46.918,3.023c-13.823-11.946-15.212-32.663-3.124-46.273C221.526,80.258,323.003,35,429.6,35
	C633.854,35,800,198.705,800,400z M524.826,589.282c-0.131-1.771-0.522-3.456-0.869-5.14c-1.736-48.802-7.334-121.063-10.59-160.336
	c21.745,28.946,33.985,76.948,35.33,141.541c0.326,16.288,13.671,29.25,30.599,29.25c16.56-0.345,29.732-13.979,29.384-30.462
	c-2.039-99.111-27.105-167.853-74.457-204.361c-7.14-5.486-15.321-11.276-23.243-15.553c-5.555-2.981-11.414-5.4-17.361-7.432
	c-13.67-4.645-28.037-7.26-42.403-8.229l21.961,229.312l-31.684,36.941l-36.198-36.941l27.475-229.637
	c-15.691,0.519-31.468,3.023-46.312,8.21c-5.989,2.094-11.848,4.621-17.36,7.776c-10.049,5.702-19.749,13.091-28.386,20.738
	c-42.361,37.352-65.321,102.225-70.182,198.27c-0.825,16.482,11.915,30.503,28.473,31.325c0.499,0.043,0.999,0.043,1.519,0.043
	c15.886,0,29.123-12.401,29.948-28.342c3.277-65.069,16.233-113.589,37.542-142.492c-1.519,30.286-4.253,85.201-6.662,141.303
	c-0.152,1.016-0.456,1.966-0.521,3.023l-8.615,121.214c24.826,6.482,50.694,10.088,77.256,10.11l3.841-54.093
	c2.973-0.821,5.881-1.557,8.421-1.557c2.974,0,5.837,0.519,8.745,0.863l3.472,53.577c26.78-2.117,52.519-7.714,76.91-16.246
	L524.826,589.282z M440.711,319.896c46.939,0,85.026-37.848,85.026-84.597c0-46.747-38.087-84.617-85.026-84.617
	c-46.962,0-84.983,37.87-84.983,84.617C355.728,282.049,393.749,319.896,440.711,319.896z"/>
</svg>
