<?xml version="1.0" encoding="utf-8"?>
<!-- Generator: Adobe Illustrator 16.0.0, SVG Export Plug-In . SVG Version: 6.00 Build 0)  -->
<!DOCTYPE svg PUBLIC "-//W3C//DTD SVG 1.1//EN" "http://www.w3.org/Graphics/SVG/1.1/DTD/svg11.dtd">
<svg version="1.1" id="Layer_1" xmlns="http://www.w3.org/2000/svg" xmlns:xlink="http://www.w3.org/1999/xlink" x="0px" y="0px"
	 width="800px" height="800px" viewBox="0 0 800 800" enable-background="new 0 0 800 800" xml:space="preserve">
<path d="M318.605,84.766C318.605,37.934,356.169,0,402.524,0s83.963,37.934,83.963,84.766s-37.607,84.766-83.963,84.766
	S318.605,131.598,318.605,84.766z M494.866,209.461c-12.209-9.548-24.876-17.708-39.566-22.83
	c-13.646-4.773-28.009-7.465-42.395-8.441l21.654,229.709l-31.252,37.022l-35.757-37.022l27.14-230.035
	c-15.692,0.522-31.427,3.082-46.269,8.42c-6.029,2.171-11.926,4.818-17.476,8.074c-9.728,5.771-18.695,12.716-27.182,20.29
	c-41.829,37.436-64.483,102.41-69.272,198.634c-0.827,16.492,11.752,30.555,28.074,31.379c0.5,0.021,1.023,0.043,1.524,0.043
	c15.669,0,28.771-12.412,29.554-28.428c3.264-65.17,16.061-113.759,37.084-142.709c-1.523,30.34-4.179,85.33-6.572,141.537
	c-0.175,1.02-0.436,1.996-0.523,3.038l-23.657,337.977c-1.501,21.355,14.43,39.888,35.583,41.407
	c0.914,0.065,1.849,0.087,2.741,0.087c20.001,0,36.824-15.604,38.26-36.023l18.651-266.103c2.938-0.824,5.832-1.564,8.313-1.564
	c2.96,0,5.768,0.522,8.64,0.891l17.237,268.945C430.708,784.245,447.618,800,467.705,800c0.827,0,1.653,0,2.524-0.064
	c21.154-1.39,37.172-19.835,35.822-41.212l-20.479-319.357c-0.109-1.779-0.522-3.472-0.827-5.143
	c-1.741-48.893-7.27-121.289-10.469-160.613c21.459,28.993,33.56,77.084,34.864,141.798c0.35,16.299,13.515,29.296,30.251,29.274
	c16.346-0.325,29.314-13.997,28.988-30.533C566.357,314.887,541.613,246.007,494.866,209.461z M780.201,213.303l-8.596-3.537
	c1.959-10.308,1.785-20.725-0.369-30.685l8.943-3.452c8.096-3.124,11.928-12.044,8.574-19.856
	c-3.371-7.877-12.621-11.675-20.674-8.55l-9.229,3.58c-5.787-8.376-13.275-15.711-22.219-21.593l3.875-8.984
	c3.35-7.748-0.504-16.731-8.553-20.052c-8.076-3.363-17.348,0.239-20.678,7.986l-3.852,9.007
	c-10.533-2.192-21.131-2.279-31.295-0.521l-3.83-8.963c-3.373-7.878-12.602-11.675-20.676-8.529
	c-8.051,3.125-11.881,12.022-8.531,19.834l3.723,8.703c-8.793,5.448-16.541,12.587-22.678,21.159l-8.619-3.537
	c-8.051-3.363-17.301,0.217-20.652,8.008c-3.33,7.747,0.502,16.753,8.598,20.073l8.313,3.429
	c-2.328,10.439-2.393,21.007-0.369,31.164l-7.943,3.103c-8.096,3.103-11.906,12.023-8.598,19.836
	c3.373,7.876,12.623,11.674,20.676,8.528l7.725-2.973c5.922,8.832,13.668,16.601,22.982,22.721l-3.113,7.291
	c-3.35,7.727,0.502,16.711,8.553,20.032c8.096,3.341,17.324-0.239,20.654-7.966l3.135-7.29c10.99,2.256,22.068,2.278,32.688,0.281
	l3.199,7.465c3.33,7.857,12.6,11.676,20.633,8.529c8.072-3.104,11.902-12,8.553-19.834l-3.311-7.748
	c8.816-5.686,16.52-13.108,22.525-22.005l8.381,3.451c8.029,3.32,17.279-0.26,20.652-8.03
	C792.129,225.63,788.299,216.645,780.201,213.303z M752.541,219.424c-13.928,32.377-52.689,47.416-86.398,33.507
	c-33.67-13.933-49.709-51.563-35.779-83.964c13.949-32.378,52.711-47.396,86.355-33.485
	C750.43,149.371,766.492,187.044,752.541,219.424z M688.645,230.035c-7.791,0.066-15.037-2.453-20.088-5.665l-3.221,9.138
	c4.875,3.363,13.232,5.75,21.328,5.816l0.109,13.758l8.727-0.108l-0.131-14.15c14.299-2.43,21.85-12.586,21.742-23.308
	c-0.109-12.108-7.4-19.118-21.785-24.694c-12.123-4.797-17.281-8.312-17.346-15.365c-0.064-5.425,3.918-11.741,14.604-11.827
	c8.879-0.087,14.625,2.842,17.518,4.471l3.418-9.007c-4.068-2.278-9.771-4.405-18.105-4.6l-0.131-13.216l-8.598,0.087l0.131,13.737
	c-12.773,2.169-20.893,10.807-20.764,22.114c0.09,11.806,8.902,18.012,23.115,23.307c10.336,3.993,15.82,8.571,15.865,16.037
	C705.119,224.306,698.482,229.947,688.645,230.035z M196.536,213.303l-8.596-3.537c1.98-10.308,1.806-20.725-0.37-30.685
	l8.945-3.452c8.096-3.124,11.926-12.044,8.574-19.856c-3.374-7.877-12.601-11.675-20.674-8.55l-9.228,3.58
	c-5.789-8.376-13.275-15.711-22.22-21.593l3.874-8.984c3.351-7.748-0.5-16.731-8.553-20.052c-8.074-3.363-17.345,0.239-20.675,7.986
	l-3.852,9.007c-10.533-2.192-21.132-2.279-31.295-0.521l-3.831-8.963c-3.351-7.878-12.6-11.675-20.674-8.529
	c-8.053,3.125-11.882,12.022-8.531,19.834l3.722,8.703c-8.792,5.448-16.54,12.587-22.656,21.159l-8.64-3.537
	c-8.03-3.363-17.301,0.217-20.653,8.008c-3.33,7.747,0.501,16.753,8.597,20.073l8.313,3.429c-2.329,10.439-2.394,21.007-0.37,31.164
	l-7.943,3.103c-8.095,3.103-11.904,12.023-8.597,19.836c3.374,7.876,12.623,11.674,20.675,8.528l7.748-2.973
	c5.919,8.832,13.646,16.601,22.982,22.721l-3.134,7.291c-3.352,7.727,0.5,16.711,8.553,20.032
	c8.096,3.341,17.345-0.239,20.653-7.966l3.134-7.29c10.99,2.256,22.068,2.278,32.688,0.281l3.199,7.465
	c3.33,7.857,12.601,11.676,20.653,8.529c8.053-3.104,11.883-12,8.531-19.834l-3.308-7.748c8.814-5.686,16.518-13.108,22.525-22.005
	l8.379,3.451c8.053,3.32,17.28-0.26,20.653-8.03C208.461,225.63,204.632,216.645,196.536,213.303z M168.896,219.424
	c-13.951,32.377-52.71,47.416-86.4,33.507c-33.689-13.933-49.729-51.563-35.8-83.964c13.95-32.378,52.71-47.396,86.356-33.485
	C166.764,149.371,182.825,187.044,168.896,219.424z M104.978,230.035c-7.791,0.066-15.039-2.453-20.065-5.665l-3.243,9.138
	c4.875,3.363,13.231,5.75,21.328,5.816l0.108,13.758l8.727-0.108l-0.13-14.15c14.321-2.43,21.851-12.586,21.742-23.308
	c-0.109-12.108-7.378-19.118-21.785-24.694c-12.123-4.797-17.28-8.312-17.346-15.365c-0.065-5.425,3.917-11.741,14.603-11.827
	c8.879-0.087,14.625,2.842,17.542,4.471l3.395-9.007c-4.047-2.278-9.771-4.405-18.106-4.6l-0.13-13.216l-8.597,0.087l0.13,13.737
	c-12.775,2.169-20.893,10.807-20.74,22.114c0.086,11.806,8.878,18.012,23.112,23.307c10.316,3.993,15.8,8.571,15.843,16.037
	C121.453,224.306,114.815,229.947,104.978,230.035z"/>
</svg>
