<?xml version="1.0" encoding="utf-8"?>
<!-- Generator: Adobe Illustrator 16.0.0, SVG Export Plug-In . SVG Version: 6.00 Build 0)  -->
<!DOCTYPE svg PUBLIC "-//W3C//DTD SVG 1.1//EN" "http://www.w3.org/Graphics/SVG/1.1/DTD/svg11.dtd">
<svg version="1.1" id="Layer_1" xmlns="http://www.w3.org/2000/svg" xmlns:xlink="http://www.w3.org/1999/xlink" x="0px" y="0px"
	 width="800px" height="800px" viewBox="0 0 800 800" enable-background="new 0 0 800 800" xml:space="preserve">
<path d="M307.783,84.788C307.783,37.955,344.921,0,390.748,0c45.827,0,83.03,37.955,83.03,84.788
	c0,46.809-37.203,84.722-83.03,84.722C344.921,169.51,307.783,131.597,307.783,84.788z M755,714.648
	C755,761.763,596.047,800,400,800c-196.047,0-355-38.237-355-85.352c0-34.614,86.626-64.128,210.001-77.454l-2.557,23.222
	c-35.969,8.789-58.373,20.746-58.373,33.941c0,17.579,38.287,32.898,95.684,41.601l28.861-262.76l0.541-10.046
	c-1.213,0.149-2.274,0.823-3.444,0.823c-5.851,0-11.788-1.692-17.01-5.253c-37.333-25.605-92.952-106.921-68.404-157.746
	c52.739-108.747,128.055-115.776,151.196-115.3c0.109,0,0.195,0,0.324-0.021l-22.75,188.367l30.03,30.686l26.284-30.686
	L397.4,185.569c33.499,1.257,106.884,15.861,154.25,113.541c28.19,58.16-56.79,142.209-82.142,159.612
	c-0.193,0.089-0.39,0.089-0.477,0.174l0.283,3.777c0,0.325-0.153,0.542-0.153,0.867l44.504,270.965
	c52.806-8.878,88.015-23.438,88.015-40.148c0-12.132-19.154-23.285-50.182-31.879l-4.42-25.152
	C669.325,650.76,755,680.166,755,714.648z M453.519,267.601l9.36,115.864c19.24-22.007,35.816-48.764,34.17-59.398
	C483.962,297.156,468.513,279.298,453.519,267.601z M322.43,400.413l7.128-134.288c-14.647,12-30.485,30.902-45.024,60.916
	C280.201,338.628,300.524,378.538,322.43,400.413z M438.698,742.295l-44.332-270.007l-29.685,270.485
	c10.834,0.435,21.864,0.716,33.195,0.716C411.981,743.489,425.48,742.989,438.698,742.295z"/>
</svg>
