<?xml version="1.0" encoding="utf-8"?>
<!-- Generator: Adobe Illustrator 16.0.0, SVG Export Plug-In . SVG Version: 6.00 Build 0)  -->
<!DOCTYPE svg PUBLIC "-//W3C//DTD SVG 1.1//EN" "http://www.w3.org/Graphics/SVG/1.1/DTD/svg11.dtd">
<svg version="1.1" id="Layer_1" xmlns="http://www.w3.org/2000/svg" xmlns:xlink="http://www.w3.org/1999/xlink" x="0px" y="0px"
	 width="800px" height="800px" viewBox="0 0 800 800" enable-background="new 0 0 800 800" xml:space="preserve">
<path d="M800,399.826c0,33.269-26.996,60.232-60.286,60.232h-34.332c-7.639,41.504-23.438,80.067-45.812,114.03l23.285,23.242
	c23.547,23.524,23.547,61.697,0,85.211c-23.523,23.513-61.74,23.513-85.286,0l-10.438-10.428c0.282-2.354,0.586-4.709,0.543-7.118
	c-0.912-44.694-6.598-83.409-16.45-116.688c33.182-39.116,53.429-89.507,53.429-144.835c0-124.023-100.563-224.556-224.652-224.556
	c-124.045,0-224.653,100.532-224.653,224.556c0,56.098,20.877,107.097,54.905,146.419c-9.614,32.216-15.69,69.727-17.86,113.563
	c-0.152,2.951,0.108,5.838,0.434,8.691l-10.395,10.396c-23.589,23.535-61.762,23.567-85.287,0
	c-23.524-23.514-23.524-61.676,0.043-85.189l23.242-23.264c-22.374-33.963-38.151-72.526-45.812-114.03H60.287
	C26.997,460.059,0,433.095,0,399.826c0-33.278,26.997-60.254,60.287-60.254h35.59c8.485-40.505,24.826-78.103,47.439-111.133
	l-26.128-26.139c-23.567-23.524-23.567-61.697,0-85.2c23.546-23.535,61.697-23.535,85.243,0l26.888,26.932
	c32.986-21.733,70.313-37.358,110.417-45.247V60.254C339.735,26.975,366.71,0,400,0s60.265,26.975,60.265,60.254v38.531
	c40.17,7.889,77.475,23.514,110.417,45.247l26.888-26.898c23.546-23.546,61.763-23.546,85.286,0
	c23.547,23.491,23.547,61.653,0,85.199l-26.128,26.106c22.569,33.03,38.91,70.639,47.439,111.133h35.547
	C773.004,339.572,800,366.548,800,399.826z M401.107,422.027c45.963,0,83.268-37.729,83.268-84.332
	c0-46.593-37.305-84.331-83.268-84.331c-45.986,0-83.226,37.738-83.226,84.331C317.882,384.299,355.122,422.027,401.107,422.027z
	 M262.305,695.779c0.521,0.033,0.999,0.044,1.498,0.044c15.56,0,28.537-12.349,29.34-28.267
	c3.212-64.854,15.907-113.216,36.762-142.003c-1.498,30.176-4.167,84.907-6.532,140.831c-0.13,1.01-0.434,1.975-0.499,3.006
	L313.759,800h76.346l3.754-53.646c2.908-0.813,5.773-1.552,8.247-1.552c2.93,0,5.729,0.532,8.55,0.89L414.128,800h76.346
	l-7.01-109.483c-0.108-1.769-0.499-3.439-0.847-5.11c-1.671-48.654-7.183-120.671-10.352-159.809
	c21.289,28.83,33.29,76.692,34.592,141.069c0.326,16.232,13.412,29.156,29.97,29.146c16.211-0.337,29.123-13.933,28.776-30.371
	c-1.997-98.774-26.52-167.308-72.938-203.668c-12.088-9.494-24.652-17.621-39.236-22.732c-13.52-4.752-27.777-7.411-42.014-8.388
	l21.484,228.549l-31.033,36.838l-35.46-36.838l26.932-228.874c-15.538,0.531-31.207,3.06-45.855,8.366
	c-6.011,2.159-11.871,4.796-17.383,8.051c-9.657,5.729-18.555,12.63-26.932,20.183c-41.515,37.239-63.976,101.888-68.728,197.623
	C233.637,680.979,246.094,694.955,262.305,695.779z"/>
</svg>
