<?xml version="1.0" encoding="utf-8"?>
<!-- Generator: Adobe Illustrator 16.0.0, SVG Export Plug-In . SVG Version: 6.00 Build 0)  -->
<!DOCTYPE svg PUBLIC "-//W3C//DTD SVG 1.1//EN" "http://www.w3.org/Graphics/SVG/1.1/DTD/svg11.dtd">
<svg version="1.1" id="Layer_1" xmlns="http://www.w3.org/2000/svg" xmlns:xlink="http://www.w3.org/1999/xlink" x="0px" y="0px"
	 width="800px" height="800px" viewBox="0 0 800 800" enable-background="new 0 0 800 800" xml:space="preserve">
<path d="M499.487,84.938c0-46.821,38.438-84.757,85.956-84.757c47.408,0,85.868,37.937,85.868,84.757
	c0,46.832-38.46,84.768-85.868,84.768C537.926,169.706,499.487,131.77,499.487,84.938z M679.827,209.735
	c-10.746-8.179-25.546-17.552-38.242-22.173c-14.562-5.272-30.098-8.158-45.547-9.199l22.166,229.7l-31.98,37.015l-36.598-37.015
	l27.758-229.961c-6.48,0.217-12.807,0.651-18.766,1.475c-14.062,0.846-28.818,3.938-43.444,12.27
	c-29.425,16.771-43.79,45.14-55.296,67.92l-4.355,8.517c-10.031,19.234-17.811,21.154-26.261,21.588
	c-19.241,1.063-40.995-7.887-61.991-16.479l-3.878-1.562c-15.493-6.313-33.043,0.955-39.414,16.132
	c-6.37,15.221,0.997,32.61,16.38,38.902l3.792,1.54c24.268,9.938,51.548,21.099,81.969,21.099c2.08,0,4.182-0.053,6.283-0.162
	c50.053-2.528,70.182-41.136,76.812-53.829l1.821-3.515c-1.625,31.905-3.879,77.966-5.916,124.647
	c-0.043,0.574-0.237,1.095-0.282,1.681l-24.246,337.967c-1.495,21.273,14.735,39.715,36.337,41.234
	c0.911,0.064,1.821,0.087,2.773,0.087c20.325,0,37.529-15.546,39.003-35.876l19.067-266.053c3.099-0.836,6.089-1.585,8.688-1.585
	c3.078,0,6.024,0.532,9.015,0.912l17.616,268.896C614.435,784.325,631.639,800,652.093,800c0.845,0,1.712-0.022,2.579-0.064
	c21.537-1.378,37.918-19.755,36.531-41.029l-20.996-319.36c-0.087-1.259-0.411-2.441-0.628-3.666
	c-1.669-49.013-7.454-122.716-10.748-162.377c22.059,28.965,34.496,77.207,35.839,142.047c0.304,16.239,13.78,29.17,30.791,29.159
	c16.662-0.337,29.879-13.94,29.532-30.386C752.935,315.094,727.648,246.272,679.827,209.735z M421.267,336.129
	c-11.657-16.066-38.135-29.953-49.814-38.381c-21.906-15.872-43.899-31.775-65.87-47.624c-0.238-0.196-0.585-0.401-0.845-0.596
	c2.924-9.883,0.151-21.089-8.169-28.401c-1.863-1.606-4.03-2.496-6.132-3.494c18.526-24.994,28.515-56.486,26.088-90.041
	C311.108,52.708,245.736-4.398,171.004,0.267C96.164,4.921,39.849,69.577,45.374,144.44c5.504,74.885,70.768,131.99,145.478,127.337
	c23.228-1.455,44.635-8.679,62.988-20.167c1.539,3.895,3.727,7.518,7.064,10.436c8.667,7.561,20.627,8.734,30.227,3.916
	c13.412,14.775,26.933,29.563,40.345,44.348c13.868,15.221,27.648,30.56,43.314,43.946c11.679,9.938,21.386,18.236,37.983,14.461
	C428.894,365.062,430.172,348.291,421.267,336.129z M188.598,240.198c-57.376,3.569-107.515-40.258-111.719-97.732
	c-4.247-57.387,39.067-107.083,96.422-110.631c57.419-3.558,107.472,40.302,111.719,97.678
	C289.224,187.02,245.996,236.628,188.598,240.198z"/>
</svg>
