<?xml version="1.0" encoding="utf-8"?>
<!-- Generator: Adobe Illustrator 16.0.0, SVG Export Plug-In . SVG Version: 6.00 Build 0)  -->
<!DOCTYPE svg PUBLIC "-//W3C//DTD SVG 1.1//EN" "http://www.w3.org/Graphics/SVG/1.1/DTD/svg11.dtd">
<svg version="1.1" id="Layer_1" xmlns="http://www.w3.org/2000/svg" xmlns:xlink="http://www.w3.org/1999/xlink" x="0px" y="0px"
	 width="800px" height="800px" viewBox="0 0 800 800" enable-background="new 0 0 800 800" xml:space="preserve">
<path d="M124.931,84.722C124.931,37.912,162.498,0,208.921,0c46.36,0,83.927,37.912,83.927,84.722
	c0,46.832-37.567,84.722-83.927,84.722C162.498,169.444,124.931,131.554,124.931,84.722z M762.229,353.971
	c-12.485,51.259-64.117,82.553-114.969,69.878c-40.765-10.112-68.523-45.703-71.548-85.893c-0.734,0-1.533,0.259-2.269,0.064
	c-8.598-2.104-14.106-10.98-15.187-21.832c-7.345-1.02-14.712-1.865-22.034-2.626c-22.683-2.474-45.647-4.383-68.243-6.706
	c-4.58-0.477-9.203-1.041-13.826-1.562c-23.481,33.463-60.056,85.568-100.711,85.568c-8.425,0-17.022-2.236-25.707-7.335
	c-26.506-15.604-37.416-41.471-43.595-65.408c2.745,36.869,5.682,80.555,6.935,113.976c0.562,2.277,0.994,4.621,1.167,7.074
	l20.479,319.249c1.383,21.527-14.776,40.104-36.097,41.493c-0.843,0.065-1.707,0.087-2.549,0.087
	c-20.199,0-37.222-15.865-38.561-36.524l-17.261-268.88c-2.765-0.326-5.465-0.846-8.317-0.846c-2.441,0-5.25,0.717-8.058,1.497
	l-18.664,266.037c-1.426,20.596-18.406,36.285-38.54,36.285c-0.908,0-1.858,0-2.765-0.086c-21.3-1.52-37.373-20.184-35.86-41.689
	l23.676-337.847c0.043-0.717,0.259-1.368,0.345-2.063c-3.737,9.462-8.727,17.926-13.221,25.349c-1.923,3.189-3.91,6.466-5.919,9.982
	c-5.53,9.7-15.554,15.125-25.901,15.125c-5.034,0-10.175-1.302-14.841-4.036c-14.301-8.269-19.227-26.692-11.018-41.103
	c2.268-3.993,4.537-7.747,6.74-11.328c12.228-20.248,11.838-20.964,6.956-29.601c-5.876-10.439-11.902-18.793-17.217-26.129
	c-27.716-38.433-32.339-65.234,16.31-113.607c10.758-10.698,22.078-21.049,34.564-29.708c5.357-3.71,10.888-7.119,16.721-10.092
	c24.907-12.63,49.945-21.116,77.769-22.461l-27.111,229.428l35.773,37.044l31.26-37.044l-21.625-229.383
	c21.818,1.605,43.162,7.725,62.475,18.142c14.841,8.029,26.053,21.288,35.211,35.308c10.002,15.321,14.668,33.789,18.989,51.411
	c1.124,4.796,11.579,49.782,18.773,46.137c14.539-7.356,41.499-45.747,50.724-58.897c5.616-7.965,10.325-15.973,18.06-22.05
	c5.206-4.101,11.708-6.401,18.34-6.358c3.673,0.044,7.087,0.869,10.499,2.105c11.406,4.124,22.684,9.332,34.09,14.04
	c21.364,8.833,42.622,17.969,64.182,26.368c1.317,0.521,14.192,6.12,14.56,5.621c5.919-8.53,14.452-13.348,22.66-11.264
	c0.821,0.173,1.384,0.868,2.117,1.215c21.259-33.92,62.044-52.191,102.721-42.035C743.608,250.76,774.76,302.734,762.229,353.971z
	 M137.655,262.37c-7.107,5.251-14.711,12.022-23.828,21.092c-13.048,12.978-17.347,19.445-18.751,22.159
	c1.642,3.059,5.574,8.528,8.857,13.063c5.92,8.224,13.286,18.425,20.826,31.835c3.716,6.598,6.005,12.783,7.777,18.793
	C134.63,322.96,136.639,282.269,137.655,262.37z M685.863,266.102c-35.492-8.854-71.481,13.042-80.188,48.915
	c-8.792,35.655,12.962,71.918,48.521,80.838c35.492,8.854,71.481-13.065,80.21-48.872
	C743.133,311.219,721.378,274.935,685.863,266.102z"/>
</svg>
