<?xml version="1.0" encoding="utf-8"?>
<!-- Generator: Adobe Illustrator 16.0.0, SVG Export Plug-In . SVG Version: 6.00 Build 0)  -->
<!DOCTYPE svg PUBLIC "-//W3C//DTD SVG 1.1//EN" "http://www.w3.org/Graphics/SVG/1.1/DTD/svg11.dtd">
<svg version="1.1" id="Layer_1" xmlns="http://www.w3.org/2000/svg" xmlns:xlink="http://www.w3.org/1999/xlink" x="0px" y="0px"
	 width="800px" height="800px" viewBox="0 0 800 800" enable-background="new 0 0 800 800" xml:space="preserve">
<path d="M207.682,398.426C93.109,398.426,0,488.498,0,599.219c0,2.561,0.163,5.067,0.325,7.584l0.174,2.691
	C6.163,716.33,97.146,800,207.682,800c110.471,0,201.455-83.67,207.096-190.44l0.195-2.757c0.174-2.517,0.347-5.023,0.347-7.584
	C415.32,488.498,322.157,398.426,207.682,398.426z M226.725,746.549c2.865-0.347,5.697-0.856,8.54-1.323
	C232.422,745.725,229.59,746.202,226.725,746.549z M361.111,605.859l-0.152,2.365c-2.572,41.559-22.873,79.655-56.033,105.902
	c1.78-1.399,3.364-2.973,5.067-4.448c-2.528-2.268-4.883-4.817-7.552-6.88c-12.359-9.537-25.174-17.708-40.039-22.84
	c-13.802-4.764-28.342-7.434-42.882-8.421l7.162,75.022c-6.304,0.759-12.608,1.378-19,1.378c-9.473,0-18.772-1.129-27.984-2.8
	c4.091,0.662,8.214,1.259,12.359,1.671l9.039-75.597c-15.875,0.531-31.825,3.07-46.799,8.398c-6.12,2.17-12.088,4.817-17.708,8.095
	c-9.853,5.751-18.913,12.685-27.485,20.269c-0.933,0.825-1.714,1.845-2.626,2.702C75.727,684.57,56.836,647.981,54.34,608.203
	l-0.152-2.344c-0.173-2.203-0.336-4.395-0.336-6.641c0-82.031,69.021-148.72,153.831-148.72c84.744,0,153.722,66.688,153.722,148.72
	C361.404,601.465,361.285,603.656,361.111,605.859z M293.956,578.168c0,46.811-38.054,84.701-84.95,84.701
	s-84.896-37.891-84.896-84.701c0-46.799,38-84.711,84.896-84.711S293.956,531.369,293.956,578.168z M592.361,0
	C477.799,0,384.689,90.071,384.689,200.781c0,2.571,0.152,5.078,0.314,7.595l0.185,2.691
	c5.664,106.836,96.647,190.506,207.173,190.506c110.481,0,201.465-83.67,207.106-190.44l0.195-2.756
	c0.163-2.517,0.337-5.024,0.337-7.595C800,90.071,706.847,0,592.361,0z M611.415,348.123c2.854-0.347,5.696-0.857,8.528-1.324
	C617.111,347.298,614.269,347.775,611.415,348.123z M745.801,207.433l-0.163,2.365c-2.571,41.558-22.873,79.655-56.033,105.903
	c1.78-1.4,3.364-2.973,5.078-4.449c-2.539-2.268-4.883-4.818-7.563-6.879c-12.349-9.538-25.174-17.708-40.028-22.841
	c-13.802-4.774-28.342-7.433-42.882-8.42l7.161,75.021c-6.304,0.76-12.619,1.378-19.01,1.378c-9.462,0-18.772-1.129-27.974-2.8
	c4.091,0.662,8.214,1.259,12.359,1.671l9.027-75.597c-15.863,0.532-31.814,3.06-46.799,8.398c-6.109,2.17-12.077,4.818-17.697,8.095
	c-9.863,5.751-18.924,12.685-27.485,20.269c-0.933,0.825-1.714,1.845-2.626,2.702c-30.751-26.106-49.652-62.695-52.147-102.474
	l-0.142-2.344c-0.174-2.203-0.337-4.395-0.337-6.651c0-82.021,69.021-148.709,153.82-148.709
	c84.754,0,153.732,66.688,153.732,148.709C746.094,203.038,745.975,205.23,745.801,207.433z M678.646,179.73
	c0,46.821-38.054,84.711-84.95,84.711s-84.906-37.891-84.906-84.711c0-46.788,38.01-84.7,84.906-84.7
	S678.646,132.942,678.646,179.73z M572.472,611.502c-8.778-9.614-23.894-10.461-33.811-1.997l-82.552,70.638l81.521,78.82
	c4.709,4.535,10.774,6.792,16.916,6.792c6.131,0,12.272-2.257,16.938-6.792c9.364-9.018,9.364-23.688,0-32.737l-18.989-18.349
	H738.52V472.482c0-12.782-10.698-23.155-23.937-23.155c-13.237,0-23.947,10.373-23.947,23.155v189.084H550.098l20.302-17.383
	C580.316,635.698,581.25,621.061,572.472,611.502z M231.358,174.229c4.774,5.187,11.328,7.802,17.925,7.802
	c5.675,0,11.328-1.888,15.885-5.805l82.596-70.649l-81.543-78.831c-9.343-9.039-24.479-9.039-33.833,0
	c-9.386,9.028-9.386,23.687,0,32.748l18.945,18.359H65.31v235.384c0,12.793,10.709,23.145,23.937,23.145
	c13.238,0,23.969-10.352,23.969-23.145V124.153h140.538l-20.334,17.394C223.546,150.032,222.602,164.648,231.358,174.229z"/>
</svg>
