<?xml version="1.0" encoding="utf-8"?>
<!-- Generator: Adobe Illustrator 16.0.0, SVG Export Plug-In . SVG Version: 6.00 Build 0)  -->
<!DOCTYPE svg PUBLIC "-//W3C//DTD SVG 1.1//EN" "http://www.w3.org/Graphics/SVG/1.1/DTD/svg11.dtd">
<svg version="1.1" id="Layer_1" xmlns="http://www.w3.org/2000/svg" xmlns:xlink="http://www.w3.org/1999/xlink" x="0px" y="0px"
	 width="800px" height="800px" viewBox="0 0 800 800" enable-background="new 0 0 800 800" xml:space="preserve">
<path d="M425.171,186.632c14.919,5.143,27.738,13.324,40.119,22.874c42.108,32.486,66.498,90.602,72.864,172.765
	c-19.972-18.121-42.458-33.161-67.002-44.488c-5.973-26.693-14.874-48.33-26.708-64.128c1.201,14.757,2.733,34.115,4.287,55.121
	c-17.216-6.119-34.979-11.002-53.44-13.54l-13.08-137.023C396.801,179.21,411.348,181.858,425.171,186.632z M371.666,169.531
	c46.988,0,85.115-37.891,85.115-84.766C456.781,37.935,418.654,0,371.666,0c-46.965,0-85.047,37.935-85.047,84.766
	C286.619,131.641,324.701,169.531,371.666,169.531z M275.025,325.934c6.147-21.333,14.109-38.999,23.888-52.322
	c-0.592,12.022-1.401,28.059-2.298,46.419c16.472-3.863,33.491-6.164,50.947-6.859l16.187-135.285
	c-15.88,0.542-31.871,3.06-46.876,8.398c-6.126,2.169-12.098,4.818-17.741,8.116c-9.866,5.73-18.944,12.674-27.541,20.292
	c-33.884,29.904-55.146,77.778-64.879,144.791C227.514,345.269,250.46,333.919,275.025,325.934z M434.403,598.395
	c-10.37,29.036-38.193,50.022-71.442,50.022c-42.044,0-76.168-33.291-76.168-74.328c0-41.06,34.124-74.328,76.168-74.328
	c10.981,0,21.263,2.562,30.667,6.728l36.926-43.013c-19.818-11.564-42.787-18.51-67.593-18.51
	c-73.083,0-132.319,57.791-132.319,129.123c0,71.29,59.236,129.08,132.319,129.08c61.773,0,113.266-41.537,127.834-97.439
	L434.403,598.395z M539.642,546.182c0.896,6.987,1.53,14.018,1.53,21.245c0,98.394-81.984,178.45-182.849,178.45
	c-100.863,0-182.893-80.057-182.893-178.45c0-98.373,82.029-178.429,182.893-178.429c66.127,0,123.811,34.571,155.965,86.001
	l52.325-19.965c-40.753-71.527-118.714-120.16-208.29-120.16C226.922,334.874,120,439.214,120,567.427
	C120,695.66,226.922,800,358.323,800c131.4,0,238.279-104.34,238.279-232.573c0-14.171-1.772-27.844-4.31-41.32L539.642,546.182z
	 M678.917,452.669c3.172,7.943-0.854,16.927-9.058,20.053l-196.147,74.805l12.249,35.156l-115.388-15.017l78.354-91.299
	l14.592,41.796l194.813-74.283C666.514,440.756,675.679,444.705,678.917,452.669z"/>
</svg>
