<?xml version="1.0" encoding="utf-8"?>
<!-- Generator: Adobe Illustrator 16.0.0, SVG Export Plug-In . SVG Version: 6.00 Build 0)  -->
<!DOCTYPE svg PUBLIC "-//W3C//DTD SVG 1.1//EN" "http://www.w3.org/Graphics/SVG/1.1/DTD/svg11.dtd">
<svg version="1.1" id="Layer_1" xmlns="http://www.w3.org/2000/svg" xmlns:xlink="http://www.w3.org/1999/xlink" x="0px" y="0px"
	 width="800px" height="800px" viewBox="0 0 800 800" enable-background="new 0 0 800 800" xml:space="preserve">
<path d="M109.008,84.755C109.008,37.934,146.491,0,192.763,0c46.273,0,83.821,37.934,83.821,84.755
	c0,46.842-37.548,84.755-83.821,84.755C146.491,169.51,109.008,131.597,109.008,84.755z M284.941,209.462
	c-12.171-9.549-24.837-17.72-39.509-22.852c-13.592-4.774-27.939-7.444-42.286-8.432l21.628,229.698l-31.236,37.022l-35.695-37.022
	l27.121-230.023c-15.661,0.532-31.408,3.071-46.164,8.41c-6.032,2.169-11.934,4.816-17.492,8.094
	c-9.737,5.751-18.677,12.695-27.122,20.28c-41.77,37.424-64.367,102.397-69.149,198.621c-0.82,16.504,11.718,30.556,28.047,31.381
	c0.517,0.032,0.991,0.044,1.508,0.044c15.64,0,28.715-12.414,29.513-28.408c3.231-65.18,16.027-113.779,37.009-142.718
	c-1.508,30.326-4.201,85.34-6.592,141.535c-0.129,1.021-0.431,1.985-0.496,3.028L90.396,756.097
	c-1.487,21.365,14.412,39.898,35.522,41.418c0.948,0.064,1.853,0.097,2.758,0.097c19.926,0,36.771-15.614,38.193-36.045
	l18.612-266.092c2.929-0.825,5.817-1.563,8.315-1.563c2.93,0,5.73,0.532,8.574,0.89l17.233,268.935
	C220.918,784.244,237.786,800,257.798,800c0.84,0,1.702-0.022,2.521-0.076c21.154-1.39,37.159-19.836,35.802-41.211l-20.465-319.359
	c-0.085-1.778-0.495-3.459-0.839-5.143c-1.681-48.893-7.239-121.278-10.405-160.611c21.412,28.982,33.476,77.084,34.811,141.786
	c0.324,16.31,13.485,29.298,30.16,29.286c16.307-0.336,29.296-13.997,28.952-30.523
	C356.332,314.876,331.645,246.006,284.941,209.462z M629.396,429.318h27.058c11.482,17.946,31.365,29.894,54.026,29.894
	c35.632,0,64.52-29.275,64.52-65.397c0-36.1-28.888-65.375-64.52-65.375c-27.809,0-51.29,17.947-60.338,42.979h-20.746h-62.601
	V225.694h95.454c11.847,13.629,28.951,22.396,48.23,22.396c35.632,0,64.52-29.265,64.52-65.376c0-36.1-28.888-65.386-64.52-65.386
	c-30.502,0-55.942,21.571-62.644,50.456h-81.041v-0.011h-59.863v203.646H404.65v57.899h102.282l0.709,198.22l154.563-0.206
	c11.85,13.629,28.954,22.418,48.275,22.418c35.632,0,64.52-29.265,64.52-65.375c0-36.111-28.888-65.387-64.52-65.387
	c-30.46,0-55.922,21.571-62.644,50.434h-81.041V429.318H629.396z"/>
</svg>
