<?xml version="1.0" encoding="utf-8"?>
<!-- Generator: Adobe Illustrator 16.0.0, SVG Export Plug-In . SVG Version: 6.00 Build 0)  -->
<!DOCTYPE svg PUBLIC "-//W3C//DTD SVG 1.1//EN" "http://www.w3.org/Graphics/SVG/1.1/DTD/svg11.dtd">
<svg version="1.1" id="Layer_1" xmlns="http://www.w3.org/2000/svg" xmlns:xlink="http://www.w3.org/1999/xlink" x="0px" y="0px"
	 width="800px" height="800px" viewBox="0 0 800 800" enable-background="new 0 0 800 800" xml:space="preserve">
<path d="M413.708,573.602c-30.74-12.664-43.779-21.811-43.779-40.083c0-14.052,10.233-30.24,37.411-30.24
	c22.623,0,37.108,7.726,44.534,11.947c0,0,10.772,3.774,15.349-6.848c4.598-10.646-6.52-16.341-6.52-16.341
	c-10.232-5.991-24.718-11.622-45.938-12.327v-34.072h-21.889v35.481c-32.489,5.296-53.342,27.431-53.342,56.62
	c0,30.588,22.256,46.777,58.286,60.808c26.142,10.567,39.915,22.525,39.915,41.872c0,20.02-16.968,34.44-42.03,34.44
	c-19.795,0-38.166-6.674-50.859-15.126c0,0-11.29-4.839-16.168,5.696c-4.879,10.526,7.685,17.85,7.685,17.85
	c12.347,8.8,33.567,15.137,54.032,15.484v35.514h22.278v-36.576c36.396-5.979,55.803-31.988,55.803-59.776
	C468.475,606.642,450.125,588.368,413.708,573.602z M454.768,186.61c14.938,5.132,27.825,13.303,40.216,22.852
	c47.578,36.545,72.706,105.415,74.757,204.688c0.022,0.956-0.433,1.78-0.497,2.713c-18.307-17.546-39.353-32.162-62.43-43.392
	c-4.856-43.815-15.931-77.561-32.726-99.871c1.834,22.419,4.469,55.588,6.691,89.02c-16.773-5.881-34.346-10.091-52.564-12.186
	L411.7,178.179C426.293,179.167,440.907,181.836,454.768,186.61z M230.844,416.786c-0.087-1.204-0.605-2.289-0.54-3.526
	c4.878-96.225,27.89-161.197,70.439-198.622c8.591-7.584,17.702-14.529,27.609-20.28c5.656-3.276,11.679-5.924,17.809-8.095
	c15.025-5.339,31.087-7.878,47.018-8.409l-20.724,172.472c-16.751,1.888-32.985,5.491-48.549,10.591
	c1.662-35.471,3.238-67.015,4.253-87.359c-16.32,22.081-27.718,55.686-33.676,99.306
	C270.931,384.146,249.451,398.947,230.844,416.786z M315.811,84.755C315.811,37.934,354.019,0,401.123,0
	c47.124,0,85.355,37.934,85.355,84.755c0,46.842-38.231,84.755-85.355,84.755C354.019,169.51,315.811,131.597,315.811,84.755z
	 M400,382.01c-115.793,0-210,93.74-210,208.985S284.207,800,400,800c115.794,0,210-93.76,210-209.005S515.794,382.01,400,382.01z
	 M400,751.401c-88.874,0-161.17-71.975-161.17-160.406c0-88.455,72.296-160.385,161.17-160.385
	c88.875,0,161.126,71.93,161.126,160.385C561.126,679.427,488.875,751.401,400,751.401z"/>
</svg>
