<?xml version="1.0" encoding="utf-8"?>
<!-- Generator: Adobe Illustrator 16.0.0, SVG Export Plug-In . SVG Version: 6.00 Build 0)  -->
<!DOCTYPE svg PUBLIC "-//W3C//DTD SVG 1.1//EN" "http://www.w3.org/Graphics/SVG/1.1/DTD/svg11.dtd">
<svg version="1.1" id="Layer_1" xmlns="http://www.w3.org/2000/svg" xmlns:xlink="http://www.w3.org/1999/xlink" x="0px" y="0px"
	 width="800px" height="800px" viewBox="0 0 800 800" enable-background="new 0 0 800 800" xml:space="preserve">
<path d="M400,0C179.08,0,0,179.08,0,400s179.08,400,400,400s400-179.08,400-400S620.92,0,400,0z M719.054,301.031h-96.115
	c-4.558-35.395-11.849-66.916-21.658-94.216c19.531-4.34,39.345-9.332,59.462-15.018
	C686.458,223.947,706.532,260.807,719.054,301.031z M614.128,143.978c-12.674,3.157-25.304,6.163-37.674,8.735
	c-12.999-23.047-27.387-42.209-42.209-58.344C563.26,107.172,590.147,123.872,614.128,143.978z M429.08,85.764
	c23.633,12.272,56.792,35.731,85.178,77.789c-29.427,4.221-57.942,7.042-85.178,8.648V85.764z M429.08,230.838
	c35.959-2.073,74.002-6.066,113.715-12.587c9.397,23.73,16.992,50.998,21.637,82.78H429.08V230.838z M370.877,82.183v91.797
	c-35.222,0.12-67.622-1.498-96.484-4.08C306.445,119.097,346.007,93.783,370.877,82.183z M370.877,232.671v68.359H228.689
	c4.08-28.201,10.395-53.06,18.337-74.848c34.462,3.819,74.414,6.565,118.859,6.565C367.491,232.748,369.249,232.682,370.877,232.671
	z M253.168,100.445c-14.822,17.133-29.102,37.598-41.71,61.871c-14.67-2.268-27.279-4.579-38.281-6.792
	C196.918,133.475,223.785,114.898,253.168,100.445z M129.037,205.447c13.086,3.353,33.073,7.932,59.418,12.5
	c-8.051,24.62-14.28,52.246-18.229,83.083H80.946C91.732,266.352,108.269,234.277,129.037,205.447z M307.465,720.421
	c5.838-18.978,13.129-34.896,21.983-47.103c-0.651,13.271-1.541,31.435-2.539,52.181
	C320.356,723.991,313.889,722.309,307.465,720.421z M473.264,725.662c1.172-0.261,0.586-38.477-0.521-52.301
	c8.984,12.153,16.211,27.854,21.788,46.539C504.123,717.068,490.3,721.832,473.264,725.662z M549.696,697.938
	c-12.262-38.867-30.946-68.771-56.424-88.716c-12.174-9.548-24.826-17.719-39.496-22.852c-13.606-4.773-27.952-7.443-42.296-8.431
	l14.432,153.31c-4.406,0.369-50.261,1.584-52.084,1.443c0.391,0.032,0.781,0.032,1.194,0.054l18.272-155.132
	c-15.647,0.531-31.402,3.07-46.159,8.409c-6.033,2.17-11.936,4.817-17.492,8.095c-9.722,5.751-18.663,12.695-27.105,20.279
	c-22.331,20.009-39.019,48.167-50.607,84.484C141.905,644.228,65.972,530.968,65.972,400c0-13.824,1.128-27.365,2.756-40.755
	h662.543c1.628,13.39,2.756,26.932,2.756,40.755C734.027,530.295,658.832,642.99,549.696,697.938z M484.918,484.516
	c0,46.843-37.544,84.755-83.811,84.755c-46.268,0-83.768-37.912-83.768-84.755c0-46.82,37.5-84.754,83.768-84.754
	C447.374,399.761,484.918,437.695,484.918,484.516z"/>
</svg>
