<?xml version="1.0" encoding="utf-8"?>
<!-- Generator: Adobe Illustrator 16.0.0, SVG Export Plug-In . SVG Version: 6.00 Build 0)  -->
<!DOCTYPE svg PUBLIC "-//W3C//DTD SVG 1.1//EN" "http://www.w3.org/Graphics/SVG/1.1/DTD/svg11.dtd">
<svg version="1.1" id="Layer_1" xmlns="http://www.w3.org/2000/svg" xmlns:xlink="http://www.w3.org/1999/xlink" x="0px" y="0px"
	 width="800px" height="800px" viewBox="0 0 800 800" enable-background="new 0 0 800 800" xml:space="preserve">
<path d="M400.391,620.215c-165.02,0-331.602-32.692-389.286-95.595v146.181h355.301v63.943h-82.987V800H513.5v-65.256h-82.987
	v-63.943h358.382V525.314C730.604,587.761,564.76,620.215,400.391,620.215z M257.268,338.444c3.625-21.593,8.29-43.338,16.146-64.79
	c7.877-21.604,19.683-47.2,38.781-65.267c12.414-15.668,42.296-29.123,81.229-30.437l-18.143,152.333
	c-16.667,0.337-33.139,0.912-49.198,1.878c0.521-10.949,1.02-21.452,1.476-30.806c-3.342,10.156-5.838,20.638-8.073,31.294
	C298.11,334.061,277.298,335.971,257.268,338.444z M316.666,84.776C316.666,37.945,354.557,0,401.324,0
	c46.724,0,84.593,37.945,84.593,84.776c0,46.832-37.869,84.755-84.593,84.755C354.557,169.531,316.666,131.608,316.666,84.776z
	 M181.854,213.716c21.788,15.787,32.899,41.124,39.345,58.8c1.172,3.233,1.866,6.694,2.93,9.972
	c-6.012,21.397-9.875,42.578-12.978,62.901c-6.944,1.215-13.846,2.463-20.551,3.809c-3.212-19.922-7.183-40.484-12.109-55.035
	c1.324,17.025,2.778,37.023,4.058,56.738c-13.563,2.854-26.693,5.914-39.106,9.3l-15.474-162.793
	c10.743,0.737,21.181,2.452,30.274,5.306C166.208,204.829,174.259,208.225,181.854,213.716z M480.079,199.121
	c27.604,20.02,41.711,52.138,49.871,74.556c7.877,21.56,12.564,43.413,16.189,65.137c-20.031-2.539-40.843-4.515-62.241-5.968
	c-2.213-10.634-4.73-21.094-8.029-31.229c0.738,9.635,1.541,20.041,2.322,30.805c-16.971-1.074-34.332-1.758-51.976-2.127
	l-14.432-151.855c13.629,0.934,26.845,3.114,38.39,6.717C460.244,187.848,470.466,192.155,480.079,199.121z M686.527,197.104
	l21.398,179.492c31.12,12.044,56.229,26.041,73.721,41.579c7.313-17.328,12.825-35.742,15.929-57.118
	c8.095-55.729-4.231-102.951-34.679-132.964c-10.981-10.84-21.876-17.491-32.684-21.756
	C718.689,201.118,703.693,197.689,686.527,197.104z M750.743,354.232c-1.692,11.762-4.297,22.33-7.553,32.335v-0.022
	c-0.087-1.172-0.391-2.278-0.607-3.418c-1.909-44.748-4.058-88.454-5.229-111.936C755.387,297.157,753.781,333.442,750.743,354.232z
	 M613.545,123.492c0-36.958,29.883-66.884,66.754-66.884c36.894,0,66.798,29.926,66.798,66.884
	c0,36.957-29.904,66.873-66.798,66.873C643.428,190.365,613.545,160.449,613.545,123.492z M592.256,345.845
	c-3.407-22.136-7.748-45.421-14.758-68.87c0.499-1.453,0.781-3.005,1.303-4.459c6.445-17.676,17.557-43.013,39.345-58.8
	c7.596-5.491,15.647-8.887,23.611-11.003c9.093-2.854,19.532-4.568,30.274-5.306l-15.452,162.598
	c-12.435-3.364-25.543-6.424-39.106-9.267c1.259-19.662,2.713-39.605,4.037-56.576c-5.882,17.372-9.983,35.775-13.064,54.666
	C603.149,347.775,597.702,346.811,592.256,345.845z M52.903,123.492c0-36.958,29.905-66.884,66.798-66.884
	c36.871,0,66.754,29.926,66.754,66.884c0,36.957-29.883,66.873-66.754,66.873C82.808,190.365,52.903,160.449,52.903,123.492z
	 M18.571,418.729c17.361-15.625,42.34-29.72,73.482-41.84l21.419-179.785c-17.166,0.586-32.162,4.015-43.686,9.233
	c-10.808,4.265-21.702,10.916-32.661,21.756C6.656,258.105-5.67,305.328,2.424,361.057C5.55,382.65,11.127,401.248,18.571,418.729z
	 M62.668,271.191c-1.172,23.481-3.342,67.188-5.252,111.936c-0.217,1.14-0.521,2.246-0.607,3.418v0.022
	c-3.255-10.005-5.859-20.573-7.552-32.335C46.219,333.442,44.613,297.157,62.668,271.191z M782.08,452.441
	c-33.507-57.053-191.496-100.282-381.689-100.282c-190.237,0-348.183,43.229-381.733,100.282
	c-4.297,7.324-6.814,14.854-6.814,22.559c0,67.828,173.917,122.819,388.547,122.819c214.413,0,388.243-54.904,388.504-122.688
	c0-0.044,0-0.087,0-0.131c0-0.043,0-0.087,0-0.13C788.852,467.198,786.334,459.723,782.08,452.441z"/>
</svg>
