<?xml version="1.0" encoding="utf-8"?>
<!-- Generator: Adobe Illustrator 16.0.0, SVG Export Plug-In . SVG Version: 6.00 Build 0)  -->
<!DOCTYPE svg PUBLIC "-//W3C//DTD SVG 1.1//EN" "http://www.w3.org/Graphics/SVG/1.1/DTD/svg11.dtd">
<svg version="1.1" id="Layer_1" xmlns="http://www.w3.org/2000/svg" xmlns:xlink="http://www.w3.org/1999/xlink" x="0px" y="0px"
	 width="800px" height="800px" viewBox="0 0 800 800" enable-background="new 0 0 800 800" xml:space="preserve">
<path d="M180.2,269.911c0,16.33,12.628,29.558,28.275,29.558H593.25c15.645,0,28.317-13.228,28.317-29.558
	c0-16.309-12.673-29.547-28.317-29.547H208.475C192.829,240.364,180.2,253.603,180.2,269.911z M603.077,143.424h-42.284v68.565
	h42.284V143.424z M248.431,143.424h-42.24v68.565h42.24V143.424z M498.209,91.406v120.583h42.24V91.406H498.209z M283.904,91.406
	v120.583h42.283V91.406H283.904z M429.547,122.928v89.062h42.24v-89.062H429.547z M352.609,0v211.989h42.197V0H352.609z
	 M317.438,443.706c0-47.06,37.628-85.178,84.049-85.178c46.378,0,84.007,38.118,84.007,85.178c0,47.049-37.629,85.156-84.007,85.156
	C355.066,528.862,317.438,490.755,317.438,443.706z M433.513,768.392l-21.638-230.522c15.215,1.074,29.784,3.786,42.24,8.148
	c75.774,19.662,173.357-31.576,210.684-93.024c8.621-14.191,26.983-18.63,41.034-9.874c14.008,8.758,18.36,27.365,9.741,41.57
	c-41.724,68.652-135.557,126.258-226.503,126.258c-5.948,0-11.854-0.282-17.715-0.791c1.854,21.615,10.086,120.845,12.37,183.301
	c0.475,2.126,0.905,4.285,1.077,6.543h-77.843L433.513,768.392z M84.426,484.689c-8.621-14.205-4.267-32.813,9.741-41.57
	c14.052-8.756,32.414-4.317,41.034,9.874c37.758,62.176,137.324,113.804,213.486,92.21c12.802-4.448,28.017-7.302,44.956-7.888
	l-27.154,231.076L396.876,800h-76.033l1.508-21.333c0.086-1.54,0.474-2.974,0.733-4.448c3.448-80.729,7.457-158.713,7.715-164.323
	c-6.595,0.641-13.19,1.052-19.827,1.052C219.983,610.947,126.149,553.342,84.426,484.689z"/>
</svg>
