<?xml version="1.0" encoding="utf-8"?>
<!-- Generator: Adobe Illustrator 16.0.0, SVG Export Plug-In . SVG Version: 6.00 Build 0)  -->
<!DOCTYPE svg PUBLIC "-//W3C//DTD SVG 1.1//EN" "http://www.w3.org/Graphics/SVG/1.1/DTD/svg11.dtd">
<svg version="1.1" id="Layer_1" xmlns="http://www.w3.org/2000/svg" xmlns:xlink="http://www.w3.org/1999/xlink" x="0px" y="0px"
	 width="800px" height="800px" viewBox="0 0 800 800" enable-background="new 0 0 800 800" xml:space="preserve">
<path d="M628.149,169.466c-47.374,0-85.721-37.912-85.721-84.732C542.429,37.923,580.775,0,628.149,0
	c47.332,0,85.744,37.923,85.744,84.733C713.894,131.554,675.481,169.466,628.149,169.466z M393.947,417.784
	c2.952,14.226,15.647,24.002,29.797,24.002c2.018,0,4.101-0.195,6.163-0.629l6.099-1.183c16.645-3.147,39.431-7.454,56.359-25.802
	c15.06-16.332,20.876-36.58,25.173-54.277c5.078-21.245,14.777-46.494,26.54-69.249c2.648-5.164,6.38-11.066,10.744-16.916
	c-3.214,38.889-8.746,109.853-10.593,158.605c-0.563,2.225-0.997,4.491-1.149,6.859l-20.941,319.268
	c-1.39,21.506,15.104,40.074,36.851,41.451c0.866,0.064,1.734,0.086,2.582,0.086c20.637,0,37.998-15.842,39.344-36.479
	l17.62-268.892c2.845-0.337,5.623-0.858,8.552-0.858c2.497,0,5.34,0.729,8.226,1.498l19.074,266.082
	c1.477,20.552,18.794,36.253,39.325,36.253c0.953,0,1.887-0.034,2.821-0.099c21.744-1.519,38.107-20.161,36.587-41.667
	l-24.152-337.858c-0.13-1.66-0.544-3.243-0.889-4.84c-2.389-55.337-5.08-109.255-6.619-139.322
	c21.375,28.928,34.352,77.364,37.672,142.329c0.847,16.082,14.28,28.581,30.404,28.581c0.499,0,1.021-0.012,1.542-0.043
	c16.796-0.826,29.729-14.975,28.883-31.566c-4.903-96.256-28.081-161.24-70.832-198.697c-9.551-8.354-20.075-16.136-31.338-22.026
	c-6.403-3.343-13.151-5.991-20.052-8.085c-13.456-4.079-27.518-5.653-41.561-6.108l27.67,229.547l-36.501,37.021l-31.924-37.021
	l22.093-229.406c-13.432,0.89-26.845,2.952-39.648,6.999c-6.358,2.007-12.631,4.449-18.576,7.486
	c-30.036,15.344-54.124,40.81-69.424,70.443c-14.085,27.234-25.325,56.608-31.576,82.704c-2.517,10.373-5.62,21.908-10.894,27.636
	c-3.276,3.561-13.65,5.525-22.83,7.249l-6.966,1.368C401.108,385.59,390.563,401.521,393.947,417.784z M247.137,34.517
	c-7.487-0.944-15.105-1.606-22.852-1.606c-6.814,0-13.52,0.444-20.117,1.183v38.086v19.054v106.132H99.784H80.86H43.1
	c-0.673,6.348-1.043,12.791-1.043,19.323c0,8.139,0.739,16.125,1.781,24.024c11.718,89.984,88.065,159.733,180.448,159.733
	c100.479,0,182.227-82.434,182.227-183.758C406.512,123.177,336.829,45.898,247.137,34.517z M224.285,362.738
	c-71.724,0-131.272-52.918-142.688-122.026h18.88h146.66V91.646V72.613c69.011,11.101,122.006,71.364,122.006,144.074
	C369.144,297.213,304.168,362.738,224.285,362.738z M155.253,0c-5.795,0-11.48,0.38-17.145,1.03
	C65.928,9.061,8.507,67.166,0.911,140.083C0.325,145.497,0,150.986,0,156.564c0,6.934,0.607,13.727,1.519,20.476h25.76h6.38h70.813
	h70.248V99.718V33.832V20.562V1.367C168.339,0.564,161.85,0,155.253,0z M138.108,33.941v90.07v16.071h-14.323H38.39h-5.296
	c7.271-55.165,50.414-98.938,105.014-106.619V33.941z"/>
</svg>
