<?xml version="1.0" encoding="utf-8"?>
<!-- Generator: Adobe Illustrator 16.0.0, SVG Export Plug-In . SVG Version: 6.00 Build 0)  -->
<!DOCTYPE svg PUBLIC "-//W3C//DTD SVG 1.1//EN" "http://www.w3.org/Graphics/SVG/1.1/DTD/svg11.dtd">
<svg version="1.1" id="Layer_1" xmlns="http://www.w3.org/2000/svg" xmlns:xlink="http://www.w3.org/1999/xlink" x="0px" y="0px"
	 width="800px" height="800px" viewBox="0 0 800 800" enable-background="new 0 0 800 800" xml:space="preserve">
<path d="M316.714,84.755C316.714,37.935,354.822,0,401.825,0c47.005,0,85.134,37.935,85.134,84.755
	c0,46.843-38.129,84.755-85.134,84.755C354.822,169.51,316.714,131.598,316.714,84.755z M495.464,209.462
	c-7.096-5.48-15.081-11.089-22.937-15.386c-5.578-3.061-11.48-5.514-17.512-7.575c-13.717-4.698-28.169-7.334-42.643-8.322
	l21.938,229.699l-31.705,37.021l-36.239-37.021l27.537-230.024c-15.56,0.521-31.206,2.962-45.94,8.063
	c-6.055,2.094-12,4.633-17.557,7.779c-10.155,5.708-20.008,13.259-28.731,20.942c-42.403,37.424-65.363,102.397-70.225,198.621
	c-0.846,16.505,11.914,30.556,28.473,31.381c0.521,0.033,1.041,0.042,1.54,0.042c15.885,0,29.188-12.412,29.969-28.405
	c3.3-65.181,16.298-113.78,37.608-142.721c-1.541,30.329-4.231,85.342-6.662,141.537c-0.174,1.021-0.435,1.986-0.521,3.026
	l-24.023,337.979c-1.518,21.365,14.649,39.897,36.09,41.416c0.933,0.065,1.866,0.099,2.777,0.099
	c20.269,0,37.368-15.615,38.822-36.047l18.902-266.091c2.973-0.825,5.903-1.563,8.421-1.563c2.994,0,5.858,0.53,8.743,0.889
	l17.491,268.935C430.406,784.244,447.55,800,467.904,800c0.825,0,1.694-0.023,2.561-0.078c21.441-1.388,37.717-19.835,36.329-41.211
	l-20.769-319.356c-0.108-1.779-0.521-3.461-0.847-5.143c-1.736-48.894-7.356-121.278-10.59-160.612
	c21.767,28.982,34.004,77.084,35.329,141.786c0.348,16.308,13.736,29.296,30.664,29.287c16.578-0.337,29.751-13.998,29.403-30.524
	C567.946,314.875,542.86,246.007,495.464,209.462z M793.311,387.792l-54.579-39.116c-8.896-6.304-16.145-2.474-16.145,8.604v17.655
	H611.218c1.215,8.887,2.388,17.763,3.517,26.518c1.019,7.899,2.234,15.789,3.319,23.74h104.533v16.179
	c0,11.067,7.249,14.909,16.145,8.605l54.579-39.139C802.229,404.524,802.229,394.14,793.311,387.792z M6.804,411.522l55.511,39.14
	c9.049,6.304,16.405,2.462,16.405-8.605v-16.179h106.335c1.085-7.954,2.344-15.853,3.386-23.752
	c1.149-8.745,2.301-17.622,3.559-26.508H78.72v-17.653c0-11.08-7.356-14.909-16.405-8.605L6.804,388.476
	C-2.268,394.813-2.268,405.208,6.804,411.522z"/>
</svg>
