<?xml version="1.0" encoding="utf-8"?>
<!-- Generator: Adobe Illustrator 16.0.0, SVG Export Plug-In . SVG Version: 6.00 Build 0)  -->
<!DOCTYPE svg PUBLIC "-//W3C//DTD SVG 1.1//EN" "http://www.w3.org/Graphics/SVG/1.1/DTD/svg11.dtd">
<svg version="1.1" id="Layer_1" xmlns="http://www.w3.org/2000/svg" xmlns:xlink="http://www.w3.org/1999/xlink" x="0px" y="0px"
	 width="800px" height="800px" viewBox="0 0 800 800" enable-background="new 0 0 800 800" xml:space="preserve">
<path d="M670,561.09H435.68V800h-78.021V561.09H130v-79.666h540V561.09z M314.515,84.072C314.515,37.619,352.797,0,400.022,0
	c47.203,0,85.464,37.619,85.464,84.072c0,46.432-38.262,84.028-85.464,84.028C352.797,168.101,314.515,130.504,314.515,84.072z
	 M572.514,326.521c-10.114-35.99-38.153-81.749-66.671-108.84c-14.497-13.806-33.942-26.569-53.171-32.951
	c-13.543-4.516-27.822-7.056-42.103-8.032l22.071,227.796l-31.838,36.729l-36.416-36.729l27.627-227.773
	c-14.258,0.498-28.582,2.496-42.276,6.62c-21.551,6.426-42.602,18.886-58.857,34.341c-28.495,27.091-56.535,72.85-66.648,108.84
	c-12.501,44.522,11.675,88.438,40.627,125.143h267.027C560.837,414.958,585.013,371.043,572.514,326.521z M320.244,410.571
	c-0.261,1.368-0.608,2.693-0.716,4.104l-0.585,7.967c-22.006-26.679-42.559-58.045-36.309-80.253
	c6.511-23.204,25.674-55.419,44.512-75.823C325.669,295.219,322.805,352.201,320.244,410.571z M483.12,416.085
	c-2.235-47.973-7.183-110.706-10.135-145.743c17.709,20.471,35.006,50.232,41.148,72.047
	C519.863,362.794,502.978,390.947,483.12,416.085z"/>
</svg>
