<?xml version="1.0" encoding="utf-8"?>
<!-- Generator: Adobe Illustrator 16.0.0, SVG Export Plug-In . SVG Version: 6.00 Build 0)  -->
<!DOCTYPE svg PUBLIC "-//W3C//DTD SVG 1.1//EN" "http://www.w3.org/Graphics/SVG/1.1/DTD/svg11.dtd">
<svg version="1.1" id="Layer_1" xmlns="http://www.w3.org/2000/svg" xmlns:xlink="http://www.w3.org/1999/xlink" x="0px" y="0px"
	 width="800px" height="800px" viewBox="0 0 800 800" enable-background="new 0 0 800 800" xml:space="preserve">
<path d="M621.776,0c-73.43,0-133.2,59.396-133.2,132.356c0,73.004,59.771,132.357,133.2,132.357
	C695.229,264.714,755,205.36,755,132.356C755,59.396,695.229,0,621.776,0z M633.651,234.636c0.443-1.346,0.855-2.67,0.855-4.212
	c0-7.312-5.969-13.236-13.325-13.236c-7.345,0-13.315,5.925-13.315,13.236c0,1.477,0.413,2.779,0.824,4.102
	c-47.626-6.032-84.959-43.814-89.921-91.471c0.759,0.131,1.409,0.436,2.2,0.436c7.356,0,13.325-5.926,13.325-13.238
	c0-7.313-5.969-13.238-13.325-13.238c-0.651,0-1.203,0.304-1.82,0.368c6.749-45.442,43.011-81.055,88.922-87.152
	c-0.031,0.412-0.205,0.716-0.205,1.085c0,7.313,5.971,13.216,13.315,13.216c7.356,0,13.325-5.902,13.325-13.216
	c0-0.412-0.218-0.76-0.239-1.172c46.564,5.621,83.486,41.559,90.16,87.479c-1.03-0.239-1.995-0.607-3.056-0.607
	c-7.356,0-13.292,5.925-13.292,13.238c0,7.313,5.936,13.238,13.292,13.238c1.233,0,2.34-0.37,3.467-0.674
	C719.897,190.972,681.97,229.123,633.651,234.636z M636.998,117.296l-11.852-61.394l-11.169,57.683
	c-9.188,3.429-15.807,12.087-15.807,22.374c0,2.562,0.693,4.883,1.473,7.204l-32.792,48.025l48.328-32.551
	c2.33,0.693,4.658,1.409,7.226,1.409c13.358,0,24.202-10.784,24.202-24.088C646.607,128.255,642.697,121.701,636.998,117.296z
	 M622.405,147.613c-6.479,0-11.722-5.209-11.722-11.654c0-6.402,5.243-11.61,11.722-11.61c6.446,0,11.689,5.208,11.689,11.61
	C634.095,142.404,628.852,147.613,622.405,147.613z M135.17,84.722C135.17,37.912,172.86,0,219.413,0
	c46.487,0,84.178,37.912,84.178,84.722c0,46.832-37.691,84.724-84.178,84.724C172.86,169.445,135.17,131.554,135.17,84.722z
	 M475.977,290.603c-2.729,3.407-6.326,8.572-10.605,14.649c-23.564,33.463-60.269,85.611-101.036,85.611
	c-8.45,0-17.074-2.234-25.784-7.335c-26.575-15.604-37.506-41.472-43.704-65.408c2.763,36.87,5.709,80.556,6.956,113.977
	c0.574,2.279,1.007,4.621,1.171,7.074l20.54,319.25c1.376,21.527-14.821,40.104-36.207,41.493c-0.855,0.064-1.712,0.086-2.557,0.086
	c-20.27,0-37.343-15.863-38.676-36.523l-17.313-268.88c-2.773-0.325-5.482-0.847-8.331-0.847c-2.438,0-5.255,0.716-8.093,1.497
	L193.65,761.285c-1.441,20.594-18.482,36.284-38.666,36.284c-0.92,0-1.853,0-2.773-0.087c-21.375-1.519-37.485-20.183-35.968-41.688
	l23.736-337.848c0.055-0.716,0.271-1.367,0.357-2.062c-3.748,9.463-8.764,17.925-13.271,25.348c-1.917,3.19-3.911,6.467-5.915,9.983
	c-5.547,9.699-15.611,15.126-25.99,15.126c-5.048,0-10.183-1.303-14.885-4.038c-14.322-8.267-19.262-26.692-11.029-41.101
	c2.275-3.994,4.55-7.749,6.728-11.329c12.274-20.248,11.884-20.964,6.999-29.601c-5.904-10.439-11.939-18.793-17.248-26.128
	c-27.81-38.435-32.447-65.234,16.316-113.607c10.812-10.699,22.155-21.051,34.667-29.709c5.374-3.712,10.942-7.118,16.771-10.092
	c24.994-12.63,50.106-21.114,78.025-22.462L184.3,407.703l35.871,37.045l31.342-37.045l-21.7-229.383
	c21.896,1.605,43.292,7.726,62.663,18.143c14.896,8.029,26.152,21.289,35.318,35.309c10.043,15.321,14.723,33.788,19.024,51.409
	c1.159,4.797,11.625,49.783,18.84,46.138c14.582-7.356,41.623-45.747,50.875-58.898c5.179-7.356,9.577-13.563,12.893-17.687
	c10.367-12.934,29.196-14.974,42.089-4.469C484.361,258.724,486.366,277.669,475.977,290.603z M147.942,262.369
	c-7.139,5.252-14.744,12.023-23.898,21.095c-13.098,12.977-17.399,19.443-18.797,22.157c1.646,3.059,5.59,8.528,8.873,13.063
	c5.937,8.225,13.325,18.425,20.898,31.837c3.716,6.596,6.023,12.781,7.779,18.792C144.909,322.959,146.936,282.271,147.942,262.369z
	"/>
</svg>
