<?xml version="1.0" encoding="utf-8"?>
<!-- Generator: Adobe Illustrator 16.0.0, SVG Export Plug-In . SVG Version: 6.00 Build 0)  -->
<!DOCTYPE svg PUBLIC "-//W3C//DTD SVG 1.1//EN" "http://www.w3.org/Graphics/SVG/1.1/DTD/svg11.dtd">
<svg version="1.1" id="Layer_1" xmlns="http://www.w3.org/2000/svg" xmlns:xlink="http://www.w3.org/1999/xlink" x="0px" y="0px"
	 width="800px" height="800px" viewBox="0 0 800 800" enable-background="new 0 0 800 800" xml:space="preserve">
<path d="M313.224,401.107c0-47.069,37.447-85.223,83.66-85.223c46.234,0,83.661,38.153,83.661,85.223
	c0,47.113-37.427,85.286-83.661,85.286C350.671,486.394,313.224,448.221,313.224,401.107z M718.763,422.267
	c-14.479-7.922-32.377-2.387-40.132,12.239c-21.699,41.125-82.65,85.092-131.914,83.789c-29.219-1.15-56.332-3.689-79.105-6.401
	c-15.018-8.812-36.868-15.019-60.371-16.688l21.57,230.881l-31.131,37.261l-35.664-37.261l27.048-231.098
	c-25.265,0.911-46.9,6.834-62.111,15.386c-24.858,3.319-56.246,6.597-90.536,7.921c-0.881,0.043-1.804,0.043-2.729,0.043
	c-46.578,0-98.569-45.291-132.042-88.238c-10.184-13.084-28.832-15.299-41.636-4.882c-12.805,10.33-14.954,29.318-4.812,42.383
	c20.582,26.389,93.306,111.133,178.534,111.133c1.655,0,3.288-0.043,4.942-0.131c32.785-1.257,62.863-4.122,87.677-7.204
	c-0.881,17.946-8.079,163.562-8.185,164.952L313.739,800h168.353c-1.893-28.515-3.158-47.525-3.267-47.96
	c-2.04-58.419-9.452-150.042-11.901-179.448c22.707,2.625,49.069,4.926,77.535,6.011c1.784,0.088,3.547,0.131,5.307,0.131
	c74.295,0,151.208-59.136,181.05-115.603C738.55,448.438,733.158,430.165,718.763,422.267z M119.692,281.402v40.06H70.279v-37.087
	c-17.746-2.409-35.041-8.702-46.707-17.296L15,260.655l17.896-51.454l14.825,10.243c11.645,8.03,27.242,12.847,41.615,12.847
	c16.35,0,26.962-8.027,26.962-20.442c0-7.833-2.342-17.251-30.121-29.014c-32.227-13.108-65.355-32.378-65.355-75.001
	c0-32.573,20.388-58.983,51.821-68.858V0h49.198v35.808c13.944,1.931,26.34,6.336,37.684,13.238l10.162,6.185l-18.541,50.52
	l-14.051-8.094c-6.188-3.56-17.725-10.179-36.373-10.179c-20.303,0-22.473,11.286-22.473,16.169c0,7.617,2.384,13.605,33.88,27.084
	c28.79,12.195,61.875,32.182,61.875,78.623C174.006,243.512,152.65,271.269,119.692,281.402z M730.688,281.402v40.06h-49.437
	v-37.087c-17.703-2.409-35.042-8.702-46.686-17.296l-8.573-6.424l17.874-51.454l14.826,10.243
	c11.665,8.03,27.241,12.847,41.637,12.847c16.349,0,26.94-8.027,26.94-20.442c0-7.833-2.343-17.251-30.121-29.014
	c-32.226-13.108-65.354-32.378-65.354-75.001c0-32.573,20.411-58.983,51.842-68.858V0h49.177v35.808
	c13.964,1.931,26.34,6.336,37.684,13.238l10.186,6.185l-18.543,50.52l-14.072-8.094c-6.188-3.56-17.703-10.179-36.372-10.179
	c-20.281,0-22.452,11.286-22.452,16.169c0,7.617,2.363,13.605,33.86,27.084C751.935,142.926,785,162.912,785,209.354
	C785,243.512,763.644,271.269,730.688,281.402z"/>
</svg>
