<?xml version="1.0" encoding="utf-8"?>
<!-- Generator: Adobe Illustrator 16.0.0, SVG Export Plug-In . SVG Version: 6.00 Build 0)  -->
<!DOCTYPE svg PUBLIC "-//W3C//DTD SVG 1.1//EN" "http://www.w3.org/Graphics/SVG/1.1/DTD/svg11.dtd">
<svg version="1.1" id="Layer_1" xmlns="http://www.w3.org/2000/svg" xmlns:xlink="http://www.w3.org/1999/xlink" x="0px" y="0px"
	 width="800px" height="800px" viewBox="0 0 800 800" enable-background="new 0 0 800 800" xml:space="preserve">
<path d="M322.834,484.592c0-46.831,39.031-84.809,87.209-84.809c48.146,0,87.156,37.978,87.156,84.809
	c0,46.875-39.01,84.787-87.156,84.787C361.865,569.379,322.834,531.467,322.834,484.592z M105.33,735.938
	c26.154,14.865,58.331,25.716,90.161,25.716c27.484,0,54.708-8.073,77.565-28.646c14.336-12.891,24.77-27.604,34.847-41.862
	c7.968-11.24,15.298-21.288,23.494-29.23c-1.276,23.915-4.12,79.274-6.769,138.085h45.345l27.236-222.179
	c-8.704,0.303-17.375,1.172-25.938,2.691c-3.936,0.716-7.817,1.563-11.688,2.56c-15.548,4.037-31.615,8.421-45.681,16.255
	c-26.565,14.844-42.686,37.609-56.915,57.704c-8.52,12.088-16.607,23.48-25.894,31.814c-24.576,22.113-66.332,11.24-94.594-4.818
	c-14.726-8.397-33.646-3.516-42.275,10.809C85.609,709.181,90.593,727.562,105.33,735.938z M394.853,218.446
	c27.019,10.894,38.501,18.793,38.501,34.526c0,12.109-9.017,26.042-32.934,26.042c-19.839,0-32.587-6.662-39.095-10.287
	l-7.763,19.987c8.995,5.143,21.721,9.982,40.361,10.59v29.362h19.268V298.09c28.554-4.535,46.857-23.611,46.857-48.762
	c0-26.325-19.547-40.278-51.216-52.388c-22.986-9.072-35.096-19.38-35.096-36.025c0-17.252,14.921-29.709,36.956-29.709
	c17.385,0,33.549,5.773,44.718,13.042l7.438-20.313c-10.854-7.552-29.495-12.978-47.496-13.282v-30.62h-19.581v31.51
	c-31.982,5.165-49.065,27.561-49.065,51.497C346.707,189.996,362.882,205.729,394.853,218.446z M204.833,250.521l20.088-7.552
	c-4.606-22.222-4.801-45.356-0.12-68.251l-19.19-8.095c-17.992-7.573-26.371-27.647-18.748-44.878
	c7.666-17.188,28.403-24.979,46.373-17.406l18.542,7.835c13.634-19.705,30.977-36.024,50.859-48.481l-7.223-17.34
	c-7.33-17.491,1.438-37.239,19.548-44.032c18.078-6.814,38.674,1.888,45.994,19.423l6.984,16.731
	c23.699-4.253,48.503-3.993,73.014,1.281l7.146-16.125c7.633-17.188,28.382-25.021,46.351-17.426
	c17.96,7.575,26.359,27.691,18.727,44.857l-7.168,16.167c20.737,13.803,37.896,31.25,50.946,51.02l17.32-6.51
	c18.1-6.793,38.707,1.888,46.016,19.422c7.298,17.513-1.46,37.218-19.569,44.01l-17.884,6.728
	c4.304,22.656,3.946,46.202-1.404,69.357l18.53,7.856c17.97,7.551,26.328,27.647,18.727,44.856
	c-7.633,17.209-28.403,24.978-46.361,17.404l-19.212-8.094c-13.872,18.968-31.323,34.7-51.088,46.615l8.12,19.488
	c4.854,11.61,2.541,24.11-4.778,33.247c-22.166-27.887-56.45-46.202-95.33-46.202c-41.788,0-78.689,20.768-100.476,52.279
	c-16.855-8.096-24.576-27.387-17.19-44.077l8.822-19.921c-19.851-13.194-36.393-29.775-49.227-48.503l-20.662,7.769
	c-18.11,6.793-38.706-1.909-46.026-19.422C177.987,277.04,186.723,257.334,204.833,250.521z M345.831,341.189
	c75.002,31.641,161.963-1.042,193.815-72.808c31.853-71.811-3.286-155.969-78.279-187.609
	c-75.002-31.663-161.941,0.999-193.782,72.808C235.733,225.391,270.828,309.549,345.831,341.189z M705.772,694.836
	c-8.618-14.324-27.549-19.185-42.275-10.809c-28.273,16.016-70.018,26.932-94.594,4.818c-9.309-8.334-17.375-19.727-25.895-31.814
	c-21.678-30.642-47.486-59.05-84.712-71.071c-13.602-4.385-27.884-6.923-42.198-7.879L437.83,800h51.227
	c-2.476-43.749-6.497-94.271-9.125-125.304c4.012,5.165,8.002,10.591,12.164,16.449c10.076,14.259,20.51,28.972,34.847,41.862
	c22.867,20.573,50.081,28.646,77.564,28.646c31.819,0,64.007-10.851,90.15-25.716C709.416,727.562,714.39,709.181,705.772,694.836z"
	/>
</svg>
