<?xml version="1.0" encoding="utf-8"?>
<!-- Generator: Adobe Illustrator 16.0.0, SVG Export Plug-In . SVG Version: 6.00 Build 0)  -->
<!DOCTYPE svg PUBLIC "-//W3C//DTD SVG 1.1//EN" "http://www.w3.org/Graphics/SVG/1.1/DTD/svg11.dtd">
<svg version="1.1" id="Layer_1" xmlns="http://www.w3.org/2000/svg" xmlns:xlink="http://www.w3.org/1999/xlink" x="0px" y="0px"
	 width="800px" height="800px" viewBox="0 0 800 800" enable-background="new 0 0 800 800" xml:space="preserve">
<path d="M754.87,175.217c1.886,19.4-16.945,37.066-42.079,39.495c-25.134,2.41-47.061-11.37-49.01-30.749
	c-1.886-19.401,16.944-37.066,42.1-39.477c7.951-0.781,15.577,0.087,22.36,2.236V51.41l-118,16.991v119.033h-0.218
	c0.044,0.305,0.131,0.629,0.174,0.955c1.908,19.379-16.921,37.087-42.078,39.518c-25.154,2.388-47.081-11.393-48.967-30.793
	c-1.907-19.381,16.922-37.066,42.056-39.454c7.974-0.781,15.578,0.087,22.36,2.235V22.657v-0.022L754.761,0.043L754.913,0v0.021
	L754.999,0l-0.086,0.585v173.676h-0.195C754.761,174.588,754.848,174.891,754.87,175.217z M224.239,169.444
	c47.777,0,86.496-37.869,86.496-84.723C310.735,37.913,272.016,0,224.239,0c-47.84,0-86.56,37.913-86.56,84.722
	C137.679,131.575,176.399,169.444,224.239,169.444z M487.886,290.624c-2.817,3.386-6.5,8.552-10.899,14.627
	c-24.201,33.464-61.924,85.612-103.828,85.612c-8.688,0-17.55-2.235-26.498-7.335c-27.28-15.604-38.547-41.473-44.895-65.407
	c2.816,36.871,5.85,80.555,7.149,113.975c0.563,2.257,0.997,4.602,1.192,7.074l21.104,319.227
	c1.43,21.551-15.232,40.127-37.203,41.516c-0.866,0.043-1.755,0.088-2.621,0.088c-20.823,0-38.373-15.864-39.76-36.546
	l-17.789-268.857c-2.86-0.326-5.612-0.847-8.559-0.847c-2.491,0-5.395,0.716-8.32,1.497l-19.218,266.037
	c-1.452,20.595-18.959,36.284-39.716,36.284c-0.932,0-1.907,0-2.861-0.088c-21.927-1.519-38.524-20.182-36.963-41.709
	l24.418-337.824c0.043-0.716,0.26-1.369,0.347-2.063c-3.834,9.462-8.992,17.904-13.628,25.347c-1.972,3.17-4.031,6.47-6.089,9.984
	c-5.698,9.699-16.034,15.126-26.694,15.126c-5.178,0-10.465-1.301-15.297-4.038c-14.711-8.267-19.804-26.691-11.332-41.102
	c2.341-3.992,4.658-7.747,6.934-11.327c12.588-20.247,12.199-20.963,7.15-29.601c-6.067-10.438-12.242-18.815-17.702-26.128
	c-28.601-38.434-33.345-65.214,16.771-113.607c11.071-10.7,22.75-21.028,35.621-29.688c5.547-3.732,11.224-7.119,17.226-10.112
	c25.697-12.631,51.502-21.116,80.168-22.461l-27.929,229.427l36.834,37.045l32.219-37.045L234.944,178.32
	c22.469,1.604,44.482,7.726,64.373,18.143c15.318,8.05,26.845,21.31,36.314,35.308c10.314,15.322,15.124,33.789,19.544,51.433
	c1.192,4.773,11.938,49.761,19.348,46.115c14.995-7.357,42.772-45.726,52.284-58.898c5.33-7.355,9.837-13.563,13.239-17.686
	c10.638-12.934,30.008-14.974,43.247-4.471C496.531,258.725,498.569,277.668,487.886,290.624z M150.789,262.37
	c-7.324,5.25-15.167,12.022-24.549,21.092c-13.456,12.978-17.876,19.446-19.328,22.159c1.689,3.06,5.741,8.528,9.122,13.063
	c6.088,8.224,13.693,18.424,21.45,31.836c3.835,6.598,6.219,12.761,8.039,18.794C147.667,322.96,149.748,282.291,150.789,262.37z"/>
</svg>
