<?xml version="1.0" encoding="utf-8"?>
<!-- Generator: Adobe Illustrator 16.0.0, SVG Export Plug-In . SVG Version: 6.00 Build 0)  -->
<!DOCTYPE svg PUBLIC "-//W3C//DTD SVG 1.1//EN" "http://www.w3.org/Graphics/SVG/1.1/DTD/svg11.dtd">
<svg version="1.1" id="Layer_1" xmlns="http://www.w3.org/2000/svg" xmlns:xlink="http://www.w3.org/1999/xlink" x="0px" y="0px"
	 width="800px" height="800px" viewBox="0 0 800 800" enable-background="new 0 0 800 800" xml:space="preserve">
<path d="M126.047,84.918c0-46.788,38.044-84.701,85.052-84.701c46.941,0,84.986,37.913,84.986,84.701
	c0,46.833-38.045,84.701-84.986,84.701C164.091,169.619,126.047,131.751,126.047,84.918z M465.625,248.417
	c-13.005-10.503-32.039-8.464-42.494,4.47c-3.348,4.123-7.777,10.331-13.005,17.686c-9.354,13.151-36.637,51.52-51.371,58.877
	c-7.281,3.647-17.845-41.34-19.01-46.115c-4.343-17.622-9.074-36.088-19.206-51.412c-9.29-13.997-20.631-27.256-35.666-35.286
	c-19.551-10.416-41.177-16.536-63.253-18.141l21.884,229.316l-31.649,37.023l-36.206-37.023l27.457-229.361
	c-28.171,1.345-53.532,9.83-78.765,22.46c-5.897,2.974-11.492,6.382-16.936,10.093c-12.639,8.657-24.109,18.988-34.997,29.688
	c-49.236,48.371-44.569,75.151-16.485,113.583c5.381,7.314,11.45,15.67,17.413,26.107c4.946,8.639,5.336,9.354-7.042,29.603
	c-2.225,3.58-4.516,7.332-6.807,11.327c-8.318,14.409-3.327,32.813,11.125,41.08c4.753,2.735,9.939,4.035,15.037,4.035
	c10.477,0,20.629-5.423,26.226-15.124c2.03-3.518,4.039-6.792,5.985-9.983c4.558-7.421,9.611-15.864,13.392-25.324
	c-0.087,0.694-0.3,1.347-0.345,2.062l-23.98,337.738c-1.535,21.507,14.755,40.17,36.315,41.689c0.931,0.085,1.88,0.085,2.808,0.085
	c20.395,0,37.591-15.689,39.017-36.285l18.881-265.95c2.871-0.782,5.723-1.496,8.164-1.496c2.895,0,5.618,0.521,8.426,0.845
	l17.477,268.794c1.36,20.66,18.602,36.523,39.06,36.523c0.841,0,1.727-0.042,2.57-0.087c21.602-1.388,37.954-19.966,36.552-41.491
	L295.458,439.28c-0.172-2.474-0.604-4.817-1.166-7.074c-1.275-33.421-4.258-77.084-7.021-113.954
	c6.242,23.935,17.303,49.804,44.113,65.386c8.792,5.098,17.497,7.333,26.031,7.333c41.176,0,78.244-52.127,102.008-85.591
	c4.321-6.075,7.951-11.239,10.717-14.626C480.639,277.82,478.63,258.877,465.625,248.417z M133.76,369.423
	c-1.792-6.012-4.125-12.174-7.885-18.771c-7.626-13.411-15.1-23.612-21.085-31.835c-3.327-4.537-7.302-10.005-8.966-13.064
	c1.426-2.715,5.769-9.182,18.989-22.137c9.225-9.07,16.917-15.843,24.13-21.094C137.907,282.423,135.877,323.091,133.76,369.423z
	 M594.703,268.771c-81.551-60.09-125.061-114.41-129.468-161.632V91.406c3.563-37.587,26.874-53.43,41.846-54.884
	c4.083-0.389,7.973-0.585,11.515-0.585c21.516,0,30.523,6.555,48.348,27.582l27.76,32.813l27.758-32.813
	c17.803-21.027,26.766-27.582,48.35-27.582c3.52,0,7.365,0.196,11.449,0.585c14.992,1.454,38.323,17.296,41.889,54.884
	c1.662,17.471,0.886,35.611,1.835,53.3h26.333c6.417-17.601,8.08-36.242,8.08-54.841c-4.578-56.488-42.125-85.958-74.594-89.083
	C680.488,0.217,675.477,0,670.811,0c-37.525,0-55.521,16.06-76.107,40.408C574.092,16.06,556.076,0,518.596,0
	c-4.71,0-9.701,0.217-15.037,0.781c-32.469,3.125-69.993,32.595-74.573,89.083v18.795c4.256,54.057,45.411,120.747,165.718,204.425
	c13.717-9.546,26.376-18.858,38.107-27.971v-24.306h-27.564C601.767,263.456,598.31,266.08,594.703,268.771z M707.471,188.218
	v-57.055h-49.319v57.055h-57.55v48.915h57.55v57.052h49.319v-57.052H765v-48.915H707.471z"/>
</svg>
