<?xml version="1.0" encoding="utf-8"?>
<!-- Generator: Adobe Illustrator 16.0.0, SVG Export Plug-In . SVG Version: 6.00 Build 0)  -->
<!DOCTYPE svg PUBLIC "-//W3C//DTD SVG 1.1//EN" "http://www.w3.org/Graphics/SVG/1.1/DTD/svg11.dtd">
<svg version="1.1" id="Layer_1" xmlns="http://www.w3.org/2000/svg" xmlns:xlink="http://www.w3.org/1999/xlink" x="0px" y="0px"
	 width="800px" height="800px" viewBox="0 0 800 800" enable-background="new 0 0 800 800" xml:space="preserve">
<path d="M86.822,84.722C86.822,37.934,125.559,0,173.259,0c47.744,0,86.394,37.934,86.394,84.722
	c0,46.789-38.65,84.723-86.394,84.723C125.559,169.444,86.822,131.511,86.822,84.722z M385.479,382.117l-7.01-1.389
	c-9.267-1.714-19.705-3.689-23.003-7.248c-5.339-5.729-8.464-17.23-10.981-27.604c-6.315-26.107-17.622-55.447-31.858-82.683
	c-15.408-29.645-39.692-55.078-69.988-70.421c-5.968-3.038-12.305-5.469-18.729-7.487c-12.869-4.058-26.411-6.098-39.931-7.01
	l22.266,229.362L174.04,444.64l-36.762-37.001l27.886-229.492c-14.149,0.456-28.32,2.04-41.906,6.12
	c-6.922,2.083-13.759,4.73-20.204,8.072c-11.35,5.903-21.983,13.672-31.597,22.027C28.379,251.801,4.996,316.775,0.037,412.999
	c-0.825,16.602,12.186,30.729,29.124,31.554c0.521,0.021,1.042,0.043,1.563,0.043c16.233,0,29.818-12.479,30.643-28.58
	c3.342-64.931,16.45-113.368,37.978-142.274c-1.563,30.078-4.253,83.963-6.641,139.279c-0.347,1.605-0.781,3.168-0.911,4.839
	L67.442,755.62c-1.519,21.463,14.974,40.126,36.871,41.646c0.977,0.043,1.888,0.086,2.843,0.086
	c20.704,0,38.151-15.711,39.627-36.219l19.249-266.016c2.93-0.76,5.794-1.477,8.269-1.477c2.951,0,5.751,0.521,8.615,0.847
	l17.773,268.815c1.389,20.595,18.88,36.437,39.671,36.437c0.846,0,1.714,0,2.582-0.087c21.94-1.367,38.564-19.922,37.175-41.428
	l-21.115-319.162c-0.174-2.344-0.608-4.645-1.172-6.858c-1.888-48.741-7.444-119.683-10.656-158.55
	c4.384,5.859,8.117,11.763,10.829,16.927c11.828,22.722,21.637,47.982,26.758,69.206c4.318,17.687,10.156,37.934,25.391,54.275
	c17.058,18.315,39.974,22.656,56.793,25.781l6.142,1.172c2.083,0.434,4.167,0.629,6.207,0.629c14.236,0,27.041-9.744,30.035-23.98
	C412.714,401.389,402.124,385.46,385.479,382.117z M800,493.641V138.477H434.415v355.164h150.761v219.358h-41.319
	c-28.711,0-51.997,19.487-51.997,43.511c0,24.002,23.286,43.49,51.997,43.49h146.725c28.711,0,51.997-19.488,51.997-43.49
	c0-24.023-23.286-43.511-51.997-43.511h-41.32V493.641H800z M481.703,184.982h271.031v266.688H481.703V184.982z M535.675,435.764
	h54.341V331.12h-54.341V435.764z M640.841,435.764h54.341V234.636h-54.341V435.764z"/>
</svg>
