<?xml version="1.0" encoding="utf-8"?>
<!-- Generator: Adobe Illustrator 16.0.0, SVG Export Plug-In . SVG Version: 6.00 Build 0)  -->
<!DOCTYPE svg PUBLIC "-//W3C//DTD SVG 1.1//EN" "http://www.w3.org/Graphics/SVG/1.1/DTD/svg11.dtd">
<svg version="1.1" id="Layer_1" xmlns="http://www.w3.org/2000/svg" xmlns:xlink="http://www.w3.org/1999/xlink" x="0px" y="0px"
	 width="800px" height="800px" viewBox="0 0 800 800" enable-background="new 0 0 800 800" xml:space="preserve">
<path d="M336.002,173.749c0-46.275,38.27-83.749,85.493-83.749c47.2,0,85.46,37.474,85.46,83.749
	c0,46.254-38.26,83.706-85.46,83.706C374.272,257.455,336.002,220.003,336.002,173.749z M593.978,415.268
	c-10.113-35.854-38.151-81.438-66.656-108.424c-14.496-13.752-33.951-26.468-53.168-32.824c-13.564-4.499-27.832-7.027-42.111-8.001
	l22.07,226.921l-31.836,36.587l-36.415-36.587l27.625-226.9c-14.268,0.498-28.591,2.487-42.273,6.595
	c-21.539,6.401-42.6,18.813-58.854,34.209c-28.494,26.986-56.532,72.57-66.634,108.424c-12.522,44.349,11.675,88.095,40.614,124.661
	h267.014C582.303,503.362,606.488,459.616,593.978,415.268z M341.721,498.994c-0.25,1.361-0.619,2.682-0.716,4.087l-0.576,7.937
	c-22.015-26.576-42.567-57.822-36.317-79.944c6.51-23.116,25.662-55.205,44.52-75.531
	C347.146,384.085,344.282,440.848,341.721,498.994z M504.59,504.486c-2.235-47.788-7.194-110.281-10.124-145.182
	c17.697,20.39,34.994,50.037,41.123,71.769C541.318,451.399,524.446,479.445,504.59,504.486z M800,529.526H0V710h800V529.526z"/>
</svg>
