<?xml version="1.0" encoding="utf-8"?>
<!-- Generator: Adobe Illustrator 16.0.0, SVG Export Plug-In . SVG Version: 6.00 Build 0)  -->
<!DOCTYPE svg PUBLIC "-//W3C//DTD SVG 1.1//EN" "http://www.w3.org/Graphics/SVG/1.1/DTD/svg11.dtd">
<svg version="1.1" id="Layer_1" xmlns="http://www.w3.org/2000/svg" xmlns:xlink="http://www.w3.org/1999/xlink" x="0px" y="0px"
	 width="800px" height="800px" viewBox="0 0 800 800" enable-background="new 0 0 800 800" xml:space="preserve">
<path d="M771.646,452.214h-29.403v0.151h-92.622v-0.151h-31.893c-8.34,0-10.872-5.372-5.676-11.946l73.129-92.199
	c5.217-6.587,13.774-6.587,18.991,0l73.13,92.199C782.496,446.842,779.965,452.214,771.646,452.214z M620.522,267.741
	l-73.151-92.199c-5.216-6.576-13.73-6.576-18.969,0l-73.128,92.199c-5.196,6.598-2.642,11.947,5.652,11.947h31.938v0.162h92.601
	v-0.162h29.381C623.206,279.688,625.739,274.339,620.522,267.741z M492.864,755.403c0,24.079,20.716,43.664,46.3,43.664
	c25.628,0,46.301-19.585,46.301-43.664V319.976h-92.601V755.403z M104.998,84.777C104.998,37.945,143.003,0,189.915,0
	c46.89,0,84.874,37.945,84.874,84.777c0,46.854-37.983,84.776-84.874,84.776C143.003,169.553,104.998,131.63,104.998,84.777z
	 M411.636,381.619c-38.004,0-47.696-8.691-54.07-26.932c-3.559-10.048-6.353-20.454-9.191-30.859
	c-7.269-26.758-15.52-57.053-35.429-83.247c-29.557-38.934-65.226-59.69-102.053-61.329c-3.427-0.434-6.984-0.607-10.456-0.879
	l21.851,229.59l-31.609,37.045l-36.15-37.045l27.483-230.056c-15.193,0.477-30.43,2.778-44.837,7.639
	c-7.16,2.43-14.167,5.479-20.672,9.386c-12.487,7.53-23.554,16.481-33.531,26.627c-8.709,8.799-16.153,18.587-22.637,29.133
	c-29.426,48.113-37.503,107.39-40.297,162.663c-0.83,16.44,11.831,30.427,28.313,31.239c0.502,0.032,1.004,0.045,1.506,0.045
	c15.804,0,28.945-12.37,29.775-28.29c3.296-65.353,16.285-114.05,37.678-143c-1.55,30.522-4.322,86.328-6.724,143.13
	c-0.065,0.598-0.262,1.161-0.306,1.769L86.313,756.271c-1.462,21.279,14.539,39.736,35.887,41.245
	c0.917,0.063,1.833,0.097,2.751,0.097c20.104,0,37.088-15.538,38.551-35.883l18.882-266.112c3.012-0.848,5.98-1.586,8.556-1.586
	c3.057,0,5.938,0.532,8.907,0.911l17.419,268.957C218.599,784.321,235.582,800,255.84,800c0.808,0,1.659-0.022,2.532-0.076
	c21.284-1.377,37.46-19.747,36.063-41.026c0,0-21.087-321.908-21.305-323.134c-1.681-49.197-7.422-123.21-10.697-162.76
	c1.004,1.236,2.009,2.29,3.013,3.602c12.879,16.938,18.926,39.226,25.344,62.836c3.187,11.773,6.461,23.557,10.434,34.928
	c23.074,65.887,84.896,66.808,109.496,66.808c17.683,0.445,30.911-13.01,30.89-29.795
	C441.608,394.932,428.271,381.619,411.636,381.619z M648.376,491.21v264.193c0,24.079,20.717,43.664,46.302,43.664
	c25.627,0,46.299-19.585,46.299-43.664V491.21H648.376z"/>
</svg>
