<?xml version="1.0" encoding="utf-8"?>
<!-- Generator: Adobe Illustrator 16.0.0, SVG Export Plug-In . SVG Version: 6.00 Build 0)  -->
<!DOCTYPE svg PUBLIC "-//W3C//DTD SVG 1.1//EN" "http://www.w3.org/Graphics/SVG/1.1/DTD/svg11.dtd">
<svg version="1.1" id="Layer_1" xmlns="http://www.w3.org/2000/svg" xmlns:xlink="http://www.w3.org/1999/xlink" x="0px" y="0px"
	 width="800px" height="800px" viewBox="0 0 800 800" enable-background="new 0 0 800 800" xml:space="preserve">
<path d="M553.711,646.723c-17.535,10.895-36.264,19.966-56.012,27.04c-4.883-42.752-15.712-75.673-31.9-97.612
	c2.104,26.041,5.208,66.558,7.595,105.165c-15.929,4.21-32.292,7.27-49.153,8.767l-19.727-209.375
	c14.366,0.998,28.689,3.668,42.318,8.442c14.67,5.144,27.3,13.303,39.496,22.852C521.094,539.215,543.619,584.44,553.711,646.723z
	 M394.141,472.049c46.268,0,83.811-37.912,83.811-84.744c0-46.832-37.543-84.766-83.811-84.766s-83.768,37.934-83.768,84.766
	C310.373,434.137,347.873,472.049,394.141,472.049z M386.328,480.403c-15.647,0.521-31.38,3.06-46.159,8.398
	c-6.033,2.171-11.914,4.817-17.47,8.095c-9.722,5.751-18.663,12.695-27.126,20.27c-30.013,26.909-50,68.337-60.699,125.108
	c17.209,11.371,35.72,20.877,55.187,28.516c6.033-41.363,16.992-73.395,32.422-94.684c-1.172,23.459-3.017,61.784-4.904,103.929
	c14.323,4.058,29.08,7.074,44.184,8.94L386.328,480.403z M800,400c0,220.573-179.428,400-400,400C179.47,800,0,620.573,0,400
	C0,179.427,179.47,0,400,0C620.572,0,800,179.427,800,400z M716.016,396.267c0-175-142.665-317.361-318.056-317.361
	c-175.347,0-318.056,142.361-318.056,317.361c0,175,142.708,317.362,318.056,317.362
	C573.351,713.629,716.016,571.268,716.016,396.267z M692.838,415.408c0.391-6.381,0.955-12.674,0.955-19.141
	c0-10.33-0.521-20.486-1.563-30.512H503.949c-0.304-37.978-2.083-72.179-5.165-102.561c46.354-5.99,94.358-16.927,142.622-34.245
	c-10.156-14.627-21.484-28.386-34.028-40.929c-38.802,12.543-77.474,20.79-115.104,25.521c-7.249-44.01-17.015-77.821-27.171-104.47
	c-18.576-4.34-37.803-6.814-57.552-7.465c11.675,24.001,25.174,61.285,34.722,116.363c-29.209,1.563-57.465,1.345-84.244-0.174
	c9.592-55.208,23.09-92.491,34.766-116.406c-19.575,0.347-38.715,2.474-57.162,6.467c-10.33,26.736-20.269,60.938-27.604,105.512
	c-48.872-5.773-90.278-14.931-121.354-23.264c-12.761,12.978-24.349,27.083-34.549,42.231
	c33.984,10.287,85.938,23.438,149.349,31.033c-2.279,22.2-3.906,46.289-4.709,72.504c8.117-15.604,19.51-29.124,33.659-39.28
	c5.989-4.536,12.283-8.659,19.141-11.914c0.434-5.642,0.825-11.501,1.389-16.84c16.363,0.999,33.073,1.649,50.347,1.649
	c15.625,0,31.685-0.651,47.96-1.649c0.781,7.031,1.303,14.67,1.91,22.136c32.552,19.574,54.688,55.425,54.688,96.788
	c0,32.856-14.106,62.24-36.198,82.856c0.63,0.347,1.15,0.824,1.779,1.193c11.328,5.686,20.769,12.175,28.017,17.665
	c1.889-22.635,3.233-47.07,3.972-73.068H692.838z M285.373,386.762c0-7.205,0.781-14.193,2.083-21.007H103.732
	c-1.042,10.026-1.606,20.182-1.606,30.512c0,6.467,0.564,12.76,0.999,19.141h186.111
	C286.805,406.25,285.373,396.701,285.373,386.762z M297.482,437.196c0.781,18.403,1.91,36.024,3.342,52.647
	c7.118-6.728,14.714-12.934,23.308-18.056C313.194,462.196,304.123,450.391,297.482,437.196z M535.938,526.063
	c11.675,16.211,21.354,35.091,28.993,56.554c19.357,4.058,36.61,8.333,51.172,12.348c12.065-13.194,22.916-27.431,32.465-42.621
	C621.918,544.162,583.138,533.897,535.938,526.063z M250.824,528.45c-33.16,6.685-66.84,15.951-100.651,28.494
	c9.635,14.757,20.616,28.516,32.682,41.319c13.021-4.427,26.042-8.29,39.02-11.806C229.535,564.279,239.258,545.074,250.824,528.45z
	"/>
</svg>
