<?xml version="1.0" encoding="utf-8"?>
<!-- Generator: Adobe Illustrator 16.0.0, SVG Export Plug-In . SVG Version: 6.00 Build 0)  -->
<!DOCTYPE svg PUBLIC "-//W3C//DTD SVG 1.1//EN" "http://www.w3.org/Graphics/SVG/1.1/DTD/svg11.dtd">
<svg version="1.1" id="Layer_1" xmlns="http://www.w3.org/2000/svg" xmlns:xlink="http://www.w3.org/1999/xlink" x="0px" y="0px"
	 width="800px" height="800px" viewBox="0 0 800 800" enable-background="new 0 0 800 800" xml:space="preserve">
<path d="M516.511,346.354c-40.734,0-78.657,12.739-110.801,34.441c-6.413-81.511-30.359-139.149-71.487-171.464
	c-8.044-6.336-16.351-12.087-25.413-16.709c-5.264-2.691-10.769-4.884-16.362-6.706c-12.858-4.21-26.32-6.619-39.804-7.553
	l21.505,229.449l-31.104,36.979l-35.547-36.979l27-229.991c-15.486,0.521-31.049,3.017-45.704,8.269
	c-17.302,6.206-31.158,16.102-44.816,28.385c-41.632,37.457-64.188,102.431-68.938,198.698
	c-0.832,16.558,11.744,30.665,28.061,31.511c0.526,0.022,1.029,0.022,1.511,0.022c15.672,0,28.75-12.479,29.539-28.539
	c3.217-64.995,15.913-113.52,36.74-142.447c-1.5,30.122-4.126,84.375-6.479,139.995c-0.274,1.434-0.635,2.823-0.744,4.319
	l-23.552,337.868c-1.5,21.465,14.436,40.083,35.568,41.602c0.919,0.066,1.839,0.088,2.748,0.088
	c19.952,0,36.795-15.669,38.229-36.197l18.55-266.081c2.846-0.782,5.669-1.52,8.109-1.52c2.856,0,5.582,0.521,8.361,0.868
	l17.183,268.902C270.166,784.159,287.041,800,307.102,800c0.832,0,1.675-0.043,2.518-0.107c21.144-1.391,37.188-19.9,35.809-41.364
	l-4.421-69.117c37.112,61.891,101.837,103.103,175.503,103.103C631.48,792.514,725,692.405,725,569.358
	C725,446.377,631.48,346.354,516.511,346.354z M674.307,542.059h-95.993c-0.273-15.083-0.919-29.167-1.981-42.036
	c24.701-3.929,50.136-10.699,75.702-21.225C663.144,497.722,670.814,519.099,674.307,542.059z M623.776,442.773
	c-17.84,6.208-35.591,10.525-53.015,13.217c-3.731-21.094-8.352-38.217-13.231-51.867
	C582.537,411.263,605.127,424.697,623.776,442.773z M516.423,413.781c4.323,11.003,8.942,26.04,12.739,46.288
	c-8.723,0.26-17.193,0.174-25.456-0.173C507.471,439.735,512.089,424.697,516.423,413.781z M475.589,404.123
	c-4.859,13.65-9.531,30.816-13.253,52.041c-21.845-3.17-40.516-7.617-54.853-11.784C426.493,425.479,449.75,411.48,475.589,404.123z
	 M379.214,481.944c16.449,5.6,43.722,13.412,77.529,18.425c-1.039,12.782-1.663,26.736-1.947,41.689h-96.092
	C361.999,520.355,369.069,500.066,379.214,481.944z M325.029,439.235c-0.131-2.126-0.558-4.145-1.006-6.14
	c-1.751-48.764-7.18-120.205-10.342-159.289c21.265,28.95,33.227,76.974,34.54,141.472c0.109,5.815,2.288,10.915,5.231,15.451
	c-10.31,13.846-19.033,29.058-26.069,45.291L325.029,439.235z M357.271,586.308h97.907c0.559,15.428,1.51,29.729,2.725,43.033
	c-26.507,3.948-53.89,11.242-81.359,22.896C366.202,632.336,359.46,610.026,357.271,586.308z M402.132,688.977
	c20.641-7.792,41.271-12.695,61.408-15.604c4.345,25.977,9.784,46.462,15.19,62.239C449.148,727.909,422.75,711.481,402.132,688.977
	z M516.543,716.754c-3.939-12.131-8.043-27.518-11.557-47.049c7.88-0.217,15.585-0.174,23.081,0.173
	C524.599,689.323,520.505,704.667,516.543,716.754z M533.956,625.521c-11.239-0.542-22.809-0.758-34.836-0.324
	c-1.117-12.023-2.014-24.85-2.572-38.889h40.002C536.014,600.435,535.116,613.391,533.956,625.521z M496.099,542.059
	c0.253-13.782,0.921-26.259,1.883-37.783c11.931,0.565,24.177,0.737,36.981,0.218c0.941,11.479,1.663,23.914,1.97,37.565H496.099z
	 M554.399,735.568c5.396-15.733,10.79-36.089,15.157-61.891c25.972,3.732,47.532,9.33,62.416,13.953
	C611.224,710.785,584.464,727.647,554.399,735.568z M657.737,649.718c-15.421-5.556-44.753-14.734-82.521-20.246
	c1.194-13.348,2.135-27.649,2.714-43.164h97.787C673.638,609.029,667.367,630.47,657.737,649.718z M158.807,84.744
	C158.807,37.891,196.17,0,242.279,0c46.13,0,83.494,37.891,83.494,84.744c0,46.81-37.364,84.722-83.494,84.722
	C196.17,169.466,158.807,131.554,158.807,84.744z"/>
</svg>
