<?xml version="1.0" encoding="utf-8"?>
<!-- Generator: Adobe Illustrator 16.0.0, SVG Export Plug-In . SVG Version: 6.00 Build 0)  -->
<!DOCTYPE svg PUBLIC "-//W3C//DTD SVG 1.1//EN" "http://www.w3.org/Graphics/SVG/1.1/DTD/svg11.dtd">
<svg version="1.1" id="Layer_1" xmlns="http://www.w3.org/2000/svg" xmlns:xlink="http://www.w3.org/1999/xlink" x="0px" y="0px"
	 width="800px" height="800px" viewBox="0 0 800 800" enable-background="new 0 0 800 800" xml:space="preserve">
<path d="M538.884,218.714c19.842,35.764,33.223,105.815,41.045,214.017c1.187,17.317-12.547,32.248-30.74,33.464
	c-0.791,0-1.537,0.043-2.328,0.043c-17.183,0-31.75-12.629-32.959-29.21c-7.295-101.647-18.676-151.083-27.399-175.041
	l12.15,185.501c0,0.304-0.153,0.52-0.176,0.781l46.691,306.984c3.274,21.396-12.37,41.275-34.958,44.356
	c-2.043,0.304-4.021,0.391-6.021,0.391c-20.191,0-37.857-14.063-40.802-33.55l-47.263-310.325l-41.638,306.636
	c-2.725,19.749-20.456,34.158-40.913,34.158c-1.779,0-3.56-0.044-5.339-0.347c-22.697-2.735-38.649-22.354-35.728-43.794
	l40.43-297.607l13.03-172.698c-8.372,28.516-17.996,74.999-26.543,151.039c-1.692,15.582-15.205,26.995-31.179,27.776l-3.911,27.476
	l17.556,2.17L276.93,671.53L220,664.454l25.004-180.639l20.676,2.561l4.197-29.297c-10.811-6.076-17.622-17.576-16.216-30.164
	c12.128-107.897,28.323-177.384,49.548-212.411c23.159-38.194,64.884-52.864,93.316-56.639c3.691-0.694,7.624-1.129,11.799-1.39
	l-28.938,196.179l32.3,32.681l29.574-31.553l-15.775-196.915c2.307,0.216,4.569,0.434,6.768,0.694
	c0.9-0.044,1.626-0.391,2.526-0.348C461.563,158.559,513.615,173.099,538.884,218.714z M494.741,74.879
	c0.813-40.581-33.178-74.044-76.002-74.869c-42.824-0.694-78.133,31.51-78.99,72.048c-0.747,40.537,33.222,74,76.046,74.825
	C458.663,147.665,493.929,115.374,494.741,74.879z"/>
</svg>
