<?xml version="1.0" encoding="utf-8"?>
<!-- Generator: Adobe Illustrator 16.0.0, SVG Export Plug-In . SVG Version: 6.00 Build 0)  -->
<!DOCTYPE svg PUBLIC "-//W3C//DTD SVG 1.1//EN" "http://www.w3.org/Graphics/SVG/1.1/DTD/svg11.dtd">
<svg version="1.1" id="Layer_1" xmlns="http://www.w3.org/2000/svg" xmlns:xlink="http://www.w3.org/1999/xlink" x="0px" y="0px"
	 width="800px" height="800px" viewBox="0 0 800 800" enable-background="new 0 0 800 800" xml:space="preserve">
<path d="M678.02,85.46c0,47.266-38.255,85.503-85.53,85.503c-47.254,0-85.553-38.237-85.553-85.503
	c0-47.201,38.299-85.46,85.553-85.46C639.765,0,678.02,38.259,678.02,85.46z M720.122,361.458
	c-43.254,9.093-73.185,11.286-94.029,9.875c-36.518-2.431-45.472-15.756-49.753-22.265c-8.435-12.435-11.217-28.429-13.891-47.983
	l-37.298,115.973c-4.783,12.239-12.608,43.88-23.216,65.473c2.87,3.473,5.632,6.837,8.304,10.026
	c37.604,45.421,55.732,68.315,58.166,91.927c1.456,13.976,4.412,43.056-123.853,201.063c-8.303,10.221-20.758,15.19-32.995,14.366
	c-7.781-0.522-15.519-3.364-22.019-8.658c-16.78-13.542-19.28-38.217-5.717-54.927c42.82-52.778,91.444-119.206,104.398-145.227
	c-3.564-5.469-9.304-12.955-15.52-20.833c-26.279,45.291-87.813,132.683-126.895,187.153c-8.151,11.394-21.324,17.102-34.408,16.209
	c-6.978-0.454-13.933-2.798-20.106-7.204c-17.52-12.521-21.541-36.936-8.999-54.491c55.883-78.037,120.656-172.656,127.872-189.476
	c2-5.836,4.413-13.064,6.695-21.006c-18.063-23.395-33.365-46.139-40.494-66.318c-6.651-18.838-1.348-39.693,4.456-58.052
	c19.563-62.066,57.209-117.338,81.749-177.517c-38.669-1.584-96.638,5.1-170.736,40.212c-2.521,1.172-5.086,2.019-7.716,2.496
	l14.955,27.126l-42.842,23.525l20.237,36.805l-125.982,69.161L55,225.13l125.917-69.141l19.28,35.091l42.864-23.524l12.52,22.744
	c2.608-2.8,5.761-5.209,9.477-6.988c140.631-66.688,237.77-44.64,267.635-34.853c4.848,1.085,9.848,2.691,15.194,4.949
	c17.236,7.205,28.387,14.821,35.234,22.764c3.434,2.17,6.586,5.1,9.085,8.68c21.91,31.836,27.278,71.789,31.213,100.869
	c0.934,7.4,2.261,16.688,3.564,23.089c15.673,0.477,50.059-2.191,80.271-8.551c17.084-3.515,33.495,7.292,37.082,24.176
	C747.857,341.362,737.012,357.898,720.122,361.458z M256.602,257.074l-25.931-47.114l-13.716,7.51l25.888,47.114L256.602,257.074z"
	/>
</svg>
