<?xml version="1.0" encoding="utf-8"?>
<!-- Generator: Adobe Illustrator 16.0.0, SVG Export Plug-In . SVG Version: 6.00 Build 0)  -->
<!DOCTYPE svg PUBLIC "-//W3C//DTD SVG 1.1//EN" "http://www.w3.org/Graphics/SVG/1.1/DTD/svg11.dtd">
<svg version="1.1" id="Layer_1" xmlns="http://www.w3.org/2000/svg" xmlns:xlink="http://www.w3.org/1999/xlink" x="0px" y="0px"
	 width="800px" height="800px" viewBox="0 0 800 800" enable-background="new 0 0 800 800" xml:space="preserve">
<path d="M181.098,251.047c0-46.114,38.737-83.498,86.437-83.498c47.743,0,86.372,37.384,86.372,83.498
	c0,46.113-38.628,83.498-86.372,83.498C219.834,334.545,181.098,297.16,181.098,251.047z M123.416,605.678
	c0.521,0.022,1.063,0.045,1.584,0.045c16.232,0,29.796-12.303,30.642-28.157c3.342-64.004,16.45-111.742,38-140.225
	c-1.563,29.652-4.275,82.739-6.662,137.278c-0.37,1.58-0.804,3.118-0.934,4.765l-3.06,41.846h171.679l-1.41-20.965
	c-0.174-2.297-0.608-4.57-1.172-6.759c-1.866-48.02-7.443-117.937-10.677-156.252c4.406,5.783,8.16,11.588,10.851,16.678
	c11.849,22.396,21.614,47.305,26.78,68.206c4.296,17.438,10.112,37.385,25.347,53.498c17.057,18.044,40.018,22.332,56.814,25.408
	l6.119,1.147c2.105,0.433,4.189,0.628,6.25,0.628c14.215,0,26.997-9.596,29.991-23.63c3.429-16.05-7.204-31.732-23.828-35.045
	l-7.01-1.365c-9.266-1.688-19.704-3.639-23.024-7.147c-5.295-5.632-8.442-16.981-10.96-27.206
	c-6.314-25.73-17.643-54.646-31.857-81.481c-15.407-29.219-39.692-54.279-69.986-69.397c-5.968-2.988-12.327-5.393-18.707-7.386
	c-12.891-4.006-26.411-5.999-39.952-6.91l22.287,226.062l-32.205,36.454l-36.784-36.454l27.908-226.19
	c-14.149,0.454-28.342,2.015-41.927,6.043c-6.901,2.058-13.737,4.657-20.182,7.948c-11.372,5.826-21.984,13.473-31.598,21.704
	c-43.099,36.907-66.428,100.933-71.398,195.779C93.511,590.95,106.51,604.877,123.416,605.678z M0,45v621.021h800V45H0z
	 M744.445,611.267H55.556V99.756h688.89V611.267z M691.473,168.806H420.66v57.723h270.813V168.806z M691.473,382.195h-75.001v57.702
	h75.001V382.195z M691.473,276.844H527.582v57.701h163.891V276.844z M486.632,586.1l113.173-191.71L469.271,564.72L486.632,586.1z
	 M476.367,636.738H323.655L301.302,755H498.72L476.367,636.738z"/>
</svg>
