<?xml version="1.0" encoding="utf-8"?>
<!-- Generator: Adobe Illustrator 16.0.0, SVG Export Plug-In . SVG Version: 6.00 Build 0)  -->
<!DOCTYPE svg PUBLIC "-//W3C//DTD SVG 1.1//EN" "http://www.w3.org/Graphics/SVG/1.1/DTD/svg11.dtd">
<svg version="1.1" id="Layer_1" xmlns="http://www.w3.org/2000/svg" xmlns:xlink="http://www.w3.org/1999/xlink" x="0px" y="0px"
	 width="800px" height="800px" viewBox="0 0 800 800" enable-background="new 0 0 800 800" xml:space="preserve">
<path d="M755,731.293H441.839c15.775-58.204,29.556-119.422,25.396-143.185c-4.139-23.504-24.44-45.248-66.39-88.174
	c-3.011-3.104-6.109-6.337-9.316-9.612c9.534-22.354,15.427-54.494,19.501-67.103l30.508-118.64
	c4.116,19.4,8.146,35.242,17.593,47.135c4.963,6.228,15.104,19.01,52.955,19.01c21.624,0,52.394-4.209,96.379-16.168
	c17.159-4.665,27.214-22.027,22.402-38.692c-4.811-16.69-22.446-26.477-39.911-21.745c-30.745,8.334-66.216,14.301-82.248,13.91
	c-1.821-6.293-3.771-15.581-5.289-22.917c-6.066-28.906-14.388-68.555-39.175-98.958c-5.807-7.14-13.477-12.587-21.666-17.058
	c43.464-3.168,77.873-39.475,77.873-84.245C520.45,37.977,482.878,0,436.597,0c-46.303,0-83.854,37.977-83.854,84.852
	c0,26.498,12.265,49.87,31.094,65.452c-43.098-7.03-135.617-9.853-257.367,56.077c-15.601,8.463-21.17,27.581-12.458,42.708
	c5.915,10.285,16.965,16.124,28.297,16.124c5.331,0,10.726-1.346,15.731-4.016c74.081-40.125,133.428-50.649,173.47-51.692
	c-8.884,25.978-16.642,52.453-28.948,76.889c-10.443,20.659-20.303,41.667-28.816,63.216c-9.274,23.459-18.375,48.763-19.501,74.262
	c-0.39,9.506,0.65,18.708,4.506,27.43c8.753,19.728,26.108,41.472,46.325,63.716c-1.777,8.117-3.77,15.496-5.439,21.508
	C293.461,553.602,234.743,650.065,183,731.293H45v68.489h345.099c0.519,0.021,1.062,0.218,1.581,0.218
	c0.476,0,0.888-0.196,1.365-0.218H755V731.293z M367.455,580.229c8.56,9.157,16.143,17.73,19.782,23.07
	c-1.19,19.14-14.733,76.192-29.163,127.993h-80.171C311.12,678.45,349.104,616.319,367.455,580.229z"/>
</svg>
