<?xml version="1.0" encoding="utf-8"?>
<!-- Generator: Adobe Illustrator 16.0.0, SVG Export Plug-In . SVG Version: 6.00 Build 0)  -->
<!DOCTYPE svg PUBLIC "-//W3C//DTD SVG 1.1//EN" "http://www.w3.org/Graphics/SVG/1.1/DTD/svg11.dtd">
<svg version="1.1" id="Layer_1" xmlns="http://www.w3.org/2000/svg" xmlns:xlink="http://www.w3.org/1999/xlink" x="0px" y="0px"
	 width="800px" height="800px" viewBox="0 0 800 800" enable-background="new 0 0 800 800" xml:space="preserve">
<path d="M581.874,169.618c-46.151,0-83.527-37.847-83.527-84.7c0-46.788,37.376-84.7,83.527-84.7
	c46.195,0,83.616,37.912,83.616,84.7C665.49,131.771,628.069,169.618,581.874,169.618z M724.208,409.982
	c-12.133-20.247-11.766-20.962-6.891-29.601c5.872-10.438,11.831-18.792,17.097-26.106c27.625-38.433,32.22-65.212-16.186-113.585
	c-10.704-10.698-21.972-21.029-34.407-29.665c-5.375-3.733-10.856-7.119-16.642-10.113c-24.83-12.631-49.748-21.115-77.439-22.461
	l26.976,229.362l-35.577,37.022l-31.136-37.022l21.537-229.318c-21.711,1.605-42.968,7.726-62.186,18.142
	c-14.777,8.051-25.914,21.29-35.08,35.286c-9.944,15.322-14.604,33.79-18.872,51.433c-1.148,4.753-11.527,49.74-18.678,46.094
	c-14.475-7.357-41.319-45.702-50.506-58.876c-5.157-7.355-9.491-13.563-12.784-17.687c-10.271-12.935-28.991-14.974-41.796-4.471
	c-12.762,10.46-14.734,29.405-4.42,42.34c2.73,3.386,6.284,8.551,10.53,14.627c23.379,33.463,59.824,85.591,100.278,85.591
	c8.406,0,16.965-2.236,25.61-7.336c26.348-15.581,37.225-41.449,43.378-65.387c-2.73,36.871-5.655,80.534-6.933,113.955
	c-0.542,2.257-0.953,4.601-1.149,7.074l-20.367,319.118c-1.387,21.55,14.691,40.127,35.925,41.516
	c0.844,0.044,1.69,0.086,2.536,0.086c20.105,0,37.05-15.862,38.394-36.544l17.184-268.772c2.751-0.324,5.416-0.846,8.276-0.846
	c2.404,0,5.199,0.715,8.038,1.496l18.569,265.951c1.387,20.595,18.309,36.285,38.352,36.285c0.888,0,1.841,0,2.751-0.086
	c21.191-1.52,37.203-20.183,35.687-41.711l-23.574-337.718c-0.045-0.715-0.26-1.367-0.325-2.061
	c3.704,9.461,8.688,17.903,13.174,25.325c1.906,3.169,3.878,6.467,5.872,9.982c5.504,9.701,15.492,15.126,25.785,15.126
	c5.005,0,10.096-1.302,14.754-4.036c14.236-8.269,19.154-26.671,10.942-41.081C728.672,417.318,726.44,413.564,724.208,409.982z
	 M686.398,318.815c-5.872,8.226-13.26,18.424-20.714,31.837c-3.728,6.596-6.022,12.759-7.8,18.771
	c-2.06-46.332-4.052-86.979-5.071-106.9c7.087,5.252,14.648,12.022,23.727,21.093c12.979,12.957,17.247,19.424,18.655,22.136
	C693.57,308.812,689.648,314.28,686.398,318.815z M311.769,103.56l-48.383-37.564V3.863h-34.56v35.286L178.384,0L45,103.56
	l20.995,27.93l14.344-11.155v128.321h196.09V120.334l14.366,11.155L311.769,103.56z M257.21,229.124h-44.266v-74.219h-69.12v74.219
	H99.536V107.9l78.848-61.22l78.826,61.22V229.124z"/>
</svg>
