<?xml version="1.0" encoding="utf-8"?>
<!-- Generator: Adobe Illustrator 16.0.0, SVG Export Plug-In . SVG Version: 6.00 Build 0)  -->
<!DOCTYPE svg PUBLIC "-//W3C//DTD SVG 1.1//EN" "http://www.w3.org/Graphics/SVG/1.1/DTD/svg11.dtd">
<svg version="1.1" id="Layer_1" xmlns="http://www.w3.org/2000/svg" xmlns:xlink="http://www.w3.org/1999/xlink" x="0px" y="0px"
	 width="800px" height="800px" viewBox="0 0 800 800" enable-background="new 0 0 800 800" xml:space="preserve">
<path d="M766.195,718.588L538.245,528.48c5.299-14.279,4.524-30.207-2.11-44.054c-2.629-5.513-6.032-10.764-10.556-15.364
	c-3.447-3.473-7.368-6.164-11.374-8.595c41.144-48.785,66.089-111.807,66.089-180.731C580.294,125.479,455.741,0,302.669,0
	C149.595,0,25,125.479,25,279.736c0,154.299,124.595,279.779,277.669,279.779c47.304,0,91.809-12.023,130.842-33.205
	c2.672,8.117,6.937,15.756,13.313,22.18c1.724,1.736,3.619,3.082,5.472,4.514c16.155,12.543,37.396,15.148,55.577,7.379
	L691.62,793.721c0,0,33.044,20.574,66.134-12.762C790.797,747.625,766.195,718.588,766.195,718.588z M302.669,501.962
	c-117.487,0-213.088-96.354-213.088-214.718v-7.508c0-118.363,95.601-214.718,213.088-214.718
	c117.528,0,213.044,96.355,213.044,214.718l0.043,7.508C515.756,405.607,420.197,501.962,302.669,501.962z M387.649,184.465
	c0,46.767-38.021,84.638-84.959,84.638c-46.917,0-84.959-37.871-84.959-84.638c0-46.789,38.042-84.68,84.959-84.68
	C349.628,99.785,387.649,137.676,387.649,184.465z M416.559,450.094c-0.174-1.822,0.043-3.754-0.432-5.468
	c-6.097-21.962-23.286-51.954-40.886-72.57c1.982,23.872,4.869,60.44,7.217,96.571c-15.661,6.642-32.355,11.155-49.697,13.717
	l-19.56-204.583c14.174,0.956,28.349,3.516,41.833,8.074c19.129,6.424,38.474,19.27,52.863,33.204
	c22.273,21.419,44.073,54.385,57.321,85.115C451.541,421.969,435.191,437.574,416.559,450.094z M294.763,277.76l-24.45,204.236
	c-15.618-2.495-30.697-6.619-44.936-12.455c1.939-42.147,3.813-79.69,4.912-101.284c-18.741,20.552-37.783,52.996-44.267,76.369
	c-0.28,1.041-0.129,2.215-0.28,3.298c-18.332-12.803-34.358-28.602-47.671-46.57c13.377-29.928,34.595-61.569,56.158-82.315
	c16.156-15.582,37.094-28.125,58.506-34.615C266.35,280.279,280.545,278.282,294.763,277.76z"/>
</svg>
