<?xml version="1.0" encoding="utf-8"?>
<!-- Generator: Adobe Illustrator 16.0.0, SVG Export Plug-In . SVG Version: 6.00 Build 0)  -->
<!DOCTYPE svg PUBLIC "-//W3C//DTD SVG 1.1//EN" "http://www.w3.org/Graphics/SVG/1.1/DTD/svg11.dtd">
<svg version="1.1" id="Layer_1" xmlns="http://www.w3.org/2000/svg" xmlns:xlink="http://www.w3.org/1999/xlink" x="0px" y="0px"
	 width="800px" height="800px" viewBox="0 0 800 800" enable-background="new 0 0 800 800" xml:space="preserve">
<path d="M318.16,84.755C318.16,37.935,355.285,0,401.09,0c45.804,0,82.971,37.935,82.971,84.755
	c0,46.843-37.167,84.755-82.971,84.755C355.285,169.51,318.16,131.598,318.16,84.755z M492.343,209.462
	c-12.063-9.548-24.588-17.72-39.101-22.851c-13.48-4.775-27.683-7.444-41.884-8.431l21.409,229.697L401.863,444.9l-35.332-37.023
	l26.824-230.023c-15.501,0.532-31.077,3.071-45.708,8.41c-5.973,2.17-11.806,4.818-17.295,8.094
	c-9.625,5.751-18.476,12.695-26.845,20.28c-41.346,37.424-63.733,102.398-68.47,198.622c-0.816,16.504,11.612,30.556,27.758,31.38
	c0.505,0.033,0.998,0.044,1.503,0.044c15.49,0,28.424-12.412,29.208-28.406c3.212-65.182,15.866-113.782,36.642-142.72
	c-1.494,30.328-4.136,85.34-6.5,141.536c-0.15,1.021-0.43,1.985-0.505,3.028L299.749,756.1
	c-1.482,21.364,14.266,39.897,35.17,41.416c0.914,0.064,1.826,0.098,2.718,0.098c19.744,0,36.395-15.614,37.812-36.046
	l18.423-266.091c2.9-0.826,5.758-1.563,8.218-1.563c2.911,0,5.703,0.529,8.528,0.889l17.038,268.935
	C428.954,784.245,445.647,800,465.487,800c0.817,0,1.655-0.021,2.493-0.076c20.915-1.388,36.759-19.835,35.417-41.21
	l-20.239-319.357c-0.106-1.78-0.505-3.461-0.826-5.145c-1.698-48.894-7.176-121.278-10.323-160.611
	c21.205,28.982,33.15,77.083,34.449,141.786c0.333,16.309,13.365,29.297,29.874,29.286c16.157-0.336,28.994-13.998,28.661-30.522
	C563.006,314.877,538.556,246.007,492.343,209.462z"/>
</svg>
