<?xml version="1.0" encoding="utf-8"?>
<!-- Generator: Adobe Illustrator 16.0.0, SVG Export Plug-In . SVG Version: 6.00 Build 0)  -->
<!DOCTYPE svg PUBLIC "-//W3C//DTD SVG 1.1//EN" "http://www.w3.org/Graphics/SVG/1.1/DTD/svg11.dtd">
<svg version="1.1" id="Layer_1" xmlns="http://www.w3.org/2000/svg" xmlns:xlink="http://www.w3.org/1999/xlink" x="0px" y="0px"
	 width="800px" height="800px" viewBox="0 0 800 800" enable-background="new 0 0 800 800" xml:space="preserve">
<path d="M95.219,84.733C95.219,37.924,133.239,0,180.095,0c46.877,0,84.832,37.924,84.832,84.733
	c0,46.82-37.955,84.734-84.832,84.734C133.239,169.467,95.219,131.554,95.219,84.733z M719.841,214.421
	c-9.444-8.355-19.868-16.134-31.013-22.026c-6.333-3.344-13.014-5.99-19.848-8.084c-13.318-4.081-27.226-5.653-41.131-6.11
	l27.398,229.547l-36.126,37.022l-31.601-37.022l21.85-229.405c-13.275,0.889-26.55,2.952-39.238,6.999
	c-6.289,2.008-12.493,4.449-18.367,7.487c-29.729,15.342-53.582,40.809-68.729,70.443c-13.929,27.234-25.049,56.608-31.229,82.705
	c-2.504,10.372-5.572,21.907-10.796,27.636c-3.241,3.559-13.515,5.522-22.59,7.248l-6.898,1.367c-4.311,0.89-18.738,0.89-23.048,0
	l-6.899-1.367c-9.075-1.726-19.346-3.688-22.589-7.248c-5.224-5.729-8.292-17.264-10.772-27.636
	c-6.204-26.097-17.323-55.471-31.253-82.705c-15.147-29.634-38.998-55.101-68.727-70.443c-5.876-3.038-12.079-5.479-18.368-7.487
	c-12.689-4.047-25.964-6.109-39.261-6.999l21.872,229.405l-31.6,37.022l-36.126-37.022l27.399-229.547
	c-13.906,0.457-27.813,2.029-41.132,6.11c-6.834,2.094-13.515,4.74-19.848,8.084c-11.142,5.892-21.567,13.67-31.013,22.026
	c-42.329,37.456-65.267,102.441-70.121,198.697c-0.827,16.591,11.969,30.741,28.597,31.565c0.5,0.033,1.022,0.044,1.523,0.044
	c15.952,0,29.25-12.501,30.098-28.581c3.287-64.964,16.126-113.401,37.28-142.33c-1.523,30.069-4.199,83.986-6.551,139.323
	c-0.348,1.596-0.761,3.179-0.87,4.84L76.197,755.838c-1.502,21.507,14.69,40.148,36.214,41.666c0.914,0.065,1.85,0.099,2.786,0.099
	c20.327,0,37.454-15.701,38.934-36.253L173,495.269c2.851-0.77,5.68-1.496,8.139-1.496c2.894,0,5.658,0.521,8.466,0.856
	l17.433,268.892c1.327,20.637,18.52,36.479,38.956,36.479c0.827,0,1.697-0.021,2.545-0.086c21.524-1.379,37.846-19.944,36.475-41.45
	c0,0-21.306-323.905-21.872-326.128c-1.828-48.752-7.291-119.716-10.468-158.605c4.31,5.848,8.009,11.75,10.621,16.916
	c11.644,22.755,21.24,48.003,26.268,69.25c4.265,17.697,10.01,37.945,24.917,54.275c8.771,9.614,20.501,16.285,32.515,20.812
	c6.137,2.31,12.514,4.079,18.955,5.252c20.458,3.722,43.353,3.646,63.788-0.26c16.475-3.147,39.021-7.456,55.778-25.804
	c14.907-16.33,20.653-36.578,24.92-54.275c5.026-21.247,14.624-46.495,26.267-69.25c2.612-5.165,6.312-11.067,10.621-16.916
	c-3.179,38.889-8.641,109.853-10.468,158.605c-0.565,2.223-21.873,326.128-21.873,326.128c-1.371,21.506,14.952,40.071,36.476,41.45
	c0.85,0.064,1.719,0.086,2.546,0.086c20.436,0,37.607-15.843,38.957-36.479l17.432-268.892c2.808-0.335,5.549-0.856,8.466-0.856
	c2.459,0,5.288,0.727,8.139,1.496l18.869,266.081c1.457,20.552,18.608,36.253,38.935,36.253c0.936,0,1.871-0.033,2.785-0.099
	c21.523-1.518,37.716-20.159,36.214-41.666l-23.896-337.858c-0.13-1.661-0.543-3.244-0.893-4.84
	c-2.371-55.337-5.026-109.254-6.551-139.323c21.154,28.929,33.995,77.366,37.281,142.33c0.85,16.08,14.146,28.581,30.098,28.581
	c0.501,0,1.001-0.011,1.524-0.044c16.626-0.824,29.424-14.975,28.597-31.565C785.108,316.862,762.171,251.877,719.841,214.421z
	 M619.906,169.467c46.854,0,84.875-37.914,84.875-84.734C704.781,37.924,666.761,0,619.906,0c-46.879,0-84.835,37.924-84.835,84.733
	C535.071,131.554,573.027,169.467,619.906,169.467z"/>
</svg>
