<?xml version="1.0" encoding="utf-8"?>
<!-- Generator: Adobe Illustrator 16.0.0, SVG Export Plug-In . SVG Version: 6.00 Build 0)  -->
<!DOCTYPE svg PUBLIC "-//W3C//DTD SVG 1.1//EN" "http://www.w3.org/Graphics/SVG/1.1/DTD/svg11.dtd">
<svg version="1.1" id="Layer_1" xmlns="http://www.w3.org/2000/svg" xmlns:xlink="http://www.w3.org/1999/xlink" x="0px" y="0px"
	 width="800px" height="800px" viewBox="0 0 800 800" enable-background="new 0 0 800 800" xml:space="preserve">
<path d="M104.562,85.168c0-46.8,37.742-84.712,84.325-84.712s84.392,37.913,84.392,84.712c0,46.82-37.809,84.71-84.392,84.71
	S104.562,131.988,104.562,85.168z M281.705,209.808c-12.29-9.548-24.995-17.707-39.772-22.852
	c-13.708-4.752-28.138-7.442-42.589-8.42l21.764,229.557l-31.433,37.002l-35.909-37.002l27.264-229.882
	c-15.761,0.521-31.608,3.082-46.474,8.399c-6.069,2.168-12.006,4.816-17.594,8.093c-9.779,5.752-18.795,12.673-27.308,20.27
	c-42.043,37.413-64.811,102.344-69.614,198.502c-0.829,16.493,11.788,30.533,28.226,31.357c0.501,0.044,1.004,0.044,1.528,0.044
	c15.739,0,28.881-12.413,29.687-28.385c3.274-65.149,16.154-113.716,37.263-142.622c-1.506,30.295-4.19,85.287-6.592,141.45
	c-0.153,0.998-0.437,1.975-0.524,3.016L85.854,756.12c-1.529,21.354,14.494,39.887,35.734,41.405
	c0.938,0.045,1.877,0.087,2.772,0.087c20.083,0,37.023-15.604,38.464-36.024l18.729-265.929c2.969-0.824,5.85-1.563,8.36-1.563
	c2.947,0,5.785,0.521,8.688,0.868l17.311,268.794C217.243,784.245,234.205,800,254.396,800c0.83,0,1.681-0.021,2.532-0.087
	c21.284-1.389,37.372-19.814,36.019-41.189l-20.585-319.162c-0.087-1.779-0.501-3.451-0.829-5.144
	c-1.725-48.87-7.313-121.201-10.5-160.503c21.545,28.949,33.704,77.04,35.035,141.688c0.328,16.298,13.578,29.274,30.386,29.274
	c16.437-0.347,29.469-13.996,29.142-30.512C353.566,315.147,328.703,246.311,281.705,209.808z M615.996,384.462
	c0-27.214,21.96-49.242,49.008-49.242c27.091,0,49.071,22.027,49.071,49.242c0,27.211-21.98,49.24-49.071,49.24
	C637.956,433.702,615.996,411.674,615.996,384.462z M718.965,456.901c-7.139-5.535-14.517-10.286-23.073-13.26
	c-7.988-2.778-16.371-4.318-24.775-4.926l12.661,133.462l-18.294,21.527l-20.89-21.527l15.869-133.637
	c-9.146,0.304-18.379,1.78-27.024,4.904c-3.536,1.259-6.963,2.778-10.216,4.688c-5.697,3.342-10.915,7.378-15.891,11.783
	c-24.428,21.745-37.679,59.484-40.473,115.386c-0.479,9.593,6.854,17.754,16.415,18.23c0.284,0.044,0.611,0.044,0.917,0.044
	c9.104,0,16.766-7.228,17.246-16.516c1.897-37.869,9.387-66.125,21.655-82.921c-0.874,17.62-2.447,49.566-3.844,82.228
	c-0.108,0.606-0.24,1.148-0.326,1.758l-13.774,196.353c-0.895,12.414,8.403,23.198,20.78,24.066
	c0.547,0.045,1.071,0.065,1.595,0.065c11.678,0,21.522-9.07,22.352-20.962l10.894-154.581c1.726-0.455,3.384-0.91,4.846-0.91
	c1.703,0,3.363,0.324,5.021,0.521l10.105,156.25C681.528,790.843,691.351,800,703.097,800c0.501,0,1.004-0.021,1.483-0.044
	c12.377-0.824,21.741-11.544,20.934-23.958l-11.961-185.525c-0.046-1.02-0.307-2.018-0.503-2.995
	c-1.005-28.407-4.234-70.464-6.091-93.315c12.529,16.861,19.603,44.793,20.367,82.378c0.174,9.485,7.88,17.037,17.682,17.037
	c9.538-0.218,17.137-8.161,16.939-17.753C760.747,518.142,746.318,478.125,718.965,456.901z M758.498,65.484H587.686v-44.12
	C587.686,9.613,578.036,0,566.183,0H375.221c-11.854,0-21.545,9.613-21.545,21.364v120.345c0,11.719,9.692,21.376,21.545,21.376
	h40.821c17.616,29.231-3.863,76.194-3.863,76.194s92.512-32.466,112.921-76.194h20.892v44.076c0,11.805,9.714,21.397,21.544,21.397
	h41.084c0,0,0,0,0,0.023h6.548l48.964,75.412l60.641-75.435h33.727c11.81,0,21.502-9.592,21.502-21.397V86.87
	C780,75.13,770.308,65.484,758.498,65.484z M544.681,102.755c0,14.053-9.691,25.543-21.545,25.543H418.269
	c-11.854,0-21.502-11.49-21.502-25.543V61.198c0-14.063,9.648-25.554,21.502-25.554h104.867c11.854,0,21.545,11.492,21.545,25.554
	V102.755z"/>
</svg>
