<?xml version="1.0" encoding="utf-8"?>
<!-- Generator: Adobe Illustrator 16.0.0, SVG Export Plug-In . SVG Version: 6.00 Build 0)  -->
<!DOCTYPE svg PUBLIC "-//W3C//DTD SVG 1.1//EN" "http://www.w3.org/Graphics/SVG/1.1/DTD/svg11.dtd">
<svg version="1.1" id="Layer_1" xmlns="http://www.w3.org/2000/svg" xmlns:xlink="http://www.w3.org/1999/xlink" x="0px" y="0px"
	 width="100px" height="100px" viewBox="0 0 100 100" enable-background="new 0 0 100 100" xml:space="preserve">
<g>
	<polygon points="23.048,31.273 23.935,35.313 28.33,33.22 28.396,33.22 28.396,51.477 33.606,51.477 33.606,28.436 29.139,28.436 	
		"/>
	<path d="M43.731,28.046c-5.954,0-8.791,5.282-8.791,11.944c0.034,6.523,2.658,11.875,8.612,11.875
		c5.882,0,8.758-4.891,8.758-12.018C52.311,33.543,49.896,28.046,43.731,28.046z M43.691,47.789c-2.086,0-3.361-2.516-3.329-7.799
		c-0.032-5.351,1.309-7.869,3.295-7.869c2.166,0,3.265,2.694,3.265,7.798C46.922,45.168,45.783,47.789,43.691,47.789z"/>
	<path d="M60.383,46.023h2.163v2.934c-0.249,0.121-0.834,0.206-1.564,0.206c-2.601,0-4.409-1.708-4.409-4.598
		c0-3.037,2.001-4.533,4.646-4.533c1.532,0,2.492,0.269,3.263,0.602l0.664-2.54c-0.685-0.332-2.078-0.688-3.888-0.688
		c-4.599,0-7.993,2.664-8.013,7.326c-0.021,2.06,0.689,3.891,1.981,5.097c1.288,1.245,3.137,1.893,5.696,1.893
		c1.856,0,3.703-0.456,4.684-0.789v-7.388h-5.223V46.023z"/>
	<path d="M74.454,44.027v-0.043c1.578-0.581,2.31-1.747,2.31-2.997c0-1.266-0.711-2.224-1.685-2.742
		c-1.021-0.608-2.21-0.793-4.145-0.793c-1.579,0-3.263,0.123-4.1,0.292v13.772c0.711,0.101,1.876,0.206,3.435,0.206
		c2.789,0,4.494-0.456,5.513-1.269c0.876-0.708,1.46-1.707,1.46-2.973C77.242,45.667,76.053,44.463,74.454,44.027z M69.98,39.845
		c0.27-0.043,0.665-0.085,1.349-0.085c1.44,0,2.249,0.562,2.249,1.622c0,1.04-0.895,1.729-2.559,1.729H69.98V39.845z M71.203,49.37
		c-0.539,0-0.914,0-1.223-0.038v-3.954h1.08c1.577,0,2.848,0.563,2.848,1.977C73.908,48.832,72.638,49.37,71.203,49.37z"/>
	<path d="M79.752,19.702c-0.7-0.058-1.343-0.417-1.761-0.982c-4.025-5.449-10.487-8.811-17.365-8.811
		c-0.438,0-0.875,0.014-1.313,0.041c-0.582,0.035-1.154-0.138-1.619-0.489c-4.185-3.163-9.257-4.876-14.571-4.876
		c-9.513,0-17.957,5.518-21.893,13.872c-0.352,0.746-1.057,1.264-1.873,1.377C8.868,21.29,0.767,30.318,0.767,41.201
		c0,11.896,9.678,21.573,21.573,21.573h17.49v13.314h-4.253c-0.978,0-1.865,0.569-2.272,1.454c-0.416,0.888-0.271,1.933,0.36,2.68
		l11.393,13.396c0.97,1.14,2.397,1.799,3.896,1.799c1.497,0,2.921-0.659,3.895-1.799l11.393-13.396
		c0.63-0.747,0.775-1.792,0.361-2.68c-0.407-0.884-1.3-1.454-2.273-1.454h-4.257V62.774H77.95c11.896,0,21.574-9.678,21.574-21.573
		C99.524,29.912,90.807,20.621,79.752,19.702z M77.95,54.274H22.34c-7.209,0-13.073-5.865-13.073-13.073
		c0-7.209,5.864-13.074,13.073-13.074c0.364,0,0.723,0.029,1.079,0.058c2.077,0.161,3.958-1.187,4.464-3.202
		c1.758-7.006,8.026-11.899,15.24-11.899c4.123,0,8.024,1.592,10.986,4.483c1.013,0.987,2.449,1.407,3.835,1.119
		c0.882-0.184,1.784-0.277,2.682-0.277c5.048,0,9.556,2.838,11.764,7.405c0.775,1.606,2.474,2.562,4.249,2.379
		c0.441-0.044,0.883-0.066,1.312-0.066c7.209,0,13.074,5.865,13.074,13.074C91.024,48.41,85.159,54.274,77.95,54.274z"/>
</g>
</svg>
