<?xml version="1.0" encoding="utf-8"?>
<!-- Generator: Adobe Illustrator 16.0.0, SVG Export Plug-In . SVG Version: 6.00 Build 0)  -->
<!DOCTYPE svg PUBLIC "-//W3C//DTD SVG 1.1//EN" "http://www.w3.org/Graphics/SVG/1.1/DTD/svg11.dtd">
<svg version="1.1" id="Layer_1" xmlns="http://www.w3.org/2000/svg" xmlns:xlink="http://www.w3.org/1999/xlink" x="0px" y="0px"
	 width="100px" height="100px" viewBox="0 0 100 100" enable-background="new 0 0 100 100" xml:space="preserve">
<g>
	<path d="M84.696,82.898h-3.498V42.82c0-1.754-1.422-3.177-3.179-3.177h-8.667c-1.754,0-3.177,1.423-3.177,3.177v40.078h-3.502
		c-0.806,0-1.538,0.467-1.874,1.197c-0.338,0.73-0.22,1.591,0.301,2.203l9.381,11.031c0.8,0.939,1.968,1.481,3.204,1.481
		s2.406-0.542,3.205-1.481l9.38-11.031c0.523-0.612,0.64-1.473,0.303-2.203C86.235,83.365,85.506,82.898,84.696,82.898z"/>
	<path d="M32.888,39.644H20.114c-2.071,0-3.755,1.681-3.755,3.753v51.66c0,2.073,1.684,3.753,3.755,3.753h12.773
		c2.071,0,3.751-1.68,3.751-3.753v-51.66C36.639,41.324,34.959,39.644,32.888,39.644z M26.501,90.889
		c-3.003,0-5.435-2.434-5.435-5.434c0-3,2.432-5.434,5.435-5.434c2.999,0,5.432,2.434,5.432,5.434
		C31.933,88.456,29.5,90.889,26.501,90.889z M31.933,70.818H21.066V49.519h10.866V70.818z"/>
	<path d="M58.107,82.845c0.654-1.422,1.949-2.408,3.442-2.756V43.397c0-2.073-1.682-3.753-3.755-3.753H45.023
		c-2.073,0-3.757,1.681-3.757,3.753v51.66c0,2.073,1.684,3.753,3.757,3.753h12.771c2.073,0,3.755-1.68,3.755-3.753v-3.645
		l-2.713-3.189C57.569,86.733,57.281,84.622,58.107,82.845z M51.408,90.889c-3.001,0-5.433-2.434-5.433-5.434
		c0-3,2.432-5.434,5.433-5.434s5.434,2.434,5.434,5.434C56.842,88.456,54.409,90.889,51.408,90.889z M56.842,70.818H45.976V49.519
		h10.866V70.818z"/>
	<path d="M79.549,15.669c-0.696-0.06-1.334-0.416-1.751-0.976C74,9.579,67.918,6.426,61.449,6.426c-0.397,0-0.796,0.012-1.194,0.035
		c-0.577,0.034-1.146-0.139-1.608-0.486c-3.94-2.966-8.714-4.573-13.71-4.573c-8.952,0-16.899,5.179-20.627,13.027
		c-0.351,0.74-1.051,1.253-1.861,1.369c-9.864,1.404-17.474,9.906-17.474,20.151c0,6.397,2.973,12.106,7.602,15.84v-8.391
		c0-1.356,0.365-2.626,0.994-3.727c-0.372-1.175-0.576-2.425-0.576-3.722c0-6.802,5.534-12.335,12.335-12.335
		c0.343,0,0.682,0.027,1.018,0.055c1.96,0.151,3.734-1.12,4.212-3.021c1.658-6.61,7.571-11.226,14.378-11.226
		c3.889,0,7.57,1.502,10.365,4.229c0.956,0.931,2.311,1.328,3.617,1.056c0.833-0.173,1.684-0.262,2.53-0.262
		c4.763,0,9.015,2.677,11.099,6.986c0.732,1.516,2.333,2.417,4.008,2.245c0.417-0.042,0.834-0.063,1.237-0.063
		c6.802,0,12.335,5.533,12.335,12.335c0,4.117-2.034,7.759-5.144,10.001v9.016c7.681-2.914,13.163-10.328,13.163-19.017
		C98.147,25.316,89.954,16.563,79.549,15.669z"/>
</g>
</svg>
