<?xml version="1.0" encoding="utf-8"?>
<!-- Generator: Adobe Illustrator 16.0.0, SVG Export Plug-In . SVG Version: 6.00 Build 0)  -->
<!DOCTYPE svg PUBLIC "-//W3C//DTD SVG 1.1//EN" "http://www.w3.org/Graphics/SVG/1.1/DTD/svg11.dtd">
<svg version="1.1" id="Layer_1" xmlns="http://www.w3.org/2000/svg" xmlns:xlink="http://www.w3.org/1999/xlink" x="0px" y="0px"
	 width="100px" height="100px" viewBox="0 0 100 100" enable-background="new 0 0 100 100" xml:space="preserve">
<g>
	<path d="M31.01,39.692H18.257c-2.067,0-3.746,1.677-3.746,3.747v51.576c0,2.069,1.679,3.747,3.746,3.747H31.01
		c2.069,0,3.75-1.678,3.75-3.747V43.439C34.76,41.37,33.079,39.692,31.01,39.692z M24.637,90.853c-2.997,0-5.426-2.429-5.426-5.425
		c0-2.994,2.429-5.424,5.426-5.424c2.994,0,5.423,2.43,5.423,5.424C30.06,88.424,27.631,90.853,24.637,90.853z M30.06,70.815H19.211
		V49.551H30.06V70.815z"/>
	<path d="M74.942,41.172c-0.8-0.939-1.966-1.479-3.199-1.479s-2.403,0.541-3.201,1.479L59.18,52.184
		c-0.521,0.612-0.638,1.471-0.301,2.199c0.336,0.729,1.065,1.195,1.872,1.195h3.494v40.011c0,1.752,1.42,3.172,3.17,3.172h8.651
		c1.755,0,3.175-1.419,3.175-3.172V55.578h3.498c0.803,0,1.531-0.466,1.869-1.195c0.338-0.728,0.219-1.587-0.3-2.199L74.942,41.172z
		"/>
	<path d="M56.184,55.566c-0.816-1.769-0.533-3.877,0.736-5.364l2.857-3.361v-3.402c0-2.069-1.676-3.747-3.746-3.747H43.279
		c-2.07,0-3.751,1.677-3.751,3.747v51.576c0,2.069,1.681,3.747,3.751,3.747h12.752c2.07,0,3.746-1.678,3.746-3.747v-36.67
		C58.224,58.033,56.863,57.038,56.184,55.566z M49.652,90.853c-2.996,0-5.423-2.429-5.423-5.425c0-2.994,2.427-5.424,5.423-5.424
		c2.997,0,5.426,2.43,5.426,5.424C55.078,88.424,52.649,90.853,49.652,90.853z M55.078,70.815H44.229V49.551h10.849V70.815z"/>
	<path d="M77.578,15.635c-0.695-0.06-1.333-0.415-1.75-0.976c-3.789-5.102-9.855-8.246-16.309-8.246
		c-0.396,0-0.793,0.012-1.188,0.035c-0.578,0.034-1.146-0.138-1.609-0.486c-3.931-2.958-8.69-4.561-13.675-4.561
		c-8.93,0-16.857,5.166-20.576,12.992c-0.352,0.74-1.051,1.253-1.861,1.369c-9.839,1.401-17.429,9.882-17.429,20.102
		c0,6.266,2.855,11.874,7.33,15.602v-8.028c0-1.502,0.437-2.901,1.18-4.09c-0.327-1.105-0.51-2.273-0.51-3.483
		c0-6.785,5.521-12.305,12.306-12.305c0.342,0,0.68,0.027,1.015,0.055c1.955,0.151,3.726-1.117,4.202-3.014
		c1.654-6.594,7.553-11.199,14.344-11.199c3.88,0,7.552,1.499,10.34,4.219c0.953,0.929,2.305,1.325,3.609,1.053
		c0.83-0.173,1.68-0.261,2.523-0.261c4.751,0,8.993,2.671,11.072,6.97c0.73,1.512,2.327,2.411,3.998,2.239
		c0.416-0.042,0.832-0.063,1.234-0.063c6.785,0,12.306,5.52,12.306,12.305c0,3.788-1.723,7.178-4.423,9.438l3.648,4.29
		c0.532,0.627,0.911,1.348,1.149,2.106c4.642-3.725,7.625-9.434,7.625-15.833C96.13,25.26,87.957,16.528,77.578,15.635z"/>
</g>
</svg>
