<?xml version="1.0" encoding="utf-8"?>
<!-- Generator: Adobe Illustrator 16.0.0, SVG Export Plug-In . SVG Version: 6.00 Build 0)  -->
<!DOCTYPE svg PUBLIC "-//W3C//DTD SVG 1.1//EN" "http://www.w3.org/Graphics/SVG/1.1/DTD/svg11.dtd">
<svg version="1.1" id="Layer_1" xmlns="http://www.w3.org/2000/svg" xmlns:xlink="http://www.w3.org/1999/xlink" x="0px" y="0px"
	 width="100px" height="100px" viewBox="0 0 100 100" enable-background="new 0 0 100 100" xml:space="preserve">
<g>
	<path d="M37.104,66.993c-0.585-0.493-1.401-0.609-2.095-0.282c-0.687,0.314-1.136,1.011-1.136,1.776v3.335H21.013
		c-1.668,0-3.024,1.345-3.024,3.015v8.242c0,1.66,1.356,3.016,3.024,3.016h12.861v3.329c0,0.763,0.449,1.462,1.136,1.781
		c0.693,0.324,1.51,0.211,2.095-0.283l10.488-8.92C48.485,81.244,49,80.131,49,78.961c0-1.176-0.515-2.294-1.407-3.056
		L37.104,66.993z"/>
	<path d="M78.646,71.82H65.784v-3.334c0-0.759-0.448-1.457-1.135-1.778c-0.693-0.325-1.511-0.208-2.096,0.283l-10.488,8.922
		c-0.891,0.758-1.406,1.874-1.406,3.04c0,1.181,0.516,2.296,1.406,3.055l10.488,8.913c0.585,0.494,1.402,0.608,2.096,0.288
		c0.687-0.32,1.135-1.017,1.135-1.783v-3.329h12.861c1.669,0,3.025-1.351,3.025-3.02v-8.24C81.671,73.171,80.314,71.82,78.646,71.82
		z"/>
	<path d="M79.079,21.481c-0.545-0.039-1.046-0.318-1.366-0.762c-3.998-5.545-10.509-8.976-17.443-8.976
		c-0.502,0-1.004,0.019-1.506,0.054c-0.45,0.031-0.896-0.104-1.253-0.378c-4.201-3.229-9.315-4.98-14.678-4.98
		c-9.578,0-18.067,5.615-21.934,14.087c-0.267,0.583-0.816,0.985-1.452,1.065c-10.59,1.325-18.81,10.384-18.81,21.326
		c0,11.85,9.641,21.49,21.491,21.49h55.398c11.852,0,21.493-9.641,21.493-21.49C99.021,31.589,90.208,22.279,79.079,21.481z
		 M77.527,55.942H22.129c-7.182,0-13.023-5.844-13.023-13.024c0-7.182,5.842-13.025,13.023-13.025c0.363,0,0.72,0.029,1.075,0.059
		c2.069,0.161,3.942-1.183,4.447-3.19c1.751-6.979,7.995-11.854,15.182-11.854c4.108,0,7.994,1.587,10.944,4.466
		c1.009,0.983,2.44,1.403,3.82,1.116c0.879-0.185,1.778-0.277,2.672-0.277c5.029,0,9.52,2.828,11.719,7.378
		c0.773,1.601,2.465,2.551,4.233,2.369c0.439-0.043,0.879-0.066,1.306-0.066c7.183,0,13.025,5.844,13.025,13.025
		C90.553,50.099,84.71,55.942,77.527,55.942z"/>
</g>
</svg>
