<?xml version="1.0" encoding="utf-8"?>
<!-- Generator: Adobe Illustrator 16.0.0, SVG Export Plug-In . SVG Version: 6.00 Build 0)  -->
<!DOCTYPE svg PUBLIC "-//W3C//DTD SVG 1.1//EN" "http://www.w3.org/Graphics/SVG/1.1/DTD/svg11.dtd">
<svg version="1.1" id="Layer_1" xmlns="http://www.w3.org/2000/svg" xmlns:xlink="http://www.w3.org/1999/xlink" x="0px" y="0px"
	 width="100px" height="100px" viewBox="0 0 100 100" enable-background="new 0 0 100 100" xml:space="preserve">
<g>
	<path d="M79.577,29.007c-0.7-0.059-1.342-0.417-1.76-0.981c-4.001-5.415-10.426-8.756-17.262-8.756
		c-0.434,0-0.869,0.013-1.303,0.039c-0.581,0.035-1.152-0.138-1.617-0.488c-4.16-3.143-9.202-4.845-14.482-4.845
		c-9.456,0-17.849,5.483-21.764,13.786c-0.352,0.745-1.056,1.262-1.872,1.376C9.092,30.589,1.04,39.563,1.04,50.381
		c0,11.827,9.623,21.449,21.45,21.449h0.365c-0.316-0.834-0.49-1.725-0.49-2.632c0-2.262,1.052-4.419,2.811-5.818H22.49
		c-7.167,0-12.999-5.831-12.999-12.999c0-7.167,5.831-12.998,12.999-12.998c0.362,0,0.718,0.029,1.072,0.058
		c2.065,0.159,3.936-1.18,4.438-3.184c1.748-6.965,7.979-11.83,15.153-11.83c4.099,0,7.978,1.582,10.922,4.456
		c1.007,0.982,2.436,1.399,3.813,1.112c0.877-0.182,1.774-0.274,2.666-0.274c5.019,0,9.5,2.82,11.695,7.361
		c0.772,1.598,2.459,2.549,4.225,2.367c0.439-0.045,0.878-0.066,1.304-0.066c7.168,0,12.999,5.831,12.999,12.998
		c0,7.168-5.831,12.999-12.999,12.999H76.57c-0.988,3.079-2.5,5.931-4.444,8.45h5.653c11.828,0,21.45-9.622,21.45-21.449
		C99.229,39.159,90.566,29.923,79.577,29.007z"/>
	<path d="M74.404,55.007c0-1.263-0.716-2.415-1.846-2.978c-1.13-0.562-2.481-0.436-3.488,0.325
		c-4.897,3.702-10.832,6.119-17.289,6.75v-3.487c0-1.503-0.848-2.872-2.19-3.543c-1.343-0.668-2.949-0.521-4.147,0.382
		L27.438,66.043c-0.991,0.744-1.573,1.914-1.573,3.155c0,1.24,0.583,2.41,1.571,3.157l18.008,13.594
		c1.198,0.907,2.804,1.055,4.147,0.387c1.343-0.668,2.19-2.041,2.19-3.542v-3.738c0.006,0,0.012-0.001,0.018-0.001
		c12.704-0.773,22.604-11.318,22.604-24.046V55.007z"/>
</g>
</svg>
