<?xml version="1.0" encoding="utf-8"?>
<!-- Generator: Adobe Illustrator 16.0.0, SVG Export Plug-In . SVG Version: 6.00 Build 0)  -->
<!DOCTYPE svg PUBLIC "-//W3C//DTD SVG 1.1//EN" "http://www.w3.org/Graphics/SVG/1.1/DTD/svg11.dtd">
<svg version="1.1" id="Layer_1" xmlns="http://www.w3.org/2000/svg" xmlns:xlink="http://www.w3.org/1999/xlink" x="0px" y="0px"
	 width="100px" height="100px" viewBox="0 0 100 100" enable-background="new 0 0 100 100" xml:space="preserve">
<g>
	<path d="M26.795,51.639c-1.073,0.224-1.869,1.127-1.869,2.224v31.988c0,0.667,0.294,1.3,0.805,1.729
		c0.51,0.429,1.184,0.61,1.842,0.495l3.402-0.594c6.028-1.054,12.206-0.776,18.119,0.772V51.682
		C43.181,50.132,36.274,49.665,26.795,51.639z"/>
	<path d="M73.575,51.639c-9.479-1.974-16.386-1.507-22.299,0.043v36.571c5.913-1.549,12.091-1.826,18.119-0.772l3.402,0.594
		c0.658,0.115,1.332-0.066,1.842-0.495c0.511-0.429,0.805-1.062,0.805-1.729V53.862C75.444,52.766,74.648,51.862,73.575,51.639z"/>
	<path d="M79.477,25.781c-0.545-0.039-1.047-0.318-1.366-0.762c-4.003-5.553-10.525-8.988-17.469-8.988
		c-0.504,0-1.008,0.018-1.511,0.053c-0.451,0.032-0.896-0.103-1.254-0.378c-4.204-3.233-9.327-4.987-14.695-4.987
		c-9.595,0-18.096,5.623-21.968,14.108c-0.267,0.583-0.816,0.985-1.452,1.065C9.157,27.219,0.924,36.29,0.924,47.248
		c0,11.273,8.718,20.532,19.763,21.434v-8.524c-6.36-0.863-11.283-6.315-11.283-12.909c0-7.192,5.852-13.043,13.044-13.043
		c0.363,0,0.72,0.029,1.075,0.059c2.072,0.16,3.95-1.185,4.454-3.194c1.755-6.989,8.007-11.871,15.205-11.871
		c4.111,0,8.003,1.588,10.959,4.472c1.01,0.985,2.443,1.405,3.826,1.117c0.88-0.184,1.779-0.276,2.675-0.276
		c5.035,0,9.531,2.831,11.735,7.388c0.774,1.603,2.467,2.556,4.238,2.373c0.441-0.043,0.881-0.066,1.309-0.066
		c7.192,0,13.043,5.851,13.043,13.043c0,6.594-4.922,12.046-11.283,12.91v8.523c11.046-0.901,19.763-10.16,19.763-21.434
		C99.446,35.903,90.622,26.58,79.477,25.781z"/>
</g>
</svg>
