<?xml version="1.0" encoding="utf-8"?>
<!-- Generator: Adobe Illustrator 16.0.0, SVG Export Plug-In . SVG Version: 6.00 Build 0)  -->
<!DOCTYPE svg PUBLIC "-//W3C//DTD SVG 1.1//EN" "http://www.w3.org/Graphics/SVG/1.1/DTD/svg11.dtd">
<svg version="1.1" id="Layer_1" xmlns="http://www.w3.org/2000/svg" xmlns:xlink="http://www.w3.org/1999/xlink" x="0px" y="0px"
	 width="100px" height="100px" viewBox="0 0 100 100" enable-background="new 0 0 100 100" xml:space="preserve">
<g>
	<path d="M65.362,31.946h-41.06v65.439h60.899V74.477l-19.84-15.772V31.946z M37.532,79.975h-7.519v-7.523h7.519V79.975z
		 M37.532,69.558h-7.519v-7.523h7.519V69.558z M37.532,58.268h-7.519v-7.522h7.519V58.268z M37.532,46.988h-7.519v-7.52h7.519
		V46.988z M48.593,79.975h-7.521v-7.523h7.521V79.975z M48.593,69.558h-7.521v-7.523h7.521V69.558z M48.593,58.268h-7.521v-7.522
		h7.521V58.268z M48.593,46.988h-7.521v-7.52h7.521V46.988z M59.654,79.975h-7.52v-7.523h7.52V79.975z M59.654,69.558h-7.52v-7.523
		h7.52V69.558z M59.654,58.268h-7.52v-7.522h7.52V58.268z M59.654,46.988h-7.52v-7.52h7.52V46.988z"/>
	<path d="M79.568,17.654c-0.7-0.058-1.343-0.417-1.761-0.981c-4.003-5.419-10.433-8.761-17.272-8.761
		c-0.434,0-0.868,0.013-1.303,0.04c-0.581,0.036-1.153-0.138-1.618-0.488c-4.161-3.145-9.206-4.849-14.49-4.849
		c-9.462,0-17.86,5.486-21.777,13.794c-0.352,0.745-1.057,1.263-1.872,1.376C9.041,19.237,0.985,28.216,0.985,39.042
		c0,11.032,8.368,20.138,19.089,21.323v-8.544c-6.04-1.12-10.633-6.419-10.633-12.779c0-7.172,5.834-13.006,13.006-13.006
		c0.362,0,0.719,0.029,1.073,0.058c2.067,0.16,3.938-1.181,4.441-3.186c1.749-6.969,7.984-11.837,15.162-11.837
		c4.101,0,7.982,1.584,10.929,4.459c1.007,0.982,2.437,1.4,3.815,1.113c0.878-0.183,1.773-0.275,2.667-0.275
		c5.021,0,9.505,2.823,11.702,7.367c0.771,1.598,2.461,2.548,4.228,2.367c0.439-0.044,0.878-0.066,1.305-0.066
		c7.172,0,13.006,5.834,13.006,13.006c0,7.171-5.834,13.006-13.006,13.006h-8.179v4.616l4.829,3.84h3.35
		c11.834,0,21.462-9.628,21.462-21.462C99.231,27.813,90.564,18.57,79.568,17.654z"/>
</g>
</svg>
