<?xml version="1.0" encoding="utf-8"?>
<!-- Generator: Adobe Illustrator 16.0.0, SVG Export Plug-In . SVG Version: 6.00 Build 0)  -->
<!DOCTYPE svg PUBLIC "-//W3C//DTD SVG 1.1//EN" "http://www.w3.org/Graphics/SVG/1.1/DTD/svg11.dtd">
<svg version="1.1" id="Layer_1" xmlns="http://www.w3.org/2000/svg" xmlns:xlink="http://www.w3.org/1999/xlink" x="0px" y="0px"
	 width="100px" height="100px" viewBox="0 0 100 100" enable-background="new 0 0 100 100" xml:space="preserve">
<g>
	<path d="M67.982,41.878H31.82c-3.452,0-6.249,2.798-6.249,6.249v33.848c0,3.451,2.797,6.249,6.249,6.249h36.162
		c3.452,0,6.249-2.798,6.249-6.249V48.127C74.231,44.676,71.434,41.878,67.982,41.878z M62.748,45.694
		c1.669,0,3.021,1.353,3.021,3.022c0,1.669-1.353,3.021-3.021,3.021c-1.67,0-3.023-1.353-3.023-3.021
		C59.725,47.047,61.078,45.694,62.748,45.694z M37.055,45.694c1.669,0,3.023,1.353,3.023,3.022c0,1.669-1.354,3.021-3.023,3.021
		s-3.021-1.353-3.021-3.021C34.034,47.047,35.386,45.694,37.055,45.694z M67.731,79.993c0,0.956-0.775,1.731-1.731,1.731H33.802
		c-0.956,0-1.731-0.775-1.731-1.731V57.421c0-0.956,0.775-1.73,1.731-1.73H66c0.956,0,1.731,0.774,1.731,1.73V79.993z"/>
	<polygon points="43.188,62.976 51.904,62.976 51.904,63.035 44.066,78.331 48.775,78.331 56.614,62.099 56.614,59.319 
		43.188,59.319 	"/>
	<path d="M79.183,20.871c-0.545-0.039-1.046-0.318-1.366-0.762c-4.001-5.552-10.521-8.986-17.462-8.986
		c-0.503,0-1.007,0.019-1.51,0.054c-0.45,0.031-0.895-0.104-1.253-0.378c-4.204-3.232-9.326-4.986-14.692-4.986
		c-9.59,0-18.089,5.621-21.959,14.104c-0.266,0.583-0.815,0.985-1.451,1.065C8.886,22.308,0.656,31.377,0.656,42.331
		c0,11.58,9.203,21.026,20.677,21.473v-8.477c-6.799-0.436-12.2-6.091-12.2-12.996c0-7.189,5.849-13.039,13.039-13.039
		c0.363,0,0.72,0.028,1.076,0.058c2.072,0.161,3.948-1.184,4.452-3.193c1.753-6.986,8.004-11.867,15.2-11.867
		c4.111,0,8.002,1.589,10.956,4.472c1.01,0.984,2.443,1.404,3.825,1.116c0.879-0.184,1.779-0.277,2.674-0.277
		c5.034,0,9.529,2.831,11.731,7.387c0.774,1.602,2.466,2.554,4.237,2.372c0.441-0.044,0.88-0.066,1.308-0.066
		c7.189,0,13.039,5.85,13.039,13.039c0,6.905-5.401,12.561-12.2,12.996v8.477c11.474-0.446,20.677-9.893,20.677-21.473
		C99.146,30.989,90.325,21.67,79.183,20.871z"/>
</g>
</svg>
