<?xml version="1.0" encoding="utf-8"?>
<!-- Generator: Adobe Illustrator 16.0.0, SVG Export Plug-In . SVG Version: 6.00 Build 0)  -->
<!DOCTYPE svg PUBLIC "-//W3C//DTD SVG 1.1//EN" "http://www.w3.org/Graphics/SVG/1.1/DTD/svg11.dtd">
<svg version="1.1" id="Layer_1" xmlns="http://www.w3.org/2000/svg" xmlns:xlink="http://www.w3.org/1999/xlink" x="0px" y="0px"
	 width="100px" height="100px" viewBox="0 0 100 100" enable-background="new 0 0 100 100" xml:space="preserve">
<g>
	<path d="M32.085,55.106H11.736c-1.462,0-2.645,1.184-2.645,2.644v38.742c0,1.459,1.183,2.645,2.645,2.645h20.349
		c1.461,0,2.645-1.186,2.645-2.645V57.75C34.729,56.29,33.546,55.106,32.085,55.106z M30.383,94.877H13.35V59.365h17.033V94.877z"/>
	<path d="M28.933,83.821H14.802v9.337h14.131V83.821z M27.573,91.709H16.158v-6.436h11.415V91.709z"/>
	<rect x="24.858" y="86.362" width="1.356" height="4.257"/>
	<rect x="22.592" y="86.362" width="1.447" height="4.257"/>
	<path d="M18.994,90.724c1.257,0,2.28-1.024,2.28-2.281s-1.023-2.28-2.28-2.28s-2.279,1.023-2.279,2.28S17.737,90.724,18.994,90.724
		z M18.994,87.584c0.473,0,0.86,0.386,0.86,0.858c0,0.475-0.388,0.859-0.86,0.859s-0.859-0.385-0.859-0.859
		C18.135,87.97,18.521,87.584,18.994,87.584z"/>
	<path d="M28.933,72.498H14.802v9.332h14.131V72.498z M27.573,80.383H16.158v-6.523h11.415V80.383z"/>
	<rect x="24.858" y="74.947" width="1.356" height="4.255"/>
	<rect x="22.592" y="74.947" width="1.447" height="4.255"/>
	<path d="M18.994,79.35c1.257,0,2.28-1.023,2.28-2.281c0-1.259-1.023-2.282-2.28-2.282s-2.279,1.023-2.279,2.282
		C16.715,78.326,17.737,79.35,18.994,79.35z M18.994,76.21c0.473,0,0.86,0.388,0.86,0.858c0,0.475-0.388,0.859-0.86,0.859
		s-0.859-0.385-0.859-0.859C18.135,76.598,18.521,76.21,18.994,76.21z"/>
	<path d="M28.933,61.084H14.802v9.332h14.131V61.084z M27.573,68.968H16.158v-6.523h11.415V68.968z"/>
	<rect x="24.858" y="63.532" width="1.356" height="4.256"/>
	<rect x="22.592" y="63.532" width="1.447" height="4.256"/>
	<path d="M18.994,67.936c1.257,0,2.28-1.021,2.28-2.282c0-1.256-1.023-2.28-2.28-2.28s-2.279,1.024-2.279,2.28
		C16.715,66.914,17.737,67.936,18.994,67.936z M18.994,64.796c0.473,0,0.86,0.387,0.86,0.857c0,0.474-0.388,0.858-0.86,0.858
		s-0.859-0.385-0.859-0.858C18.135,65.183,18.521,64.796,18.994,64.796z"/>
	<path d="M60.956,55.106H40.607c-1.462,0-2.645,1.184-2.645,2.644v38.742c0,1.459,1.183,2.645,2.645,2.645h20.349
		c1.461,0,2.645-1.186,2.645-2.645V57.75C63.601,56.29,62.417,55.106,60.956,55.106z M59.254,94.877H42.221V59.365h17.033V94.877z"
		/>
	<path d="M57.804,83.821H43.673v9.337h14.131V83.821z M56.444,91.709H45.029v-6.436h11.415V91.709z"/>
	<rect x="53.729" y="86.362" width="1.356" height="4.257"/>
	<rect x="51.463" y="86.362" width="1.447" height="4.257"/>
	<path d="M47.865,90.724c1.257,0,2.28-1.024,2.28-2.281s-1.023-2.28-2.28-2.28s-2.279,1.023-2.279,2.28S46.608,90.724,47.865,90.724
		z M47.865,87.584c0.473,0,0.86,0.386,0.86,0.858c0,0.475-0.388,0.859-0.86,0.859s-0.859-0.385-0.859-0.859
		C47.006,87.97,47.393,87.584,47.865,87.584z"/>
	<path d="M57.804,72.498H43.673v9.332h14.131V72.498z M56.444,80.383H45.029v-6.523h11.415V80.383z"/>
	<rect x="53.729" y="74.947" width="1.356" height="4.255"/>
	<rect x="51.463" y="74.947" width="1.447" height="4.255"/>
	<path d="M47.865,79.35c1.257,0,2.28-1.023,2.28-2.281c0-1.259-1.023-2.282-2.28-2.282s-2.279,1.023-2.279,2.282
		C45.586,78.326,46.608,79.35,47.865,79.35z M47.865,76.21c0.473,0,0.86,0.388,0.86,0.858c0,0.475-0.388,0.859-0.86,0.859
		s-0.859-0.385-0.859-0.859C47.006,76.598,47.393,76.21,47.865,76.21z"/>
	<path d="M57.804,61.084H43.673v9.332h14.131V61.084z M56.444,68.968H45.029v-6.523h11.415V68.968z"/>
	<rect x="53.729" y="63.532" width="1.356" height="4.256"/>
	<rect x="51.463" y="63.532" width="1.447" height="4.256"/>
	<path d="M47.865,67.936c1.257,0,2.28-1.021,2.28-2.282c0-1.256-1.023-2.28-2.28-2.28s-2.279,1.024-2.279,2.28
		C45.586,66.914,46.608,67.936,47.865,67.936z M47.865,64.796c0.473,0,0.86,0.387,0.86,0.857c0,0.474-0.388,0.858-0.86,0.858
		s-0.859-0.385-0.859-0.858C47.006,65.183,47.393,64.796,47.865,64.796z"/>
	<path d="M89.827,55.106H69.479c-1.462,0-2.645,1.184-2.645,2.644v38.742c0,1.459,1.183,2.645,2.645,2.645h20.349
		c1.462,0,2.645-1.186,2.645-2.645V57.75C92.472,56.29,91.289,55.106,89.827,55.106z M88.125,94.877H71.092V59.365h17.033V94.877z"
		/>
	<path d="M86.675,83.821H72.544v9.337h14.131V83.821z M85.315,91.709H73.9v-6.436h11.415V91.709z"/>
	<rect x="82.601" y="86.362" width="1.356" height="4.257"/>
	<rect x="80.334" y="86.362" width="1.447" height="4.257"/>
	<path d="M76.736,90.724c1.257,0,2.28-1.024,2.28-2.281s-1.023-2.28-2.28-2.28s-2.279,1.023-2.279,2.28S75.479,90.724,76.736,90.724
		z M76.736,87.584c0.473,0,0.86,0.386,0.86,0.858c0,0.475-0.388,0.859-0.86,0.859s-0.859-0.385-0.859-0.859
		C75.877,87.97,76.264,87.584,76.736,87.584z"/>
	<path d="M86.675,72.498H72.544v9.332h14.131V72.498z M85.315,80.383H73.9v-6.523h11.415V80.383z"/>
	<rect x="82.601" y="74.947" width="1.356" height="4.255"/>
	<rect x="80.334" y="74.947" width="1.447" height="4.255"/>
	<path d="M76.736,79.35c1.257,0,2.28-1.023,2.28-2.281c0-1.259-1.023-2.282-2.28-2.282s-2.279,1.023-2.279,2.282
		C74.457,78.326,75.479,79.35,76.736,79.35z M76.736,76.21c0.473,0,0.86,0.388,0.86,0.858c0,0.475-0.388,0.859-0.86,0.859
		s-0.859-0.385-0.859-0.859C75.877,76.598,76.264,76.21,76.736,76.21z"/>
	<path d="M86.675,61.084H72.544v9.332h14.131V61.084z M85.315,68.968H73.9v-6.523h11.415V68.968z"/>
	<rect x="82.601" y="63.532" width="1.356" height="4.256"/>
	<rect x="80.334" y="63.532" width="1.447" height="4.256"/>
	<path d="M76.736,67.936c1.257,0,2.28-1.021,2.28-2.282c0-1.256-1.023-2.28-2.28-2.28s-2.279,1.024-2.279,2.28
		C74.457,66.914,75.479,67.936,76.736,67.936z M76.736,64.796c0.473,0,0.86,0.387,0.86,0.857c0,0.474-0.388,0.858-0.86,0.858
		s-0.859-0.385-0.859-0.858C75.877,65.183,76.264,64.796,76.736,64.796z"/>
	<path d="M53.282,52.489v-16.6l17.994,16.6h7.376l-22.08-20.368c0.204-0.61,0.319-1.261,0.319-1.939
		c0-3.374-2.735-6.109-6.109-6.109s-6.109,2.735-6.109,6.109c0,0.679,0.115,1.329,0.319,1.939l-22.08,20.368h7.376l17.994-16.6v16.6
		H53.282z"/>
	<path d="M18.696,50.937l6.674-6.157c-6.131-0.33-11.021-5.408-11.021-11.62c0-6.425,5.228-11.652,11.652-11.652
		c0.324,0,0.644,0.025,0.961,0.052c1.852,0.143,3.528-1.059,3.979-2.854C32.508,12.46,38.094,8.1,44.524,8.1
		c3.674,0,7.151,1.419,9.791,3.995c0.902,0.88,2.183,1.254,3.418,0.997c0.786-0.163,1.591-0.247,2.39-0.247
		c4.499,0,8.517,2.529,10.485,6.601c0.691,1.432,2.203,2.283,3.785,2.12c0.395-0.04,0.788-0.059,1.17-0.059
		c6.425,0,11.652,5.228,11.652,11.652c0,6.212-4.891,11.29-11.021,11.62l6.674,6.157c6.988-2.882,11.924-9.762,11.924-17.777
		c0-10.107-7.84-18.419-17.758-19.173c-0.54-0.041-1.035-0.316-1.354-0.754c-3.58-4.922-9.382-7.963-15.558-7.963
		c-0.427,0-0.854,0.015-1.281,0.043c-0.446,0.029-0.887-0.104-1.242-0.375c-3.746-2.862-8.303-4.414-13.075-4.414
		c-8.535,0-16.104,4.983-19.582,12.512c-0.267,0.576-0.81,0.975-1.438,1.057C14.076,15.32,6.772,23.403,6.772,33.159
		C6.772,41.175,11.707,48.055,18.696,50.937z"/>
</g>
</svg>
