<?xml version="1.0" encoding="utf-8"?>
<!-- Generator: Adobe Illustrator 16.0.0, SVG Export Plug-In . SVG Version: 6.00 Build 0)  -->
<!DOCTYPE svg PUBLIC "-//W3C//DTD SVG 1.1//EN" "http://www.w3.org/Graphics/SVG/1.1/DTD/svg11.dtd">
<svg version="1.1" id="Layer_1" xmlns="http://www.w3.org/2000/svg" xmlns:xlink="http://www.w3.org/1999/xlink" x="0px" y="0px"
	 width="100px" height="100px" viewBox="0 0 100 100" enable-background="new 0 0 100 100" xml:space="preserve">
<g>
	<path d="M69.328,35.377c-0.58-0.681-1.431-1.072-2.323-1.072c-0.896,0-1.745,0.391-2.323,1.072l-6.798,7.994
		c-0.377,0.445-0.463,1.068-0.218,1.601c0.242,0.526,0.774,0.863,1.356,0.863h2.537v32.921c0,2.191-1.776,3.967-3.968,3.967H33.954
		c-2.191,0-3.968-1.775-3.968-3.967v-7.058h2.537c0.583,0,1.115-0.336,1.357-0.861c0.247-0.532,0.16-1.153-0.218-1.602l-6.798-7.994
		c-0.578-0.681-1.426-1.068-2.322-1.068c-0.893,0-1.744,0.388-2.323,1.068l-6.797,7.994c-0.377,0.45-0.46,1.071-0.215,1.602
		c0.24,0.525,0.772,0.861,1.357,0.861h2.535v10.771c0,5.297,4.294,9.592,9.592,9.592h34.208c2.545,0,4.985-1.012,6.785-2.814
		c1.798-1.8,2.808-4.242,2.805-6.79l-0.043-36.62h2.539c0.582,0,1.113-0.337,1.355-0.863c0.243-0.532,0.159-1.156-0.217-1.601
		L69.328,35.377z"/>
	<path d="M11.393,72.577c-0.917-1.98-0.597-4.36,0.823-6.046l6.809-8.009c1.377-1.618,3.389-2.546,5.52-2.546
		c2.132,0,4.144,0.928,5.52,2.547l6.797,7.993c1.433,1.704,1.753,4.087,0.828,6.081c-0.684,1.484-1.978,2.581-3.506,3.046v0.176
		h3.229c5.519,0,10.008-4.489,10.008-10.007c0-5.063-3.779-9.263-8.666-9.92c-0.64-0.086-1.226-0.412-1.635-0.912
		c-1.88-2.29-4.726-3.685-7.744-3.685c-0.065,0-0.129,0-0.193,0.002c-0.542,0.011-1.067-0.151-1.511-0.461
		c-1.872-1.308-4.093-2.011-6.415-2.011c-4.201,0-7.952,2.319-9.878,5.885c-0.36,0.668-1.001,1.14-1.746,1.292
		c-4.573,0.922-8.027,4.97-8.027,9.81c0,5.519,4.49,10.008,10.008,10.008h3.292v-0.175C13.373,75.178,12.075,74.074,11.393,72.577z"
		/>
	<path d="M86.385,21.938c-0.686-0.076-1.313-0.425-1.736-0.969c-2.628-3.366-6.716-5.428-11.059-5.428
		c-0.185,0-0.368,0.003-0.551,0.01c-0.574,0.022-1.136-0.149-1.602-0.485c-2.669-1.938-5.869-2.985-9.219-2.985
		c-6.026,0-11.393,3.408-14.026,8.609c-0.366,0.723-1.053,1.229-1.852,1.366C39.739,23.188,34.7,28.952,34.7,35.871
		c0,7.729,6.288,14.015,14.016,14.015h8.65v-0.105c-1.526-0.466-2.818-1.563-3.507-3.05c-0.928-2.001-0.604-4.386,0.823-6.072
		l6.806-8c1.375-1.619,3.388-2.55,5.518-2.55c2.127,0,4.14,0.93,5.519,2.549l6.798,7.997c1.427,1.684,1.753,4.063,0.835,6.064
		c-0.689,1.494-1.982,2.594-3.508,3.061v0.106h8.197c7.729,0,14.016-6.288,14.016-14.015C98.861,28.662,93.393,22.708,86.385,21.938
		z"/>
</g>
</svg>
