<?xml version="1.0" encoding="utf-8"?>
<!-- Generator: Adobe Illustrator 16.0.0, SVG Export Plug-In . SVG Version: 6.00 Build 0)  -->
<!DOCTYPE svg PUBLIC "-//W3C//DTD SVG 1.1//EN" "http://www.w3.org/Graphics/SVG/1.1/DTD/svg11.dtd">
<svg version="1.1" id="Layer_1" xmlns="http://www.w3.org/2000/svg" xmlns:xlink="http://www.w3.org/1999/xlink" x="0px" y="0px"
	 width="100px" height="100px" viewBox="0 0 100 100" enable-background="new 0 0 100 100" xml:space="preserve">
<g>
	<path d="M73.011,37.819h-45.58c-2.938,0-5.315,2.223-5.315,5.163v35.566c0,2.949,2.377,5.452,5.315,5.452h18.83v5.888h-6.992
		c-2.675,0-4.978,2.171-4.978,4.84v3.136h31.906v-3.136c0-2.668-2.053-4.84-4.721-4.84h-7.243V84h18.777
		c2.939,0,5.368-2.502,5.368-5.452V42.982C78.379,40.042,75.95,37.819,73.011,37.819z M70.395,76.025H30.013V45.796h40.382V76.025z"
		/>
	<path d="M80.004,16.599c-0.701-0.058-1.345-0.417-1.762-0.982c-4.045-5.481-10.544-8.862-17.46-8.862
		c-0.441,0-0.884,0.014-1.324,0.041c-0.581,0.036-1.154-0.138-1.618-0.489c-4.208-3.181-9.309-4.905-14.651-4.905
		c-9.566,0-18.056,5.549-22.012,13.95c-0.352,0.746-1.057,1.264-1.874,1.377C8.755,18.192,0.607,27.269,0.607,38.211
		c0,10.433,7.406,19.164,17.235,21.224v-8.875c-5.059-1.83-8.69-6.667-8.69-12.35c0-7.247,5.896-13.143,13.143-13.143
		c0.366,0,0.727,0.029,1.085,0.058c2.088,0.162,3.979-1.193,4.488-3.219c1.766-7.042,8.067-11.962,15.32-11.962
		c4.144,0,8.065,1.601,11.044,4.507c1.018,0.992,2.461,1.415,3.854,1.125c0.887-0.185,1.794-0.279,2.695-0.279
		c5.075,0,9.605,2.853,11.826,7.444c0.78,1.615,2.485,2.575,4.271,2.392c0.444-0.044,0.889-0.067,1.318-0.067
		c7.247,0,13.144,5.896,13.144,13.143c0,5.682-3.631,10.519-8.69,12.35v8.874c9.83-2.06,17.235-10.792,17.235-21.224
		C99.886,26.862,91.121,17.52,80.004,16.599z"/>
</g>
</svg>
