<?xml version="1.0" encoding="utf-8"?>
<!-- Generator: Adobe Illustrator 16.0.0, SVG Export Plug-In . SVG Version: 6.00 Build 0)  -->
<!DOCTYPE svg PUBLIC "-//W3C//DTD SVG 1.1//EN" "http://www.w3.org/Graphics/SVG/1.1/DTD/svg11.dtd">
<svg version="1.1" id="Layer_1" xmlns="http://www.w3.org/2000/svg" xmlns:xlink="http://www.w3.org/1999/xlink" x="0px" y="0px"
	 width="100px" height="100px" viewBox="0 0 100 100" enable-background="new 0 0 100 100" xml:space="preserve">
<g>
	<path d="M83.245,60.597c-3.013-4.561-8.189-7.411-13.716-7.411c-0.271,0-0.543,0.007-0.813,0.021
		c-0.564,0.028-1.118-0.139-1.573-0.476c-3.157-2.336-6.963-3.6-10.945-3.6c-7.152,0-13.511,4.094-16.558,10.316
		c-0.351,0.717-1.029,1.216-1.817,1.338c-7.858,1.227-13.892,8.041-13.892,16.237c0,9.062,7.373,16.434,16.435,16.434h42.36
		c9.062,0,16.434-7.372,16.434-16.434C99.159,68.135,92.067,60.873,83.245,60.597z M82.726,86.981h-42.36
		c-5.491,0-9.96-4.468-9.96-9.959c0-5.492,4.469-9.959,9.96-9.959c0.277,0,0.551,0.022,0.821,0.044
		c1.582,0.123,3.016-0.903,3.401-2.438c1.339-5.337,6.113-9.064,11.609-9.064c3.14,0,6.111,1.212,8.367,3.415
		c0.772,0.753,1.866,1.071,2.923,0.853c0.671-0.14,1.358-0.211,2.042-0.211c3.845,0,7.278,2.161,8.961,5.641
		c0.591,1.224,1.883,1.952,3.236,1.813c0.337-0.033,0.673-0.051,0.999-0.051c5.491,0,9.959,4.467,9.959,9.959
		C92.685,82.514,88.217,86.981,82.726,86.981z"/>
	<path d="M35.746,57.311c0.496-0.117,0.923-0.435,1.178-0.877c3.39-5.896,9.266-9.884,15.994-10.872
		c-2.019-0.875-4.218-1.358-6.479-1.358c-0.271,0-0.543,0.007-0.815,0.021c-0.563,0.028-1.116-0.14-1.57-0.476
		c-3.158-2.337-6.964-3.601-10.946-3.601c-7.152,0-13.511,4.094-16.558,10.316c-0.351,0.716-1.029,1.216-1.817,1.338
		C6.874,53.028,0.841,59.843,0.841,68.039c0,9.063,7.373,16.434,16.435,16.434h4.282c-0.919-2.309-1.439-4.818-1.439-7.45
		C20.118,67.552,26.771,59.423,35.746,57.311z"/>
	<rect x="15.514" y="30.182" width="6" height="8"/>
	<circle cx="18.515" cy="18.771" r="7.644"/>
	<rect x="30.042" y="15.771" width="8" height="6"/>
	<rect x="46.042" y="15.771" width="8" height="6"/>
	<rect x="78.486" y="46.182" width="6" height="8"/>
	<rect x="78.486" y="30.182" width="6" height="8"/>
	<circle cx="81.485" cy="18.771" r="7.644"/>
	<rect x="61.958" y="15.771" width="8" height="6"/>
</g>
</svg>
