<?xml version="1.0" encoding="utf-8"?>
<!-- Generator: Adobe Illustrator 16.0.0, SVG Export Plug-In . SVG Version: 6.00 Build 0)  -->
<!DOCTYPE svg PUBLIC "-//W3C//DTD SVG 1.1//EN" "http://www.w3.org/Graphics/SVG/1.1/DTD/svg11.dtd">
<svg version="1.1" id="Layer_1" xmlns="http://www.w3.org/2000/svg" xmlns:xlink="http://www.w3.org/1999/xlink" x="0px" y="0px"
	 width="100px" height="100px" viewBox="0 0 100 100" enable-background="new 0 0 100 100" xml:space="preserve">
<g>
	<path d="M36.962,82.509c-1.521-2.301-4.133-3.739-6.922-3.739c-0.284,0-0.569,0.014-0.852,0.043
		c-1.659-1.354-3.716-2.091-5.877-2.091c-3.834,0-7.217,2.331-8.624,5.807c-4.278,0.325-7.659,3.91-7.659,8.271
		c0,4.572,3.72,8.293,8.293,8.293h21.378c4.574,0,8.294-3.721,8.294-8.293C44.993,86.313,41.415,82.648,36.962,82.509z"/>
	<path d="M84.941,82.509c-1.522-2.301-4.134-3.739-6.923-3.739c-0.284,0-0.568,0.014-0.852,0.043
		c-1.659-1.354-3.716-2.091-5.876-2.091c-3.835,0-7.217,2.331-8.625,5.807c-4.278,0.325-7.659,3.91-7.659,8.271
		c0,4.572,3.72,8.293,8.294,8.293h21.378c4.573,0,8.293-3.721,8.293-8.293C92.972,86.313,89.393,82.648,84.941,82.509z"/>
	<path d="M66.998,73.825c0.469,0,0.945-0.107,1.392-0.335c1.518-0.77,2.124-2.624,1.354-4.142L55.657,41.592
		c0.755-1.103,1.199-2.435,1.199-3.871c0-3.786-3.07-6.855-6.856-6.855c-3.787,0-6.856,3.069-6.856,6.855
		c0,1.437,0.443,2.769,1.199,3.871L30.257,69.349c-0.77,1.518-0.164,3.372,1.354,4.142c0.447,0.228,0.923,0.335,1.392,0.335
		c1.124,0,2.207-0.617,2.75-1.688l13.993-27.573c0.085,0.003,0.169,0.013,0.255,0.013c0.085,0,0.169-0.01,0.254-0.013l13.993,27.573
		C64.79,73.208,65.874,73.825,66.998,73.825z"/>
	<path d="M23.121,57.162h8.713l4.169-8.218H23.121c-6.969,0-12.639-5.669-12.639-12.638c0-6.97,5.67-12.639,12.639-12.639
		c0.352,0,0.698,0.028,1.042,0.057c2.008,0.154,3.827-1.147,4.315-3.096c1.7-6.772,7.759-11.503,14.733-11.503
		c3.985,0,7.756,1.539,10.62,4.333c0.979,0.955,2.368,1.36,3.708,1.082c0.853-0.177,1.725-0.268,2.592-0.268
		c4.879,0,9.237,2.742,11.372,7.158c0.75,1.553,2.391,2.478,4.107,2.301c0.427-0.043,0.854-0.064,1.268-0.064
		c6.969,0,12.639,5.669,12.639,12.639c0,6.969-5.669,12.638-12.639,12.638H63.996l4.17,8.218h8.713
		c11.5,0,20.855-9.356,20.855-20.855c0-10.985-8.538-20.015-19.327-20.801c-0.543-0.039-1.043-0.317-1.363-0.76
		c-3.88-5.368-10.192-8.689-16.913-8.689c-0.481,0-0.963,0.017-1.444,0.05c-0.449,0.031-0.893-0.103-1.25-0.377
		c-4.072-3.125-9.03-4.82-14.225-4.82c-9.286,0-17.516,5.437-21.274,13.644c-0.266,0.582-0.814,0.983-1.448,1.063
		C10.228,16.913,2.265,25.698,2.265,36.307C2.265,47.806,11.621,57.162,23.121,57.162z"/>
</g>
</svg>
