<?xml version="1.0" encoding="utf-8"?>
<!-- Generator: Adobe Illustrator 16.0.0, SVG Export Plug-In . SVG Version: 6.00 Build 0)  -->
<!DOCTYPE svg PUBLIC "-//W3C//DTD SVG 1.1//EN" "http://www.w3.org/Graphics/SVG/1.1/DTD/svg11.dtd">
<svg version="1.1" id="Layer_1" xmlns="http://www.w3.org/2000/svg" xmlns:xlink="http://www.w3.org/1999/xlink" x="0px" y="0px"
	 width="100px" height="100px" viewBox="0 0 100 100" enable-background="new 0 0 100 100" xml:space="preserve">
<g>
	<path d="M48.09,71.776h-3.857V46.099c0-1.934-1.567-3.5-3.497-3.5h-9.544c-1.932,0-3.498,1.566-3.498,3.5v25.677h-3.858
		c-0.885,0-1.691,0.515-2.062,1.316c-0.374,0.807-0.243,1.752,0.329,2.43l10.328,12.146c0.882,1.036,2.174,1.629,3.533,1.629
		s2.65-0.594,3.532-1.629l10.327-12.146c0.572-0.678,0.704-1.624,0.33-2.43C49.782,72.291,48.977,71.776,48.09,71.776z"/>
	<path d="M68.295,44.23c-0.882-1.036-2.173-1.631-3.532-1.631c-1.359,0-2.651,0.595-3.532,1.631L50.903,56.373
		c-0.571,0.678-0.702,1.624-0.329,2.43c0.371,0.803,1.177,1.317,2.063,1.317h3.857v25.677c0,1.937,1.566,3.503,3.497,3.503h9.544
		c1.931,0,3.497-1.566,3.497-3.503V60.119h3.857c0.885,0,1.692-0.514,2.062-1.317c0.374-0.806,0.243-1.751-0.329-2.43L68.295,44.23z
		"/>
	<path d="M79.921,20.102c-0.7-0.058-1.343-0.417-1.761-0.982c-4.017-5.438-10.469-8.792-17.333-8.792
		c-0.437,0-0.874,0.013-1.311,0.04c-0.582,0.035-1.154-0.138-1.618-0.489c-4.177-3.157-9.241-4.868-14.544-4.868
		c-9.496,0-17.924,5.507-21.854,13.847c-0.352,0.746-1.057,1.263-1.873,1.376C9.157,21.689,1.07,30.7,1.07,41.564
		c0,11.876,9.662,21.538,21.537,21.538h0.939V46.099c0-4.216,3.43-7.647,7.646-7.647h9.544c4.215,0,7.645,3.431,7.645,7.647v6.838
		l9.693-11.395c1.67-1.964,4.109-3.091,6.69-3.091c2.579,0,5.018,1.126,6.689,3.089l10.33,12.145
		c1.618,1.918,1.979,4.606,0.931,6.862c-0.438,0.95-1.106,1.749-1.911,2.368c10.611-1.327,18.854-10.386,18.854-21.352
		C99.657,30.297,90.957,21.02,79.921,20.102z"/>
</g>
</svg>
