<?xml version="1.0" encoding="utf-8"?>
<!-- Generator: Adobe Illustrator 16.0.0, SVG Export Plug-In . SVG Version: 6.00 Build 0)  -->
<!DOCTYPE svg PUBLIC "-//W3C//DTD SVG 1.1//EN" "http://www.w3.org/Graphics/SVG/1.1/DTD/svg11.dtd">
<svg version="1.1" id="Layer_1" xmlns="http://www.w3.org/2000/svg" xmlns:xlink="http://www.w3.org/1999/xlink" x="0px" y="0px"
	 width="100px" height="100px" viewBox="0 0 100 100" enable-background="new 0 0 100 100" xml:space="preserve">
<g>
	<path d="M16.34,15.876h3.27v21.756c0,1.644,1.327,2.968,2.962,2.968h8.09c1.634,0,2.962-1.324,2.962-2.968V15.876h3.27
		c0.749,0,1.432-0.437,1.748-1.116c0.316-0.686,0.206-1.483-0.279-2.059L29.61,2.412c-0.749-0.879-1.843-1.382-2.992-1.382
		c-1.152,0-2.247,0.503-2.993,1.382l-8.754,10.29c-0.482,0.576-0.596,1.373-0.279,2.059C14.904,15.439,15.59,15.876,16.34,15.876z"
		/>
	<path d="M36.183,30.157h31.983v1.922h10.551v-5.644c0-3.881-3.211-6.823-7.098-6.823H36.183V30.157z"/>
	<path d="M68.166,70.107H14.794V30.157h1.826V19.611h-5.236c-3.884,0-7.027,2.942-7.027,6.823V73.44
		c0,3.898,3.144,7.204,7.027,7.204h24.885v7.78h-9.24c-3.533,0-6.581,2.87-6.581,6.398v4.146h42.168v-4.146
		c0-3.528-2.71-6.398-6.237-6.398h-9.574v-7.78h24.814c3.887,0,7.098-3.306,7.098-7.204v-5.26H68.166V70.107z"/>
</g>
<g>
	<path d="M88.419,64.372l-9.646-6.849c-0.318-0.228-0.756-0.177-1.017,0.111l-2.588,2.882c-0.365,0.405-0.885,0.638-1.431,0.638
		s-1.066-0.232-1.43-0.64l-2.586-2.88c-0.261-0.29-0.699-0.339-1.017-0.111l-9.493,6.74c-0.193,0.137-0.276,0.384-0.204,0.609
		c0.073,0.227,0.282,0.379,0.52,0.379l28.608,0.003c0.212,0,0.399-0.14,0.463-0.34S88.591,64.492,88.419,64.372z"/>
	<path d="M94.511,39.728c-0.297-0.114-0.633-0.033-0.847,0.204L81.836,53.096c-0.146,0.163-0.216,0.381-0.192,0.6
		c0.024,0.217,0.14,0.413,0.319,0.542l11.826,8.396c0.234,0.166,0.542,0.188,0.797,0.056c0.256-0.132,0.417-0.395,0.417-0.684
		l0.002-21.561C95.005,40.127,94.809,39.841,94.511,39.728z"/>
	<path d="M73.167,54.7c0.146,0.162,0.354,0.254,0.572,0.254c0.218,0,0.426-0.092,0.572-0.254l16.5-18.364
		c0.203-0.226,0.254-0.55,0.13-0.828c-0.124-0.276-0.398-0.455-0.702-0.455L57.24,35.052c-0.303,0-0.579,0.179-0.702,0.456
		s-0.072,0.601,0.13,0.827L73.167,54.7z"/>
	<path d="M65.835,53.695c0.024-0.219-0.045-0.437-0.192-0.6L53.814,39.932c-0.213-0.238-0.55-0.318-0.847-0.204
		c-0.297,0.114-0.494,0.399-0.494,0.717l0,21.565c0,0.287,0.16,0.552,0.417,0.682c0.254,0.133,0.563,0.111,0.797-0.055l11.83-8.399
		C65.695,54.11,65.811,53.912,65.835,53.695z"/>
</g>
</svg>
