<?xml version="1.0" encoding="utf-8"?>
<!-- Generator: Adobe Illustrator 16.0.0, SVG Export Plug-In . SVG Version: 6.00 Build 0)  -->
<!DOCTYPE svg PUBLIC "-//W3C//DTD SVG 1.1//EN" "http://www.w3.org/Graphics/SVG/1.1/DTD/svg11.dtd">
<svg version="1.1" id="Layer_1" xmlns="http://www.w3.org/2000/svg" xmlns:xlink="http://www.w3.org/1999/xlink" x="0px" y="0px"
	 width="100px" height="100px" viewBox="0 0 100 100" enable-background="new 0 0 100 100" xml:space="preserve">
<g>
	<path d="M67.216,37.848c-0.063,0.043-6.377,4.433-15.368,4.433c-9.124,0-15.076-4.311-15.178-4.386
		c-1.462-1.095-3.531-0.806-4.635,0.65c-1.105,1.461-0.818,3.54,0.643,4.646c0.308,0.233,7.688,5.723,19.17,5.723
		c11.208,0,18.907-5.441,19.229-5.674c1.482-1.066,1.819-3.126,0.759-4.614C70.776,37.139,68.707,36.792,67.216,37.848z"/>
	<path d="M37.47,29.997c-0.99,1.54-0.544,3.592,0.997,4.582c4.196,2.695,8.743,4.043,13.331,4.043c4.567,0,9.174-1.338,13.505-4.011
		c1.559-0.963,2.042-3.007,1.08-4.564c-0.963-1.561-3.007-2.042-4.564-1.08C55.301,32.99,48.282,33,42.053,28.998
		C40.512,28.009,38.46,28.455,37.47,29.997z"/>
	<path d="M51.75,28.587c3.093,0,6.234-0.888,9.399-2.664c1.599-0.896,2.167-2.917,1.271-4.515c-0.896-1.598-2.918-2.166-4.516-1.27
		c-4.297,2.408-7.971,2.43-11.906,0.065c-1.57-0.941-3.607-0.434-4.551,1.138c-0.942,1.569-0.434,3.607,1.137,4.55
		C45.577,27.688,48.64,28.587,51.75,28.587z"/>
	<path d="M68.2,9.099c-2.262-3.424-6.148-5.563-10.299-5.563c-0.202,0-0.405,0.005-0.607,0.015
		c-0.427,0.021-0.845-0.105-1.188-0.359c-2.369-1.753-5.226-2.701-8.214-2.701c-5.367,0-10.139,3.071-12.428,7.74
		c-0.265,0.541-0.777,0.918-1.373,1.012c-5.897,0.923-10.424,6.038-10.424,12.189c0,6.42,4.929,11.702,11.198,12.28
		c-0.553-1.556-0.439-3.323,0.454-4.839c-3.802-0.348-6.791-3.551-6.791-7.441c0-4.122,3.354-7.477,7.477-7.477
		c0.209,0,0.414,0.016,0.617,0.032c1.188,0.094,2.265-0.679,2.553-1.831c1.007-4.007,4.59-6.805,8.717-6.805
		c2.357,0,4.589,0.91,6.283,2.563c0.578,0.564,1.4,0.806,2.192,0.641c0.505-0.105,1.021-0.159,1.533-0.159
		c2.887,0,5.465,1.624,6.728,4.236c0.445,0.918,1.415,1.465,2.431,1.36c0.253-0.025,0.505-0.038,0.75-0.038
		c4.123,0,7.477,3.354,7.477,7.477c0,3.889-2.983,7.091-6.782,7.441c0.896,1.52,1.004,3.287,0.449,4.839
		c6.269-0.58,11.194-5.864,11.194-12.28C80.147,14.759,74.823,9.307,68.2,9.099z"/>
</g>
<g>
	<path d="M31.669,60.866c2.617-0.065,4.718-2.199,4.718-4.829c0-2.631-2.101-4.767-4.718-4.831c-2.616,0.064-4.717,2.2-4.717,4.831
		C26.952,58.667,29.053,60.801,31.669,60.866z"/>
	<path d="M35.452,63.399l-3.778,5.207l-0.005-0.005l-0.004,0.005l-3.778-5.207c-2.265,1.557-5.525,5.565-5.495,15.613
		c0.004,1.082,0.879,1.983,1.961,1.983h0.003c1.083,0,1.972-0.912,1.967-1.993c-0.009-2.928,0.083-5.212,0.749-6.96v6.325
		c0,0.912,0.334,1.762,0.665,2.492v15.869c0,1.082,0.916,1.96,1.997,1.96c0.922,0,1.719-0.64,1.936-1.497
		c0.218,0.857,1.015,1.497,1.937,1.497c1.082,0,1.997-0.878,1.997-1.96V80.86c0.332-0.73,0.665-1.58,0.665-2.492v-6.325
		c0.666,1.748,0.758,4.032,0.749,6.96c-0.004,1.081,0.884,1.993,1.967,1.993h0.003c1.082,0,1.958-0.901,1.962-1.983
		C40.978,68.965,37.717,64.956,35.452,63.399z"/>
	<path d="M33.852,61.379l-1.019,0.435c-0.263-0.36-0.685-0.597-1.164-0.597c-0.479,0-0.9,0.236-1.162,0.597l-1.02-0.435
		c-0.163-0.073-0.37-0.055-0.521,0.044c-0.153,0.102-0.257,0.271-0.257,0.452v1.429c0,0.174,0.095,0.334,0.233,0.437
		c0.138,0.103,0.323,0.132,0.488,0.083c0.347-0.105,0.756-0.229,1.072-0.327c0.262,0.363,0.686,0.602,1.166,0.602
		c0.482,0,0.906-0.238,1.168-0.602c0.315,0.098,0.725,0.222,1.071,0.327c0.165,0.049,0.352,0.02,0.488-0.083
		c0.139-0.103,0.234-0.263,0.234-0.437v-1.429c0-0.182-0.104-0.351-0.258-0.452C34.222,61.324,34.015,61.306,33.852,61.379z"/>
	<path d="M74.689,71.246c1.899-0.048,3.423-1.596,3.423-3.504c0-1.91-1.523-3.459-3.423-3.506c-1.898,0.047-3.422,1.596-3.422,3.506
		C71.268,69.65,72.791,71.198,74.689,71.246z"/>
	<path d="M77.886,73.307c-0.682-0.786-1.674-1.24-2.715-1.24h-0.962c-1.042,0-2.032,0.453-2.715,1.24
		c-1.636,1.887-3.553,5.502-3.536,11.105c0.002,0.785,0.638,1.439,1.423,1.439h0.002c0.785,0,1.43-0.661,1.428-1.446
		c-0.007-2.124,0.06-3.782,0.543-5.051v4.59c0,0.662,0.241,1.278,0.482,1.809v11.515c0,0.785,0.665,1.422,1.45,1.422
		c0.668,0,1.245-0.464,1.403-1.086c0.158,0.622,0.736,1.086,1.404,1.086c0.786,0,1.45-0.637,1.45-1.422V85.753
		c0.24-0.53,0.482-1.146,0.482-1.809v-4.59c0.483,1.269,0.55,2.927,0.544,5.051c-0.004,0.785,0.642,1.446,1.426,1.446h0.003
		c0.785,0,1.421-0.654,1.424-1.439C81.438,78.809,79.521,75.193,77.886,73.307z"/>
	<path d="M54.453,61.459c2.617-0.065,4.717-2.199,4.717-4.829c0-2.631-2.1-4.767-4.717-4.831c-2.616,0.064-4.717,2.2-4.717,4.831
		C49.736,59.26,51.837,61.394,54.453,61.459z"/>
	<path d="M56.827,62.897l-0.35-0.125c-1.31-0.467-2.739-0.467-4.049,0l-0.35,0.125c-1.478,0.526-2.746,1.481-3.665,2.751
		c-1.708,2.359-3.259,6.419-3.238,13.364c0.003,1.082,0.878,1.983,1.96,1.983h0.004c0.302,0,0.584-0.076,0.841-0.202l-1.81,12.016
		h4.35v3.921c0,1.082,0.916,1.959,1.997,1.959c0.921,0,1.718-0.639,1.936-1.497c0.218,0.858,1.015,1.497,1.936,1.497
		c1.083,0,1.998-0.877,1.998-1.959V92.81h4.349l-1.809-12.016c0.256,0.126,0.539,0.202,0.84,0.202h0.004
		c1.082,0,1.958-0.901,1.962-1.983c0.021-6.945-1.531-11.005-3.239-13.364C59.577,64.384,58.299,63.422,56.827,62.897z"/>
</g>
</svg>
