<?xml version="1.0" encoding="utf-8"?>
<!-- Generator: Adobe Illustrator 16.0.0, SVG Export Plug-In . SVG Version: 6.00 Build 0)  -->
<!DOCTYPE svg PUBLIC "-//W3C//DTD SVG 1.1//EN" "http://www.w3.org/Graphics/SVG/1.1/DTD/svg11.dtd">
<svg version="1.1" id="Layer_1" xmlns="http://www.w3.org/2000/svg" xmlns:xlink="http://www.w3.org/1999/xlink" x="0px" y="0px"
	 width="100px" height="100px" viewBox="0 0 100 100" enable-background="new 0 0 100 100" xml:space="preserve">
<g>
	<path d="M71.096,33.803H46.566c-1.7,0-3.335,0.676-4.54,1.88L26.577,51.13c-1.203,1.205-1.88,2.838-1.88,4.542v35.293
		c0,2.704,2.194,4.896,4.896,4.896h41.502c2.704,0,4.898-2.193,4.898-4.896V38.7C75.994,35.995,73.8,33.803,71.096,33.803z
		 M68.77,86.669c0,1.087-0.881,1.969-1.969,1.969H33.886c-1.088,0-1.969-0.882-1.969-1.969V53.011h7.917
		c2.249,0,4.071-1.823,4.071-4.071v-7.919h22.896c1.088,0,1.969,0.882,1.969,1.969V86.669z"/>
	<path d="M79.569,19.055c-0.7-0.059-1.342-0.417-1.759-0.981c-3.971-5.371-10.342-8.681-17.124-8.681
		c-0.428,0-0.856,0.013-1.285,0.039c-0.581,0.035-1.153-0.138-1.617-0.488c-4.128-3.117-9.129-4.805-14.368-4.805
		c-9.379,0-17.705,5.438-21.594,13.673c-0.352,0.744-1.056,1.261-1.871,1.375C9.61,20.63,1.626,29.533,1.626,40.266
		c0,10.943,8.304,19.976,18.938,21.149v-5.743c0-2.818,1.098-5.469,3.089-7.462L39.104,32.76c1.965-1.965,4.686-3.091,7.463-3.091
		h24.529c4.98,0,9.032,4.051,9.032,9.03v22.715c10.634-1.174,18.937-10.206,18.937-21.149
		C99.064,29.134,90.471,19.968,79.569,19.055z"/>
</g>
</svg>
