<?xml version="1.0" encoding="utf-8"?>
<!-- Generator: Adobe Illustrator 16.0.0, SVG Export Plug-In . SVG Version: 6.00 Build 0)  -->
<!DOCTYPE svg PUBLIC "-//W3C//DTD SVG 1.1//EN" "http://www.w3.org/Graphics/SVG/1.1/DTD/svg11.dtd">
<svg version="1.1" id="Layer_1" xmlns="http://www.w3.org/2000/svg" xmlns:xlink="http://www.w3.org/1999/xlink" x="0px" y="0px"
	 width="100px" height="100px" viewBox="0 0 100 100" enable-background="new 0 0 100 100" xml:space="preserve">
<g>
	<path d="M57.497,32.769H43.098c-2.335,0-4.225,1.895-4.225,4.229V95.22c0,2.334,1.89,4.226,4.225,4.226h14.399
		c2.334,0,4.228-1.891,4.228-4.226V36.998C61.725,34.664,59.832,32.769,57.497,32.769z M50.301,90.522
		c-3.384,0-6.126-2.744-6.126-6.127c0-3.378,2.743-6.123,6.126-6.123c3.378,0,6.122,2.744,6.122,6.123
		C56.423,87.778,53.68,90.522,50.301,90.522z M56.423,67.901H44.178V43.898h12.246V67.901z"/>
	<path d="M31.379,56.716c0.503,0.421,1.193,0.517,1.785,0.241c0.586-0.281,0.968-0.87,0.962-1.524L34.08,43.718
		c-0.002-1-0.447-1.943-1.206-2.588c-0.77-0.645-1.777-0.92-2.758-0.757L18.56,42.305c-0.644,0.105-1.161,0.578-1.337,1.204
		c-0.178,0.628,0.036,1.296,0.537,1.719l2.791,2.354c-3.053,4.845-4.848,10.553-4.848,16.696c0,11.762,6.626,22.006,16.216,27.422
		c0.458,0.256,1.021,0.256,1.472-0.013c0.456-0.262,0.736-0.749,0.736-1.275v-8.138c0-0.707-0.304-1.374-0.835-1.832
		c-4.529-3.939-7.542-9.714-7.542-16.165c0-3.673,0.942-7.117,2.583-10.129L31.379,56.716z"/>
	<path d="M68.519,40.518c-0.458-0.259-1.021-0.256-1.472,0.01c-0.455,0.265-0.736,0.751-0.736,1.277v8.14
		c0,0.703,0.304,1.371,0.833,1.831c4.53,3.938,7.542,9.715,7.542,16.162c0,3.673-0.941,7.117-2.583,10.129L69.059,75.5
		c-0.504-0.422-1.194-0.514-1.787-0.239c-0.585,0.277-0.967,0.87-0.96,1.521l0.046,11.717c0.002,0.997,0.447,1.942,1.206,2.587
		c0.769,0.647,1.776,0.923,2.756,0.759l11.557-1.934c0.645-0.104,1.161-0.579,1.337-1.204c0.177-0.627-0.036-1.297-0.536-1.717
		l-2.789-2.355c3.051-4.847,4.848-10.556,4.848-16.697C84.737,56.178,78.109,45.935,68.519,40.518z"/>
	<path d="M79.79,16.293c-0.7-0.058-1.343-0.417-1.761-0.982C74.01,9.869,67.555,6.512,60.688,6.512c-0.437,0-0.875,0.014-1.312,0.04
		c-0.581,0.036-1.154-0.137-1.618-0.488c-4.179-3.158-9.245-4.87-14.551-4.87c-9.5,0-17.933,5.51-21.865,13.853
		c-0.352,0.746-1.056,1.263-1.873,1.376C8.994,17.88,0.904,26.895,0.904,37.765c0,8.204,4.612,15.348,11.377,18.986
		c0.616-2.821,1.565-5.568,2.854-8.177c-3.462-2.351-5.742-6.318-5.742-10.809c0-7.2,5.857-13.058,13.057-13.058
		c0.364,0,0.721,0.029,1.077,0.058c2.075,0.161,3.954-1.186,4.458-3.198c1.756-6.997,8.016-11.884,15.221-11.884
		c4.117,0,8.014,1.59,10.972,4.477c1.011,0.986,2.446,1.406,3.831,1.118c0.88-0.184,1.782-0.277,2.678-0.277
		c5.041,0,9.542,2.834,11.748,7.396c0.775,1.604,2.47,2.559,4.243,2.376c0.441-0.044,0.882-0.066,1.31-0.066
		c7.2,0,13.057,5.857,13.057,13.058c0,5.141-2.994,9.584-7.324,11.713c1.483,2.418,2.672,5.003,3.543,7.704
		c7.244-3.476,12.27-10.861,12.27-19.417C99.535,26.491,90.831,17.211,79.79,16.293z"/>
</g>
</svg>
