<?xml version="1.0" encoding="utf-8"?>
<!-- Generator: Adobe Illustrator 16.0.0, SVG Export Plug-In . SVG Version: 6.00 Build 0)  -->
<!DOCTYPE svg PUBLIC "-//W3C//DTD SVG 1.1//EN" "http://www.w3.org/Graphics/SVG/1.1/DTD/svg11.dtd">
<svg version="1.1" id="Layer_1" xmlns="http://www.w3.org/2000/svg" xmlns:xlink="http://www.w3.org/1999/xlink" x="0px" y="0px"
	 width="100px" height="100px" viewBox="0 0 100 100" enable-background="new 0 0 100 100" xml:space="preserve">
<g>
	<path d="M79.789,33.366c-0.701-0.058-1.345-0.416-1.763-0.982c-4.047-5.484-10.55-8.868-17.471-8.868
		c-0.442,0-0.884,0.014-1.326,0.041c-0.582,0.035-1.154-0.138-1.619-0.489c-4.211-3.184-9.315-4.908-14.661-4.908
		c-9.572,0-18.068,5.554-22.026,13.96c-0.352,0.746-1.057,1.264-1.874,1.377C8.495,34.96,0.342,44.043,0.342,54.993
		c0,11.966,9.735,21.701,21.701,21.701h4.658v10.717h0.045h40.786l12.575-28.854c0.324-0.742,0.252-1.597-0.192-2.274
		c-0.443-0.678-1.199-1.086-2.009-1.086H64.677c-0.787,0-1.524,0.386-1.973,1.032l-3.112,4.484H42.653
		c-2.493,0-4.75,1.47-5.757,3.749L32.045,75.43v-7.286H22.043c-7.252,0-13.151-5.899-13.151-13.15
		c0-7.252,5.899-13.152,13.151-13.152c0.366,0,0.726,0.029,1.085,0.059c2.089,0.163,3.982-1.193,4.49-3.221
		c1.769-7.047,8.073-11.97,15.331-11.97c4.146,0,8.071,1.603,11.05,4.51c1.019,0.993,2.464,1.417,3.858,1.127
		c0.887-0.187,1.794-0.28,2.697-0.28c5.078,0,9.612,2.855,11.833,7.45c0.781,1.616,2.488,2.576,4.274,2.393
		c0.445-0.044,0.888-0.067,1.319-0.067c7.252,0,13.152,5.9,13.152,13.152c0,6.312-4.472,11.596-10.414,12.859l-3.853,8.842h1.115
		c11.966,0,21.702-9.735,21.702-21.701C99.683,43.636,90.913,34.288,79.789,33.366z"/>
	<path d="M58.31,45.171c1.771,0,3.207-1.436,3.207-3.206c0-1.771-1.436-3.207-3.207-3.207H41.714c-1.77,0-3.207,1.436-3.207,3.207
		c0,1.771,1.437,3.206,3.207,3.206H58.31z"/>
	<path d="M34.232,50.634c0,1.771,1.436,3.206,3.207,3.206h25.146c1.771,0,3.207-1.436,3.207-3.206c0-1.771-1.435-3.207-3.207-3.207
		H37.439C35.668,47.427,34.232,48.862,34.232,50.634z"/>
</g>
</svg>
