<?xml version="1.0" encoding="utf-8"?>
<!-- Generator: Adobe Illustrator 16.0.0, SVG Export Plug-In . SVG Version: 6.00 Build 0)  -->
<!DOCTYPE svg PUBLIC "-//W3C//DTD SVG 1.1//EN" "http://www.w3.org/Graphics/SVG/1.1/DTD/svg11.dtd">
<svg version="1.1" id="Layer_1" xmlns="http://www.w3.org/2000/svg" xmlns:xlink="http://www.w3.org/1999/xlink" x="0px" y="0px"
	 width="100px" height="100px" viewBox="0 0 100 100" enable-background="new 0 0 100 100" xml:space="preserve">
<g>
	<path d="M26.096,71.406c0-0.889-0.388-1.727-1.06-2.3l-7.897-6.712c-0.44-0.375-1.056-0.458-1.579-0.217
		c-0.519,0.24-0.856,0.763-0.856,1.343v2.508H5.019c-1.258,0-2.28,1.016-2.28,2.272v6.206c0,1.255,1.021,2.272,2.28,2.272h9.685
		v2.512c0,0.57,0.338,1.097,0.856,1.341c0.523,0.243,1.138,0.155,1.579-0.215l7.897-6.719
		C25.708,73.126,26.096,72.286,26.096,71.406z"/>
	<path d="M35.493,80.749c-0.44-0.375-1.056-0.458-1.578-0.217c-0.519,0.24-0.857,0.763-0.857,1.343v2.508h-9.685
		c-1.259,0-2.28,1.016-2.28,2.272v6.206c0,1.255,1.021,2.272,2.28,2.272h9.685v2.512c0,0.57,0.338,1.097,0.857,1.341
		c0.522,0.243,1.138,0.156,1.578-0.215l7.897-6.719c0.671-0.572,1.06-1.412,1.06-2.292c0-0.889-0.388-1.727-1.06-2.3L35.493,80.749z
		"/>
	<path d="M61.678,71.406c0-0.889-0.388-1.727-1.06-2.3l-7.897-6.712c-0.44-0.375-1.056-0.458-1.578-0.217
		c-0.519,0.24-0.856,0.763-0.856,1.343v2.508h-9.685c-1.259,0-2.28,1.016-2.28,2.272v6.206c0,1.255,1.021,2.272,2.28,2.272h9.685
		v2.512c0,0.57,0.338,1.097,0.856,1.341c0.522,0.243,1.138,0.155,1.578-0.215l7.897-6.719
		C61.291,73.126,61.678,72.286,61.678,71.406z"/>
	<path d="M71.076,80.749c-0.44-0.375-1.055-0.458-1.578-0.217c-0.519,0.24-0.856,0.763-0.856,1.343v2.508h-9.685
		c-1.258,0-2.28,1.016-2.28,2.272v6.206c0,1.255,1.021,2.272,2.28,2.272h9.685v2.512c0,0.57,0.338,1.097,0.856,1.341
		c0.523,0.243,1.138,0.156,1.578-0.215l7.898-6.719c0.671-0.572,1.06-1.412,1.06-2.292c0-0.889-0.388-1.727-1.06-2.3L71.076,80.749z
		"/>
	<path d="M88.304,62.395c-0.44-0.375-1.056-0.458-1.578-0.217c-0.519,0.24-0.857,0.763-0.857,1.343v2.508h-9.685
		c-1.258,0-2.28,1.016-2.28,2.272v6.206c0,1.255,1.021,2.272,2.28,2.272h9.685v2.512c0,0.57,0.338,1.097,0.857,1.341
		c0.522,0.243,1.138,0.155,1.578-0.215l7.897-6.719c0.671-0.572,1.06-1.412,1.06-2.292c0-0.889-0.388-1.727-1.06-2.3L88.304,62.395z
		"/>
	<path d="M23.06,57.256h53.879c11.525,0,20.903-9.378,20.903-20.902c0-11.011-8.56-20.061-19.373-20.847
		c-0.543-0.039-1.043-0.317-1.363-0.76c-3.889-5.382-10.215-8.711-16.952-8.711c-0.483,0-0.966,0.017-1.448,0.05
		c-0.449,0.031-0.893-0.103-1.25-0.377c-4.082-3.133-9.051-4.832-14.259-4.832c-9.306,0-17.557,5.45-21.321,13.676
		c-0.266,0.581-0.814,0.983-1.448,1.063C10.14,16.915,2.158,25.721,2.158,36.354C2.158,47.878,11.535,57.256,23.06,57.256z
		 M23.06,23.687c0.353,0,0.7,0.028,1.046,0.057c2.012,0.155,3.834-1.15,4.325-3.103c1.703-6.787,7.776-11.528,14.766-11.528
		c3.995,0,7.775,1.542,10.644,4.343c0.981,0.957,2.374,1.363,3.715,1.084c0.854-0.177,1.729-0.268,2.599-0.268
		c4.891,0,9.258,2.748,11.397,7.174c0.752,1.556,2.397,2.483,4.117,2.306c0.428-0.043,0.855-0.064,1.271-0.064
		c6.984,0,12.667,5.683,12.667,12.667c0,6.985-5.683,12.667-12.667,12.667H23.06c-6.984,0-12.667-5.682-12.667-12.667
		C10.394,29.369,16.076,23.687,23.06,23.687z"/>
</g>
</svg>
