<?xml version="1.0" encoding="utf-8"?>
<!-- Generator: Adobe Illustrator 16.0.0, SVG Export Plug-In . SVG Version: 6.00 Build 0)  -->
<!DOCTYPE svg PUBLIC "-//W3C//DTD SVG 1.1//EN" "http://www.w3.org/Graphics/SVG/1.1/DTD/svg11.dtd">
<svg version="1.1" id="Layer_1" xmlns="http://www.w3.org/2000/svg" xmlns:xlink="http://www.w3.org/1999/xlink" x="0px" y="0px"
	 width="100px" height="100px" viewBox="0 0 100 100" enable-background="new 0 0 100 100" xml:space="preserve">
<g>
	<path d="M63.075,55.611c-0.792,0-1.329,0.052-1.61,0.128v5.085c0.332,0.076,0.741,0.103,1.303,0.103
		c2.069,0,3.348-1.047,3.348-2.786C66.116,56.558,65.043,55.611,63.075,55.611z"/>
	<path d="M54.393,32.485c-2.188-2.187-5.734-2.187-7.922,0L21.594,57.362c-2.188,2.188-2.188,5.735,0,7.923L46.47,90.16
		c2.188,2.188,5.734,2.188,7.922,0l24.877-24.877c1.051-1.05,1.641-2.476,1.641-3.961c0-1.485-0.59-2.91-1.641-3.961L54.393,32.485z
		 M41.391,55.969h-6.618v3.936h6.184v3.168h-6.184v6.925h-3.884V52.775h10.502V55.969z M56.264,56.046h-4.703v13.951h-3.883V56.046
		h-4.65v-3.271h13.236V56.046z M68.415,62.101c-1.329,1.229-3.322,1.815-5.621,1.815c-0.511,0-0.971-0.025-1.329-0.103v6.184h-3.858
		V53.006c1.201-0.205,2.888-0.359,5.264-0.359c2.401,0,4.139,0.461,5.289,1.406c1.099,0.844,1.814,2.274,1.814,3.961
		C69.974,59.726,69.438,61.156,68.415,62.101z"/>
	<path d="M79.683,23.24c-0.545-0.039-1.046-0.318-1.366-0.762c-3.998-5.545-10.51-8.976-17.444-8.976
		c-0.502,0-1.005,0.018-1.507,0.053c-0.451,0.032-0.896-0.103-1.254-0.378c-4.199-3.229-9.314-4.979-14.675-4.979
		c-9.579,0-18.069,5.614-21.936,14.088c-0.266,0.583-0.816,0.985-1.452,1.065C9.459,24.675,1.238,33.734,1.238,44.677
		c0,9.697,6.46,17.908,15.301,20.574c-0.534-1.224-0.82-2.553-0.82-3.928c0-1.766,0.472-3.455,1.338-4.94
		c-4.343-2.114-7.351-6.559-7.351-11.706c0-7.182,5.843-13.024,13.025-13.024c0.363,0,0.719,0.029,1.074,0.059
		c2.069,0.159,3.943-1.183,4.447-3.19c1.752-6.979,7.996-11.854,15.184-11.854c4.107,0,7.994,1.586,10.944,4.466
		c1.009,0.984,2.44,1.401,3.821,1.114c0.878-0.182,1.777-0.275,2.671-0.275c5.028,0,9.519,2.826,11.719,7.377
		c0.773,1.6,2.464,2.553,4.233,2.371c0.44-0.045,0.879-0.066,1.307-0.066c7.182,0,13.025,5.843,13.025,13.024
		c0,5.147-3.008,9.592-7.351,11.706c0.866,1.484,1.338,3.173,1.338,4.938c0,1.376-0.287,2.706-0.821,3.931
		c8.841-2.666,15.301-10.877,15.301-20.575C99.625,33.349,90.813,24.037,79.683,23.24z"/>
</g>
</svg>
