<?xml version="1.0" encoding="utf-8"?>
<!-- Generator: Adobe Illustrator 16.0.0, SVG Export Plug-In . SVG Version: 6.00 Build 0)  -->
<!DOCTYPE svg PUBLIC "-//W3C//DTD SVG 1.1//EN" "http://www.w3.org/Graphics/SVG/1.1/DTD/svg11.dtd">
<svg version="1.1" id="Layer_1" xmlns="http://www.w3.org/2000/svg" xmlns:xlink="http://www.w3.org/1999/xlink" x="0px" y="0px"
	 width="100px" height="100px" viewBox="0 0 100 100" enable-background="new 0 0 100 100" xml:space="preserve">
<g>
	<path d="M50.155,29.384c-19.052,0-34.549,15.499-34.549,34.548c0,19.051,15.497,34.55,34.549,34.55
		c19.047,0,34.543-15.499,34.543-34.55C84.699,44.883,69.203,29.384,50.155,29.384z M28.333,81.77
		c-3.566-4.169-5.769-9.148-6.42-14.498h8.501c0.23,4.234,0.854,8.251,1.878,11.956C30.891,79.978,29.565,80.832,28.333,81.77z
		 M30.414,60.594h-8.501c0.652-5.35,2.849-10.322,6.414-14.485c1.208,0.924,2.537,1.774,3.965,2.54
		C31.268,52.35,30.634,56.358,30.414,60.594z M33.257,86.337c0.435-0.275,0.866-0.543,1.308-0.789
		c0.379,0.837,0.778,1.638,1.195,2.407C34.892,87.459,34.056,86.918,33.257,86.337z M34.571,42.307
		c-0.469-0.255-0.901-0.515-1.314-0.778c0.798-0.58,1.635-1.115,2.503-1.611C35.344,40.673,34.944,41.477,34.571,42.307z
		 M47.111,91.021c-2.537-1.244-4.887-3.99-6.774-7.905c2.164-0.648,4.437-1.081,6.774-1.281V91.021z M47.111,75.143
		c-3.171,0.224-6.204,0.79-9.06,1.692c-0.82-2.997-1.341-6.209-1.556-9.563h10.616V75.143z M47.111,60.594H36.495
		c0.215-3.346,0.736-6.556,1.55-9.564c2.862,0.896,5.9,1.467,9.065,1.693V60.594z M47.111,46.03c-2.344-0.2-4.61-0.633-6.774-1.282
		c1.887-3.925,4.237-6.664,6.774-7.908V46.03z M53.198,36.843c2.53,1.241,4.881,3.979,6.764,7.898
		c-2.162,0.648-4.427,1.085-6.764,1.281V36.843z M53.198,91.021v-9.186c2.347,0.199,4.626,0.632,6.77,1.275
		C58.085,87.035,55.732,89.78,53.198,91.021z M62.255,76.843c-2.85-0.906-5.895-1.473-9.057-1.7v-7.871h10.613
		C63.599,70.626,63.079,73.838,62.255,76.843z M53.198,60.594v-7.871c3.174-0.22,6.207-0.793,9.057-1.692
		c0.824,3.001,1.344,6.211,1.556,9.563H53.198z M64.553,87.949c0.41-0.751,0.808-1.551,1.182-2.382
		c0.466,0.259,0.897,0.518,1.306,0.772C66.243,86.919,65.416,87.459,64.553,87.949z M65.748,42.319
		c-0.385-0.837-0.779-1.643-1.195-2.401c0.863,0.496,1.69,1.031,2.5,1.611C66.62,41.804,66.182,42.068,65.748,42.319z M71.973,81.76
		c-1.211-0.931-2.537-1.782-3.958-2.541c1.023-3.702,1.648-7.713,1.869-11.947h8.511C77.741,72.616,75.539,77.594,71.973,81.76z
		 M69.883,60.594c-0.221-4.229-0.852-8.244-1.875-11.964c1.396-0.754,2.726-1.603,3.958-2.54c3.573,4.17,5.775,9.147,6.428,14.504
		H69.883z"/>
	<path d="M79.695,19.794c-0.7-0.058-1.343-0.417-1.761-0.981c-4.015-5.436-10.464-8.789-17.325-8.789
		c-0.437,0-0.874,0.013-1.31,0.04c-0.581,0.035-1.153-0.138-1.617-0.489C53.508,6.42,48.447,4.71,43.146,4.71
		c-9.491,0-17.915,5.504-21.843,13.838c-0.352,0.746-1.056,1.263-1.873,1.376C8.966,21.38,0.884,30.386,0.884,41.245
		c0,8.015,4.412,15.007,10.927,18.712c0.318-3.094,1.01-6.077,2.018-8.912c-2.729-2.392-4.464-5.894-4.464-9.8
		c0-7.193,5.852-13.044,13.045-13.044c0.363,0,0.72,0.029,1.076,0.058c2.073,0.159,3.95-1.185,4.455-3.195
		c1.754-6.99,8.008-11.872,15.206-11.872c4.113,0,8.006,1.588,10.961,4.472c1.011,0.986,2.444,1.404,3.827,1.116
		c0.88-0.182,1.78-0.275,2.675-0.275c5.036,0,9.533,2.831,11.737,7.388c0.774,1.603,2.468,2.557,4.239,2.375
		c0.441-0.044,0.881-0.066,1.309-0.066c7.193,0,13.045,5.851,13.045,13.044c0,3.906-1.734,7.408-4.463,9.8
		c1.008,2.834,1.7,5.817,2.018,8.911c6.515-3.704,10.926-10.697,10.926-18.711C99.42,29.983,90.725,20.712,79.695,19.794z"/>
</g>
</svg>
