<?xml version="1.0" encoding="utf-8"?>
<!-- Generator: Adobe Illustrator 16.0.0, SVG Export Plug-In . SVG Version: 6.00 Build 0)  -->
<!DOCTYPE svg PUBLIC "-//W3C//DTD SVG 1.1//EN" "http://www.w3.org/Graphics/SVG/1.1/DTD/svg11.dtd">
<svg version="1.1" id="Layer_1" xmlns="http://www.w3.org/2000/svg" xmlns:xlink="http://www.w3.org/1999/xlink" x="0px" y="0px"
	 width="100px" height="100px" viewBox="0 0 100 100" enable-background="new 0 0 100 100" xml:space="preserve">
<g>
	<path d="M50.001,32.363c-16.272,0-29.514,13.24-29.514,29.515c0,16.27,13.241,29.511,29.514,29.511s29.511-13.241,29.511-29.511
		C79.512,45.604,66.274,32.363,50.001,32.363z M50.001,84.844c-12.666,0-22.969-10.301-22.969-22.966
		c0-12.67,10.303-22.972,22.969-22.972c12.663,0,22.967,10.302,22.967,22.972C72.968,74.543,62.665,84.844,50.001,84.844z"/>
	<path d="M53.866,69.64l-0.717-0.487c-0.661-0.451-1.555-0.283-2.012,0.368c-0.149,0.214-0.298,0.416-0.447,0.609l3.76-13.364
		c0.136-0.479,0.016-0.995-0.316-1.367c-0.332-0.371-0.834-0.544-1.323-0.464l-7.121,1.178c-0.704,0.116-1.22,0.725-1.22,1.437
		v0.794c0,0.428,0.188,0.834,0.512,1.109c0.325,0.275,0.756,0.401,1.177,0.33c0.648-0.104,1.055-0.157,1.31-0.185
		c-0.073,0.357-0.219,0.964-0.507,1.977l-2.69,9.249c-0.388,1.342-0.569,2.275-0.569,2.941c0,0.918,0.347,1.727,1.003,2.336
		c0.627,0.582,1.448,0.889,2.375,0.889c1.183,0,2.379-0.465,3.563-1.386c1.381-1.083,2.599-2.412,3.62-3.953
		C54.704,70.984,54.527,70.088,53.866,69.64z"/>
	<path d="M50.289,47.771c-0.674,0.673-1.029,1.529-1.029,2.478c0,0.947,0.36,1.809,1.042,2.49c0.681,0.682,1.542,1.042,2.49,1.042
		c0.954,0,1.814-0.364,2.488-1.054c0.666-0.68,1.019-1.537,1.019-2.479c0-0.942-0.348-1.795-1.005-2.467
		C53.967,46.426,51.64,46.422,50.289,47.771z"/>
	<path d="M79.249,24.807c-0.7-0.059-1.342-0.417-1.759-0.981c-3.974-5.374-10.353-8.689-17.14-8.689
		c-0.429,0-0.859,0.013-1.288,0.039c-0.58,0.034-1.151-0.139-1.616-0.488c-4.131-3.119-9.137-4.81-14.379-4.81
		c-9.389,0-17.724,5.442-21.614,13.685c-0.352,0.745-1.055,1.262-1.871,1.376C9.23,26.383,1.238,35.293,1.238,46.036
		c0,9.762,6.608,17.991,15.581,20.5c-0.213-1.523-0.331-3.077-0.331-4.658c0-1.461,0.104-2.896,0.286-4.309
		c-4.228-2.123-7.142-6.488-7.142-11.533c0-7.119,5.791-12.91,12.91-12.91c0.36,0,0.713,0.028,1.066,0.058
		c2.051,0.157,3.909-1.173,4.408-3.162c1.737-6.918,7.925-11.751,15.051-11.751c4.07,0,7.923,1.572,10.847,4.427
		c1,0.976,2.419,1.39,3.788,1.104c0.871-0.181,1.761-0.272,2.648-0.272c4.984,0,9.436,2.802,11.616,7.312
		c0.767,1.586,2.443,2.531,4.196,2.351c0.437-0.044,0.872-0.065,1.295-0.065c7.119,0,12.911,5.791,12.911,12.91
		c0,5.044-2.915,9.409-7.142,11.533c0.183,1.412,0.287,2.848,0.287,4.309c0,1.581-0.118,3.135-0.331,4.658
		c8.972-2.51,15.58-10.739,15.58-20.5C98.761,34.894,90.161,25.72,79.249,24.807z"/>
</g>
</svg>
