<?xml version="1.0" encoding="utf-8"?>
<!-- Generator: Adobe Illustrator 16.0.0, SVG Export Plug-In . SVG Version: 6.00 Build 0)  -->
<!DOCTYPE svg PUBLIC "-//W3C//DTD SVG 1.1//EN" "http://www.w3.org/Graphics/SVG/1.1/DTD/svg11.dtd">
<svg version="1.1" id="Layer_1" xmlns="http://www.w3.org/2000/svg" xmlns:xlink="http://www.w3.org/1999/xlink" x="0px" y="0px"
	 width="100px" height="100px" viewBox="0 0 100 100" enable-background="new 0 0 100 100" xml:space="preserve">
<g>
	<path d="M79.414,59.217h-3.225c-0.658-2.686-1.717-5.208-3.11-7.508l2.283-2.284c1.678-1.681,1.678-4.402-0.003-6.081l-3.034-3.037
		c-0.807-0.806-1.901-1.259-3.042-1.259c-1.142,0-2.237,0.453-3.042,1.259l-2.279,2.281c-2.302-1.396-4.827-2.454-7.514-3.114
		v-3.226c0-2.375-1.925-4.299-4.301-4.299h-4.293c-2.376,0-4.303,1.925-4.303,4.299v3.226c-2.68,0.66-5.206,1.718-7.505,3.112
		l-2.283-2.283c-1.682-1.679-4.403-1.679-6.083,0l-3.035,3.035c-1.68,1.68-1.68,4.404,0,6.083l2.283,2.283
		c-1.398,2.303-2.455,4.825-3.114,7.512h-3.226c-2.376,0-4.302,1.926-4.302,4.301v4.295c0,2.375,1.925,4.301,4.302,4.301h3.226
		c0.662,2.684,1.716,5.205,3.114,7.506l-2.286,2.285c-1.682,1.68-1.682,4.404,0,6.084l3.035,3.035
		c0.805,0.806,1.899,1.259,3.042,1.259c1.14,0,2.236-0.453,3.04-1.259l2.284-2.285c2.303,1.397,4.822,2.456,7.509,3.114v3.227
		c0,2.375,1.927,4.299,4.303,4.299h4.293c2.376,0,4.301-1.925,4.301-4.299v-3.227c2.687-0.659,5.212-1.721,7.517-3.116l2.282,2.285
		c0.806,0.806,1.9,1.259,3.043,1.259c1.14,0,2.235-0.454,3.04-1.259l3.035-3.035c1.681-1.679,1.681-4.403,0-6.083l-2.286-2.285
		c1.393-2.302,2.452-4.823,3.11-7.505h3.225c2.376,0,4.301-1.925,4.301-4.301v-4.295C83.715,61.144,81.79,59.217,79.414,59.217z
		 M50.001,79.765c-7.776,0-14.097-6.326-14.097-14.101c0-7.775,6.321-14.1,14.097-14.1c7.773,0,14.095,6.325,14.095,14.1
		C64.096,73.439,57.774,79.765,50.001,79.765z"/>
	<path d="M78.391,15.098c-0.697-0.06-1.336-0.416-1.753-0.978c-3.855-5.198-10.032-8.403-16.603-8.403
		c-0.408,0-0.816,0.012-1.224,0.037c-0.579,0.034-1.148-0.138-1.611-0.487c-4.001-3.015-8.848-4.648-13.923-4.648
		c-9.092,0-17.164,5.263-20.942,13.237c-0.351,0.741-1.052,1.256-1.865,1.371C10.45,16.644,2.718,25.276,2.718,35.681
		c0,9.504,6.461,17.508,15.215,19.905c0.835-0.28,1.725-0.438,2.653-0.438h0.209c0.33-0.917,0.703-1.819,1.119-2.7l-0.148-0.149
		c-1.303-1.302-2.115-2.961-2.363-4.757c-4.959-1.666-8.547-6.349-8.547-11.861c0-6.903,5.616-12.519,12.519-12.519
		c0.349,0,0.691,0.028,1.033,0.056c1.989,0.154,3.791-1.137,4.275-3.066c1.683-6.708,7.685-11.394,14.593-11.394
		c3.947,0,7.683,1.525,10.519,4.292c0.97,0.946,2.346,1.348,3.673,1.072c0.844-0.176,1.708-0.265,2.567-0.265
		c4.833,0,9.149,2.717,11.264,7.091c0.743,1.538,2.368,2.453,4.068,2.278c0.423-0.042,0.846-0.063,1.256-0.063
		c6.903,0,12.519,5.616,12.519,12.519c0,5.513-3.587,10.196-8.547,11.861c-0.241,1.741-1.02,3.421-2.354,4.757l-0.153,0.153
		c0.416,0.881,0.788,1.78,1.117,2.696h0.208c0.928,0,1.818,0.158,2.652,0.438c8.754-2.397,15.215-10.401,15.215-19.905
		C97.281,24.885,88.958,15.998,78.391,15.098z"/>
</g>
</svg>
