<?xml version="1.0" encoding="utf-8"?>
<!-- Generator: Adobe Illustrator 16.0.0, SVG Export Plug-In . SVG Version: 6.00 Build 0)  -->
<!DOCTYPE svg PUBLIC "-//W3C//DTD SVG 1.1//EN" "http://www.w3.org/Graphics/SVG/1.1/DTD/svg11.dtd">
<svg version="1.1" id="Layer_1" xmlns="http://www.w3.org/2000/svg" xmlns:xlink="http://www.w3.org/1999/xlink" x="0px" y="0px"
	 width="100px" height="100px" viewBox="0 0 100 100" enable-background="new 0 0 100 100" xml:space="preserve">
<g>
	<path d="M66.877,26.549H33.518c-2.396,0-4.336,1.94-4.336,4.333v63.514c0,2.393,1.939,4.335,4.336,4.335h33.359
		c2.396,0,4.335-1.943,4.335-4.335V30.882C71.212,28.489,69.272,26.549,66.877,26.549z M64.086,91.749H36.161V33.53h27.925V91.749z"
		/>
	<path d="M61.709,73.624H38.542V88.93h23.167V73.624z M59.479,86.553H40.767V76.004h18.713V86.553z"/>
	<rect x="55.028" y="77.788" width="2.225" height="6.979"/>
	<rect x="51.313" y="77.788" width="2.374" height="6.979"/>
	<path d="M45.416,84.939c2.06,0,3.738-1.679,3.738-3.739c0-2.061-1.679-3.739-3.738-3.739c-2.061,0-3.738,1.678-3.738,3.739
		C41.678,83.26,43.355,84.939,45.416,84.939z M45.416,79.792c0.774,0,1.409,0.633,1.409,1.408c0,0.778-0.635,1.408-1.409,1.408
		s-1.408-0.63-1.408-1.408C44.008,80.425,44.642,79.792,45.416,79.792z"/>
	<path d="M61.709,55.059H38.542v15.3h23.167V55.059z M59.479,67.985H40.767V57.292h18.713V67.985z"/>
	<rect x="55.028" y="59.075" width="2.225" height="6.977"/>
	<rect x="51.313" y="59.075" width="2.374" height="6.977"/>
	<path d="M45.416,66.292c2.06,0,3.738-1.677,3.738-3.739c0-2.063-1.679-3.742-3.738-3.742c-2.061,0-3.738,1.679-3.738,3.742
		C41.678,64.615,43.355,66.292,45.416,66.292z M45.416,61.145c0.774,0,1.409,0.636,1.409,1.408c0,0.777-0.635,1.408-1.409,1.408
		s-1.408-0.631-1.408-1.408C44.008,61.781,44.642,61.145,45.416,61.145z"/>
	<path d="M61.709,36.348H38.542v15.299h23.167V36.348z M59.479,49.272H40.767V38.577h18.713V49.272z"/>
	<rect x="55.028" y="40.361" width="2.225" height="6.978"/>
	<rect x="51.313" y="40.361" width="2.374" height="6.978"/>
	<path d="M45.416,47.579c2.06,0,3.738-1.674,3.738-3.739c0-2.06-1.679-3.739-3.738-3.739c-2.061,0-3.738,1.679-3.738,3.739
		C41.678,45.905,43.355,47.579,45.416,47.579z M45.416,42.432c0.774,0,1.409,0.635,1.409,1.407c0,0.777-0.635,1.407-1.409,1.407
		s-1.408-0.63-1.408-1.407C44.008,43.067,44.642,42.432,45.416,42.432z"/>
	<path d="M78.12,15.635c-0.695-0.06-1.333-0.415-1.75-0.976c-3.789-5.102-9.855-8.246-16.309-8.246
		c-0.396,0-0.793,0.012-1.188,0.035c-0.578,0.034-1.146-0.138-1.609-0.486c-3.931-2.958-8.69-4.561-13.675-4.561
		c-8.93,0-16.857,5.166-20.576,12.992c-0.352,0.74-1.051,1.253-1.861,1.369c-9.839,1.401-17.429,9.882-17.429,20.102
		c0,11.196,9.108,20.305,20.306,20.305h1.153v-8h-1.153c-6.785,0-12.306-5.52-12.306-12.305c0-6.785,5.521-12.305,12.306-12.305
		c0.342,0,0.68,0.027,1.015,0.055c1.955,0.151,3.726-1.117,4.202-3.014c1.654-6.594,7.553-11.199,14.344-11.199
		c3.88,0,7.552,1.499,10.34,4.219c0.953,0.929,2.305,1.325,3.609,1.053c0.83-0.173,1.68-0.261,2.523-0.261
		c4.751,0,8.993,2.671,11.072,6.97c0.73,1.512,2.327,2.411,3.998,2.239c0.416-0.042,0.832-0.063,1.234-0.063
		c6.785,0,12.306,5.52,12.306,12.305c0,6.785-5.521,12.305-12.306,12.305h-1.154v8h1.154c11.197,0,20.306-9.109,20.306-20.305
		C96.672,25.26,88.499,16.528,78.12,15.635z"/>
</g>
</svg>
