<?xml version="1.0" encoding="utf-8"?>
<!-- Generator: Adobe Illustrator 16.0.0, SVG Export Plug-In . SVG Version: 6.00 Build 0)  -->
<!DOCTYPE svg PUBLIC "-//W3C//DTD SVG 1.1//EN" "http://www.w3.org/Graphics/SVG/1.1/DTD/svg11.dtd">
<svg version="1.1" id="Layer_1" xmlns="http://www.w3.org/2000/svg" xmlns:xlink="http://www.w3.org/1999/xlink" x="0px" y="0px"
	 width="100px" height="100px" viewBox="0 0 100 100" enable-background="new 0 0 100 100" xml:space="preserve">
<g>
	<path d="M81.817,65.316c3.535-8.123,2.003-17.94-4.632-24.576c-8.659-8.66-22.75-8.66-31.408-0.001
		c-8.658,8.659-8.658,22.747,0,31.408c6.636,6.636,16.455,8.165,24.579,4.632l10.479,10.479c3.162,3.165,8.294,3.165,11.46,0
		c3.166-3.166,3.166-8.298,0-11.463L81.817,65.316z M72.602,67.563c-6.134,6.13-16.107,6.13-22.24,0
		c-6.128-6.131-6.131-16.108,0-22.238c6.133-6.132,16.106-6.13,22.24,0C78.733,51.457,78.733,61.432,72.602,67.563z"/>
	<path d="M42.868,37.83c4.965-4.965,11.574-7.698,18.612-7.698s13.649,2.734,18.613,7.7c6.426,6.426,8.975,15.461,7.105,24.094
		c6.586-3.596,11.065-10.586,11.065-18.604c0-11.076-8.548-20.195-19.395-21.105c-0.699-0.059-1.341-0.417-1.758-0.98
		c-3.951-5.342-10.29-8.635-17.037-8.635c-0.424,0-0.85,0.013-1.275,0.039c-0.58,0.035-1.151-0.138-1.616-0.488
		c-4.105-3.101-9.081-4.779-14.293-4.779c-9.331,0-17.615,5.409-21.485,13.6c-0.352,0.744-1.056,1.26-1.87,1.374
		C9.248,23.786,1.306,32.644,1.306,43.322c0,11.68,9.504,21.181,21.182,21.181h13.949C33.527,55.408,35.666,45.034,42.868,37.83z"/>
</g>
</svg>
