<?xml version="1.0" encoding="utf-8"?>
<!-- Generator: Adobe Illustrator 16.0.0, SVG Export Plug-In . SVG Version: 6.00 Build 0)  -->
<!DOCTYPE svg PUBLIC "-//W3C//DTD SVG 1.1//EN" "http://www.w3.org/Graphics/SVG/1.1/DTD/svg11.dtd">
<svg version="1.1" id="Layer_1" xmlns="http://www.w3.org/2000/svg" xmlns:xlink="http://www.w3.org/1999/xlink" x="0px" y="0px"
	 width="100px" height="100px" viewBox="0 0 100 100" enable-background="new 0 0 100 100" xml:space="preserve">
<g>
	<path d="M59.854,75.228c0.041,0.767-0.245,1.515-0.788,2.058c-0.544,0.542-1.292,0.829-2.059,0.788l-5.438-0.292
		c-0.549-0.029-1.032,0.357-1.124,0.899l-2.739,16.149c-0.056,0.33,0.108,0.658,0.405,0.811s0.658,0.097,0.895-0.14L77.469,67.04
		c0.211-0.21,0.261-0.533,0.124-0.797c-0.136-0.264-0.428-0.41-0.722-0.36l-16.408,2.782c-0.542,0.092-0.929,0.575-0.899,1.124
		L59.854,75.228z"/>
	<path d="M59.104,61.211c0.017,0.308,0.163,0.594,0.404,0.787c0.24,0.192,0.552,0.273,0.856,0.222l20.12-3.409
		c0.399-0.068,0.728-0.353,0.851-0.738c0.122-0.386,0.02-0.808-0.266-1.094L59.62,35.524c-0.317-0.317-0.797-0.405-1.206-0.223
		c-0.409,0.183-0.663,0.598-0.64,1.046L59.104,61.211z"/>
	<path d="M51.358,35.608c-0.023-0.426-0.295-0.799-0.693-0.952s-0.85-0.057-1.151,0.245l-32.832,32.83
		c-0.302,0.302-0.397,0.753-0.245,1.152c0.153,0.399,0.526,0.67,0.952,0.693l34.687,1.856c0.307,0.017,0.605-0.098,0.822-0.315
		c0.218-0.217,0.332-0.516,0.315-0.823L51.358,35.608z"/>
	<path d="M38.758,99.294c0.286,0.286,0.708,0.388,1.094,0.266c0.386-0.123,0.67-0.451,0.738-0.85l3.412-20.126
		c0.052-0.304-0.029-0.616-0.222-0.856c-0.192-0.241-0.479-0.388-0.787-0.405l-24.866-1.329c-0.447-0.024-0.863,0.23-1.046,0.64
		s-0.094,0.889,0.223,1.206L38.758,99.294z"/>
	<path d="M77.249,14.92c-0.697-0.059-1.337-0.416-1.754-0.978c-3.868-5.219-10.069-8.437-16.664-8.437
		c-0.41,0-0.821,0.012-1.231,0.037c-0.579,0.034-1.149-0.138-1.612-0.487c-4.017-3.027-8.882-4.667-13.977-4.667
		c-9.126,0-17.228,5.284-21.02,13.289c-0.352,0.742-1.053,1.257-1.866,1.372C9.067,16.469,1.306,25.134,1.306,35.578
		c0,11.432,9.3,20.732,20.732,20.732h0.29l8.168-8.168h-8.458c-6.929,0-12.564-5.637-12.564-12.564
		c0-6.928,5.636-12.564,12.564-12.564c0.35,0,0.693,0.028,1.037,0.056c1.996,0.154,3.804-1.141,4.289-3.077
		c1.69-6.732,7.713-11.435,14.646-11.435c3.962,0,7.711,1.53,10.557,4.308c0.974,0.949,2.354,1.353,3.687,1.075
		c0.848-0.176,1.713-0.266,2.577-0.266c4.85,0,9.181,2.727,11.303,7.117c0.746,1.543,2.377,2.462,4.084,2.286
		c0.425-0.042,0.848-0.064,1.261-0.064c6.928,0,12.563,5.636,12.563,12.564c0,6.138-4.427,11.253-10.254,12.341l6.431,6.432
		c7.07-3.306,11.992-10.467,11.992-18.773C96.211,24.742,87.855,15.822,77.249,14.92z"/>
</g>
</svg>
