<?xml version="1.0" encoding="utf-8"?>
<!-- Generator: Adobe Illustrator 16.0.0, SVG Export Plug-In . SVG Version: 6.00 Build 0)  -->
<!DOCTYPE svg PUBLIC "-//W3C//DTD SVG 1.1//EN" "http://www.w3.org/Graphics/SVG/1.1/DTD/svg11.dtd">
<svg version="1.1" id="Layer_1" xmlns="http://www.w3.org/2000/svg" xmlns:xlink="http://www.w3.org/1999/xlink" x="0px" y="0px"
	 width="100px" height="100px" viewBox="0 0 100 100" enable-background="new 0 0 100 100" xml:space="preserve">
<g>
	<path d="M50.034,32.009c-18.001,0-32.592,14.592-32.592,32.591c0,17.999,14.591,32.591,32.592,32.591S82.625,82.598,82.625,64.6
		C82.625,46.601,68.035,32.009,50.034,32.009z M50.034,90.463c-14.264,0-25.865-11.603-25.865-25.863s11.602-25.864,25.865-25.864
		c14.261,0,25.863,11.604,25.863,25.864S64.295,90.463,50.034,90.463z"/>
	<path d="M66.628,54.598L53.121,57.34c-2.115-0.896-4.584-0.904-6.772,0.248c-3.876,2.038-5.36,6.825-3.324,10.702
		c2.037,3.874,6.826,5.359,10.7,3.322c2.189-1.153,3.582-3.191,4.042-5.441l9.913-9.577c0.375-0.363,0.467-0.931,0.223-1.393
		C67.66,54.74,67.142,54.494,66.628,54.598z"/>
	<rect x="38.301" y="78.311" width="23.46" height="4.477"/>
	<path d="M79.743,17.981c-0.701-0.058-1.345-0.417-1.762-0.982c-4.038-5.471-10.526-8.845-17.43-8.845
		c-0.44,0-0.881,0.014-1.321,0.041c-0.582,0.035-1.154-0.138-1.619-0.489c-4.199-3.175-9.291-4.896-14.624-4.896
		c-9.55,0-18.024,5.539-21.975,13.925c-0.352,0.746-1.057,1.264-1.873,1.377C8.61,19.573,0.478,28.633,0.478,39.558
		c0,8.89,5.39,16.539,13.07,19.869c0.412-2.923,1.171-5.734,2.229-8.396c-4.032-2.242-6.77-6.542-6.77-11.472
		c0-7.235,5.887-13.121,13.122-13.121c0.364,0,0.725,0.029,1.081,0.058c2.085,0.162,3.973-1.191,4.481-3.213
		c1.764-7.031,8.054-11.942,15.295-11.942c4.137,0,8.052,1.598,11.025,4.499c1.016,0.991,2.457,1.413,3.849,1.123
		c0.885-0.184,1.791-0.278,2.69-0.278c5.066,0,9.59,2.848,11.807,7.432c0.778,1.612,2.481,2.571,4.263,2.388
		c0.443-0.044,0.888-0.066,1.316-0.066c7.235,0,13.121,5.886,13.121,13.121c0,4.93-2.736,9.229-6.768,11.472
		c1.059,2.662,1.816,5.474,2.229,8.396c7.682-3.33,13.07-10.979,13.07-19.868C99.59,28.227,90.841,18.901,79.743,17.981z"/>
</g>
</svg>
