<?xml version="1.0" encoding="utf-8"?>
<!-- Generator: Adobe Illustrator 16.0.0, SVG Export Plug-In . SVG Version: 6.00 Build 0)  -->
<!DOCTYPE svg PUBLIC "-//W3C//DTD SVG 1.1//EN" "http://www.w3.org/Graphics/SVG/1.1/DTD/svg11.dtd">
<svg version="1.1" id="Layer_1" xmlns="http://www.w3.org/2000/svg" xmlns:xlink="http://www.w3.org/1999/xlink" x="0px" y="0px"
	 width="100px" height="100px" viewBox="0 0 100 100" enable-background="new 0 0 100 100" xml:space="preserve">
<g>
	<path d="M61.52,46.007c-0.047,0.033-4.769,3.316-11.491,3.316c-6.823,0-11.272-3.224-11.351-3.28
		c-1.09-0.819-2.64-0.604-3.464,0.486c-0.828,1.092-0.612,2.647,0.48,3.475c0.23,0.175,5.749,4.278,14.334,4.278
		c8.381,0,14.137-4.069,14.378-4.242c1.109-0.798,1.361-2.338,0.568-3.45C64.183,45.478,62.635,45.219,61.52,46.007z"/>
	<path d="M39.277,40.138c-0.74,1.151-0.406,2.687,0.744,3.427c3.138,2.015,6.538,3.022,9.969,3.022c3.416,0,6.859-1.001,10.099-3
		c1.166-0.719,1.526-2.248,0.808-3.412c-0.72-1.166-2.248-1.527-3.414-0.808c-4.873,3.008-10.121,3.017-14.778,0.024
		C41.551,38.651,40.016,38.984,39.277,40.138z"/>
	<path d="M49.955,39.083c2.313,0,4.661-0.664,7.028-1.992c1.195-0.67,1.619-2.181,0.95-3.376c-0.671-1.194-2.181-1.62-3.376-0.95
		c-3.213,1.803-5.96,1.818-8.903,0.051c-1.175-0.703-2.697-0.325-3.401,0.851c-0.707,1.173-0.325,2.697,0.85,3.402
		C45.34,38.411,47.629,39.083,49.955,39.083z"/>
	<path d="M63.033,24.568c-0.487-0.056-0.932-0.304-1.235-0.688c-1.73-2.19-4.405-3.529-7.242-3.529
		c-0.105,0-0.211,0.002-0.316,0.006c-0.409,0.014-0.808-0.107-1.14-0.347c-1.749-1.257-3.841-1.937-6.028-1.937
		c-3.944,0-7.457,2.217-9.203,5.605c-0.263,0.512-0.75,0.871-1.316,0.972c-4.312,0.773-7.595,4.551-7.595,9.082
		c0,4.799,3.684,8.751,8.372,9.183c-0.413-1.163-0.329-2.484,0.34-3.618c-2.841-0.26-5.076-2.654-5.076-5.564
		c0-3.083,2.508-5.591,5.59-5.591c0.155,0,0.309,0.013,0.462,0.025c0.887,0.068,1.691-0.509,1.908-1.37
		c0.752-2.996,3.433-5.089,6.519-5.089c1.762,0,3.431,0.682,4.697,1.918c0.432,0.421,1.047,0.602,1.64,0.479
		c0.378-0.079,0.764-0.119,1.147-0.119c2.157,0,4.085,1.214,5.03,3.167c0.331,0.688,1.057,1.095,1.815,1.018
		c0.189-0.02,0.378-0.028,0.563-0.028c3.082,0,5.59,2.508,5.59,5.591c0,2.907-2.23,5.301-5.072,5.564
		c0.671,1.136,0.751,2.457,0.338,3.617c4.687-0.434,8.368-4.384,8.368-9.182C71.188,29.008,67.618,25.101,63.033,24.568z"/>
	<path d="M18.502,68.127H81.57c4.066,0,7.426-3.463,7.426-7.543V11.372c0-4.068-3.359-7.143-7.426-7.143H18.502
		c-4.064,0-7.355,3.074-7.355,7.143v49.212C11.146,64.664,14.438,68.127,18.502,68.127z M19.484,13.327h61.057V59.03H19.484V13.327z
		"/>
	<path d="M89.924,74.539c-0.883-1.316-2.363-2.106-3.949-2.106H14.17c-1.584,0-3.064,0.79-3.947,2.106L0.719,88.716
		c0,3.896,3.158,7.054,7.055,7.054h84.6c3.895,0,7.053-3.158,7.053-7.054L89.924,74.539z M41.586,88.512l2-4.411h12.973l2,4.411
		H41.586z"/>
</g>
</svg>
