<?xml version="1.0" encoding="utf-8"?>
<!-- Generator: Adobe Illustrator 16.0.0, SVG Export Plug-In . SVG Version: 6.00 Build 0)  -->
<!DOCTYPE svg PUBLIC "-//W3C//DTD SVG 1.1//EN" "http://www.w3.org/Graphics/SVG/1.1/DTD/svg11.dtd">
<svg version="1.1" id="Layer_1" xmlns="http://www.w3.org/2000/svg" xmlns:xlink="http://www.w3.org/1999/xlink" x="0px" y="0px"
	 width="100px" height="100px" viewBox="0 0 100 100" enable-background="new 0 0 100 100" xml:space="preserve">
<g>
	<path d="M66.162,55.018H53.929c-2.142,0-4.169,0.481-5.997,1.323c4.859,0.65,9.063,3.316,11.725,7.169h6.506
		c3.269,0,5.929,2.66,5.929,5.931c0,3.269-2.66,5.929-5.929,5.929h-3.392c0,0-6.63,0-8.841,0c-0.239,0-3.745,0.067-5.558-3.879
		c-0.46-1-1.629-1.521-2.75-1.521h-6.089c0,5.166,4.153,12.761,12.451,13.741l0.605,0.083c0.441,0.042,0.888,0.067,1.342,0.067
		h12.232c7.953,0,14.421-6.471,14.421-14.421C80.583,61.487,74.115,55.018,66.162,55.018z"/>
	<path d="M39.918,79.174H33.39c-3.27,0-5.929-2.66-5.929-5.93s2.66-5.93,5.929-5.93h12.232c2.519,0,4.528,1.486,5.53,3.801
		c0.438,1.018,1.588,1.6,2.777,1.6h6.09c-0.282-7.705-6.623-13.893-14.398-13.893H33.389c-7.952,0-14.422,6.469-14.422,14.422
		c0,7.951,6.47,14.422,14.422,14.422h12.233c2.144,0,4.172-0.483,6.001-1.325C46.787,85.685,42.586,83.007,39.918,79.174z"/>
	<path d="M79.417,30.843c-0.739-0.064-1.415-0.44-1.858-1.036c-4.022-5.416-10.462-8.753-17.313-8.753
		c-0.42,0-0.842,0.013-1.26,0.038c-0.613,0.036-1.218-0.147-1.709-0.516c-4.173-3.14-9.225-4.842-14.516-4.842
		c-9.48,0-17.895,5.484-21.842,13.792c-0.374,0.786-1.116,1.33-1.976,1.453C8.499,32.464,0.442,41.467,0.442,52.316
		c0,9.343,5.985,17.292,14.313,20.277c0.103-2.967,0.88-5.765,2.215-8.224c-4.714-1.973-8.036-6.632-8.036-12.053
		c0-7.203,5.86-13.062,13.063-13.062c0.363,0,0.722,0.029,1.078,0.059c2.075,0.16,3.955-1.187,4.46-3.2
		c1.756-7,8.018-11.888,15.227-11.888c4.118,0,8.017,1.591,10.976,4.479c1.012,0.986,2.446,1.407,3.832,1.118
		c0.88-0.184,1.782-0.277,2.677-0.277c5.044,0,9.547,2.835,11.753,7.399c0.775,1.605,2.472,2.56,4.244,2.377
		c0.441-0.045,0.884-0.067,1.311-0.067c7.202,0,13.063,5.86,13.063,13.063c0,4.892-2.705,9.157-6.696,11.395
		c0.584,1.807,0.907,3.729,0.907,5.729c0,1.11-0.114,2.191-0.302,3.251c8.469-2.906,14.581-10.933,14.581-20.374
		C99.11,41.06,90.434,31.79,79.417,30.843z"/>
</g>
</svg>
