<?xml version="1.0" encoding="utf-8"?>
<!-- Generator: Adobe Illustrator 16.0.0, SVG Export Plug-In . SVG Version: 6.00 Build 0)  -->
<!DOCTYPE svg PUBLIC "-//W3C//DTD SVG 1.1//EN" "http://www.w3.org/Graphics/SVG/1.1/DTD/svg11.dtd">
<svg version="1.1" id="Layer_1" xmlns="http://www.w3.org/2000/svg" xmlns:xlink="http://www.w3.org/1999/xlink" x="0px" y="0px"
	 width="100px" height="100px" viewBox="0 0 100 100" enable-background="new 0 0 100 100" xml:space="preserve">
<g>
	<path d="M27.064,68.341c0.236-0.508,0.151-1.105-0.209-1.533l-6.526-7.673c-0.556-0.652-1.372-1.029-2.227-1.029
		c-0.863,0-1.677,0.377-2.234,1.029l-6.52,7.673c-0.364,0.428-0.445,1.025-0.211,1.533c0.233,0.503,0.741,0.831,1.305,0.831h2.436
		v9.409c0,1.222,0.987,2.214,2.208,2.214h6.028c1.22,0,2.208-0.992,2.208-2.214v-9.409h2.439
		C26.316,69.172,26.827,68.844,27.064,68.341z"/>
	<path d="M38.029,77.406c-0.558-0.654-1.374-1.031-2.229-1.031c-0.861,0-1.678,0.377-2.232,1.031l-6.521,7.673
		c-0.362,0.428-0.445,1.025-0.211,1.531c0.231,0.505,0.741,0.831,1.305,0.831h2.435v9.411c0,1.222,0.987,2.21,2.208,2.21h6.028
		c1.22,0,2.208-0.988,2.208-2.21v-9.411h2.441c0.555,0,1.065-0.326,1.301-0.831c0.238-0.506,0.151-1.104-0.209-1.531L38.029,77.406z
		"/>
	<path d="M61.27,68.341c0.237-0.508,0.154-1.105-0.207-1.533l-6.526-7.673c-0.555-0.652-1.369-1.029-2.225-1.029
		c-0.86,0-1.679,0.377-2.236,1.029l-6.521,7.673c-0.36,0.428-0.445,1.025-0.206,1.533c0.23,0.503,0.739,0.831,1.3,0.831h2.439v9.409
		c0,1.222,0.984,2.214,2.206,2.214h6.03c1.215,0,2.206-0.992,2.206-2.214v-9.409h2.437C60.524,69.172,61.036,68.844,61.27,68.341z"
		/>
	<path d="M88.745,59.135c-0.555-0.652-1.371-1.029-2.226-1.029c-0.863,0-1.68,0.377-2.234,1.029l-6.521,7.673
		c-0.362,0.428-0.446,1.025-0.211,1.533c0.233,0.503,0.743,0.831,1.305,0.831h2.435v9.409c0,1.222,0.988,2.214,2.21,2.214h6.028
		c1.22,0,2.208-0.992,2.208-2.214v-9.409h2.439c0.555,0,1.065-0.328,1.3-0.831c0.239-0.508,0.152-1.105-0.206-1.533L88.745,59.135z"
		/>
	<path d="M71.933,77.406c-0.555-0.654-1.371-1.031-2.229-1.031c-0.86,0-1.675,0.377-2.232,1.031l-6.521,7.673
		c-0.362,0.428-0.445,1.025-0.21,1.531c0.232,0.505,0.743,0.831,1.304,0.831h2.436v9.411c0,1.222,0.986,2.21,2.21,2.21h6.028
		c1.219,0,2.208-0.988,2.208-2.21v-9.411h2.438c0.555,0,1.065-0.326,1.301-0.831c0.239-0.506,0.154-1.104-0.207-1.531L71.933,77.406
		z"/>
	<path d="M26.141,55.705h52.339c11.196,0,20.306-9.109,20.306-20.304c0-10.605-8.174-19.337-18.552-20.23
		c-0.695-0.06-1.333-0.415-1.75-0.976c-3.79-5.102-9.855-8.246-16.309-8.246c-0.396,0-0.793,0.012-1.189,0.035
		c-0.577,0.034-1.146-0.138-1.608-0.486c-3.932-2.958-8.69-4.561-13.676-4.561c-8.929,0-16.857,5.165-20.575,12.992
		c-0.352,0.74-1.051,1.253-1.861,1.369C13.426,16.7,5.836,25.181,5.836,35.401C5.836,46.596,14.944,55.705,26.141,55.705z
		 M26.141,23.096c0.343,0,0.68,0.027,1.016,0.055c1.955,0.151,3.725-1.117,4.201-3.014c1.654-6.594,7.554-11.199,14.344-11.199
		c3.881,0,7.553,1.499,10.34,4.219c0.953,0.929,2.306,1.325,3.609,1.053c0.83-0.173,1.68-0.261,2.524-0.261
		c4.751,0,8.993,2.671,11.071,6.97c0.73,1.512,2.328,2.411,3.999,2.239c0.416-0.042,0.831-0.063,1.234-0.063
		c6.785,0,12.306,5.52,12.306,12.305c0,6.785-5.521,12.305-12.306,12.305H26.141c-6.785,0-12.305-5.52-12.305-12.305
		C13.836,28.616,19.355,23.096,26.141,23.096z"/>
</g>
</svg>
