<?xml version="1.0" encoding="utf-8"?>
<!-- Generator: Adobe Illustrator 16.0.0, SVG Export Plug-In . SVG Version: 6.00 Build 0)  -->
<!DOCTYPE svg PUBLIC "-//W3C//DTD SVG 1.1//EN" "http://www.w3.org/Graphics/SVG/1.1/DTD/svg11.dtd">
<svg version="1.1" id="Layer_1" xmlns="http://www.w3.org/2000/svg" xmlns:xlink="http://www.w3.org/1999/xlink" x="0px" y="0px"
	 width="100px" height="100px" viewBox="0 0 100 100" enable-background="new 0 0 100 100" xml:space="preserve">
<g>
	<path d="M24.758,16.075h3.273v21.797c0,1.646,1.331,2.973,2.968,2.973h8.102c1.637,0,2.971-1.327,2.971-2.973V16.075h3.276
		c0.751,0,1.435-0.438,1.752-1.119c0.313-0.686,0.202-1.485-0.283-2.061L38.048,2.586c-0.747-0.881-1.843-1.385-2.998-1.385
		c-1.151,0-2.247,0.504-2.998,1.385l-8.766,10.309c-0.488,0.576-0.598,1.375-0.28,2.061C23.319,15.637,24.006,16.075,24.758,16.075z
		"/>
	<path d="M80.137,19.817h-35.5v10.564h32.037v40.025H23.209V30.382h1.828V19.817h-5.249c-3.891,0-7.037,2.948-7.037,6.837v47.091
		c0,3.906,3.146,7.218,7.037,7.218h24.934v7.794h-9.259c-3.54,0-6.593,2.877-6.593,6.41v4.155h42.246v-4.155
		c0-3.533-2.716-6.41-6.249-6.41h-9.59v-7.794h24.859c3.896,0,7.111-3.312,7.111-7.218V26.655
		C87.248,22.766,84.032,19.817,80.137,19.817z"/>
	<path d="M57.561,52.36c-3.314,0-6.005,2.047-6.005,4.573c0,2.523,2.69,4.571,6.005,4.571c3.316,0,6.008-2.048,6.008-4.571
		c0-0.098,0-11.625,0-18.042c0-0.97-0.468-1.882-1.257-2.447c-0.787-0.564-1.802-0.714-2.723-0.403l-13.208,4.472
		c-1.687,0.572-2.822,2.151-2.834,3.934l-0.043,11.58c-0.366-0.052-0.739-0.083-1.124-0.083c-3.315,0-6.006,2.048-6.006,4.572
		c0,2.523,2.69,4.574,6.006,4.574s6.006-2.051,6.006-4.574V49.224c0-0.741,0.473-1.4,1.175-1.64l7.69-2.605
		c0.332-0.108,0.695-0.055,0.979,0.147c0.286,0.207,0.455,0.533,0.455,0.884v6.43C58.318,52.388,57.946,52.36,57.561,52.36z"/>
</g>
</svg>
