<?xml version="1.0" encoding="utf-8"?>
<!-- Generator: Adobe Illustrator 16.0.0, SVG Export Plug-In . SVG Version: 6.00 Build 0)  -->
<!DOCTYPE svg PUBLIC "-//W3C//DTD SVG 1.1//EN" "http://www.w3.org/Graphics/SVG/1.1/DTD/svg11.dtd">
<svg version="1.1" id="Layer_1" xmlns="http://www.w3.org/2000/svg" xmlns:xlink="http://www.w3.org/1999/xlink" x="0px" y="0px"
	 width="100px" height="100px" viewBox="0 0 100 100" enable-background="new 0 0 100 100" xml:space="preserve">
<g>
	<path d="M69.448,43.036c-1.221-0.876-2.795-1.108-4.224-0.626l-20.493,6.938c-2.617,0.889-4.379,3.339-4.396,6.105L40.268,73.42
		c-0.569-0.081-1.146-0.128-1.744-0.128c-5.145,0-9.317,3.175-9.317,7.094c0,3.914,4.173,7.097,9.317,7.097
		c5.144,0,9.318-3.183,9.318-7.097V62.864c0-1.148,0.734-2.173,1.821-2.543l11.933-4.042c0.516-0.167,1.079-0.085,1.519,0.228
		c0.443,0.32,0.707,0.828,0.707,1.372v9.977c-0.569-0.082-1.146-0.124-1.745-0.124c-5.142,0-9.316,3.175-9.316,7.095
		c0,3.913,4.175,7.091,9.316,7.091c5.146,0,9.321-3.178,9.321-7.091c0-0.153,0-18.038,0-27.992
		C71.397,45.326,70.674,43.911,69.448,43.036z"/>
	<path d="M79.736,33.261c-0.7-0.059-1.343-0.417-1.761-0.981c-3.999-5.415-10.423-8.754-17.257-8.754c-0.433,0-0.866,0.014-1.3,0.04
		c-0.581,0.035-1.153-0.138-1.618-0.488c-4.157-3.142-9.199-4.845-14.479-4.845c-9.454,0-17.844,5.482-21.759,13.781
		c-0.352,0.745-1.056,1.262-1.872,1.376C9.27,34.842,1.221,43.813,1.221,54.629c0,11.824,9.619,21.443,21.444,21.443h3.313
		c1.7-3.537,5.441-6.141,10.081-6.825l0.007-1.623h-13.4c-7.165,0-12.997-5.83-12.997-12.995S15.5,41.634,22.665,41.634
		c0.361,0,0.718,0.028,1.07,0.058c2.065,0.16,3.936-1.18,4.439-3.183c1.747-6.964,7.976-11.828,15.147-11.828
		c4.097,0,7.975,1.584,10.92,4.457c1.007,0.98,2.435,1.399,3.813,1.112c0.876-0.184,1.773-0.276,2.664-0.276
		c5.017,0,9.497,2.822,11.693,7.362c0.771,1.596,2.457,2.545,4.223,2.363c0.439-0.043,0.879-0.065,1.304-0.065
		c7.166,0,12.995,5.83,12.995,12.995s-5.829,12.995-12.995,12.995h-2.316v7.202c0,0.421-0.033,0.837-0.087,1.246h2.403
		c11.825,0,21.443-9.619,21.443-21.443C99.382,43.41,90.723,34.176,79.736,33.261z"/>
</g>
</svg>
