<?xml version="1.0" encoding="utf-8"?>
<!-- Generator: Adobe Illustrator 16.0.0, SVG Export Plug-In . SVG Version: 6.00 Build 0)  -->
<!DOCTYPE svg PUBLIC "-//W3C//DTD SVG 1.1//EN" "http://www.w3.org/Graphics/SVG/1.1/DTD/svg11.dtd">
<svg version="1.1" id="Layer_1" xmlns="http://www.w3.org/2000/svg" xmlns:xlink="http://www.w3.org/1999/xlink" x="0px" y="0px"
	 width="100px" height="100px" viewBox="0 0 100 100" enable-background="new 0 0 100 100" xml:space="preserve">
<g>
	<path d="M79.392,29.007c-0.7-0.059-1.342-0.417-1.76-0.981c-4.001-5.415-10.426-8.756-17.262-8.756
		c-0.434,0-0.869,0.013-1.303,0.039c-0.581,0.035-1.152-0.138-1.617-0.488c-4.16-3.143-9.202-4.845-14.482-4.845
		c-9.456,0-17.849,5.483-21.764,13.786c-0.352,0.745-1.056,1.262-1.872,1.376C8.907,30.589,0.855,39.563,0.855,50.381
		c0,11.827,9.623,21.449,21.45,21.449h5.653c-1.944-2.52-3.457-5.371-4.444-8.45h-1.209c-7.167,0-12.999-5.831-12.999-12.999
		c0-7.167,5.831-12.998,12.999-12.998c0.362,0,0.718,0.029,1.072,0.058c2.065,0.159,3.936-1.18,4.438-3.184
		c1.748-6.965,7.979-11.83,15.153-11.83c4.099,0,7.978,1.582,10.922,4.456c1.007,0.982,2.436,1.399,3.813,1.112
		c0.877-0.182,1.774-0.274,2.666-0.274c5.019,0,9.5,2.82,11.695,7.361c0.772,1.598,2.459,2.549,4.225,2.367
		c0.439-0.045,0.878-0.066,1.304-0.066c7.168,0,12.999,5.831,12.999,12.998c0,7.168-5.831,12.999-12.999,12.999h-2.686
		c1.759,1.399,2.811,3.557,2.811,5.818c0,0.907-0.174,1.798-0.49,2.632h0.365c11.828,0,21.45-9.622,21.45-21.449
		C99.044,39.159,90.381,29.923,79.392,29.007z"/>
	<path d="M72.646,66.043L54.64,52.456c-1.198-0.903-2.804-1.05-4.147-0.382c-1.343,0.671-2.19,2.04-2.19,3.543v3.487
		c-6.457-0.631-12.391-3.048-17.289-6.75c-1.007-0.761-2.357-0.887-3.488-0.325c-1.13,0.563-1.846,1.715-1.846,2.978v0.002
		c0,12.728,9.9,23.272,22.604,24.046c0.006,0,0.012,0.001,0.018,0.001v3.738c0,1.501,0.848,2.874,2.19,3.542
		c1.343,0.668,2.949,0.521,4.147-0.387l18.008-13.594c0.989-0.747,1.571-1.917,1.571-3.157
		C74.219,67.957,73.637,66.787,72.646,66.043z"/>
</g>
</svg>
