<?xml version="1.0" encoding="utf-8"?>
<!-- Generator: Adobe Illustrator 16.0.0, SVG Export Plug-In . SVG Version: 6.00 Build 0)  -->
<!DOCTYPE svg PUBLIC "-//W3C//DTD SVG 1.1//EN" "http://www.w3.org/Graphics/SVG/1.1/DTD/svg11.dtd">
<svg version="1.1" id="Layer_1" xmlns="http://www.w3.org/2000/svg" xmlns:xlink="http://www.w3.org/1999/xlink" x="0px" y="0px"
	 width="100px" height="100px" viewBox="0 0 100 100" enable-background="new 0 0 100 100" xml:space="preserve">
<g>
	<polygon points="30.721,71.973 25.69,68.692 21.242,75.524 16.794,68.692 11.756,71.973 15.705,78.031 8.47,78.031 8.47,84.04 
		15.692,84.04 11.75,90.099 16.788,93.379 21.242,86.537 25.696,93.379 30.728,90.099 26.785,84.04 34.008,84.04 34.008,78.031 
		26.779,78.031 	"/>
	<polygon points="59.593,71.973 54.561,68.692 50.113,75.524 45.66,68.692 40.628,71.973 44.57,78.031 37.341,78.031 37.341,84.04 
		44.563,84.04 40.622,90.099 45.653,93.379 50.113,86.537 54.568,93.379 59.599,90.099 55.657,84.04 62.873,84.04 62.873,78.031 
		55.651,78.031 	"/>
	<polygon points="88.464,71.973 83.434,68.692 78.986,75.524 74.531,68.692 69.5,71.973 73.442,78.031 66.212,78.031 66.212,84.04 
		73.436,84.04 69.494,90.099 74.525,93.379 78.986,86.537 83.434,93.379 88.471,90.099 84.529,84.04 91.745,84.04 91.745,78.031 
		84.522,78.031 	"/>
	<path d="M79.516,21.627c-0.7-0.058-1.342-0.417-1.76-0.981c-3.997-5.409-10.414-8.745-17.241-8.745
		c-0.433,0-0.866,0.013-1.299,0.04c-0.581,0.035-1.152-0.138-1.617-0.488c-4.155-3.139-9.19-4.839-14.465-4.839
		c-9.445,0-17.828,5.477-21.739,13.768c-0.351,0.745-1.056,1.262-1.872,1.375C9.112,23.208,1.07,32.171,1.07,42.977
		c0,11.813,9.611,21.424,21.425,21.424h55.224c11.814,0,21.425-9.611,21.425-21.424C99.144,31.768,90.492,22.542,79.516,21.627z
		 M77.719,55.96H22.495c-7.159,0-12.984-5.825-12.984-12.983c0-7.159,5.825-12.983,12.984-12.983c0.361,0,0.717,0.029,1.071,0.058
		c2.063,0.16,3.931-1.179,4.434-3.18c1.746-6.958,7.97-11.817,15.135-11.817c4.094,0,7.968,1.582,10.91,4.452
		c1.005,0.98,2.433,1.397,3.809,1.111c0.876-0.183,1.772-0.275,2.663-0.275c5.013,0,9.489,2.818,11.682,7.354
		c0.771,1.595,2.456,2.544,4.22,2.363c0.439-0.044,0.877-0.066,1.302-0.066c7.16,0,12.984,5.824,12.984,12.983
		C90.703,50.135,84.879,55.96,77.719,55.96z"/>
</g>
</svg>
