<?xml version="1.0" encoding="utf-8"?>
<!-- Generator: Adobe Illustrator 16.0.0, SVG Export Plug-In . SVG Version: 6.00 Build 0)  -->
<!DOCTYPE svg PUBLIC "-//W3C//DTD SVG 1.1//EN" "http://www.w3.org/Graphics/SVG/1.1/DTD/svg11.dtd">
<svg version="1.1" id="Layer_1" xmlns="http://www.w3.org/2000/svg" xmlns:xlink="http://www.w3.org/1999/xlink" x="0px" y="0px"
	 width="100px" height="100px" viewBox="0 0 100 100" enable-background="new 0 0 100 100" xml:space="preserve">
<g>
	<path d="M44.563,80.052h-4.194V68.057c0-2.108-1.702-3.812-3.803-3.812h-10.38c-2.1,0-3.804,1.703-3.804,3.812v11.995h-4.199
		c-0.96,0-1.835,0.564-2.24,1.433c-0.408,0.875-0.262,1.905,0.355,2.642l11.236,13.209c0.96,1.127,2.364,1.774,3.838,1.774
		c1.48,0,2.887-0.647,3.845-1.774l11.229-13.209c0.625-0.736,0.765-1.767,0.361-2.642C46.403,80.616,45.528,80.052,44.563,80.052z"
		/>
	<path d="M72.433,66.019c-0.96-1.127-2.364-1.774-3.838-1.774c-1.48,0-2.887,0.647-3.845,1.774l-11.229,13.21
		c-0.625,0.735-0.765,1.766-0.361,2.641c0.403,0.868,1.278,1.433,2.245,1.433h4.193v11.995c0,2.108,1.702,3.812,3.803,3.812h10.38
		c2.1,0,3.804-1.703,3.804-3.812V83.302h4.199c0.96,0,1.835-0.564,2.24-1.433c0.408-0.875,0.262-1.905-0.355-2.641L72.433,66.019z"
		/>
	<path d="M79.197,15.537c-0.545-0.039-1.047-0.318-1.366-0.762c-3.992-5.538-10.495-8.964-17.42-8.964
		c-0.502,0-1.004,0.018-1.505,0.053c-0.45,0.031-0.895-0.103-1.253-0.378c-4.194-3.225-9.303-4.974-14.657-4.974
		c-9.566,0-18.045,5.607-21.906,14.068c-0.267,0.583-0.816,0.985-1.452,1.065C9.062,16.97,0.853,26.017,0.853,36.946
		c0,11.835,9.629,21.465,21.465,21.465h55.33c11.836,0,21.466-9.63,21.466-21.465C99.113,25.632,90.313,16.333,79.197,15.537z
		 M77.647,49.954h-55.33c-7.173,0-13.008-5.836-13.008-13.008c0-7.173,5.835-13.009,13.008-13.009c0.362,0,0.719,0.029,1.074,0.058
		c2.066,0.16,3.937-1.181,4.44-3.186c1.749-6.971,7.985-11.839,15.164-11.839c4.103,0,7.984,1.584,10.931,4.46
		c1.008,0.982,2.438,1.4,3.815,1.113c0.878-0.183,1.775-0.275,2.669-0.275c5.022,0,9.507,2.823,11.704,7.368
		c0.771,1.598,2.461,2.549,4.228,2.367c0.439-0.045,0.878-0.066,1.305-0.066c7.173,0,13.009,5.836,13.009,13.009
		C90.656,44.118,84.82,49.954,77.647,49.954z"/>
	<path d="M46.519,25.748c-1.373-1.128-3.446-1.678-6.313-1.678c-2.836,0-4.849,0.185-6.281,0.428v20.277h4.603v-7.379
		c0.429,0.092,0.977,0.122,1.587,0.122c2.745,0,5.124-0.701,6.709-2.165c1.22-1.127,1.86-2.835,1.86-4.879
		C48.684,28.463,47.829,26.755,46.519,25.748z M40.084,33.951c-0.672,0-1.159-0.03-1.557-0.123v-6.067
		c0.337-0.091,0.977-0.152,1.923-0.152c2.348,0,3.629,1.129,3.629,3.019C44.079,32.701,42.554,33.951,40.084,33.951z"/>
	<path d="M61.956,33.707v-0.062c2.288-0.885,3.354-2.561,3.354-4.36c0-1.891-1.007-3.292-2.439-4.055
		c-1.494-0.885-3.232-1.16-6.068-1.16c-2.348,0-4.787,0.214-6.006,0.458v20.155c1.036,0.154,2.743,0.306,5.031,0.306
		c4.085,0,6.586-0.671,8.079-1.859c1.281-1.007,2.136-2.47,2.136-4.36C66.043,36.116,64.304,34.317,61.956,33.707z M55.399,27.608
		c0.367-0.091,0.946-0.152,1.982-0.152c2.105,0,3.294,0.823,3.294,2.378c0,1.525-1.281,2.531-3.751,2.531h-1.525V27.608z
		 M57.199,41.574c-0.793,0-1.342,0-1.8-0.092v-5.793h1.586c2.317,0,4.178,0.823,4.178,2.897
		C61.163,40.752,59.303,41.574,57.199,41.574z"/>
</g>
</svg>
