<?xml version="1.0" encoding="utf-8"?>
<!-- Generator: Adobe Illustrator 16.0.0, SVG Export Plug-In . SVG Version: 6.00 Build 0)  -->
<!DOCTYPE svg PUBLIC "-//W3C//DTD SVG 1.1//EN" "http://www.w3.org/Graphics/SVG/1.1/DTD/svg11.dtd">
<svg version="1.1" id="Layer_1" xmlns="http://www.w3.org/2000/svg" xmlns:xlink="http://www.w3.org/1999/xlink" x="0px" y="0px"
	 width="100px" height="100px" viewBox="0 0 100 100" enable-background="new 0 0 100 100" xml:space="preserve">
<g>
	<path d="M66.559,31.938h-32.35c-2.239,0-4.269,1.895-4.269,4.151v56.619c0,2.239,2.03,4.036,4.269,4.036h0.1H66.46h0.098
		c2.236,0,4.165-1.796,4.165-4.036V36.089C70.723,33.832,68.794,31.938,66.559,31.938z M62.715,80.352H38.321V39.938h24.394V80.352z
		"/>
	<path d="M79.871,19.892c-0.7-0.058-1.343-0.417-1.761-0.982c-4.014-5.435-10.462-8.788-17.322-8.788
		c-0.437,0-0.873,0.013-1.309,0.04c-0.581,0.035-1.153-0.138-1.618-0.489C53.687,6.52,48.627,4.81,43.327,4.81
		c-9.49,0-17.913,5.503-21.84,13.836c-0.352,0.746-1.056,1.263-1.873,1.376C9.151,21.478,1.07,30.483,1.07,41.34
		c0,11.867,9.655,21.522,21.522,21.522H25.7v-8.48h-3.107C15.4,54.383,9.55,48.532,9.55,41.34c0-7.192,5.851-13.043,13.043-13.043
		c0.363,0,0.72,0.029,1.076,0.058c2.073,0.161,3.949-1.184,4.453-3.194c1.755-6.989,8.007-11.871,15.205-11.871
		c4.113,0,8.005,1.588,10.959,4.472c1.01,0.985,2.444,1.404,3.827,1.116c0.88-0.183,1.779-0.276,2.675-0.276
		c5.036,0,9.532,2.831,11.735,7.388c0.774,1.603,2.468,2.556,4.239,2.374c0.441-0.044,0.881-0.066,1.309-0.066
		c7.192,0,13.043,5.851,13.043,13.043c0,7.191-5.852,13.042-13.043,13.042h-3.107v8.48h3.107c11.868,0,21.523-9.655,21.523-21.522
		C99.594,30.079,90.9,20.81,79.871,19.892z"/>
</g>
</svg>
