<?xml version="1.0" encoding="utf-8"?>
<!-- Generator: Adobe Illustrator 16.0.0, SVG Export Plug-In . SVG Version: 6.00 Build 0)  -->
<!DOCTYPE svg PUBLIC "-//W3C//DTD SVG 1.1//EN" "http://www.w3.org/Graphics/SVG/1.1/DTD/svg11.dtd">
<svg version="1.1" id="Layer_1" xmlns="http://www.w3.org/2000/svg" xmlns:xlink="http://www.w3.org/1999/xlink" x="0px" y="0px"
	 width="100px" height="100px" viewBox="0 0 100 100" enable-background="new 0 0 100 100" xml:space="preserve">
<g>
	<path d="M68.527,48.039H31.578c-5.214,0-9.439,4.226-9.439,9.439v19.05c0,5.213,4.226,9.44,9.439,9.44h36.949
		c5.214,0,9.439-4.227,9.439-9.44v-19.05C77.966,52.264,73.741,48.039,68.527,48.039z M50.053,80.603
		c-7.51,0-13.601-6.09-13.601-13.601c0-7.51,6.091-13.599,13.601-13.599c7.513,0,13.603,6.089,13.603,13.599
		C63.656,74.513,57.565,80.603,50.053,80.603z"/>
	<circle cx="50.053" cy="67.003" r="6.499"/>
	<rect x="33.034" y="42.042" width="10.52" height="4.145"/>
	<path d="M79.702,22.626c-0.701-0.058-1.344-0.417-1.761-0.982c-4.03-5.458-10.504-8.825-17.392-8.825
		c-0.439,0-0.878,0.013-1.317,0.04c-0.582,0.036-1.154-0.138-1.619-0.489c-4.191-3.167-9.271-4.884-14.593-4.884
		c-9.528,0-17.985,5.526-21.927,13.894c-0.352,0.746-1.057,1.264-1.873,1.377C8.715,24.215,0.6,33.257,0.6,44.157
		c0,10.433,7.434,19.161,17.283,21.17v-7.849c0-0.324,0.02-0.643,0.042-0.96c-5.121-1.78-8.813-6.642-8.813-12.36
		c0-7.22,5.874-13.094,13.094-13.094c0.365,0,0.723,0.029,1.08,0.058c2.081,0.161,3.964-1.188,4.471-3.207
		c1.761-7.017,8.038-11.917,15.263-11.917c4.128,0,8.036,1.595,11.002,4.49c1.014,0.989,2.454,1.41,3.841,1.121
		c0.883-0.184,1.787-0.277,2.686-0.277c5.055,0,9.569,2.842,11.781,7.416c0.777,1.609,2.477,2.566,4.255,2.383
		c0.443-0.044,0.884-0.066,1.313-0.066c7.22,0,13.094,5.874,13.094,13.094c0,5.721-3.695,10.584-8.818,12.362
		c0.022,0.318,0.048,0.635,0.048,0.958v7.849c9.849-2.009,17.283-10.737,17.283-21.17C99.505,32.851,90.775,23.545,79.702,22.626z"
		/>
</g>
</svg>
