<?xml version="1.0" encoding="utf-8"?>
<!-- Generator: Adobe Illustrator 16.0.0, SVG Export Plug-In . SVG Version: 6.00 Build 0)  -->
<!DOCTYPE svg PUBLIC "-//W3C//DTD SVG 1.1//EN" "http://www.w3.org/Graphics/SVG/1.1/DTD/svg11.dtd">
<svg version="1.1" id="Layer_1" xmlns="http://www.w3.org/2000/svg" xmlns:xlink="http://www.w3.org/1999/xlink" x="0px" y="0px"
	 width="100px" height="100px" viewBox="0 0 100 100" enable-background="new 0 0 100 100" xml:space="preserve">
<g>
	<path d="M50.015,31.556c-16.429,0-29.797,13.367-29.797,29.798c0,16.425,13.368,29.793,29.797,29.793
		c16.428,0,29.793-13.368,29.793-29.793C79.808,44.923,66.443,31.556,50.015,31.556z M50.015,84.539
		c-12.788,0-23.189-10.399-23.189-23.186c0-12.792,10.401-23.192,23.189-23.192c12.784,0,23.187,10.4,23.187,23.192
		C73.202,74.14,62.799,84.539,50.015,84.539z"/>
	<path d="M79.284,23.906c-0.545-0.039-1.046-0.318-1.366-0.762c-4.001-5.549-10.518-8.981-17.457-8.981
		c-0.503,0-1.007,0.018-1.509,0.053c-0.45,0.031-0.895-0.103-1.253-0.378c-4.204-3.231-9.322-4.984-14.687-4.984
		c-9.586,0-18.083,5.619-21.952,14.1c-0.266,0.583-0.816,0.985-1.452,1.065C9.01,25.343,0.783,34.408,0.783,45.359
		c0,9.855,6.672,18.164,15.73,20.696c-0.215-1.538-0.334-3.106-0.334-4.702c0-1.476,0.104-2.925,0.289-4.351
		c-4.268-2.144-7.211-6.55-7.211-11.644c0-7.188,5.847-13.034,13.034-13.034c0.364,0,0.721,0.029,1.077,0.059
		c2.071,0.158,3.946-1.185,4.45-3.192c1.754-6.984,8.001-11.864,15.195-11.864c4.109,0,8,1.588,10.952,4.47
		c1.01,0.984,2.442,1.403,3.825,1.115c0.879-0.183,1.777-0.275,2.673-0.275c5.032,0,9.526,2.829,11.728,7.382
		c0.774,1.601,2.466,2.556,4.235,2.373c0.441-0.044,0.88-0.066,1.309-0.066c7.186,0,13.035,5.847,13.035,13.034
		c0,5.093-2.943,9.499-7.211,11.644c0.185,1.426,0.29,2.875,0.29,4.351c0,1.596-0.12,3.164-0.334,4.702
		c9.058-2.533,15.729-10.842,15.729-20.696C99.242,34.022,90.422,24.704,79.284,23.906z"/>
	<path d="M61.75,58.677l-14.848-9.389c-0.975-0.617-2.208-0.653-3.219-0.098c-1.01,0.558-1.638,1.619-1.638,2.772v18.776
		c0,1.153,0.627,2.215,1.638,2.772c1.01,0.556,2.244,0.52,3.219-0.098l14.848-9.388c0.917-0.58,1.473-1.59,1.473-2.675
		C63.223,60.266,62.667,59.256,61.75,58.677z"/>
</g>
</svg>
