<?xml version="1.0" encoding="utf-8"?>
<!-- Generator: Adobe Illustrator 16.0.0, SVG Export Plug-In . SVG Version: 6.00 Build 0)  -->
<!DOCTYPE svg PUBLIC "-//W3C//DTD SVG 1.1//EN" "http://www.w3.org/Graphics/SVG/1.1/DTD/svg11.dtd">
<svg version="1.1" id="Layer_1" xmlns="http://www.w3.org/2000/svg" xmlns:xlink="http://www.w3.org/1999/xlink" x="0px" y="0px"
	 width="100px" height="100px" viewBox="0 0 100 100" enable-background="new 0 0 100 100" xml:space="preserve">
<g>
	<path d="M49.932,31.373c-20.072,18.523-30.494-0.744-30.494,22.545c0,32.475,23.447,42.277,30.494,43.51
		c7.044-1.232,30.49-11.035,30.49-43.51C80.422,30.629,70.001,49.896,49.932,31.373z M72.798,56.467L42.875,86.393
		c-3.638-2.261-7.75-5.854-10.896-11.396l28.541-28.541c4.203,1.348,11.525,1.887,12.027,1.936
		C72.718,49.306,72.84,55.62,72.798,56.467z"/>
	<path d="M77.854,16.062c-0.695-0.06-1.333-0.415-1.75-0.976C72.313,9.984,66.248,6.84,59.795,6.84c-0.396,0-0.793,0.012-1.19,0.035
		c-0.578,0.034-1.146-0.138-1.608-0.486c-3.931-2.958-8.69-4.561-13.675-4.561c-8.93,0-16.858,5.166-20.576,12.992
		c-0.351,0.74-1.051,1.253-1.861,1.369c-9.838,1.401-17.429,9.882-17.429,20.102c0,8.236,4.938,15.328,12.002,18.51
		c-0.004-0.297-0.02-0.583-0.02-0.884c0-3.253,0.216-5.882,0.655-8.02c-2.822-2.256-4.638-5.721-4.638-9.607
		c0-6.785,5.521-12.305,12.306-12.305c0.343,0,0.68,0.027,1.015,0.055c1.955,0.151,3.726-1.117,4.202-3.014
		c1.654-6.594,7.554-11.199,14.344-11.199c3.88,0,7.552,1.499,10.34,4.219c0.953,0.929,2.306,1.325,3.609,1.053
		c0.83-0.173,1.68-0.261,2.524-0.261c4.75,0,8.992,2.671,11.071,6.97c0.73,1.512,2.327,2.411,3.999,2.239
		c0.416-0.042,0.831-0.063,1.234-0.063c6.785,0,12.305,5.52,12.305,12.305c0,3.886-1.815,7.351-4.637,9.607
		c0.438,2.137,0.655,4.766,0.655,8.019c0,0.301-0.016,0.587-0.02,0.884c7.064-3.182,12.002-10.273,12.002-18.51
		C96.404,25.687,88.231,16.954,77.854,16.062z"/>
</g>
</svg>
