<?xml version="1.0" encoding="utf-8"?>
<!-- Generator: Adobe Illustrator 16.0.0, SVG Export Plug-In . SVG Version: 6.00 Build 0)  -->
<!DOCTYPE svg PUBLIC "-//W3C//DTD SVG 1.1//EN" "http://www.w3.org/Graphics/SVG/1.1/DTD/svg11.dtd">
<svg version="1.1" id="Layer_1" xmlns="http://www.w3.org/2000/svg" xmlns:xlink="http://www.w3.org/1999/xlink" x="0px" y="0px"
	 width="100px" height="100px" viewBox="0 0 100 100" enable-background="new 0 0 100 100" xml:space="preserve">
<g>
	<path d="M50.142,30.759c-16.272,0-29.514,13.24-29.514,29.514c0,16.27,13.241,29.51,29.514,29.51s29.511-13.241,29.511-29.51
		C79.652,43.999,66.414,30.759,50.142,30.759z M50.142,83.239c-12.666,0-22.969-10.3-22.969-22.966
		c0-12.67,10.303-22.971,22.969-22.971c12.663,0,22.967,10.301,22.967,22.971C73.108,72.938,62.805,83.239,50.142,83.239z"/>
	<path d="M79.583,20.042c-0.7-0.058-1.343-0.417-1.761-0.981c-4.001-5.416-10.424-8.755-17.261-8.755
		c-0.433,0-0.868,0.014-1.302,0.04c-0.582,0.035-1.154-0.138-1.618-0.489c-4.16-3.144-9.202-4.846-14.484-4.846
		c-9.456,0-17.849,5.484-21.766,13.787c-0.352,0.745-1.056,1.262-1.872,1.375C9.095,21.625,1.043,30.599,1.043,41.417
		c0,9.749,6.543,17.984,15.463,20.584c-0.029-0.573-0.044-1.149-0.044-1.729c0-18.571,15.108-33.68,33.68-33.68
		c18.569,0,33.677,15.108,33.677,33.68c0,0.579-0.015,1.155-0.044,1.728c8.919-2.6,15.462-10.835,15.462-20.583
		C99.236,30.197,90.572,20.958,79.583,20.042z"/>
	<path d="M50.018,45.085v-1.262c0-0.507-0.287-0.969-0.74-1.195c-0.454-0.228-0.995-0.176-1.4,0.129l-6.081,4.592
		c-0.336,0.252-0.532,0.647-0.532,1.066c0,0.419,0.196,0.814,0.532,1.066l6.081,4.589c0.405,0.305,0.946,0.354,1.4,0.129
		c0.453-0.228,0.74-0.69,0.74-1.197v-1.178c5.141,0.502,9.318,4.338,10.198,9.355c0.199,1.072,1.123,1.846,2.209,1.846h2.233
		c0.651,0,1.274-0.277,1.696-0.773c0.429-0.49,0.616-1.146,0.517-1.794C65.61,52.094,58.613,45.607,50.018,45.085z"/>
	<path d="M58.206,71.123l-6.082-4.588c-0.404-0.305-0.946-0.355-1.4-0.129c-0.453,0.227-0.74,0.689-0.74,1.196v1.178
		c-5.142-0.502-9.319-4.338-10.198-9.355c-0.199-1.072-1.122-1.845-2.208-1.845h-2.234c-0.652,0-1.274,0.277-1.696,0.773
		c-0.428,0.49-0.617,1.145-0.518,1.794c1.262,8.364,8.259,14.851,16.854,15.372v1.262c0,0.507,0.287,0.971,0.74,1.196
		c0.454,0.226,0.996,0.176,1.4-0.13l6.082-4.592c0.334-0.252,0.531-0.647,0.531-1.065S58.54,71.375,58.206,71.123z"/>
</g>
</svg>
