<?xml version="1.0" encoding="utf-8"?>
<!-- Generator: Adobe Illustrator 16.0.0, SVG Export Plug-In . SVG Version: 6.00 Build 0)  -->
<!DOCTYPE svg PUBLIC "-//W3C//DTD SVG 1.1//EN" "http://www.w3.org/Graphics/SVG/1.1/DTD/svg11.dtd">
<svg version="1.1" id="Layer_1" xmlns="http://www.w3.org/2000/svg" xmlns:xlink="http://www.w3.org/1999/xlink" x="0px" y="0px"
	 width="100px" height="100px" viewBox="0 0 100 100" enable-background="new 0 0 100 100" xml:space="preserve">
<g>
	<path d="M44.723,80.268h-4.166V68.354c0-2.094-1.69-3.785-3.777-3.785H26.471c-2.086,0-3.778,1.691-3.778,3.785v11.914h-4.17
		c-0.954,0-1.823,0.561-2.226,1.423c-0.405,0.868-0.26,1.892,0.354,2.623L27.81,97.433c0.954,1.12,2.349,1.763,3.813,1.763
		c1.471,0,2.867-0.643,3.818-1.763l11.152-13.119c0.621-0.731,0.76-1.755,0.358-2.623C46.552,80.828,45.682,80.268,44.723,80.268z"
		/>
	<path d="M72.403,66.329c-0.953-1.119-2.348-1.763-3.812-1.763c-1.471,0-2.867,0.644-3.818,1.763l-11.152,13.12
		c-0.621,0.73-0.76,1.754-0.358,2.623c0.399,0.862,1.269,1.423,2.229,1.423h4.165v11.913c0,2.094,1.691,3.786,3.777,3.786h10.31
		c2.085,0,3.778-1.692,3.778-3.786V83.495h4.17c0.953,0,1.823-0.561,2.225-1.423c0.406-0.869,0.261-1.893-0.353-2.623L72.403,66.329
		z"/>
	<path d="M79.128,16.19c-0.544-0.039-1.045-0.318-1.365-0.761C73.797,9.932,67.34,6.53,60.464,6.53c-0.497,0-0.994,0.018-1.49,0.053
		c-0.45,0.031-0.895-0.103-1.253-0.378c-4.165-3.201-9.238-4.937-14.554-4.937c-9.499,0-17.919,5.566-21.755,13.967
		c-0.267,0.582-0.815,0.984-1.451,1.064C9.46,17.616,1.31,26.602,1.31,37.454c0,11.755,9.563,21.319,21.319,21.319h54.954
		c11.756,0,21.32-9.564,21.32-21.319C98.903,26.218,90.164,16.983,79.128,16.19z M77.583,50.374H22.629
		c-7.124,0-12.92-5.797-12.92-12.92c0-7.124,5.796-12.92,12.92-12.92c0.359,0,0.714,0.028,1.066,0.058
		c2.053,0.158,3.91-1.174,4.411-3.165c1.736-6.923,7.931-11.759,15.061-11.759c4.074,0,7.93,1.574,10.856,4.431
		c1,0.976,2.421,1.391,3.789,1.105c0.872-0.182,1.764-0.273,2.651-0.273c4.988,0,9.442,2.804,11.624,7.317
		c0.767,1.588,2.444,2.532,4.199,2.352c0.437-0.044,0.872-0.065,1.296-0.065c7.124,0,12.92,5.796,12.92,12.92
		C90.503,44.577,84.707,50.374,77.583,50.374z"/>
	<polygon points="33.884,28.907 39.396,28.907 39.396,45.443 43.999,45.443 43.999,28.907 49.572,28.907 49.572,25.03 33.884,25.03 
			"/>
	<path d="M62.271,34.449v-0.061c2.271-0.879,3.332-2.544,3.332-4.331c0-1.878-1.001-3.271-2.423-4.027
		c-1.484-0.879-3.211-1.151-6.027-1.151c-2.332,0-4.756,0.212-5.967,0.454v20.019c1.03,0.152,2.726,0.304,4.998,0.304
		c4.059,0,6.541-0.667,8.025-1.848c1.271-1,2.119-2.453,2.119-4.331C66.328,36.842,64.602,35.055,62.271,34.449z M55.758,28.393
		c0.365-0.092,0.939-0.152,1.97-0.152c2.09,0,3.271,0.817,3.271,2.362c0,1.515-1.272,2.514-3.727,2.514h-1.515V28.393z
		 M57.545,42.264c-0.786,0-1.332,0-1.787-0.092v-5.754h1.576c2.301,0,4.149,0.817,4.149,2.877
		C61.483,41.445,59.635,42.264,57.545,42.264z"/>
</g>
</svg>
