<?xml version="1.0" encoding="utf-8"?>
<!-- Generator: Adobe Illustrator 16.0.0, SVG Export Plug-In . SVG Version: 6.00 Build 0)  -->
<!DOCTYPE svg PUBLIC "-//W3C//DTD SVG 1.1//EN" "http://www.w3.org/Graphics/SVG/1.1/DTD/svg11.dtd">
<svg version="1.1" id="Layer_1" xmlns="http://www.w3.org/2000/svg" xmlns:xlink="http://www.w3.org/1999/xlink" x="0px" y="0px"
	 width="100px" height="100px" viewBox="0 0 100 100" enable-background="new 0 0 100 100" xml:space="preserve">
<g>
	<path d="M68.271,55.891h-0.375c0.979-3.674,2.046-7.66,2.222-8.365c2.602-10.539-3.761-21.207-14.183-23.778
		c-10.417-2.572-21.011,3.912-23.61,14.45c-0.169,0.681-1.155,4.676-1.92,7.762c-0.17,0.69-0.06,1.419,0.308,2.027
		c0.366,0.608,0.961,1.046,1.653,1.216l2,0.494c1.436,0.354,2.888-0.523,3.243-1.958c0.76-3.086,1.745-7.085,1.915-7.767
		c1.61-6.52,8.167-10.531,14.614-8.939c6.451,1.588,10.384,8.191,8.778,14.711c-0.204,0.82-1.623,6.099-2.7,10.146H29.333h-0.006
		c-5.085,0-9.208,4.168-9.208,9.311v24.586c0,5.143,4.123,9.311,9.208,9.311h38.941c5.082,0,9.203-4.168,9.203-9.311V65.197
		C77.47,60.057,73.35,55.891,68.271,55.891z M52.335,77.728v7.69c0,1.977-1.581,3.581-3.542,3.581c-1.952,0-3.538-1.604-3.538-3.581
		v-7.69c-1.727-1.164-2.866-3.147-2.866-5.4c0-3.578,2.866-6.481,6.404-6.481c3.542,0,6.41,2.903,6.41,6.481
		C55.202,74.581,54.066,76.563,52.335,77.728z"/>
	<path d="M76.718,15.165c-0.695-0.06-1.333-0.415-1.75-0.976c-3.79-5.102-9.856-8.246-16.309-8.246
		c-0.396,0-0.793,0.012-1.189,0.035c-0.578,0.034-1.146-0.138-1.608-0.486C51.93,2.534,47.17,0.931,42.186,0.931
		c-8.93,0-16.858,5.166-20.576,12.992c-0.351,0.74-1.051,1.253-1.861,1.369C9.91,16.694,2.32,25.175,2.32,35.395
		c0,10.395,7.856,18.978,17.94,20.155c2.281-2.177,5.319-3.555,8.677-3.653c-0.657-0.505-1.222-1.13-1.653-1.847
		c-0.442-0.732-0.731-1.529-0.868-2.351h-3.792c-6.785,0-12.305-5.52-12.305-12.305c0-6.785,5.52-12.305,12.305-12.305
		c0.343,0,0.68,0.027,1.015,0.055c1.955,0.151,3.726-1.117,4.202-3.014c1.655-6.594,7.554-11.199,14.344-11.199
		c3.88,0,7.552,1.499,10.339,4.219c0.953,0.929,2.306,1.325,3.61,1.053c0.83-0.173,1.679-0.261,2.524-0.261
		c4.75,0,8.993,2.671,11.071,6.97c0.73,1.512,2.328,2.411,3.999,2.239c0.416-0.042,0.831-0.063,1.234-0.063
		c6.785,0,12.305,5.52,12.305,12.305c0,6.785-5.52,12.305-12.305,12.305h-0.789c-0.056,0.262-0.109,0.524-0.174,0.786
		c-0.111,0.446-0.562,2.14-1.122,4.242c1.676,0.631,3.185,1.603,4.46,2.821c10.08-1.182,17.93-9.762,17.93-20.153
		C95.269,24.79,87.096,16.057,76.718,15.165z"/>
</g>
</svg>
