<?xml version="1.0" encoding="utf-8"?>
<!-- Generator: Adobe Illustrator 16.0.0, SVG Export Plug-In . SVG Version: 6.00 Build 0)  -->
<!DOCTYPE svg PUBLIC "-//W3C//DTD SVG 1.1//EN" "http://www.w3.org/Graphics/SVG/1.1/DTD/svg11.dtd">
<svg version="1.1" id="Layer_1" xmlns="http://www.w3.org/2000/svg" xmlns:xlink="http://www.w3.org/1999/xlink" x="0px" y="0px"
	 width="100px" height="100px" viewBox="0 0 100 100" enable-background="new 0 0 100 100" xml:space="preserve">
<g>
	<path d="M79.232,15.801c-0.712-0.062-1.363-0.424-1.79-0.998C73.565,9.584,67.36,6.368,60.761,6.368
		c-0.405,0-0.812,0.013-1.217,0.036c-0.591,0.035-1.173-0.141-1.646-0.498c-4.021-3.025-8.887-4.665-13.987-4.665
		c-9.134,0-17.243,5.284-21.047,13.289c-0.36,0.757-1.075,1.282-1.903,1.4C10.897,17.365,3.133,26.04,3.133,36.493
		c0,8.424,5.051,15.679,12.276,18.933c-0.004-0.304-0.02-0.596-0.02-0.903c0-3.328,0.222-6.017,0.67-8.204
		c-2.886-2.307-4.744-5.852-4.744-9.827c0-6.94,5.647-12.586,12.587-12.586c0.351,0,0.696,0.028,1.038,0.057
		c2,0.154,3.812-1.143,4.298-3.083c1.692-6.745,7.727-11.455,14.672-11.455c3.968,0,7.724,1.533,10.576,4.315
		c0.976,0.95,2.358,1.355,3.692,1.077c0.848-0.177,1.718-0.267,2.582-0.267c4.858,0,9.196,2.732,11.323,7.129
		c0.747,1.546,2.381,2.466,4.091,2.29c0.426-0.043,0.85-0.064,1.262-0.064c6.939,0,12.587,5.646,12.587,12.586
		c0,3.975-1.857,7.519-4.744,9.827c0.448,2.186,0.669,4.875,0.669,8.203c0,0.308-0.016,0.6-0.02,0.903
		c7.226-3.254,12.276-10.507,12.276-18.933C98.207,25.646,89.848,16.714,79.232,15.801z"/>
	<path d="M50.672,31.462C30.141,50.409,19.48,30.701,19.48,54.522c0,33.218,23.983,43.243,31.191,44.505
		c7.204-1.261,31.188-11.287,31.188-44.505C81.859,30.702,71.201,50.409,50.672,31.462z M67.887,61.975l-17.961,17.96
		c-0.951,0.953-2.199,1.429-3.446,1.429c-1.248,0-2.495-0.477-3.447-1.429l-9.58-9.579c-1.903-1.904-1.903-4.989,0-6.894
		c1.901-1.903,4.99-1.903,6.892,0l6.135,6.134l14.516-14.514c1.901-1.904,4.991-1.904,6.892,0
		C69.792,56.984,69.792,60.07,67.887,61.975z"/>
</g>
</svg>
