<?xml version="1.0" encoding="utf-8"?>
<!-- Generator: Adobe Illustrator 16.0.0, SVG Export Plug-In . SVG Version: 6.00 Build 0)  -->
<!DOCTYPE svg PUBLIC "-//W3C//DTD SVG 1.1//EN" "http://www.w3.org/Graphics/SVG/1.1/DTD/svg11.dtd">
<svg version="1.1" id="Layer_1" xmlns="http://www.w3.org/2000/svg" xmlns:xlink="http://www.w3.org/1999/xlink" x="0px" y="0px"
	 width="100px" height="100px" viewBox="0 0 100 100" enable-background="new 0 0 100 100" xml:space="preserve">
<g>
	<path d="M14.189,31.106h3.705v24.677c0,1.862,1.505,3.367,3.361,3.367h9.172c1.855,0,3.36-1.505,3.36-3.367V31.106h3.711
		c0.848,0,1.623-0.494,1.979-1.264c0.362-0.775,0.233-1.685-0.313-2.335l-9.928-11.67c-0.848-0.996-2.09-1.566-3.393-1.566
		c-1.307,0-2.549,0.571-3.397,1.566l-9.922,11.67c-0.553,0.65-0.676,1.56-0.32,2.335C12.561,30.612,13.335,31.106,14.189,31.106z"/>
	<path d="M94.256,34.262H60.553c-2.875,0-5.204,2.329-5.204,5.204v44.211c0,2.876,2.329,5.205,5.204,5.205h33.703
		c2.878,0,5.207-2.329,5.207-5.205V39.466C99.462,36.59,97.134,34.262,94.256,34.262z M77.535,84.919
		c-1.866,0-3.382-1.531-3.382-3.398c0-1.871,1.516-3.389,3.382-3.389c1.88,0,3.403,1.518,3.403,3.389
		C80.938,83.388,79.415,84.919,77.535,84.919z M77.679,76.065c-3.012,0-5.449-2.457-5.449-5.466c0-3.017,2.437-5.465,5.449-5.465
		c3.023,0,5.465,2.449,5.465,5.465C83.144,73.609,80.702,76.065,77.679,76.065z M93.159,49.806H61.647v-7.987h31.512V49.806z"/>
	<path d="M46.53,34.312h-9.597v7.258h7.216v27.466H7.455V41.57h7.293v-7.258H5.108c-2.669,0-4.835,2.02-4.835,4.693v32.323
		c0,2.681,2.166,4.955,4.835,4.955h17.108v5.345h-6.353c-2.434,0-4.519,1.975-4.519,4.399v2.848h28.994v-2.848
		c0-2.424-1.865-4.399-4.294-4.399h-6.581v-5.345H46.53c2.672,0,4.876-2.274,4.876-4.955V39.005
		C51.406,36.332,49.203,34.312,46.53,34.312z"/>
</g>
</svg>
