<?xml version="1.0" encoding="utf-8"?>
<!-- Generator: Adobe Illustrator 16.0.0, SVG Export Plug-In . SVG Version: 6.00 Build 0)  -->
<!DOCTYPE svg PUBLIC "-//W3C//DTD SVG 1.1//EN" "http://www.w3.org/Graphics/SVG/1.1/DTD/svg11.dtd">
<svg version="1.1" id="Layer_1" xmlns="http://www.w3.org/2000/svg" xmlns:xlink="http://www.w3.org/1999/xlink" x="0px" y="0px"
	 width="100px" height="100px" viewBox="0 0 100 100" enable-background="new 0 0 100 100" xml:space="preserve">
<g>
	<path d="M79.683,30.678c-0.7-0.058-1.343-0.417-1.761-0.982c-4.02-5.442-10.474-8.799-17.342-8.799
		c-0.438,0-0.875,0.013-1.312,0.04c-0.581,0.035-1.153-0.138-1.617-0.489c-4.18-3.158-9.246-4.87-14.553-4.87
		c-9.5,0-17.934,5.51-21.865,13.853c-0.352,0.746-1.057,1.263-1.873,1.376C8.886,32.265,0.795,41.281,0.795,52.15
		c0,11.881,9.666,21.546,21.547,21.546h7.915v5.48c0,2.931,2.375,5.306,5.306,5.306h25.79v-4.094h8.903
		c2.931,0,5.306-2.375,5.306-5.306V63.858c0-2.931-2.375-5.307-5.306-5.307h-8.903v-4.093h-25.79c-2.931,0-5.306,2.375-5.306,5.306
		v5.442h-7.915c-7.2,0-13.058-5.856-13.058-13.057s5.857-13.058,13.058-13.058c0.363,0,0.721,0.029,1.077,0.058
		c2.075,0.161,3.953-1.186,4.458-3.198c1.756-6.997,8.017-11.884,15.222-11.884c4.118,0,8.015,1.59,10.973,4.478
		c1.011,0.986,2.446,1.406,3.83,1.118c0.881-0.184,1.782-0.277,2.679-0.277c5.041,0,9.543,2.834,11.748,7.396
		c0.775,1.604,2.471,2.559,4.244,2.376c0.441-0.044,0.882-0.066,1.31-0.066c7.2,0,13.059,5.857,13.059,13.058
		c0,6.545-4.846,11.964-11.134,12.899v8.55C90.788,72.621,99.43,63.381,99.43,52.15C99.43,40.876,90.724,31.597,79.683,30.678z
		 M61.353,63.858h7.716c0.656,0,1.188,0.531,1.188,1.188v8.85c0,0.656-0.531,1.188-1.188,1.188h-7.716V63.858z"/>
	<rect x="64.355" y="66.103" width="2.95" height="2.246"/>
	<rect x="64.355" y="70.593" width="2.95" height="2.246"/>
</g>
</svg>
