<?xml version="1.0" encoding="utf-8"?>
<!-- Generator: Adobe Illustrator 16.0.0, SVG Export Plug-In . SVG Version: 6.00 Build 0)  -->
<!DOCTYPE svg PUBLIC "-//W3C//DTD SVG 1.1//EN" "http://www.w3.org/Graphics/SVG/1.1/DTD/svg11.dtd">
<svg version="1.1" id="Layer_1" xmlns="http://www.w3.org/2000/svg" xmlns:xlink="http://www.w3.org/1999/xlink" x="0px" y="0px"
	 width="100px" height="100px" viewBox="0 0 100 100" enable-background="new 0 0 100 100" xml:space="preserve">
<g>
	<path d="M86.916,0.91H12.701c-4.786,0-8.654,3.621-8.654,8.406v57.911c0,4.802,3.868,8.877,8.654,8.877h30.66v9.586H31.977
		c-4.358,0-8.108,3.537-8.108,7.881v5.106h51.955v-5.106c0-4.345-3.344-7.881-7.689-7.881H56.342v-9.586h30.574
		c4.786,0,8.74-4.076,8.74-8.877V9.316C95.656,4.531,91.702,0.91,86.916,0.91z M82.657,63.12H16.905V13.899h65.751V63.12z"/>
	<path d="M37.998,50.891h23.709c5.072,0,9.198-4.126,9.198-9.198c0-4.644-3.46-8.495-7.938-9.112
		c-0.606-0.083-1.159-0.392-1.548-0.863c-1.727-2.092-4.334-3.366-7.099-3.366c-0.051,0-0.103,0-0.154,0.001
		c-0.513,0.009-1.011-0.144-1.432-0.436c-1.717-1.193-3.751-1.836-5.876-1.836c-3.849,0-7.287,2.119-9.063,5.378
		c-0.344,0.631-0.948,1.079-1.652,1.223c-4.186,0.86-7.344,4.573-7.344,9.01C28.799,46.765,32.926,50.891,37.998,50.891z"/>
</g>
</svg>
