<?xml version="1.0" encoding="utf-8"?>
<!-- Generator: Adobe Illustrator 16.0.0, SVG Export Plug-In . SVG Version: 6.00 Build 0)  -->
<!DOCTYPE svg PUBLIC "-//W3C//DTD SVG 1.1//EN" "http://www.w3.org/Graphics/SVG/1.1/DTD/svg11.dtd">
<svg version="1.1" id="Layer_1" xmlns="http://www.w3.org/2000/svg" xmlns:xlink="http://www.w3.org/1999/xlink" x="0px" y="0px"
	 width="100px" height="100px" viewBox="0 0 100 100" enable-background="new 0 0 100 100" xml:space="preserve">
<g>
	<path d="M76.554,72.228c-0.109,0.076-11.023,7.663-26.562,7.663c-15.769,0-26.055-7.452-26.232-7.581
		c-2.524-1.895-6.103-1.395-8.01,1.124c-1.91,2.523-1.414,6.119,1.11,8.03c0.534,0.402,13.289,9.891,33.132,9.891
		c19.372,0,32.677-9.406,33.234-9.807c2.562-1.842,3.145-5.403,1.313-7.975C82.707,71.003,79.131,70.402,76.554,72.228z"/>
	<path d="M25.142,58.657c-1.709,2.663-0.939,6.21,1.725,7.922c7.251,4.658,15.112,6.987,23.039,6.987
		c7.895,0,15.857-2.312,23.343-6.935c2.692-1.663,3.528-5.194,1.865-7.889s-5.197-3.527-7.89-1.866
		c-11.264,6.953-23.394,6.972-34.16,0.056C30.399,55.223,26.853,55.993,25.142,58.657z"/>
	<path d="M49.824,56.221c5.346,0,10.773-1.534,16.246-4.604c2.762-1.548,3.743-5.041,2.195-7.803
		c-1.55-2.761-5.043-3.744-7.804-2.196c-7.426,4.164-13.775,4.201-20.577,0.115c-2.714-1.627-6.236-0.75-7.865,1.965
		c-1.629,2.713-0.75,6.235,1.964,7.864C39.154,54.669,44.447,56.221,49.824,56.221z"/>
	<path d="M79.421,22.609c-0.73-0.063-1.4-0.436-1.838-1.025c-3.979-5.358-10.35-8.66-17.127-8.66c-0.416,0-0.833,0.013-1.249,0.037
		c-0.607,0.036-1.204-0.146-1.69-0.51c-4.128-3.106-9.125-4.79-14.36-4.79c-9.379,0-17.704,5.425-21.61,13.644
		c-0.369,0.777-1.104,1.316-1.954,1.438C9.261,24.215,1.29,33.121,1.29,43.854c0,11.093,8.517,20.225,19.354,21.223
		c-0.957-2.687-0.762-5.742,0.785-8.361c-6.571-0.601-11.738-6.138-11.738-12.862c0-7.126,5.798-12.923,12.923-12.923
		c0.36,0,0.714,0.029,1.066,0.058c2.053,0.158,3.914-1.173,4.413-3.166c1.738-6.925,7.933-11.761,15.064-11.761
		c4.074,0,7.93,1.574,10.858,4.431c1.001,0.976,2.422,1.392,3.791,1.106c0.872-0.182,1.764-0.274,2.649-0.274
		c4.988,0,9.443,2.805,11.627,7.32c0.766,1.588,2.443,2.532,4.199,2.351c0.438-0.044,0.873-0.066,1.297-0.066
		c7.125,0,12.922,5.797,12.922,12.923c0,6.72-5.157,12.253-11.723,12.861c1.551,2.626,1.735,5.679,0.779,8.361
		c10.833-1.002,19.345-10.133,19.345-21.223C98.902,32.717,90.32,23.547,79.421,22.609z"/>
</g>
</svg>
