<?xml version="1.0" encoding="utf-8"?>
<!-- Generator: Adobe Illustrator 17.0.0, SVG Export Plug-In . SVG Version: 6.00 Build 0)  -->
<!DOCTYPE svg PUBLIC "-//W3C//DTD SVG 1.1//EN" "http://www.w3.org/Graphics/SVG/1.1/DTD/svg11.dtd">
<svg version="1.1" id="Capa_1" xmlns="http://www.w3.org/2000/svg" xmlns:xlink="http://www.w3.org/1999/xlink" x="0px" y="0px"
	 width="100px" height="100px" viewBox="0 0 100 100" enable-background="new 0 0 100 100" xml:space="preserve">
<path d="M86.716,47.977c0,11.159-9.079,20.237-20.24,20.237c-1.489,0-2.996-0.175-4.494-0.519c-2.68,4.248-7.349,6.849-12.415,6.849
	c-6.163,0-11.591-3.83-13.72-9.498c-1.999,0.978-4.188,1.488-6.419,1.488c-8.092,0-14.676-6.583-14.676-14.676
	c0-8.093,6.584-14.676,14.676-14.676c1.418,0,2.815,0.205,4.167,0.608c1.966-5.986,7.503-10.055,13.924-10.055
	c3.115,0,6.152,0.998,8.657,2.828c3.12-1.852,6.661-2.828,10.3-2.828C77.636,27.735,86.716,36.815,86.716,47.977z"/>
</svg>
