<?xml version="1.0" encoding="utf-8"?>
<!-- Generator: Adobe Illustrator 17.0.0, SVG Export Plug-In . SVG Version: 6.00 Build 0)  -->
<!DOCTYPE svg PUBLIC "-//W3C//DTD SVG 1.1//EN" "http://www.w3.org/Graphics/SVG/1.1/DTD/svg11.dtd">
<svg version="1.1" id="Capa_1" xmlns="http://www.w3.org/2000/svg" xmlns:xlink="http://www.w3.org/1999/xlink" x="0px" y="0px"
	 width="100px" height="100px" viewBox="0 0 100 100" enable-background="new 0 0 100 100" xml:space="preserve">
<path d="M36.439,40.686c-2.592,0-4.699,2.108-4.699,4.699c0,2.593,2.107,4.698,4.699,4.698s4.7-2.106,4.699-4.698
	C41.138,42.794,39.031,40.686,36.439,40.686z M36.439,47.735c-1.295,0-2.35-1.054-2.35-2.35c0-1.294,1.055-2.35,2.35-2.35
	s2.35,1.055,2.35,2.35C38.789,46.681,37.734,47.735,36.439,47.735z M53.064,58.379c-3.91,0-6.226-2.462-6.226-6.369
	c0-4.342,2.72-6.456,6.195-6.456c1.592,0,2.836,0.349,3.704,0.725l0.927-3.475c-0.782-0.435-2.519-0.869-4.806-0.869
	c-5.905,0-10.653,3.678-10.653,10.336c0,5.557,3.475,9.783,10.221,9.783c2.345,0,4.198-0.464,4.979-0.84l-0.637-3.474
	C55.871,58.117,54.423,58.379,53.064,58.379z"/>
</svg>
