<svg width="100" xmlns="http://www.w3.org/2000/svg" height="100" viewBox="0 0 100 100" xmlns:xlink="http://www.w3.org/1999/xlink" enable-background="new 0 0 100 100">
<path d="m68.561,50.963h-34.338c-.468,0-.848,.526-.848,1.176 0,.648 .38,1.174 .848,1.174h34.337c.467,0 .848-.526 .848-1.174 0-.651-.381-1.176-.847-1.176z"/>
<path d="m34.223,47.046h34.337c.467,0 .847-.525 .848-1.175 0-.649-.381-1.175-.848-1.175h-34.337c-.468,0-.848,.527-.848,1.175 0,.65 .38,1.175 .848,1.175z"/>
<path d="m68.561,58.011h-34.338c-.468,0-.848,.526-.848,1.175s.38,1.174 .848,1.174h34.337c.467,0 .847-.525 .848-1.174 0-.65-.381-1.175-.847-1.175z"/>
<path d="m68.561,65.354h-34.338c-.468,0-.848,.525-.848,1.174 0,.649 .38,1.176 .848,1.176h34.337c.467,0 .847-.526 .848-1.176 0-.65-.381-1.174-.847-1.174z"/>
</svg>
