<?xml version="1.0" encoding="utf-8"?>
<!-- Generator: Adobe Illustrator 17.0.0, SVG Export Plug-In . SVG Version: 6.00 Build 0)  -->
<!DOCTYPE svg PUBLIC "-//W3C//DTD SVG 1.1//EN" "http://www.w3.org/Graphics/SVG/1.1/DTD/svg11.dtd">
<svg version="1.1" id="Capa_1" xmlns="http://www.w3.org/2000/svg" xmlns:xlink="http://www.w3.org/1999/xlink" x="0px" y="0px"
	 width="100px" height="100px" viewBox="0 0 100 100" enable-background="new 0 0 100 100" xml:space="preserve">
<path d="M37.249,46.505h-14.23c-0.194,0-0.352,0.526-0.352,1.175s0.159,1.175,0.352,1.175h14.23c0.195,0,0.352-0.526,0.352-1.175
	S37.444,46.505,37.249,46.505z M36.651,53.555H19.483c-0.234,0-0.424,0.526-0.424,1.174s0.191,1.176,0.424,1.176h17.168
	c0.235,0,0.424-0.528,0.424-1.176C37.075,54.08,36.885,53.555,36.651,53.555z M36.737,60.896h-13.73c-0.188,0-0.34,0.525-0.34,1.174
	c0,0.65,0.152,1.176,0.34,1.176h13.73c0.187,0,0.338-0.525,0.338-1.176C37.075,61.422,36.924,60.896,36.737,60.896z M71.734,38.231
	c-2.172,0-4.311,0.551-6.213,1.595c-1.558-1.031-3.418-1.595-5.283-1.595c-3.93,0-7.415,2.372-8.86,5.965
	c-0.69-0.155-1.398-0.236-2.11-0.236c-5.274,0-9.565,4.293-9.565,9.567s4.291,9.565,9.565,9.565c1.206,0,2.417-0.235,3.542-0.686
	c1.549,3.342,4.948,5.543,8.672,5.543c3.146,0,6.041-1.515,7.832-4.075c0.811,0.156,1.621,0.236,2.422,0.236
	c7.136,0,12.939-5.805,12.939-12.94C84.676,44.036,78.871,38.231,71.734,38.231z"/>
</svg>
