<?xml version="1.0" encoding="utf-8"?>
<!-- Generator: Adobe Illustrator 16.0.4, SVG Export Plug-In . SVG Version: 6.00 Build 0)  -->
<!DOCTYPE svg PUBLIC "-//W3C//DTD SVG 1.1//EN" "http://www.w3.org/Graphics/SVG/1.1/DTD/svg11.dtd">
<svg version="1.1" id="Capa_1" xmlns="http://www.w3.org/2000/svg" xmlns:xlink="http://www.w3.org/1999/xlink" x="0px" y="0px"
	 width="100px" height="100px" viewBox="0 0 100 100" enable-background="new 0 0 100 100" xml:space="preserve">
<path d="M65.424,25.694c-3.335,0-6.582,0.894-9.443,2.592c-2.295-1.676-5.08-2.592-7.934-2.592c-5.885,0-10.961,3.73-12.763,9.217
	c-1.24-0.37-2.52-0.557-3.82-0.557c-7.417,0-13.452,6.034-13.452,13.452c0,4.665,2.389,8.78,6.005,11.194
	c2.134,1.424,4.694,2.258,7.446,2.258c2.045,0,4.052-0.469,5.884-1.363c0.106,0.282,0.226,0.56,0.349,0.832
	c1.478,3.252,4.177,5.746,7.456,6.992c0.199,0.075,0.407,0.135,0.61,0.202l-3.433,5.86l3.818,2.644l-3.818,10.279l10.866-9.618
	l-5.433-3.305l5.433-5.614l-0.002-0.007c2.556-0.643,4.865-2.01,6.646-3.96c0.533-0.583,1.035-1.199,1.464-1.88
	c0.321,0.074,0.646,0.111,0.965,0.168c1.053,0.185,2.108,0.308,3.154,0.308c10.229,0,18.551-8.321,18.551-18.55
	C83.975,34.017,75.652,25.694,65.424,25.694z M76.122,56.382c-2.856,2.521-6.597,4.065-10.698,4.065c-0.115,0-0.232-0.01-0.35-0.012
	c-0.242-0.006-0.484-0.011-0.727-0.026c-0.933-0.065-1.867-0.224-2.801-0.455c-0.165-0.04-0.329-0.074-0.492-0.12
	c-0.531-0.148-1.091,0.091-1.353,0.573c-0.379,0.702-0.847,1.337-1.353,1.931c-2.086,2.444-5.137,3.913-8.428,3.913
	c-4.971,0-9.301-3.301-10.656-8.062c-0.03-0.104-0.066-0.207-0.094-0.312c-0.092-0.365-0.354-0.665-0.704-0.804
	c-0.14-0.056-0.288-0.084-0.434-0.084c-0.221,0-0.439,0.062-0.63,0.184c-1.787,1.138-3.84,1.736-5.941,1.736
	c-2.197,0-4.24-0.649-5.965-1.755c-2.425-1.553-4.208-4.019-4.859-6.912c-0.177-0.785-0.277-1.599-0.277-2.436
	c0-6.123,4.98-11.103,11.102-11.103c1.433,0,2.837,0.275,4.174,0.818c0.319,0.13,0.68,0.114,0.987-0.047
	c0.306-0.159,0.526-0.445,0.602-0.782c1.149-5.093,5.599-8.65,10.82-8.65c2.592,0,5.116,0.916,7.105,2.576
	c0.396,0.331,0.965,0.363,1.396,0.08c2.646-1.737,5.715-2.656,8.873-2.656c8.936,0,16.202,7.269,16.202,16.204
	C81.625,49.079,79.488,53.41,76.122,56.382z"/>
</svg>
