<?xml version="1.0" encoding="utf-8"?>
<!-- Generator: Adobe Illustrator 17.0.0, SVG Export Plug-In . SVG Version: 6.00 Build 0)  -->
<!DOCTYPE svg PUBLIC "-//W3C//DTD SVG 1.1//EN" "http://www.w3.org/Graphics/SVG/1.1/DTD/svg11.dtd">
<svg version="1.1" id="Capa_1" xmlns="http://www.w3.org/2000/svg" xmlns:xlink="http://www.w3.org/1999/xlink" x="0px" y="0px"
	 width="100px" height="100px" viewBox="0 0 100 100" enable-background="new 0 0 100 100" xml:space="preserve">
<path d="M80.303,35.381c2.98-2.371,4.9-6.023,4.9-10.12c0-7.135-5.805-12.94-12.939-12.94c-2.173,0-4.312,0.549-6.213,1.593
	c-1.559-1.03-3.418-1.593-5.285-1.593c-3.93,0-7.414,2.373-8.861,5.966c-0.69-0.158-1.397-0.236-2.108-0.236
	c-5.275,0-9.566,4.291-9.566,9.565c0,1.567,0.387,3.043,1.057,4.349c-2.191,1.615-3.883,3.895-4.772,6.605
	c-1.24-0.371-2.521-0.558-3.82-0.558c-7.417,0-13.452,6.035-13.452,13.452c0,7.418,6.035,13.452,13.452,13.452
	c2.045,0,4.053-0.468,5.884-1.363c0.989,2.633,2.758,4.829,4.996,6.358V66.89c-1.505-1.412-2.635-3.242-3.17-5.355
	c-0.092-0.366-0.354-0.664-0.704-0.805c-0.14-0.056-0.287-0.082-0.435-0.082c-0.22,0-0.439,0.062-0.63,0.184
	c-1.786,1.136-3.841,1.734-5.941,1.734c-6.122,0-11.103-4.98-11.103-11.104s4.98-11.103,11.103-11.103
	c1.434,0,2.837,0.276,4.175,0.819c0.318,0.13,0.68,0.113,0.986-0.046c0.305-0.161,0.525-0.446,0.602-0.783
	c0.602-2.666,2.112-4.902,4.158-6.437c0.795-0.596,1.669-1.082,2.604-1.446c1.262-0.491,2.628-0.767,4.058-0.767
	c2.592,0,5.115,0.914,7.106,2.575c0.397,0.332,0.964,0.363,1.397,0.079c2.646-1.736,5.714-2.654,8.871-2.654
	c3.439,0,6.627,1.085,9.252,2.92c0.873,0.608,1.68,1.302,2.414,2.066c2.803,2.914,4.537,6.863,4.537,11.216
	c0,8.933-7.269,16.202-16.203,16.202c-1.443,0-2.914-0.207-4.368-0.614c-0.53-0.148-1.091,0.091-1.353,0.573
	c-1.197,2.224-3.09,3.904-5.316,4.881v2.513c2.824-0.989,5.281-2.883,6.919-5.479c1.372,0.316,2.754,0.477,4.118,0.477
	c10.229,0,18.553-8.321,18.553-18.551C85.205,43.073,83.336,38.684,80.303,35.381L80.303,35.381z M78.164,33.385
	C74.996,30.867,71,29.353,66.65,29.353c-3.334,0-6.58,0.894-9.441,2.592c-2.295-1.678-5.08-2.592-7.934-2.592
	c-1.949,0-3.807,0.418-5.488,1.163c-0.426-0.879-0.672-1.859-0.672-2.9c0-3.682,2.996-6.679,6.68-6.679
	c0.861,0,1.707,0.165,2.51,0.492c0.174,0.07,0.357,0.106,0.545,0.106c0.232,0,0.463-0.057,0.668-0.162
	c0.377-0.198,0.646-0.548,0.74-0.962c0.691-3.065,3.368-5.205,6.508-5.205c1.56,0,3.078,0.55,4.275,1.548
	c0.259,0.218,0.588,0.337,0.926,0.337c0.281,0,0.555-0.082,0.791-0.236c1.643-1.078,3.547-1.648,5.506-1.648
	c5.543,0,10.053,4.51,10.053,10.055C82.316,28.6,80.674,31.554,78.164,33.385z M53.096,71.811l0.336-2.435
	c-0.742,0.112-1.492,0.19-2.26,0.19c-0.945,0-3.609-0.889-4.516-1.06l-0.377,2.687l-3.252,5.377l3.818,2.645l-3.818,10.279
	l10.868-9.619L48.46,76.57C48.46,76.57,53.096,71.811,53.096,71.811z"/>
</svg>
