<?xml version="1.0" encoding="utf-8"?>
<!-- Generator: Adobe Illustrator 17.0.0, SVG Export Plug-In . SVG Version: 6.00 Build 0)  -->
<!DOCTYPE svg PUBLIC "-//W3C//DTD SVG 1.1//EN" "http://www.w3.org/Graphics/SVG/1.1/DTD/svg11.dtd">
<svg version="1.1" id="Capa_1" xmlns="http://www.w3.org/2000/svg" xmlns:xlink="http://www.w3.org/1999/xlink" x="0px" y="0px"
	 width="100px" height="100px" viewBox="0 0 100 100" enable-background="new 0 0 100 100" xml:space="preserve">
<path d="M35.58,49.614H21.35c-0.195,0-0.352,0.526-0.352,1.175c0,0.648,0.158,1.175,0.352,1.175h14.23
	c0.194,0,0.352-0.526,0.352-1.175C35.932,50.139,35.774,49.614,35.58,49.614z M34.982,56.663H17.814
	c-0.234,0-0.425,0.526-0.425,1.175s0.192,1.176,0.425,1.176h17.168c0.234,0,0.424-0.527,0.424-1.176
	C35.406,57.188,35.215,56.663,34.982,56.663z M35.067,64.005h-13.73c-0.188,0-0.339,0.526-0.339,1.175s0.151,1.176,0.339,1.176
	h13.73c0.188,0,0.339-0.526,0.339-1.176C35.406,64.529,35.255,64.005,35.067,64.005z M70.066,41.339
	c-2.174,0-4.312,0.551-6.213,1.595c-1.559-1.03-3.418-1.595-5.285-1.595c-3.93,0-7.416,2.373-8.86,5.967
	c-0.691-0.157-1.398-0.236-2.109-0.236c-5.275,0-9.566,4.292-9.566,9.566s4.291,9.565,9.566,9.565c1.206,0,2.418-0.235,3.542-0.684
	c1.549,3.342,4.948,5.541,8.672,5.541c3.146,0,6.043-1.515,7.834-4.076c0.809,0.158,1.621,0.236,2.42,0.236
	c7.137,0,12.94-5.805,12.94-12.939S77.202,41.339,70.066,41.339L70.066,41.339z M70.066,64.333c-0.895,0-1.807-0.128-2.713-0.382
	c-0.127-0.035-0.258-0.055-0.389-0.055c-0.531,0-1.02,0.291-1.27,0.76c-1.17,2.169-3.426,3.517-5.885,3.517
	c-3.058,0-5.715-2.071-6.468-5.037c-0.112-0.448-0.436-0.817-0.86-0.987c-0.17-0.067-0.353-0.103-0.537-0.103
	c-0.275,0-0.543,0.078-0.774,0.226c-1.074,0.684-2.31,1.043-3.573,1.043c-3.684,0-6.68-2.996-6.68-6.679
	c0-3.684,2.996-6.681,6.68-6.681c0.861,0,1.706,0.166,2.51,0.492c0.174,0.071,0.357,0.108,0.544,0.108
	c0.232,0,0.464-0.058,0.668-0.164c0.375-0.196,0.646-0.548,0.74-0.962c0.691-3.064,3.367-5.205,6.508-5.205
	c1.56,0,3.078,0.551,4.275,1.549c0.26,0.217,0.588,0.336,0.926,0.336c0.281,0,0.554-0.081,0.791-0.236
	c1.644-1.078,3.547-1.648,5.506-1.648c5.543,0,10.054,4.511,10.054,10.054C80.12,59.824,75.609,64.333,70.066,64.333z"/>
</svg>
