<?xml version="1.0" encoding="utf-8"?>
<!-- Generator: Adobe Illustrator 17.0.0, SVG Export Plug-In . SVG Version: 6.00 Build 0)  -->
<!DOCTYPE svg PUBLIC "-//W3C//DTD SVG 1.1//EN" "http://www.w3.org/Graphics/SVG/1.1/DTD/svg11.dtd">
<svg version="1.1" id="Capa_1" xmlns="http://www.w3.org/2000/svg" xmlns:xlink="http://www.w3.org/1999/xlink" x="0px" y="0px"
	 width="100px" height="100px" viewBox="0 0 100 100" enable-background="new 0 0 100 100" xml:space="preserve">
<path d="M46.996,66.416v2.197c-0.604,0.172-1.17,0.433-1.681,0.771l-1.739-1.38c-0.709-0.563-1.74-0.444-2.304,0.265
	c-0.562,0.709-0.444,1.74,0.265,2.304l1.646,1.306c-0.354,0.766-0.558,1.615-0.558,2.512c0,0.705,0.128,1.379,0.352,2.006
	l-1.744,1.453c-0.695,0.576-0.791,1.609-0.212,2.305c0.325,0.393,0.791,0.593,1.261,0.593c0.369,0,0.742-0.125,1.048-0.379
	l1.552-1.29c0.617,0.494,1.334,0.867,2.115,1.091v2.199c0,0.905,0.734,1.64,1.639,1.64c0.905,0,1.639-0.734,1.639-1.64V80.17
	c0.604-0.171,1.17-0.433,1.681-0.772l1.739,1.383c0.303,0.238,0.662,0.354,1.019,0.354c0.483,0,0.962-0.212,1.285-0.619
	c0.562-0.709,0.442-1.74-0.267-2.304l-1.645-1.306c0.354-0.768,0.557-1.615,0.557-2.514c0-0.869-0.188-1.689-0.521-2.438
	l1.681-1.398c0.695-0.578,0.791-1.613,0.213-2.309c-0.58-0.695-1.613-0.791-2.31-0.211l-1.683,1.396
	c-0.528-0.361-1.118-0.639-1.751-0.818v-2.197c0-0.56-0.28-1.051-0.706-1.347c-0.058,0.001-0.114,0.011-0.171,0.011
	c-0.521-0.001-1.034-0.041-1.542-0.1C47.346,65.259,46.996,65.793,46.996,66.416z M48.635,71.661c1.507,0,2.732,1.226,2.732,2.732
	c0,0.602-0.201,1.153-0.531,1.604c-0.084,0.069-0.161,0.147-0.23,0.237c-0.03,0.037-0.051,0.08-0.078,0.121
	c-0.491,0.473-1.157,0.769-1.893,0.769c-0.847,0.001-1.597-0.396-2.099-1.005c-0.059-0.127-0.128-0.251-0.223-0.365
	c-0.021-0.023-0.047-0.043-0.068-0.066c-0.211-0.387-0.341-0.823-0.341-1.295c0-0.617,0.215-1.184,0.563-1.643
	c0.069-0.062,0.139-0.124,0.198-0.198c0.031-0.038,0.052-0.081,0.079-0.122C47.235,71.956,47.9,71.661,48.635,71.661z
	 M73.343,67.322L73.343,67.322c-0.353-0.422-0.979-0.48-1.401-0.129l-1.021,0.85c-0.32-0.221-0.68-0.389-1.064-0.498V66.21
	c0-0.55-0.444-0.996-0.994-0.996c-0.549,0-0.995,0.446-0.995,0.996v1.335c-0.366,0.104-0.709,0.264-1.021,0.469l-1.057-0.838
	c-0.432-0.342-1.057-0.269-1.398,0.16c-0.341,0.432-0.27,1.057,0.16,1.398l1,0.793c-0.216,0.465-0.338,0.979-0.338,1.524
	c0,0.427,0.076,0.837,0.213,1.22l-1.06,0.881c-0.423,0.352-0.479,0.978-0.128,1.398c0.195,0.238,0.479,0.36,0.766,0.36
	c0.225,0,0.449-0.075,0.637-0.231l0.941-0.781c0.374,0.301,0.811,0.526,1.283,0.662v1.336c0,0.549,0.445,0.996,0.996,0.996
	c0.549,0,0.994-0.447,0.994-0.996V74.56c0.367-0.105,0.711-0.264,1.021-0.47l1.058,0.839c0.183,0.145,0.399,0.215,0.616,0.215
	c0.294,0,0.584-0.129,0.781-0.375c0.341-0.433,0.271-1.06-0.162-1.397l-0.998-0.794c0.215-0.467,0.338-0.98,0.338-1.526
	c0-0.526-0.114-1.026-0.315-1.479l1.02-0.849C73.637,68.371,73.693,67.745,73.343,67.322z M70.195,72.027
	c-0.051,0.041-0.098,0.09-0.141,0.143c-0.018,0.023-0.031,0.05-0.047,0.074c-0.299,0.288-0.703,0.467-1.148,0.467
	c-0.514-0.001-0.969-0.242-1.274-0.611c-0.035-0.078-0.078-0.152-0.135-0.223c-0.013-0.016-0.029-0.025-0.042-0.041
	c-0.129-0.234-0.206-0.499-0.206-0.785c0-0.376,0.13-0.719,0.341-0.998c0.042-0.035,0.085-0.072,0.121-0.119
	c0.02-0.024,0.031-0.05,0.048-0.074c0.3-0.287,0.702-0.467,1.147-0.467c0.914,0,1.658,0.743,1.658,1.658
	C70.518,71.416,70.396,71.751,70.195,72.027z M34.723,64.045c-0.351-0.422-0.979-0.479-1.401-0.129l-1.022,0.85
	c-0.321-0.222-0.681-0.389-1.064-0.496v-1.336c0-0.551-0.445-0.996-0.995-0.996c-0.55,0-0.995,0.445-0.995,0.996v1.336
	c-0.366,0.104-0.71,0.262-1.021,0.469l-1.056-0.84c-0.432-0.34-1.057-0.269-1.398,0.16c-0.342,0.432-0.27,1.058,0.16,1.398l1,0.793
	c-0.217,0.465-0.339,0.98-0.339,1.525c0,0.429,0.077,0.836,0.213,1.219l-1.06,0.88c-0.422,0.353-0.479,0.979-0.128,1.401
	c0.196,0.236,0.479,0.357,0.766,0.357c0.225,0,0.45-0.074,0.636-0.229l0.942-0.784c0.374,0.303,0.81,0.528,1.284,0.663v1.335
	c0,0.551,0.445,0.997,0.995,0.997s0.995-0.446,0.995-0.997v-1.335c0.367-0.104,0.711-0.262,1.021-0.469l1.057,0.838
	c0.183,0.146,0.401,0.216,0.618,0.216c0.293,0,0.584-0.129,0.78-0.377c0.341-0.429,0.269-1.054-0.161-1.396L33.552,69.3
	c0.215-0.465,0.338-0.979,0.338-1.524c0-0.528-0.115-1.027-0.316-1.481l1.02-0.849C35.017,65.096,35.074,64.467,34.723,64.045z
	 M31.576,68.751c-0.05,0.042-0.097,0.091-0.14,0.146c-0.019,0.021-0.031,0.047-0.047,0.072c-0.299,0.288-0.703,0.469-1.149,0.469
	c-0.514-0.002-0.969-0.242-1.274-0.613c-0.036-0.077-0.078-0.151-0.135-0.221c-0.014-0.017-0.029-0.027-0.043-0.041
	c-0.127-0.235-0.206-0.5-0.206-0.785c0-0.377,0.13-0.721,0.341-0.998c0.043-0.038,0.086-0.075,0.121-0.121
	c0.02-0.022,0.032-0.049,0.049-0.073c0.299-0.288,0.702-0.467,1.147-0.467c0.915,0,1.659,0.743,1.659,1.659
	C31.899,68.143,31.777,68.477,31.576,68.751z M83.449,40.725c0,10.229-8.323,18.552-18.552,18.552c-1.364,0-2.746-0.161-4.119-0.477
	c-2.427,3.846-6.631,6.21-11.209,6.269c-0.266-0.185-0.586-0.294-0.934-0.294c-0.284,0-0.548,0.079-0.781,0.206
	c-4.996-0.574-9.262-3.894-11.033-8.607c-1.831,0.895-3.838,1.362-5.883,1.362c-7.418,0-13.452-6.033-13.452-13.451
	c0-7.418,6.034-13.452,13.452-13.452c1.3,0,2.58,0.188,3.82,0.557c1.801-5.487,6.877-9.216,12.762-9.216
	c2.854,0,5.639,0.915,7.934,2.591c2.86-1.698,6.106-2.591,9.442-2.591C75.126,22.174,83.449,30.496,83.449,40.725z"/>
</svg>
