<svg width="100" xmlns="http://www.w3.org/2000/svg" height="100" viewBox="0 0 100 100" xmlns:xlink="http://www.w3.org/1999/xlink" enable-background="new 0 0 100 100">
<path d="m45.049,23.911c-15.141,0-27.459,12.319-27.459,27.459 0,15.144 12.317,27.46 27.459,27.46 15.143,0 27.46-12.316 27.46-27.46 0-15.14-12.32-27.459-27.46-27.459zm0,49.045c-11.902,0-21.586-9.683-21.586-21.586 0-11.9 9.684-21.586 21.586-21.586 11.903,0 21.586,9.685 21.586,21.586 0,11.903-9.684,21.586-21.586,21.586z"/>
<path d="m35.466,60.671 13.314-6.655 5.852-11.945-13.048,5.874z"/>
</svg>
