<?xml version="1.0" encoding="utf-8"?>
<!-- Generator: Adobe Illustrator 17.0.0, SVG Export Plug-In . SVG Version: 6.00 Build 0)  -->
<!DOCTYPE svg PUBLIC "-//W3C//DTD SVG 1.1//EN" "http://www.w3.org/Graphics/SVG/1.1/DTD/svg11.dtd">
<svg version="1.1" id="Capa_1" xmlns="http://www.w3.org/2000/svg" xmlns:xlink="http://www.w3.org/1999/xlink" x="0px" y="0px"
	 width="100px" height="100px" viewBox="0 0 100 100" enable-background="new 0 0 100 100" xml:space="preserve">
<path d="M66.027,50.169c-0.469-0.174-1-0.035-1.32,0.353c-1.795,2.189-4.443,3.446-7.27,3.446c-5.182,0-9.396-4.216-9.396-9.397
	c0-2.608,1.051-5.036,2.963-6.835c0.366-0.347,0.471-0.885,0.264-1.343c-0.207-0.456-0.682-0.736-1.184-0.684
	c-7.84,0.761-13.75,7.28-13.75,15.164c0,8.402,6.836,15.238,15.238,15.238c8.303,0,14.988-6.506,15.219-14.812
	C66.805,50.797,66.498,50.343,66.027,50.169z"/>
</svg>
