<?xml version="1.0" encoding="utf-8"?>
<!-- Generator: Adobe Illustrator 17.0.0, SVG Export Plug-In . SVG Version: 6.00 Build 0)  -->
<!DOCTYPE svg PUBLIC "-//W3C//DTD SVG 1.1//EN" "http://www.w3.org/Graphics/SVG/1.1/DTD/svg11.dtd">
<svg version="1.1" id="Capa_1" xmlns="http://www.w3.org/2000/svg" xmlns:xlink="http://www.w3.org/1999/xlink" x="0px" y="0px"
	 width="100px" height="100px" viewBox="0 0 100 100" enable-background="new 0 0 100 100" xml:space="preserve">
<path d="M51.798,22.095c-15.141,0-27.459,12.317-27.459,27.459c0,15.141,12.318,27.459,27.459,27.459
	c15.144,0,27.461-12.318,27.461-27.459C79.259,34.412,66.941,22.095,51.798,22.095z M43.535,48.267
	c-2.592,0-4.699-2.108-4.699-4.699s2.107-4.699,4.699-4.699c2.59,0,4.699,2.108,4.699,4.699S46.125,48.267,43.535,48.267z
	 M60.16,56.562c1.361,0,2.809-0.263,3.705-0.638l0.637,3.474c-0.781,0.377-2.635,0.841-4.98,0.841
	c-6.744,0-10.218-4.229-10.218-9.785c0-6.657,4.748-10.335,10.652-10.335c2.289,0,4.025,0.434,4.807,0.867l-0.926,3.476
	c-0.867-0.376-2.113-0.724-3.705-0.724c-3.475,0-6.195,2.113-6.195,6.455C53.936,54.102,56.25,56.562,60.16,56.562z M43.535,41.217
	c1.298,0,2.35,1.052,2.35,2.35s-1.052,2.35-2.35,2.35s-2.35-1.052-2.35-2.35S42.237,41.217,43.535,41.217z"/>
</svg>
