<?xml version="1.0" encoding="utf-8"?>
<!-- Generator: Adobe Illustrator 17.0.0, SVG Export Plug-In . SVG Version: 6.00 Build 0)  -->
<!DOCTYPE svg PUBLIC "-//W3C//DTD SVG 1.1//EN" "http://www.w3.org/Graphics/SVG/1.1/DTD/svg11.dtd">
<svg version="1.1" id="Capa_1" xmlns="http://www.w3.org/2000/svg" xmlns:xlink="http://www.w3.org/1999/xlink" x="0px" y="0px"
	 width="100px" height="100px" viewBox="0 0 100 100" enable-background="new 0 0 100 100" xml:space="preserve">
<path d="M59.266,40.141c-1.201,0-2.359,0.184-3.451,0.519c-1.092-0.335-2.25-0.519-3.451-0.519c-6.479,0-11.748,5.27-11.748,11.748
	c0,6.479,5.27,11.747,11.748,11.747c1.201,0,2.359-0.183,3.451-0.519c1.092,0.335,2.25,0.519,3.451,0.519
	c6.478,0,11.748-5.269,11.748-11.747S65.743,40.141,59.266,40.141z M52.238,61.279c-5.123-0.067-9.272-4.252-9.272-9.391
	c0-5.14,4.149-9.324,9.272-9.392c-2.859,2.145-4.72,5.55-4.72,9.392C47.518,55.729,49.379,59.135,52.238,61.279z M52.363,35.67
	c0.648,0,1.176-0.526,1.176-1.175V29.6c0-0.649-0.525-1.175-1.176-1.175c-0.648,0-1.174,0.526-1.174,1.175v4.895
	C51.189,35.144,51.715,35.67,52.363,35.67z M37.969,41.297c0.229,0.23,0.53,0.344,0.831,0.344c0.3,0,0.601-0.114,0.831-0.344
	c0.458-0.459,0.458-1.202,0-1.661l-4.21-4.209c-0.459-0.459-1.202-0.459-1.661,0c-0.459,0.458-0.459,1.202,0,1.662
	C33.76,37.089,37.969,41.297,37.969,41.297z M51.428,67.926c-0.648,0-1.175,0.526-1.175,1.176v4.895
	c0,0.648,0.526,1.175,1.175,1.175s1.176-0.526,1.176-1.175v-4.895C52.604,68.453,52.076,67.926,51.428,67.926z M38.905,62.299
	l-4.209,4.209c-0.459,0.459-0.459,1.203,0,1.661c0.229,0.229,0.53,0.345,0.831,0.345c0.3,0,0.601-0.115,0.831-0.345l4.209-4.209
	c0.459-0.459,0.459-1.203,0-1.661C40.107,61.841,39.364,61.841,38.905,62.299z M35.764,51.889c0-0.648-0.526-1.175-1.175-1.175
	h-5.286c-0.649,0-1.175,0.526-1.175,1.175s0.526,1.174,1.175,1.174h5.286C35.238,53.062,35.764,52.537,35.764,51.889z"/>
</svg>
