<svg width="100" xmlns="http://www.w3.org/2000/svg" height="100" viewBox="0 0 100 100" xmlns:xlink="http://www.w3.org/1999/xlink" enable-background="new 0 0 100 100">
<path d="m51.416,22.095c-15.143,0-27.461,12.317-27.461,27.459 0,15.141 12.318,27.459 27.461,27.459 15.141,0 27.459-12.318 27.459-27.459 0-15.142-12.318-27.459-27.459-27.459zm-6.986,25.693c-2.592,0-4.699-2.108-4.699-4.699 0-2.591 2.107-4.699 4.699-4.699 2.59,0 4.699,2.108 4.699,4.699 0,2.591-2.109,4.699-4.699,4.699zm18.57-3.788h-7v4h7v4h-7v8h-5v-20h12v4z"/>
<circle cx="44.43" cy="43.089" r="2.35"/>
</svg>
