<?xml version="1.0" encoding="utf-8"?>
<!-- Generator: Adobe Illustrator 17.0.0, SVG Export Plug-In . SVG Version: 6.00 Build 0)  -->
<!DOCTYPE svg PUBLIC "-//W3C//DTD SVG 1.1//EN" "http://www.w3.org/Graphics/SVG/1.1/DTD/svg11.dtd">
<svg version="1.1" id="Capa_1" xmlns="http://www.w3.org/2000/svg" xmlns:xlink="http://www.w3.org/1999/xlink" x="0px" y="0px"
	 width="100px" height="100px" viewBox="0 0 100 100" enable-background="new 0 0 100 100" xml:space="preserve">
<path d="M37.542,40.695c-2.591,0-4.698,2.108-4.698,4.699c0,2.593,2.107,4.698,4.698,4.698s4.699-2.106,4.699-4.698
	C42.241,42.803,40.133,40.695,37.542,40.695z M37.542,47.744c-1.296,0-2.349-1.054-2.349-2.35c0-1.294,1.053-2.35,2.349-2.35
	s2.35,1.056,2.35,2.35C39.892,46.69,38.838,47.744,37.542,47.744z M56.216,45.995v-3.653H44.2v19.704h4.444v-7.922h7.075v-3.626
	h-7.075v-4.503H56.216z"/>
</svg>
