<?xml version="1.0" encoding="utf-8"?>
<!-- Generator: Adobe Illustrator 17.0.0, SVG Export Plug-In . SVG Version: 6.00 Build 0)  -->
<!DOCTYPE svg PUBLIC "-//W3C//DTD SVG 1.1//EN" "http://www.w3.org/Graphics/SVG/1.1/DTD/svg11.dtd">
<svg version="1.1" id="Capa_1" xmlns="http://www.w3.org/2000/svg" xmlns:xlink="http://www.w3.org/1999/xlink" x="0px" y="0px"
	 width="100px" height="100px" viewBox="0 0 100 100" enable-background="new 0 0 100 100" xml:space="preserve">
<path d="M42.61,56.311c-0.817-1.69-1.288-3.58-1.288-5.58c0-5.596,3.517-10.375,8.564-12.151c-1.017,1.756-1.557,3.755-1.557,5.847
	c0,6.479,5.271,11.748,11.748,11.748c2.366,0,4.636-0.703,6.55-1.994c-0.202,0.741-0.473,1.451-0.795,2.131h2.547
	c0.622-1.602,1-3.33,1.051-5.153c0.014-0.501-0.293-0.958-0.764-1.133c-0.469-0.173-1-0.033-1.318,0.356
	c-1.796,2.188-4.445,3.444-7.271,3.444c-5.183,0-9.397-4.217-9.397-9.398c0-2.608,1.053-5.036,2.963-6.836
	c0.365-0.344,0.471-0.883,0.264-1.341c-0.208-0.457-0.682-0.735-1.184-0.684c-7.839,0.762-13.75,7.28-13.75,15.166
	c0,1.971,0.388,3.849,1.073,5.58h2.564L42.61,56.311z M29.105,62.449h45.37c0.619,0,1.121-0.528,1.121-1.176
	c0-0.649-0.5-1.174-1.121-1.174h-45.37c-0.619,0-1.121,0.525-1.121,1.174C27.984,61.921,28.486,62.449,29.105,62.449z
	 M74.475,67.148h-45.37c-0.62,0-1.121,0.525-1.121,1.175c0,0.647,0.501,1.175,1.121,1.175h45.37c0.618,0,1.121-0.527,1.121-1.175
	C75.596,67.673,75.093,67.148,74.475,67.148z M74.475,74.49h-45.37c-0.62,0-1.121,0.525-1.121,1.175
	c0,0.647,0.501,1.175,1.121,1.175h45.37c0.618,0,1.121-0.527,1.121-1.175C75.596,75.016,75.093,74.49,74.475,74.49z"/>
</svg>
