<?xml version="1.0" encoding="utf-8"?>
<!-- Generator: Adobe Illustrator 17.0.0, SVG Export Plug-In . SVG Version: 6.00 Build 0)  -->
<!DOCTYPE svg PUBLIC "-//W3C//DTD SVG 1.1//EN" "http://www.w3.org/Graphics/SVG/1.1/DTD/svg11.dtd">
<svg version="1.1" id="Capa_1" xmlns="http://www.w3.org/2000/svg" xmlns:xlink="http://www.w3.org/1999/xlink" x="0px" y="0px"
	 width="100px" height="100px" viewBox="0 0 100 100" enable-background="new 0 0 100 100" xml:space="preserve">
<path d="M57.29,69.877c-0.565-0.679-1.571-0.771-2.251-0.208L53.4,71.035c-0.517-0.355-1.092-0.624-1.707-0.801V68.09
	c0-0.884-0.717-1.6-1.598-1.6c-0.883,0-1.598,0.716-1.598,1.6v2.144c-0.59,0.168-1.142,0.424-1.639,0.752l-1.697-1.344
	c-0.69-0.551-1.695-0.435-2.244,0.258c-0.549,0.691-0.434,1.697,0.258,2.244l1.604,1.272c-0.346,0.746-0.543,1.575-0.543,2.449
	c0,0.687,0.125,1.343,0.342,1.954l-1.701,1.416c-0.677,0.563-0.77,1.572-0.205,2.25c0.315,0.38,0.77,0.576,1.229,0.576
	c0.361,0,0.723-0.121,1.021-0.371l1.513-1.258c0.603,0.483,1.301,0.849,2.063,1.064v2.145c0,0.883,0.715,1.598,1.598,1.598
	c0.882,0,1.597-0.715,1.597-1.598V81.5c0.589-0.167,1.142-0.422,1.64-0.753l1.696,1.349c0.294,0.231,0.644,0.344,0.99,0.344
	c0.472,0,0.938-0.207,1.254-0.604c0.545-0.691,0.431-1.697-0.26-2.246l-1.604-1.273c0.346-0.748,0.545-1.575,0.545-2.449
	c0-0.848-0.186-1.649-0.51-2.377l1.639-1.362C57.762,71.564,57.854,70.557,57.29,69.877z M52.238,77.432
	c-0.08,0.067-0.156,0.146-0.225,0.23c-0.029,0.037-0.05,0.079-0.076,0.117c-0.479,0.462-1.127,0.75-1.844,0.75
	c-0.827,0.002-1.558-0.387-2.046-0.98c-0.059-0.125-0.127-0.244-0.219-0.355c-0.02-0.022-0.045-0.041-0.065-0.064
	c-0.206-0.376-0.333-0.803-0.333-1.262c0-0.604,0.209-1.154,0.55-1.602c0.067-0.061,0.136-0.119,0.193-0.192
	c0.03-0.039,0.05-0.08,0.076-0.119c0.479-0.461,1.128-0.75,1.845-0.75c1.469,0,2.663,1.194,2.663,2.663
	C52.758,76.454,52.562,76.991,52.238,77.432z M65.364,20.941c-3.337,0-6.582,0.893-9.443,2.591c-2.295-1.677-5.08-2.591-7.934-2.591
	c-5.885,0-10.961,3.729-12.762,9.216c-1.24-0.37-2.52-0.557-3.82-0.557c-7.418,0-13.452,6.034-13.452,13.452
	s6.034,13.452,13.452,13.452c2.045,0,4.053-0.468,5.884-1.363c1.95,5.192,6.927,8.705,12.575,8.705
	c4.645,0,8.924-2.384,11.381-6.277c1.373,0.315,2.754,0.476,4.119,0.476c10.229,0,18.551-8.323,18.551-18.553
	C83.915,29.263,75.593,20.941,65.364,20.941z"/>
</svg>
