<?xml version="1.0" encoding="utf-8"?>
<!-- Generator: Adobe Illustrator 17.0.0, SVG Export Plug-In . SVG Version: 6.00 Build 0)  -->
<!DOCTYPE svg PUBLIC "-//W3C//DTD SVG 1.1//EN" "http://www.w3.org/Graphics/SVG/1.1/DTD/svg11.dtd">
<svg version="1.1" id="Capa_1" xmlns="http://www.w3.org/2000/svg" xmlns:xlink="http://www.w3.org/1999/xlink" x="0px" y="0px"
	 width="100px" height="100px" viewBox="0 0 100 100" enable-background="new 0 0 100 100" xml:space="preserve">
<path d="M60.557,67.695c-0.564-0.68-1.572-0.771-2.25-0.209l-1.64,1.365c-0.517-0.354-1.092-0.623-1.708-0.8v-2.144
	c0-0.885-0.715-1.6-1.598-1.6s-1.598,0.715-1.598,1.6v2.144c-0.59,0.169-1.142,0.423-1.64,0.753l-1.696-1.346
	c-0.691-0.55-1.696-0.434-2.245,0.258c-0.548,0.69-0.433,1.697,0.258,2.245l1.604,1.272c-0.346,0.744-0.544,1.574-0.544,2.449
	c0,0.688,0.125,1.344,0.342,1.955l-1.701,1.414c-0.677,0.563-0.77,1.573-0.206,2.25c0.316,0.381,0.771,0.576,1.229,0.576
	c0.361,0,0.723-0.121,1.021-0.37l1.512-1.258c0.602,0.481,1.301,0.849,2.063,1.063v2.145c0,0.884,0.715,1.598,1.598,1.598
	s1.598-0.714,1.598-1.598v-2.145c0.588-0.168,1.141-0.42,1.639-0.752l1.696,1.347c0.293,0.233,0.644,0.346,0.992,0.346
	c0.47,0,0.937-0.207,1.253-0.604c0.549-0.689,0.434-1.694-0.258-2.243l-1.604-1.272c0.346-0.748,0.545-1.576,0.545-2.449
	c0-0.848-0.185-1.649-0.509-2.377l1.64-1.365C61.027,69.381,61.121,68.373,60.557,67.695z M55.504,75.249
	c-0.081,0.067-0.156,0.146-0.225,0.229c-0.03,0.039-0.049,0.08-0.075,0.119c-0.479,0.461-1.128,0.75-1.845,0.75
	c-0.826,0-1.558-0.388-2.045-0.981c-0.059-0.124-0.127-0.245-0.219-0.355c-0.02-0.022-0.045-0.04-0.066-0.063
	c-0.205-0.377-0.332-0.803-0.332-1.262c0-0.604,0.209-1.154,0.549-1.604c0.066-0.061,0.135-0.119,0.193-0.191
	c0.029-0.039,0.049-0.08,0.076-0.121c0.479-0.461,1.127-0.748,1.844-0.748c1.469,0,2.664,1.194,2.664,2.664
	C56.023,74.27,55.827,74.809,55.504,75.249z M68.631,18.758c-3.335,0-6.582,0.894-9.443,2.591c-2.295-1.677-5.08-2.591-7.934-2.591
	c-5.886,0-10.961,3.73-12.763,9.215c-1.24-0.369-2.519-0.555-3.82-0.555c-7.417,0-13.451,6.034-13.451,13.452
	c0,7.417,6.034,13.452,13.451,13.452c2.045,0,4.052-0.469,5.884-1.365c1.951,5.193,6.927,8.707,12.576,8.707
	c4.645,0,8.924-2.385,11.381-6.279c1.372,0.317,2.754,0.477,4.119,0.477c10.229,0,18.551-8.322,18.551-18.552
	S78.859,18.758,68.631,18.758z M68.632,53.51c-1.444,0-2.914-0.205-4.368-0.613c-0.531-0.149-1.092,0.09-1.353,0.574
	c-1.944,3.604-5.69,5.844-9.779,5.844c-5.082,0-9.501-3.443-10.75-8.375c-0.092-0.365-0.354-0.665-0.704-0.804
	c-0.141-0.056-0.288-0.083-0.435-0.083c-0.22,0-0.439,0.062-0.629,0.185c-1.786,1.133-3.839,1.735-5.941,1.735
	c-6.121,0-11.102-4.981-11.102-11.103c0-6.124,4.981-11.103,11.102-11.103c1.433,0,2.838,0.275,4.174,0.818
	c0.319,0.13,0.68,0.113,0.987-0.047c0.306-0.159,0.526-0.446,0.602-0.783c1.15-5.092,5.599-8.648,10.82-8.648
	c2.592,0,5.115,0.914,7.105,2.575c0.397,0.331,0.965,0.363,1.397,0.08c2.646-1.738,5.714-2.655,8.873-2.655
	c8.935,0,16.202,7.267,16.202,16.201S77.566,53.51,68.632,53.51z"/>
</svg>
