<?xml version="1.0" encoding="utf-8"?>
<!-- Generator: Adobe Illustrator 17.0.0, SVG Export Plug-In . SVG Version: 6.00 Build 0)  -->
<!DOCTYPE svg PUBLIC "-//W3C//DTD SVG 1.1//EN" "http://www.w3.org/Graphics/SVG/1.1/DTD/svg11.dtd">
<svg version="1.1" id="Capa_1" xmlns="http://www.w3.org/2000/svg" xmlns:xlink="http://www.w3.org/1999/xlink" x="0px" y="0px"
	 width="100px" height="100px" viewBox="0 0 100 100" enable-background="new 0 0 100 100" xml:space="preserve">
<path d="M42.474,85.85c-1.719-0.619-2.416-1.059-2.416-1.697c0-0.56,0.418-1.139,1.715-1.139c1.439,0,2.378,0.459,2.877,0.698
	l0.599-2.256c-0.698-0.32-1.599-0.619-2.915-0.66V79.04h-1.957v1.897c-2.137,0.399-3.375,1.778-3.375,3.556
	c0,1.937,1.458,2.935,3.596,3.653c1.496,0.5,2.136,0.979,2.136,1.736c0,0.779-0.78,1.238-1.937,1.238
	c-1.298,0-2.476-0.419-3.315-0.879l-0.599,2.337c0.76,0.42,2.056,0.797,3.395,0.858v1.896v0.001h1.975v-2.058
	c2.297-0.379,3.534-1.897,3.534-3.674C45.787,87.786,44.849,86.688,42.474,85.85z M27.24,51.932c1.946,0,3.523,1.577,3.523,3.523
	s-1.577,3.523-3.523,3.523s-3.523-1.577-3.523-3.523S25.294,51.932,27.24,51.932z M34.289,65.735c1.946,0,3.524,1.578,3.524,3.524
	s-1.578,3.524-3.524,3.524s-3.524-1.578-3.524-3.524S32.343,65.735,34.289,65.735z M44.861,55.456c1.946,0,3.524,1.578,3.524,3.524
	s-1.578,3.524-3.524,3.524s-3.524-1.578-3.524-3.524S42.915,55.456,44.861,55.456z M62.678,51.932c1.946,0,3.523,1.577,3.523,3.523
	s-1.577,3.523-3.523,3.523c-1.946,0-3.523-1.577-3.523-3.523S60.732,51.932,62.678,51.932z M55.629,65.735
	c1.946,0,3.524,1.578,3.524,3.524s-1.578,3.524-3.524,3.524s-3.524-1.578-3.524-3.524S53.683,65.735,55.629,65.735z M62.814,5.69
	c-3.336,0-6.582,0.893-9.442,2.591c-2.295-1.676-5.08-2.591-7.934-2.591c-5.885,0-10.961,3.729-12.762,9.216
	c-1.24-0.369-2.52-0.556-3.82-0.556c-7.418,0-13.452,6.033-13.452,13.451s6.034,13.453,13.452,13.453
	c2.045,0,4.053-0.469,5.884-1.365c1.95,5.195,6.926,8.707,12.575,8.707c4.645,0,8.923-2.385,11.38-6.279
	c1.373,0.317,2.755,0.477,4.119,0.477c10.229,0,18.552-8.324,18.552-18.553S73.044,5.69,62.814,5.69z"/>
</svg>
