<?xml version="1.0" encoding="utf-8"?>
<!-- Generator: Adobe Illustrator 17.0.0, SVG Export Plug-In . SVG Version: 6.00 Build 0)  -->
<!DOCTYPE svg PUBLIC "-//W3C//DTD SVG 1.1//EN" "http://www.w3.org/Graphics/SVG/1.1/DTD/svg11.dtd">
<svg version="1.1" id="Capa_1" xmlns="http://www.w3.org/2000/svg" xmlns:xlink="http://www.w3.org/1999/xlink" x="0px" y="0px"
	 width="100px" height="100px" viewBox="0 0 100 100" enable-background="new 0 0 100 100" xml:space="preserve">
<path d="M46.698,35.441v-4.896c0-0.648,0.526-1.175,1.175-1.175s1.175,0.526,1.175,1.175v4.896c0,0.648-0.527,1.175-1.175,1.175
	S46.698,36.089,46.698,35.441z M33.479,42.243c0.228,0.229,0.529,0.343,0.83,0.343c0.3,0,0.601-0.114,0.83-0.344
	c0.459-0.461,0.459-1.203,0-1.661l-4.209-4.21c-0.459-0.458-1.203-0.458-1.662,0c-0.458,0.459-0.458,1.203,0,1.662L33.479,42.243z
	 M24.813,54.007h5.286c0.649,0,1.174-0.524,1.175-1.175c0-0.648-0.526-1.175-1.175-1.175h-5.286c-0.649,0-1.175,0.526-1.175,1.175
	C23.638,53.482,24.165,54.007,24.813,54.007z M38.704,54.873c-0.145-0.66-0.229-1.338-0.229-2.04c0-5.181,4.217-9.398,9.398-9.398
	c5.182,0,9.398,4.217,9.398,9.398c0,0.702-0.084,1.381-0.229,2.04h2.39c0.117-0.664,0.189-1.342,0.189-2.04
	c0-6.477-5.271-11.748-11.748-11.748s-11.748,5.271-11.748,11.748c0,0.696,0.072,1.375,0.189,2.04H38.704z M59.564,42.586
	c0.302,0,0.602-0.114,0.832-0.343l4.209-4.21c0.459-0.459,0.459-1.204,0-1.662c-0.459-0.458-1.203-0.458-1.662,0l-4.209,4.21
	c-0.459,0.458-0.459,1.202,0,1.661C58.965,42.472,59.266,42.586,59.564,42.586z M62.6,52.833c0,0.649,0.526,1.175,1.176,1.175h6.266
	c0.648,0,1.175-0.525,1.175-1.175c0-0.647-0.524-1.175-1.175-1.175h-6.266C63.126,51.658,62.6,52.184,62.6,52.833z M72.025,57.484
	H24.449c-0.649,0-1.176,0.526-1.176,1.176c0,0.646,0.528,1.175,1.176,1.175h47.576c0.649,0,1.176-0.528,1.176-1.175
	C73.201,58.01,72.674,57.484,72.025,57.484z M71.298,64.533H23.721c-0.649,0-1.174,0.525-1.174,1.175
	c0,0.647,0.526,1.175,1.174,1.175h47.577c0.649,0,1.175-0.527,1.175-1.175C72.473,65.059,71.947,64.533,71.298,64.533z
	 M71.298,71.876H23.721c-0.649,0-1.174,0.526-1.174,1.175c0,0.647,0.526,1.176,1.174,1.176h47.577c0.649,0,1.175-0.528,1.175-1.176
	C72.473,72.4,71.947,71.876,71.298,71.876z"/>
</svg>
