<?xml version="1.0" encoding="utf-8"?>
<!-- Generator: Adobe Illustrator 17.0.0, SVG Export Plug-In . SVG Version: 6.00 Build 0)  -->
<!DOCTYPE svg PUBLIC "-//W3C//DTD SVG 1.1//EN" "http://www.w3.org/Graphics/SVG/1.1/DTD/svg11.dtd">
<svg version="1.1" id="Capa_1" xmlns="http://www.w3.org/2000/svg" xmlns:xlink="http://www.w3.org/1999/xlink" x="0px" y="0px"
	 width="100px" height="100px" viewBox="0 0 100 100" enable-background="new 0 0 100 100" xml:space="preserve">
<path d="M20.143,62.489h62.896c0.857,0,1.553-0.528,1.553-1.175c0-0.65-0.695-1.176-1.553-1.176H20.143
	c-0.857,0-1.553,0.526-1.553,1.176C18.59,61.961,19.286,62.489,20.143,62.489z M83.039,67.188H20.143
	c-0.858,0-1.553,0.526-1.553,1.176c0,0.646,0.696,1.174,1.553,1.174h62.896c0.857,0,1.553-0.528,1.553-1.174
	C84.592,67.713,83.896,67.188,83.039,67.188z M83.039,74.529H20.143c-0.858,0-1.553,0.525-1.553,1.175
	c0,0.647,0.696,1.175,1.553,1.175h62.896c0.857,0,1.553-0.527,1.553-1.175C84.592,75.055,83.896,74.529,83.039,74.529z
	 M32.081,46.529c1.434,0,2.838,0.275,4.174,0.819c0.319,0.131,0.68,0.113,0.986-0.047c0.306-0.159,0.526-0.446,0.603-0.782
	c1.149-5.092,5.599-8.649,10.82-8.649c2.591,0,5.115,0.915,7.105,2.574c0.397,0.332,0.965,0.364,1.397,0.081
	c2.646-1.737,5.714-2.655,8.873-2.655c8.935,0,16.202,7.268,16.202,16.2c0,0.992-0.104,1.959-0.275,2.902h2.374
	c0.15-0.947,0.25-1.912,0.25-2.902c0-10.229-8.323-18.55-18.552-18.55c-3.335,0-6.582,0.893-9.441,2.591
	c-2.296-1.676-5.08-2.591-7.935-2.591c-5.885,0-10.961,3.729-12.763,9.216c-1.24-0.37-2.52-0.557-3.82-0.557
	c-7.195,0-13.072,5.684-13.418,12.793h2.35C21.356,51.158,26.182,46.529,32.081,46.529z"/>
</svg>
