<svg width="100" xmlns="http://www.w3.org/2000/svg" height="100" viewBox="0 0 100 100" xmlns:xlink="http://www.w3.org/1999/xlink" enable-background="new 0 0 100 100">
<path d="m34.7,47.188c0,2.761 .081,5.224 .325,7.632h-.054c-.839-2.057-1.895-4.329-2.978-6.252l-3.789-6.685h-4.818v18.243h3.79v-5.494c0-2.978-.055-5.55-.19-7.985h.108c.866,2.137 2.084,4.494 3.167,6.44l3.897,7.039h4.331v-18.243h-3.789v5.305z"/>
<path d="m40.707,61.182 2.734,0 5.792-19.624-2.734,0z"/>
<path d="m60.682,41.884h-5.412l-5.55,18.243h4.25l1.299-4.684h5.223l1.408,4.684h4.467l-5.685-18.243zm-4.819,10.473l1.084-3.87c.298-1.056 .568-2.437 .839-3.52h.054c.271,1.083 .596,2.437 .92,3.52l1.137,3.87h-4.034z"/>
</svg>
