<?xml version="1.0" encoding="utf-8"?>
<!-- Generator: Adobe Illustrator 16.0.4, SVG Export Plug-In . SVG Version: 6.00 Build 0)  -->
<!DOCTYPE svg PUBLIC "-//W3C//DTD SVG 1.1//EN" "http://www.w3.org/Graphics/SVG/1.1/DTD/svg11.dtd">
<svg version="1.1" id="Capa_1" xmlns="http://www.w3.org/2000/svg" xmlns:xlink="http://www.w3.org/1999/xlink" x="0px" y="0px"
	 width="100px" height="100px" viewBox="0 0 100 100" enable-background="new 0 0 100 100" xml:space="preserve">
<path d="M90.812,41.065c0.015-0.502-0.291-0.956-0.765-1.133c-0.468-0.175-1-0.033-1.317,0.355
	c-1.795,2.188-4.444,3.443-7.271,3.443c-5.184,0-9.396-4.215-9.396-9.397c0-2.608,1.053-5.036,2.963-6.835
	c0.365-0.345,0.473-0.884,0.265-1.34c-0.208-0.459-0.683-0.734-1.183-0.684c-7.521,0.729-13.252,6.762-13.707,14.211
	c-2.022-1.199-4.379-1.881-6.885-1.881c-0.119,0-0.236,0.012-0.355,0.015c-0.971,0.026-1.93,0.15-2.862,0.38
	c-1.692,0.419-3.298,1.161-4.715,2.197c-2.861-1.698-6.107-2.592-9.442-2.592c-10.229,0-18.552,8.322-18.552,18.553
	c0,10.229,8.323,18.55,18.552,18.55c1.365,0,2.746-0.159,4.119-0.476c2.457,3.896,6.736,6.277,11.381,6.277
	c5.648,0,10.625-3.512,12.575-8.706c1.831,0.896,3.839,1.364,5.884,1.364c7.418,0,13.452-6.034,13.452-13.452
	c0-2-0.446-3.894-1.233-5.599C87.238,51.916,90.648,46.948,90.812,41.065z M81.148,52.277c-2.056-2.954-5.258-5.054-8.965-5.634
	c-0.683-0.105-1.373-0.178-2.084-0.178c-0.123,0-0.244,0.01-0.367,0.013c-1.174,0.032-2.33,0.209-3.453,0.544
	c-0.713-2.173-1.945-4.063-3.533-5.563c-0.018-0.272-0.042-0.543-0.042-0.821c0-5.594,3.519-10.375,8.563-12.151
	c-1.017,1.758-1.558,3.755-1.558,5.847c0,6.479,5.271,11.747,11.748,11.747c2.367,0,4.638-0.704,6.55-1.992
	C87.018,47.735,84.482,50.697,81.148,52.277z"/>
</svg>
