<?xml version="1.0" encoding="utf-8"?>
<!-- Generator: Adobe Illustrator 17.0.0, SVG Export Plug-In . SVG Version: 6.00 Build 0)  -->
<!DOCTYPE svg PUBLIC "-//W3C//DTD SVG 1.1//EN" "http://www.w3.org/Graphics/SVG/1.1/DTD/svg11.dtd">
<svg version="1.1" id="Capa_1" xmlns="http://www.w3.org/2000/svg" xmlns:xlink="http://www.w3.org/1999/xlink" x="0px" y="0px"
	 width="100px" height="100px" viewBox="0 0 100 100" enable-background="new 0 0 100 100" xml:space="preserve">
<path d="M48.157,77.449c0,1.865,1.512,3.377,3.377,3.377c1.864,0,3.377-1.512,3.377-3.377c0-1.866-3.377-6.9-3.377-6.9
	S48.157,75.583,48.157,77.449z M67.23,25.356c-3.336,0-6.582,0.893-9.443,2.59c-2.295-1.676-5.079-2.59-7.933-2.59
	c-5.886,0-10.962,3.729-12.763,9.215c-1.24-0.369-2.52-0.556-3.82-0.556c-7.418,0-13.452,6.034-13.452,13.452
	s6.035,13.452,13.452,13.452c2.045,0,4.052-0.468,5.884-1.364c1.951,5.193,6.927,8.706,12.576,8.706
	c4.645,0,8.924-2.384,11.381-6.278c1.371,0.316,2.754,0.477,4.119,0.477c10.229,0,18.551-8.324,18.551-18.553
	C85.781,33.677,77.459,25.356,67.23,25.356z"/>
</svg>
