<?xml version="1.0" encoding="utf-8"?>
<!-- Generator: Adobe Illustrator 17.0.0, SVG Export Plug-In . SVG Version: 6.00 Build 0)  -->
<!DOCTYPE svg PUBLIC "-//W3C//DTD SVG 1.1//EN" "http://www.w3.org/Graphics/SVG/1.1/DTD/svg11.dtd">
<svg version="1.1" id="Capa_1" xmlns="http://www.w3.org/2000/svg" xmlns:xlink="http://www.w3.org/1999/xlink" x="0px" y="0px"
	 width="100px" height="100px" viewBox="0 0 100 100" enable-background="new 0 0 100 100" xml:space="preserve">
<path d="M29.398,74.275c0,1.865,1.512,3.377,3.377,3.377s3.379-1.512,3.379-3.377s-3.379-6.901-3.379-6.901
	S29.398,72.41,29.398,74.275z M43.935,84.553c0,1.866,1.512,3.379,3.377,3.379c1.867,0,3.379-1.513,3.379-3.379
	c0-1.865-3.379-6.9-3.379-6.9S43.935,82.688,43.935,84.553z M57.738,81.029c0,1.865,1.514,3.378,3.379,3.378
	s3.377-1.513,3.377-3.378c0-1.864-3.377-6.901-3.377-6.901S57.738,79.165,57.738,81.029z M64.826,24.469
	c-3.334,0-6.58,0.892-9.441,2.59c-2.295-1.676-5.08-2.59-7.934-2.59c-5.887,0-10.961,3.728-12.764,9.215
	c-1.24-0.369-2.519-0.557-3.82-0.557c-7.416,0-13.451,6.034-13.451,13.452s6.035,13.452,13.451,13.452
	c2.045,0,4.053-0.469,5.885-1.364c1.951,5.194,6.926,8.707,12.576,8.707c4.643,0,8.922-2.385,11.379-6.278
	c1.373,0.315,2.754,0.477,4.119,0.477c10.23,0,18.553-8.324,18.553-18.553S75.057,24.469,64.826,24.469z M64.826,59.221
	c-1.443,0-2.914-0.207-4.369-0.615c-0.53-0.148-1.09,0.092-1.352,0.574c-1.943,3.605-5.689,5.844-9.777,5.844
	c-5.082,0-9.502-3.443-10.75-8.375c-0.092-0.364-0.355-0.664-0.705-0.803c-0.139-0.056-0.288-0.082-0.434-0.082
	c-0.22,0-0.439,0.062-0.63,0.185c-1.785,1.135-3.839,1.735-5.941,1.735c-6.122,0-11.102-4.981-11.102-11.104
	s4.981-11.103,11.102-11.103c1.434,0,2.838,0.275,4.174,0.819c0.32,0.131,0.681,0.113,0.986-0.047
	c0.307-0.16,0.528-0.447,0.604-0.783c1.148-5.092,5.599-8.649,10.82-8.649c2.591,0,5.114,0.915,7.104,2.575
	c0.396,0.331,0.965,0.363,1.398,0.08c2.645-1.737,5.713-2.655,8.871-2.655c8.933,0,16.203,7.267,16.203,16.201
	S73.76,59.221,64.826,59.221z"/>
</svg>
