<?xml version="1.0" encoding="utf-8"?>
<!-- Generator: Adobe Illustrator 17.0.0, SVG Export Plug-In . SVG Version: 6.00 Build 0)  -->
<!DOCTYPE svg PUBLIC "-//W3C//DTD SVG 1.1//EN" "http://www.w3.org/Graphics/SVG/1.1/DTD/svg11.dtd">
<svg version="1.1" id="Capa_1" xmlns="http://www.w3.org/2000/svg" xmlns:xlink="http://www.w3.org/1999/xlink" x="0px" y="0px"
	 width="100px" height="100px" viewBox="0 0 100 100" enable-background="new 0 0 100 100" xml:space="preserve">
<path d="M31.336,71.167c0,1.865,1.512,3.377,3.377,3.377s3.377-1.512,3.377-3.377s-3.377-6.901-3.377-6.901
	S31.336,69.302,31.336,71.167z M45.873,81.445c0,1.865,1.511,3.378,3.377,3.378c1.865,0,3.377-1.513,3.377-3.378
	s-3.377-6.901-3.377-6.901S45.873,79.58,45.873,81.445z M59.677,77.922c0,1.865,1.513,3.377,3.378,3.377
	c1.864,0,3.377-1.512,3.377-3.377s-3.377-6.902-3.377-6.902S59.677,76.057,59.677,77.922z M66.764,21.359
	c-3.334,0-6.582,0.894-9.443,2.592c-2.295-1.678-5.079-2.592-7.933-2.592c-5.886,0-10.961,3.73-12.763,9.216
	c-1.24-0.369-2.52-0.556-3.82-0.556c-7.418,0-13.452,6.034-13.452,13.452c0,7.417,6.035,13.452,13.452,13.452
	c2.045,0,4.052-0.469,5.884-1.364c1.951,5.194,6.927,8.707,12.576,8.707c4.645,0,8.924-2.385,11.381-6.279
	c1.373,0.316,2.754,0.477,4.119,0.477c10.229,0,18.551-8.322,18.551-18.552S76.993,21.359,66.764,21.359z"/>
</svg>
