<?xml version="1.0" encoding="utf-8"?>
<!-- Generator: Adobe Illustrator 17.0.0, SVG Export Plug-In . SVG Version: 6.00 Build 0)  -->
<!DOCTYPE svg PUBLIC "-//W3C//DTD SVG 1.1//EN" "http://www.w3.org/Graphics/SVG/1.1/DTD/svg11.dtd">
<svg version="1.1" id="Capa_1" xmlns="http://www.w3.org/2000/svg" xmlns:xlink="http://www.w3.org/1999/xlink" x="0px" y="0px"
	 width="100px" height="100px" viewBox="0 0 100 100" enable-background="new 0 0 100 100" xml:space="preserve">
<path d="M35.53,37.507c-0.001,0.649-0.158,1.174-0.352,1.174h-14.23c-0.195,0-0.352-0.525-0.352-1.174
	c0-0.649,0.156-1.175,0.352-1.175h14.23C35.372,36.332,35.53,36.857,35.53,37.507z M34.58,43.38H17.412
	c-0.235,0-0.425,0.525-0.425,1.175c0,0.65,0.191,1.175,0.425,1.175H34.58c0.234,0,0.424-0.525,0.424-1.175S34.814,43.38,34.58,43.38
	z M34.665,50.723h-13.73c-0.187,0-0.339,0.526-0.339,1.176c0,0.648,0.152,1.174,0.339,1.174h13.73c0.187,0,0.339-0.526,0.339-1.174
	C35.004,51.248,34.852,50.723,34.665,50.723z M45.412,65.652c0,1.865,1.512,3.377,3.377,3.377s3.377-1.512,3.377-3.377
	s-3.377-6.901-3.377-6.901S45.412,63.787,45.412,65.652z M59.949,75.932c0,1.864,1.512,3.377,3.377,3.377s3.378-1.513,3.378-3.377
	c0-1.865-3.378-6.902-3.378-6.902S59.949,74.066,59.949,75.932z M72.873,26.873c-2.172,0-4.311,0.551-6.212,1.595
	c-1.56-1.032-3.419-1.595-5.284-1.595c-3.932,0-7.416,2.372-8.861,5.965c-0.69-0.155-1.397-0.236-2.109-0.236
	c-5.274,0-9.565,4.293-9.565,9.568c0,5.274,4.291,9.564,9.565,9.564c1.205,0,2.418-0.235,3.542-0.686
	c1.549,3.342,4.948,5.542,8.672,5.542c3.146,0,6.042-1.514,7.833-4.073c0.811,0.155,1.621,0.235,2.421,0.235
	c7.136,0,12.94-5.805,12.94-12.94C85.814,32.678,80.009,26.873,72.873,26.873z"/>
</svg>
