<?xml version="1.0" encoding="utf-8"?>
<!-- Generator: Adobe Illustrator 17.0.0, SVG Export Plug-In . SVG Version: 6.00 Build 0)  -->
<!DOCTYPE svg PUBLIC "-//W3C//DTD SVG 1.1//EN" "http://www.w3.org/Graphics/SVG/1.1/DTD/svg11.dtd">
<svg version="1.1" id="Capa_1" xmlns="http://www.w3.org/2000/svg" xmlns:xlink="http://www.w3.org/1999/xlink" x="0px" y="0px"
	 width="100px" height="100px" viewBox="0 0 100 100" enable-background="new 0 0 100 100" xml:space="preserve">
<path d="M59.363,58.245c-0.625-0.751-1.736-0.854-2.486-0.229l-1.812,1.508c-0.569-0.392-1.207-0.688-1.887-0.883V56.27
	c0-0.977-0.791-1.766-1.766-1.766c-0.975,0-1.766,0.789-1.766,1.766v2.369c-0.651,0.187-1.261,0.469-1.811,0.832l-1.875-1.486
	c-0.763-0.605-1.874-0.479-2.48,0.285c-0.606,0.764-0.479,1.875,0.285,2.479l1.772,1.405c-0.382,0.826-0.601,1.742-0.601,2.709
	c0,0.759,0.138,1.484,0.378,2.16l-1.879,1.563c-0.749,0.624-0.851,1.739-0.228,2.487c0.349,0.421,0.851,0.638,1.358,0.638
	c0.399,0,0.799-0.134,1.129-0.409l1.672-1.39c0.665,0.532,1.437,0.937,2.28,1.175v2.37c0,0.976,0.79,1.767,1.766,1.767
	c0.977,0,1.766-0.791,1.766-1.767v-2.37c0.65-0.186,1.262-0.465,1.811-0.831l1.875,1.488c0.326,0.258,0.712,0.382,1.097,0.382
	c0.521,0,1.036-0.229,1.386-0.668c0.604-0.764,0.477-1.875-0.287-2.48l-1.772-1.406c0.383-0.825,0.603-1.74,0.603-2.708
	c0-0.937-0.205-1.822-0.563-2.628l1.812-1.506C59.885,60.107,59.986,58.994,59.363,58.245z M53.781,66.591
	c-0.09,0.076-0.174,0.161-0.248,0.255c-0.034,0.041-0.057,0.088-0.084,0.131c-0.53,0.512-1.247,0.828-2.039,0.828
	c-0.914,0.002-1.722-0.425-2.261-1.08c-0.064-0.139-0.14-0.271-0.241-0.394c-0.022-0.026-0.05-0.048-0.073-0.073
	c-0.227-0.415-0.368-0.887-0.368-1.395c0-0.668,0.231-1.276,0.607-1.771c0.075-0.066,0.15-0.132,0.214-0.213
	c0.034-0.042,0.056-0.089,0.084-0.132c0.53-0.511,1.247-0.828,2.038-0.828c1.624,0,2.943,1.321,2.943,2.942
	C54.354,65.509,54.137,66.105,53.781,66.591z M86.853,45.141c0,10.23-8.324,18.553-18.553,18.553c-1.365,0-2.746-0.163-4.119-0.478
	c-0.746,1.187-1.681,2.211-2.725,3.093V62.96c0.414-0.516,0.802-1.061,1.124-1.659c0.261-0.482,0.822-0.721,1.351-0.572
	c1.455,0.406,2.926,0.614,4.369,0.614c8.933,0,16.202-7.27,16.202-16.203c0-8.933-7.268-16.201-16.202-16.201
	c-3.158,0-6.227,0.918-8.873,2.654c-0.432,0.283-1,0.252-1.396-0.08c-1.991-1.66-4.515-2.574-7.106-2.574
	c-5.221,0-9.671,3.556-10.82,8.648c-0.077,0.336-0.297,0.623-0.603,0.783c-0.306,0.16-0.667,0.178-0.986,0.047
	c-1.337-0.544-2.74-0.819-4.174-0.819c-6.122,0-11.102,4.98-11.102,11.103s4.98,11.104,11.102,11.104
	c2.101,0,4.155-0.599,5.941-1.736c0.116-0.073,0.243-0.118,0.372-0.146c0,0-0.3,3.211-0.429,2.866
	c-1.831,0.896-3.839,1.363-5.884,1.363c-7.418,0-13.452-6.033-13.452-13.451c0-7.418,6.035-13.452,13.452-13.452
	c1.3,0,2.58,0.187,3.82,0.557c1.802-5.487,6.878-9.216,12.763-9.216c2.855,0,5.64,0.914,7.935,2.591
	c2.859-1.698,6.106-2.591,9.441-2.591C78.529,26.59,86.854,34.913,86.853,45.141z"/>
</svg>
