<?xml version="1.0" encoding="utf-8"?>
<!-- Generator: Adobe Illustrator 17.0.0, SVG Export Plug-In . SVG Version: 6.00 Build 0)  -->
<!DOCTYPE svg PUBLIC "-//W3C//DTD SVG 1.1//EN" "http://www.w3.org/Graphics/SVG/1.1/DTD/svg11.dtd">
<svg version="1.1" id="Capa_1" xmlns="http://www.w3.org/2000/svg" xmlns:xlink="http://www.w3.org/1999/xlink" x="0px" y="0px"
	 width="100px" height="100px" viewBox="0 0 100 100" enable-background="new 0 0 100 100" xml:space="preserve">
<path d="M32.066,63.602c1.946,0,3.524,1.578,3.524,3.524s-1.578,3.524-3.524,3.524s-3.524-1.578-3.524-3.524
	S30.12,63.602,32.066,63.602z M39.115,77.406c1.946,0,3.524,1.578,3.524,3.524s-1.578,3.524-3.524,3.524s-3.524-1.578-3.524-3.524
	S37.169,77.406,39.115,77.406z M49.687,67.127c1.946,0,3.524,1.578,3.524,3.524s-1.578,3.524-3.524,3.524s-3.524-1.578-3.524-3.524
	S47.741,67.127,49.687,67.127z M67.504,63.602c1.946,0,3.524,1.578,3.524,3.524s-1.578,3.524-3.524,3.524s-3.524-1.578-3.524-3.524
	S65.558,63.602,67.504,63.602z M60.455,77.406c1.946,0,3.524,1.578,3.524,3.524s-1.578,3.524-3.524,3.524s-3.524-1.578-3.524-3.524
	S58.509,77.406,60.455,77.406z M67.641,17.36c-3.334,0-6.58,0.894-9.441,2.592c-2.295-1.678-5.08-2.592-7.934-2.592
	c-5.886,0-10.961,3.73-12.763,9.216c-1.24-0.37-2.52-0.556-3.82-0.556c-7.417,0-13.451,6.034-13.451,13.452
	c0,7.417,6.034,13.452,13.451,13.452c2.045,0,4.052-0.469,5.884-1.365c1.951,5.194,6.927,8.707,12.577,8.707
	c4.644,0,8.922-2.384,11.379-6.279c1.373,0.316,2.754,0.476,4.119,0.476c10.229,0,18.553-8.32,18.553-18.55
	S77.87,17.36,67.641,17.36z M67.641,52.113c-1.443,0-2.914-0.206-4.369-0.613c-0.529-0.15-1.09,0.09-1.351,0.573
	c-1.944,3.604-5.69,5.844-9.778,5.844c-5.083,0-9.502-3.442-10.75-8.374c-0.092-0.366-0.354-0.664-0.704-0.803
	c-0.141-0.057-0.288-0.084-0.435-0.084c-0.22,0-0.439,0.061-0.629,0.185c-1.786,1.134-3.84,1.735-5.941,1.735
	c-6.121,0-11.102-4.982-11.102-11.103c0-6.124,4.981-11.103,11.102-11.103c1.433,0,2.838,0.275,4.174,0.819
	c0.319,0.129,0.68,0.112,0.986-0.048c0.307-0.159,0.527-0.445,0.603-0.783c1.15-5.091,5.599-8.648,10.82-8.648
	c2.591,0,5.115,0.914,7.106,2.575c0.397,0.332,0.964,0.364,1.397,0.08c2.646-1.737,5.713-2.655,8.871-2.655
	c8.935,0,16.202,7.268,16.202,16.202S76.575,52.113,67.641,52.113z"/>
</svg>
