<?xml version="1.0" encoding="utf-8"?>
<!-- Generator: Adobe Illustrator 17.0.0, SVG Export Plug-In . SVG Version: 6.00 Build 0)  -->
<!DOCTYPE svg PUBLIC "-//W3C//DTD SVG 1.1//EN" "http://www.w3.org/Graphics/SVG/1.1/DTD/svg11.dtd">
<svg version="1.1" id="Capa_1" xmlns="http://www.w3.org/2000/svg" xmlns:xlink="http://www.w3.org/1999/xlink" x="0px" y="0px"
	 width="100px" height="100px" viewBox="0 0 100 100" enable-background="new 0 0 100 100" xml:space="preserve">
<path d="M28.855,65.787c1.946,0,3.524,1.578,3.524,3.524s-1.578,3.524-3.524,3.524s-3.524-1.578-3.524-3.524
	S26.909,65.787,28.855,65.787z M35.903,79.59c1.946,0,3.524,1.578,3.524,3.524s-1.578,3.524-3.524,3.524s-3.524-1.578-3.524-3.524
	S33.957,79.59,35.903,79.59z M46.476,69.311c1.946,0,3.524,1.578,3.524,3.524s-1.578,3.524-3.524,3.524s-3.524-1.578-3.524-3.524
	S44.53,69.311,46.476,69.311z M64.293,65.787c1.946,0,3.524,1.578,3.524,3.524s-1.578,3.524-3.524,3.524s-3.524-1.578-3.524-3.524
	S62.347,65.787,64.293,65.787z M57.245,79.59c1.946,0,3.524,1.578,3.524,3.524s-1.578,3.524-3.524,3.524s-3.524-1.578-3.524-3.524
	S55.299,79.59,57.245,79.59z M64.43,19.544c-3.334,0-6.58,0.894-9.441,2.592c-2.295-1.678-5.08-2.592-7.934-2.592
	c-5.886,0-10.961,3.73-12.763,9.215c-1.24-0.369-2.519-0.555-3.82-0.555c-7.417,0-13.451,6.034-13.451,13.452
	c0,7.417,6.034,13.451,13.451,13.451c2.045,0,4.053-0.469,5.885-1.364c1.95,5.194,6.926,8.707,12.575,8.707
	c4.643,0,8.922-2.384,11.379-6.279c1.373,0.317,2.754,0.476,4.119,0.476c10.23,0,18.553-8.321,18.553-18.551
	S74.659,19.544,64.43,19.544z"/>
</svg>
