<?xml version="1.0" encoding="utf-8"?>
<!-- Generator: Adobe Illustrator 17.0.0, SVG Export Plug-In . SVG Version: 6.00 Build 0)  -->
<!DOCTYPE svg PUBLIC "-//W3C//DTD SVG 1.1//EN" "http://www.w3.org/Graphics/SVG/1.1/DTD/svg11.dtd">
<svg version="1.1" id="Capa_1" xmlns="http://www.w3.org/2000/svg" xmlns:xlink="http://www.w3.org/1999/xlink" x="0px" y="0px"
	 width="100px" height="100px" viewBox="0 0 100 100" enable-background="new 0 0 100 100" xml:space="preserve">
<path d="M50.927,62.798c-0.509,0.278-0.857,0.812-0.857,1.435v2.197c-0.604,0.172-1.17,0.432-1.681,0.771l-1.74-1.381
	c-0.709-0.562-1.74-0.443-2.303,0.265c-0.562,0.71-0.444,1.741,0.265,2.304l1.645,1.307c-0.354,0.765-0.558,1.615-0.558,2.512
	c0,0.705,0.128,1.378,0.351,2.006l-1.744,1.452c-0.696,0.577-0.791,1.61-0.212,2.306c0.325,0.393,0.791,0.592,1.262,0.592
	c0.369,0,0.741-0.125,1.047-0.379l1.551-1.289c0.617,0.494,1.334,0.867,2.116,1.09v2.199c0,0.905,0.733,1.641,1.639,1.641
	c0.905,0,1.64-0.734,1.64-1.641v-2.199c0.604-0.17,1.17-0.43,1.68-0.771l1.74,1.383c0.303,0.237,0.662,0.354,1.019,0.354
	c0.483,0,0.962-0.213,1.286-0.619c0.562-0.709,0.443-1.74-0.266-2.305l-1.645-1.305c0.354-0.768,0.557-1.615,0.557-2.514
	c0-0.869-0.189-1.689-0.521-2.438l1.68-1.398c0.696-0.578,0.791-1.613,0.212-2.309c-0.58-0.694-1.613-0.791-2.309-0.211L55.1,67.248
	c-0.529-0.362-1.119-0.639-1.752-0.818v-2.197c0-0.559-0.279-1.051-0.705-1.347c-0.057,0.001-0.112,0.011-0.17,0.011
	C51.95,62.896,51.436,62.856,50.927,62.798z M54.443,72.208c0,0.603-0.201,1.153-0.532,1.604c-0.083,0.07-0.16,0.147-0.229,0.237
	c-0.031,0.038-0.052,0.08-0.078,0.122c-0.492,0.473-1.158,0.77-1.893,0.77c-0.85,0-1.599-0.397-2.1-1.006
	c-0.059-0.127-0.129-0.252-0.223-0.365c-0.021-0.024-0.047-0.043-0.068-0.066c-0.21-0.387-0.341-0.824-0.341-1.295
	c0-0.618,0.214-1.184,0.563-1.643c0.07-0.062,0.14-0.125,0.199-0.198c0.031-0.039,0.052-0.081,0.079-0.123
	c0.492-0.474,1.157-0.769,1.891-0.769C53.218,69.477,54.443,70.703,54.443,72.208z M76.415,65.139
	c-0.353-0.423-0.979-0.48-1.401-0.129l-1.021,0.85c-0.32-0.221-0.68-0.389-1.062-0.498v-1.336c0-0.549-0.447-0.996-0.996-0.996
	s-0.994,0.447-0.994,0.996v1.336c-0.367,0.104-0.711,0.263-1.021,0.468l-1.057-0.837c-0.43-0.342-1.057-0.27-1.397,0.16
	c-0.341,0.432-0.271,1.057,0.161,1.399l1,0.791c-0.216,0.466-0.338,0.979-0.338,1.526c0,0.427,0.076,0.836,0.212,1.218l-1.06,0.881
	c-0.422,0.353-0.479,0.978-0.127,1.399c0.196,0.238,0.479,0.359,0.766,0.359c0.224,0,0.449-0.074,0.636-0.23l0.942-0.782
	c0.375,0.302,0.81,0.527,1.283,0.663v1.335c0,0.55,0.446,0.996,0.996,0.996c0.549,0,0.994-0.446,0.994-0.996v-1.335
	c0.367-0.105,0.711-0.263,1.021-0.468l1.057,0.837c0.184,0.145,0.401,0.216,0.618,0.216c0.294,0,0.584-0.129,0.781-0.376
	c0.339-0.434,0.267-1.059-0.163-1.398l-0.999-0.793c0.215-0.467,0.338-0.98,0.338-1.525c0-0.528-0.115-1.028-0.317-1.48l1.021-0.849
	C76.709,66.188,76.766,65.561,76.415,65.139z M73.27,69.843c-0.051,0.041-0.099,0.091-0.141,0.144
	c-0.018,0.022-0.031,0.05-0.047,0.074c-0.299,0.287-0.703,0.467-1.148,0.467c-0.515-0.002-0.97-0.241-1.273-0.611
	c-0.036-0.078-0.078-0.152-0.135-0.223c-0.014-0.016-0.029-0.024-0.043-0.041c-0.127-0.234-0.207-0.5-0.207-0.784
	c0-0.377,0.131-0.72,0.342-0.998c0.042-0.037,0.085-0.074,0.121-0.12c0.019-0.023,0.031-0.05,0.047-0.074
	c0.299-0.287,0.703-0.467,1.148-0.467c0.914,0,1.658,0.743,1.658,1.659C73.592,69.232,73.471,69.566,73.27,69.843z M37.795,61.861
	c-0.352-0.422-0.979-0.479-1.402-0.129l-1.021,0.851c-0.32-0.222-0.68-0.39-1.063-0.497V60.75c0-0.551-0.445-0.996-0.995-0.996
	c-0.549,0-0.995,0.445-0.995,0.996v1.335c-0.367,0.104-0.71,0.263-1.021,0.47l-1.056-0.84c-0.431-0.341-1.056-0.27-1.398,0.161
	c-0.341,0.431-0.27,1.056,0.161,1.397l1,0.793c-0.216,0.465-0.338,0.98-0.338,1.525c0,0.428,0.077,0.836,0.213,1.219l-1.059,0.879
	c-0.422,0.353-0.48,0.98-0.128,1.402c0.197,0.236,0.48,0.357,0.766,0.357c0.224,0,0.45-0.074,0.636-0.229l0.942-0.785
	c0.375,0.304,0.81,0.528,1.284,0.664v1.334c0,0.551,0.446,0.998,0.995,0.998c0.55,0,0.995-0.447,0.995-0.998V69.1
	c0.367-0.104,0.711-0.262,1.021-0.468l1.057,0.839c0.183,0.146,0.401,0.215,0.618,0.215c0.294,0,0.584-0.129,0.781-0.377
	c0.338-0.43,0.267-1.056-0.164-1.397l-0.999-0.793c0.215-0.466,0.338-0.979,0.338-1.525c0-0.528-0.115-1.026-0.317-1.481l1.02-0.848
	C38.089,62.911,38.147,62.284,37.795,61.861z M34.649,66.566c-0.05,0.043-0.098,0.092-0.14,0.146
	c-0.019,0.022-0.031,0.048-0.047,0.073c-0.299,0.288-0.703,0.469-1.149,0.469c-0.514-0.001-0.968-0.243-1.273-0.613
	c-0.036-0.076-0.078-0.151-0.135-0.221c-0.013-0.018-0.029-0.027-0.042-0.042c-0.127-0.233-0.207-0.5-0.207-0.785
	c0-0.377,0.13-0.72,0.341-0.997c0.042-0.039,0.085-0.076,0.121-0.121c0.019-0.022,0.032-0.05,0.047-0.074
	c0.299-0.287,0.703-0.467,1.148-0.467c0.915,0,1.659,0.744,1.659,1.659C34.972,65.958,34.849,66.293,34.649,66.566z M67.973,19.991
	c-3.336,0-6.582,0.893-9.443,2.59c-2.295-1.676-5.08-2.59-7.934-2.59c-5.886,0-10.962,3.728-12.764,9.215
	c-1.24-0.369-2.52-0.556-3.82-0.556c-7.418,0-13.452,6.034-13.452,13.452c0,7.417,6.035,13.453,13.452,13.453
	c2.045,0,4.052-0.469,5.884-1.365c1.771,4.713,6.035,8.033,11.031,8.608c0.233-0.128,0.497-0.207,0.782-0.207
	c0.348,0,0.669,0.11,0.934,0.295c4.577-0.059,8.784-2.422,11.211-6.269c1.371,0.316,2.754,0.477,4.119,0.477
	c10.229,0,18.551-8.324,18.551-18.553S78.201,19.991,67.973,19.991z M67.973,54.743c-1.445,0-2.914-0.207-4.369-0.615
	c-0.531-0.149-1.092,0.091-1.353,0.574c-1.944,3.604-5.69,5.844-9.778,5.844c-5.082,0-9.501-3.444-10.75-8.375
	c-0.093-0.364-0.355-0.664-0.705-0.803c-0.14-0.056-0.288-0.082-0.434-0.082c-0.22,0-0.439,0.062-0.63,0.183
	c-1.786,1.135-3.84,1.736-5.941,1.736c-6.122,0-11.102-4.982-11.102-11.103c0-6.123,4.98-11.104,11.102-11.104
	c1.433,0,2.838,0.275,4.174,0.819c0.319,0.131,0.68,0.113,0.987-0.047c0.306-0.159,0.526-0.446,0.602-0.782
	c1.15-5.092,5.599-8.649,10.82-8.649c2.592,0,5.115,0.915,7.106,2.575c0.397,0.331,0.964,0.363,1.397,0.08
	c2.646-1.737,5.715-2.655,8.873-2.655c8.934,0,16.201,7.267,16.201,16.201C84.173,47.474,76.906,54.743,67.973,54.743z"/>
</svg>
