<?xml version="1.0" encoding="utf-8"?>
<!-- Generator: Adobe Illustrator 17.0.0, SVG Export Plug-In . SVG Version: 6.00 Build 0)  -->
<!DOCTYPE svg PUBLIC "-//W3C//DTD SVG 1.1//EN" "http://www.w3.org/Graphics/SVG/1.1/DTD/svg11.dtd">
<svg version="1.1" id="Capa_1" xmlns="http://www.w3.org/2000/svg" xmlns:xlink="http://www.w3.org/1999/xlink" x="0px" y="0px"
	 width="100px" height="100px" viewBox="0 0 100 100" enable-background="new 0 0 100 100" xml:space="preserve">
<path d="M45.951,80.559c0,1.865,1.513,3.377,3.378,3.377c1.864,0,3.377-1.512,3.377-3.377s-3.377-6.9-3.377-6.9
	S45.951,78.693,45.951,80.559z M65.025,28.464c-3.336,0-6.582,0.893-9.442,2.591c-2.295-1.677-5.08-2.591-7.934-2.591
	c-5.885,0-10.961,3.73-12.763,9.217c-1.239-0.371-2.519-0.558-3.819-0.558c-7.418,0-13.452,6.035-13.452,13.452
	c0,7.418,6.034,13.452,13.452,13.452c2.045,0,4.052-0.469,5.883-1.363c1.951,5.193,6.927,8.705,12.576,8.705
	c4.645,0,8.924-2.383,11.381-6.278c1.372,0.317,2.754,0.476,4.118,0.476c10.229,0,18.552-8.321,18.552-18.551
	S75.255,28.464,65.025,28.464z M65.027,63.217c-1.445,0-2.916-0.206-4.369-0.613c-0.532-0.149-1.092,0.09-1.352,0.572
	c-1.943,3.605-5.69,5.844-9.78,5.844c-5.081,0-9.501-3.441-10.749-8.373c-0.093-0.367-0.354-0.664-0.704-0.805
	c-0.141-0.055-0.289-0.082-0.435-0.082c-0.22,0-0.44,0.061-0.629,0.186c-1.787,1.135-3.84,1.734-5.941,1.734
	c-6.123,0-11.103-4.98-11.103-11.104s4.981-11.103,11.103-11.103c1.433,0,2.837,0.276,4.174,0.818
	c0.318,0.131,0.679,0.114,0.986-0.046c0.306-0.16,0.526-0.446,0.602-0.782c1.15-5.093,5.599-8.65,10.82-8.65
	c2.591,0,5.115,0.915,7.106,2.576c0.397,0.331,0.964,0.364,1.397,0.079c2.646-1.737,5.715-2.655,8.873-2.655
	c8.933,0,16.201,7.269,16.201,16.202S73.961,63.217,65.027,63.217z"/>
</svg>
