<?xml version="1.0" encoding="utf-8"?>
<!-- Generator: Adobe Illustrator 17.0.0, SVG Export Plug-In . SVG Version: 6.00 Build 0)  -->
<!DOCTYPE svg PUBLIC "-//W3C//DTD SVG 1.1//EN" "http://www.w3.org/Graphics/SVG/1.1/DTD/svg11.dtd">
<svg version="1.1" id="Capa_1" xmlns="http://www.w3.org/2000/svg" xmlns:xlink="http://www.w3.org/1999/xlink" x="0px" y="0px"
	 width="100px" height="100px" viewBox="0 0 100 100" enable-background="new 0 0 100 100" xml:space="preserve">
<path d="M67.697,22.585c-3.336,0-6.582,0.893-9.443,2.59c-2.295-1.675-5.08-2.59-7.934-2.59c-5.885,0-10.961,3.729-12.763,9.217
	c-1.24-0.369-2.52-0.558-3.82-0.558c-7.417,0-13.452,6.034-13.452,13.452c0,4.667,2.389,8.781,6.005,11.195
	c2.134,1.424,4.694,2.258,7.446,2.258c2.045,0,4.052-0.469,5.884-1.363c0.106,0.281,0.226,0.558,0.35,0.831
	c1.478,3.253,4.177,5.747,7.455,6.993c0.2,0.076,0.407,0.136,0.61,0.201l-3.433,5.862l3.818,2.644l-3.818,10.279l10.866-9.619
	l-5.433-3.304l5.433-5.614l-0.002-0.009c2.556-0.641,4.866-2.009,6.646-3.959c0.533-0.583,1.035-1.2,1.465-1.879
	c0.32,0.073,0.645,0.11,0.965,0.166c1.053,0.185,2.107,0.31,3.154,0.31c10.229,0,18.551-8.321,18.551-18.552
	C86.246,30.906,77.926,22.585,67.697,22.585L67.697,22.585z"/>
</svg>
