<?xml version="1.0" encoding="utf-8"?>
<!-- Generator: Adobe Illustrator 17.0.0, SVG Export Plug-In . SVG Version: 6.00 Build 0)  -->
<!DOCTYPE svg PUBLIC "-//W3C//DTD SVG 1.1//EN" "http://www.w3.org/Graphics/SVG/1.1/DTD/svg11.dtd">
<svg version="1.1" id="Capa_1" xmlns="http://www.w3.org/2000/svg" xmlns:xlink="http://www.w3.org/1999/xlink" x="0px" y="0px"
	 width="100px" height="100px" viewBox="0 0 100 100" enable-background="new 0 0 100 100" xml:space="preserve">
<path d="M81.863,35.138c2.268-2.333,3.67-5.508,3.67-9.008c0-7.135-5.805-12.94-12.939-12.94c-2.173,0-4.312,0.549-6.213,1.593
	c-1.559-1.03-3.418-1.593-5.283-1.593c-3.932,0-7.416,2.373-8.863,5.966c-0.689-0.158-1.397-0.236-2.108-0.236
	c-5.274,0-9.565,4.291-9.565,9.565c0,0.808,0.111,1.588,0.301,2.339c-1.825,1.56-3.232,3.615-4.018,6.008
	c-1.24-0.37-2.52-0.557-3.82-0.557c-7.417,0-13.451,6.034-13.451,13.452c0,4.666,2.389,8.78,6.005,11.194
	c2.135,1.425,4.694,2.259,7.446,2.259c2.045,0,4.053-0.469,5.884-1.365c0.106,0.283,0.227,0.56,0.35,0.832
	c1.478,3.252,4.178,5.748,7.455,6.994c0.199,0.075,0.407,0.135,0.61,0.201l-3.433,5.86l3.818,2.644L43.89,88.625l10.866-9.618
	l-5.433-3.305l5.433-5.614l-0.003-0.008c2.558-0.641,4.867-2.01,6.646-3.958c0.533-0.584,1.035-1.2,1.465-1.88
	c0.32,0.074,0.644,0.109,0.966,0.166c1.053,0.188,2.106,0.31,3.153,0.31c10.229,0,18.552-8.321,18.552-18.553
	C85.534,42.033,84.159,38.225,81.863,35.138z M50.125,21.805c0.861,0,1.707,0.165,2.51,0.492c0.174,0.07,0.357,0.106,0.545,0.106
	c0.232,0,0.463-0.058,0.668-0.163c0.377-0.197,0.646-0.547,0.74-0.961c0.691-3.065,3.368-5.205,6.51-5.205
	c1.559,0,3.076,0.55,4.273,1.548c0.26,0.218,0.588,0.337,0.926,0.337c0.281,0,0.555-0.082,0.791-0.236
	c1.643-1.078,3.547-1.648,5.506-1.648c5.543,0,10.053,4.51,10.053,10.055c0,2.628-1.021,5.017-2.679,6.811
	c-3.35-3.291-7.933-5.326-12.985-5.326c-3.336,0-6.582,0.893-9.443,2.591c-2.295-1.677-5.08-2.591-7.934-2.591
	c-2.199,0-4.285,0.521-6.13,1.459c-0.018-0.194-0.03-0.39-0.03-0.59C43.445,24.801,46.442,21.805,50.125,21.805z M77.68,58.302
	c-2.856,2.522-6.597,4.066-10.697,4.066c-0.116,0-0.233-0.011-0.351-0.015c-0.241-0.004-0.483-0.008-0.728-0.023
	c-0.93-0.064-1.866-0.225-2.799-0.455c-0.164-0.041-0.328-0.075-0.492-0.121c-0.531-0.148-1.092,0.092-1.352,0.573
	c-0.38,0.702-0.847,1.338-1.353,1.93c-2.086,2.446-5.138,3.914-8.429,3.914c-4.971,0-9.3-3.3-10.655-8.06
	c-0.029-0.106-0.066-0.209-0.093-0.314c-0.093-0.365-0.354-0.664-0.704-0.804c-0.141-0.056-0.288-0.082-0.435-0.082
	c-0.221,0-0.439,0.062-0.631,0.183c-1.786,1.137-3.84,1.735-5.941,1.735c-2.196,0-4.239-0.649-5.965-1.754
	c-2.425-1.554-4.208-4.019-4.859-6.912c-0.177-0.786-0.277-1.601-0.277-2.437c0-6.122,4.98-11.103,11.102-11.103
	c1.434,0,2.838,0.275,4.175,0.818c0.318,0.131,0.68,0.114,0.986-0.047c0.306-0.159,0.525-0.446,0.602-0.782
	c0.482-2.137,1.551-3.997,3.009-5.443c0.694-0.69,1.476-1.287,2.33-1.771c1.624-0.918,3.495-1.434,5.481-1.434
	c2.592,0,5.116,0.914,7.106,2.574c0.396,0.331,0.964,0.363,1.396,0.08c2.646-1.736,5.716-2.654,8.873-2.654
	c4.344,0,8.283,1.727,11.195,4.519c0.697,0.669,1.331,1.399,1.9,2.184c1.945,2.672,3.107,5.949,3.107,9.498
	C83.184,50.999,81.046,55.332,77.68,58.302z"/>
</svg>
