<?xml version="1.0" encoding="utf-8"?>
<!-- Generator: Adobe Illustrator 17.0.0, SVG Export Plug-In . SVG Version: 6.00 Build 0)  -->
<!DOCTYPE svg PUBLIC "-//W3C//DTD SVG 1.1//EN" "http://www.w3.org/Graphics/SVG/1.1/DTD/svg11.dtd">
<svg version="1.1" id="Capa_1" xmlns="http://www.w3.org/2000/svg" xmlns:xlink="http://www.w3.org/1999/xlink" x="0px" y="0px"
	 width="100px" height="100px" viewBox="0 0 100 100" enable-background="new 0 0 100 100" xml:space="preserve">
<path d="M64.086,50.997c0,6.479-5.269,11.747-11.746,11.747c-6.479,0-11.748-5.269-11.748-11.747c0-6.478,5.27-11.747,11.748-11.747
	C58.816,39.25,64.086,44.52,64.086,50.997z M52.34,34.779c0.648,0,1.174-0.527,1.174-1.175v-4.896c0-0.65-0.525-1.175-1.174-1.175
	c-0.65,0-1.176,0.526-1.176,1.175v4.896C51.164,34.252,51.689,34.779,52.34,34.779z M64.031,40.75c0.301,0,0.602-0.114,0.83-0.344
	l4.209-4.208c0.459-0.46,0.459-1.205,0-1.663c-0.459-0.457-1.201-0.457-1.66,0l-4.209,4.21c-0.459,0.46-0.459,1.203,0,1.661
	C63.43,40.636,63.73,40.75,64.031,40.75z M37.943,40.406c0.23,0.229,0.531,0.344,0.83,0.344c0.301,0,0.602-0.114,0.832-0.344
	c0.459-0.459,0.459-1.201,0-1.661l-4.211-4.21c-0.459-0.457-1.201-0.457-1.66,0c-0.459,0.459-0.459,1.203,0,1.663L37.943,40.406z
	 M51.402,67.035c-0.649,0-1.174,0.527-1.174,1.175v4.896c0,0.648,0.526,1.174,1.174,1.174c0.648,0,1.176-0.525,1.176-1.174V68.21
	C52.578,67.562,52.051,67.035,51.402,67.035z M38.879,61.408l-4.209,4.209c-0.459,0.459-0.459,1.203,0,1.66
	c0.23,0.23,0.531,0.345,0.832,0.345c0.301,0,0.6-0.114,0.83-0.345l4.209-4.209c0.459-0.459,0.459-1.203,0-1.66
	C40.082,60.95,39.338,60.95,38.879,61.408z M65.799,61.408c-0.459-0.458-1.203-0.458-1.662,0c-0.459,0.459-0.459,1.201,0,1.66
	l4.209,4.209c0.23,0.23,0.531,0.345,0.832,0.345c0.301,0,0.6-0.114,0.83-0.345c0.459-0.459,0.459-1.201,0-1.66L65.799,61.408z
	 M35.74,50.997c0-0.65-0.528-1.175-1.176-1.175h-5.287c-0.649,0-1.174,0.525-1.174,1.175c0,0.649,0.526,1.175,1.174,1.175h5.287
	C35.213,52.172,35.74,51.646,35.74,50.997z M74.506,49.822H68.24c-0.649,0-1.174,0.525-1.174,1.175c0,0.649,0.525,1.175,1.174,1.175
	h6.266c0.648,0,1.174-0.525,1.174-1.175C75.68,50.347,75.154,49.822,74.506,49.822z"/>
</svg>
