<?xml version="1.0" encoding="utf-8"?>
<!-- Generator: Adobe Illustrator 17.0.0, SVG Export Plug-In . SVG Version: 6.00 Build 0)  -->
<!DOCTYPE svg PUBLIC "-//W3C//DTD SVG 1.1//EN" "http://www.w3.org/Graphics/SVG/1.1/DTD/svg11.dtd">
<svg version="1.1" id="Capa_1" xmlns="http://www.w3.org/2000/svg" xmlns:xlink="http://www.w3.org/1999/xlink" x="0px" y="0px"
	 width="100px" height="100px" viewBox="0 0 100 100" enable-background="new 0 0 100 100" xml:space="preserve">
<path d="M50.583,40.14c-6.478,0-11.748,5.269-11.748,11.747c0,6.479,5.27,11.748,11.748,11.748c6.478,0,11.748-5.27,11.748-11.748
	C62.331,45.41,57.061,40.14,50.583,40.14z M50.583,61.285c-5.182,0-9.398-4.215-9.398-9.398c0-5.182,4.216-9.397,9.398-9.397
	c5.183,0,9.397,4.217,9.397,9.397C59.98,57.07,55.766,61.285,50.583,61.285z M49.408,34.495v-4.896c0-0.649,0.526-1.174,1.175-1.174
	c0.648,0,1.175,0.525,1.175,1.174v4.896c0,0.648-0.528,1.175-1.175,1.175C49.934,35.67,49.408,35.143,49.408,34.495z M61.443,41.297
	c-0.459-0.458-0.459-1.202,0-1.661l4.209-4.209c0.459-0.458,1.203-0.458,1.662,0c0.459,0.459,0.459,1.203,0,1.661l-4.209,4.209
	c-0.229,0.229-0.529,0.344-0.83,0.344C61.975,41.641,61.674,41.526,61.443,41.297z M31.978,37.088c-0.458-0.458-0.458-1.202,0-1.661
	c0.459-0.458,1.203-0.458,1.661,0l4.21,4.209c0.458,0.459,0.458,1.204,0,1.661c-0.229,0.229-0.53,0.344-0.83,0.344
	c-0.301,0-0.602-0.115-0.831-0.344L31.978,37.088z M50.82,69.1v4.896c0,0.649-0.525,1.175-1.173,1.175
	c-0.649,0-1.175-0.527-1.175-1.175V69.1c0-0.649,0.526-1.175,1.175-1.175C50.295,67.925,50.82,68.451,50.82,69.1z M38.785,62.298
	c0.459,0.458,0.459,1.202,0,1.661l-4.209,4.21c-0.229,0.23-0.53,0.345-0.831,0.345c-0.3,0-0.601-0.116-0.83-0.345
	c-0.459-0.458-0.459-1.203,0-1.662l4.209-4.209C37.583,61.839,38.326,61.839,38.785,62.298z M68.251,66.507
	c0.459,0.459,0.459,1.202,0,1.662c-0.229,0.23-0.528,0.345-0.83,0.345c-0.3,0-0.601-0.116-0.831-0.345l-4.209-4.21
	c-0.459-0.459-0.459-1.202,0-1.661c0.459-0.459,1.202-0.459,1.661,0L68.251,66.507z M32.809,53.063h-5.286
	c-0.649,0-1.175-0.527-1.175-1.176c0-0.648,0.526-1.175,1.175-1.175h5.286c0.649,0,1.175,0.527,1.175,1.175
	C33.983,52.536,33.458,53.062,32.809,53.063z M73.925,51.887c0,0.65-0.527,1.176-1.175,1.176h-6.266
	c-0.65,0-1.176-0.527-1.176-1.176c0-0.648,0.527-1.175,1.176-1.175h6.266C73.398,50.712,73.925,51.238,73.925,51.887z"/>
</svg>
