<?xml version="1.0" encoding="utf-8"?>
<!-- Generator: Adobe Illustrator 17.0.0, SVG Export Plug-In . SVG Version: 6.00 Build 0)  -->
<!DOCTYPE svg PUBLIC "-//W3C//DTD SVG 1.1//EN" "http://www.w3.org/Graphics/SVG/1.1/DTD/svg11.dtd">
<svg version="1.1" id="Capa_1" xmlns="http://www.w3.org/2000/svg" xmlns:xlink="http://www.w3.org/1999/xlink" x="0px" y="0px"
	 width="100px" height="100px" viewBox="0 0 100 100" enable-background="new 0 0 100 100" xml:space="preserve">
<path d="M26.168,62.416c0-13.601,11.062-24.665,24.663-24.665c13.599,0,24.665,11.064,24.665,24.665
	c0,1.363-1.106,2.465-2.469,2.465c-1.363,0-2.465-1.104-2.465-2.465c0-10.878-8.852-19.729-19.731-19.729
	s-19.731,8.849-19.731,19.729c0,1.363-1.104,2.465-2.467,2.465C27.272,64.881,26.168,63.778,26.168,62.416z M50.831,33.3
	c1.36,0,2.467-1.106,2.467-2.467V17.268c0-1.363-1.104-2.467-2.467-2.467s-2.465,1.102-2.465,2.467v13.565
	C48.364,32.193,49.468,33.3,50.831,33.3z M27.259,42.204c0.964-0.964,0.964-2.526,0-3.487l-9.624-9.626
	c-0.964-0.962-2.526-0.962-3.487,0c-0.964,0.964-0.964,2.526,0,3.487l9.624,9.626c0.481,0.481,1.113,0.722,1.745,0.722
	C26.147,42.926,26.779,42.685,27.259,42.204z M86.69,29.088c-0.964-0.962-2.521-0.962-3.485,0l-8.1,8.1
	c-0.964,0.964-0.964,2.526,0,3.487c0.481,0.481,1.113,0.722,1.743,0.722c0.634,0,1.266-0.241,1.745-0.722l8.098-8.1
	C87.654,31.614,87.654,30.054,86.69,29.088z M74.586,68.649H27.075c-1.36,0-2.467,1.102-2.467,2.467
	c0,1.365,1.104,2.467,2.467,2.467h47.512c1.363,0,2.469-1.102,2.469-2.467C77.051,69.754,75.949,68.649,74.586,68.649z
	 M68.712,83.858H32.949c-1.363,0-2.467,1.102-2.467,2.469c0,1.36,1.104,2.467,2.467,2.467h35.763c1.358,0,2.467-1.104,2.467-2.467
	C71.179,84.964,70.07,83.858,68.712,83.858z"/>
</svg>
