<?xml version="1.0" encoding="utf-8"?>
<!-- Generator: Adobe Illustrator 17.0.0, SVG Export Plug-In . SVG Version: 6.00 Build 0)  -->
<!DOCTYPE svg PUBLIC "-//W3C//DTD SVG 1.1//EN" "http://www.w3.org/Graphics/SVG/1.1/DTD/svg11.dtd">
<svg version="1.1" id="Capa_1" xmlns="http://www.w3.org/2000/svg" xmlns:xlink="http://www.w3.org/1999/xlink" x="0px" y="0px"
	 width="100px" height="100px" viewBox="0 0 100 100" enable-background="new 0 0 100 100" xml:space="preserve">
<path d="M34.129,40.615c0,0.649-0.158,1.175-0.352,1.175h-14.23c-0.195,0-0.353-0.526-0.353-1.175s0.157-1.175,0.353-1.175h14.23
	C33.97,39.44,34.129,39.965,34.129,40.615z M33.18,46.489H16.012c-0.235,0-0.425,0.526-0.425,1.175s0.191,1.175,0.425,1.175H33.18
	c0.233,0,0.424-0.526,0.424-1.175C33.604,47.014,33.413,46.489,33.18,46.489z M33.264,53.831h-13.73
	c-0.187,0-0.339,0.526-0.339,1.175s0.152,1.176,0.339,1.176h13.73c0.187,0,0.34-0.527,0.34-1.176
	C33.604,54.355,33.452,53.831,33.264,53.831z M44.011,68.76c0,1.865,1.513,3.379,3.378,3.379c1.865,0,3.376-1.514,3.376-3.379
	c0-1.863-3.376-6.9-3.376-6.9S44.011,66.896,44.011,68.76z M58.549,79.039c0,1.865,1.512,3.379,3.377,3.379
	c1.865,0,3.377-1.514,3.377-3.379s-3.377-6.9-3.377-6.9S58.549,77.174,58.549,79.039z M84.414,42.921
	c0,7.133-5.803,12.938-12.938,12.938c-0.801,0-1.613-0.078-2.422-0.234c-1.791,2.56-4.687,4.074-7.834,4.074
	c-3.722,0-7.121-2.2-8.671-5.543c-1.125,0.452-2.336,0.687-3.542,0.687c-5.274,0-9.565-4.292-9.565-9.567
	c0-5.274,4.291-9.566,9.565-9.566c0.711,0,1.419,0.079,2.109,0.236c1.445-3.593,4.93-5.965,8.861-5.965
	c1.865,0,3.724,0.562,5.283,1.593c1.902-1.044,4.041-1.593,6.213-1.593C78.607,29.981,84.412,35.786,84.414,42.921z M81.528,42.924
	c0-5.545-4.512-10.055-10.055-10.055c-1.959,0-3.861,0.569-5.505,1.647c-0.237,0.155-0.511,0.236-0.792,0.236
	c-0.338,0-0.666-0.119-0.926-0.336c-1.197-0.998-2.713-1.548-4.273-1.548c-3.141,0-5.819,2.14-6.51,5.204
	c-0.094,0.415-0.363,0.765-0.74,0.961c-0.203,0.107-0.436,0.163-0.668,0.163c-0.188,0-0.369-0.035-0.543-0.105
	c-0.805-0.328-1.65-0.493-2.511-0.493c-3.683,0-6.68,2.996-6.68,6.68c0,3.684,2.997,6.681,6.68,6.681
	c1.263,0,2.499-0.36,3.573-1.045c0.23-0.148,0.499-0.226,0.773-0.226c0.186,0,0.366,0.036,0.537,0.104
	c0.425,0.169,0.75,0.538,0.862,0.986c0.75,2.966,3.41,5.037,6.466,5.037c2.46,0,4.715-1.349,5.885-3.518
	c0.252-0.467,0.74-0.759,1.271-0.759c0.132,0,0.263,0.019,0.39,0.055c0.904,0.253,1.816,0.382,2.711,0.382
	C77.016,52.975,81.525,48.465,81.528,42.924z"/>
</svg>
