<?xml version="1.0" encoding="utf-8"?>
<!-- Generator: Adobe Illustrator 17.0.0, SVG Export Plug-In . SVG Version: 6.00 Build 0)  -->
<!DOCTYPE svg PUBLIC "-//W3C//DTD SVG 1.1//EN" "http://www.w3.org/Graphics/SVG/1.1/DTD/svg11.dtd">
<svg version="1.1" id="Capa_1" xmlns="http://www.w3.org/2000/svg" xmlns:xlink="http://www.w3.org/1999/xlink" x="0px" y="0px"
	 width="100px" height="100px" viewBox="0 0 100 100" enable-background="new 0 0 100 100" xml:space="preserve">
<path d="M60.801,62.791c0,2.758-2.234,4.993-4.992,4.993s-4.992-2.236-4.992-4.993c0-0.975,0.289-1.875,0.771-2.643H28.006
	c-0.649,0-1.175-0.527-1.175-1.176s0.527-1.175,1.175-1.175h27.9c0.036,0,0.065,0.019,0.098,0.021
	C58.668,57.923,60.801,60.102,60.801,62.791z M27.271,45.757h21.77c0.136,0.011,0.266,0.041,0.404,0.041
	c2.757,0,4.993-2.235,4.993-4.993s-2.235-4.993-4.993-4.993s-4.993,2.235-4.993,4.993c0,0.958,0.283,1.843,0.751,2.603H27.271
	c-0.648,0-1.174,0.526-1.174,1.175S26.623,45.757,27.271,45.757z M66.92,43.407c-2.758,0-4.993,2.235-4.993,4.993
	c0,0.974,0.29,1.875,0.772,2.643H27.37c-0.649,0-1.175,0.525-1.175,1.175c0,0.65,0.525,1.175,1.175,1.175h39.647
	c0.034,0,0.062-0.017,0.098-0.02c2.664-0.105,4.797-2.283,4.797-4.973C71.912,45.643,69.677,43.407,66.92,43.407z"/>
</svg>
